<svg xmlns="http://www.w3.org/2000/svg" xmlns:xlink="http://www.w3.org/1999/xlink" version="1.1" id="Layer_1" x="0px" y="0px" viewBox="0 0 750 750" style="enable-background:new 0 0 750 750;" xml:space="preserve">
<style type="text/css">
	.st0{fill:#FED710;}
	.st1{fill:none;stroke:#CCDDE2;stroke-width:3;stroke-miterlimit:10;}
	.st2{fill:#FFFFFF;stroke:#11316C;stroke-width:3;stroke-miterlimit:10;}
	.st3{fill:none;stroke:#11316C;stroke-width:3;stroke-miterlimit:10;}
	.st4{fill:none;stroke:#FED710;stroke-width:3;stroke-linecap:round;stroke-miterlimit:10;}
	.st5{fill:#11316C;stroke:#11316C;stroke-miterlimit:10;}
	.st6{fill:#11316C;stroke:#11316C;stroke-width:3;stroke-linejoin:round;stroke-miterlimit:10;}
	.st7{fill:#FED710;stroke:#FED710;stroke-width:3;stroke-linecap:round;stroke-linejoin:round;stroke-miterlimit:10;}
	.st8{fill:none;stroke:#000000;stroke-width:2;stroke-miterlimit:10;}
	.st9{fill:#11316C;}
	.st10{opacity:0.53;fill:#FFFFFF;enable-background:new    ;}
	.st11{fill:#FFFFFF;}
	.st12{fill:#2E2E2E;}
	.st13{fill:none;stroke:#000000;stroke-width:3;stroke-miterlimit:10;}
	.st14{fill:#FED710;stroke:#000000;stroke-width:3;stroke-miterlimit:10;}
	.st15{fill:#11316C;stroke:#000000;stroke-width:3;stroke-miterlimit:10;}
	.st16{fill:#FAF5E4;stroke:#000000;stroke-width:3;stroke-miterlimit:10;}
	.st17{fill:none;stroke:#000000;stroke-width:3.15;stroke-miterlimit:10;}
	.st18{fill:none;stroke:#11316C;stroke-miterlimit:10;}
	.st19{font-family:'Poppins-Regular';}
	.st20{font-size:12.7521px;}
</style>
<path class="st0" d="M385.1,683.3l68.6,1.5l9.7,34.8l-102.7-0.8c0,0,1.1-18.5,18.4-19.8c17.3-1.3,11.1-2.3,11.1-2.3L385.1,683.3z"/>
<path class="st0" d="M468.9,683.3l67.3,1.5l18,34.8l-105-0.8c0,0,1.1-21.3,18.4-19.8C485.7,700.6,468.9,683.3,468.9,683.3z"/>
<g>
	<g>
		<path class="st1" d="M163,383c22.8-31.8,56.9-46.2,56.9-46.2c1.1-0.5-3.6-44-3.7-47.1c-1.4-50.9,7-103.9,45.3-140.6    c47.7-45.8,134.2-55.4,189.1-17c0.2,0.1,0.4,0.1,0.5-0.1c1.8-2.3,18-15,19.5-15.9c10.2-6.2,21.8-9.9,33.7-10.7    c48-3.5,92,34.3,110,79.9s13.9,149.6-19.2,179.6"/>
		<g>
			<path class="st2" d="M375.2,318.5h-232c-5.9,0-10.7-4.8-10.7-10.7V51.9h248.2v261C380.7,316,378.3,318.5,375.2,318.5z"/>
			<path class="st3" d="M180.3,136.4h-16.8c-2.5,0-4.6-2-4.6-4.6v-16.8c0-2.5,2-4.6,4.6-4.6h16.8c2.5,0,4.6,2,4.6,4.6v16.8     C184.9,134.4,182.9,136.4,180.3,136.4z"/>
			<path class="st3" d="M180.3,188.6h-16.8c-2.5,0-4.6-2-4.6-4.6v-16.8c0-2.5,2-4.6,4.6-4.6h16.8c2.5,0,4.6,2,4.6,4.6v16.8     C184.9,186.6,182.9,188.6,180.3,188.6z"/>
			<path class="st3" d="M180.3,244h-16.8c-2.5,0-4.6-2-4.6-4.6v-16.8c0-2.5,2-4.6,4.6-4.6h16.8c2.5,0,4.6,2,4.6,4.6v16.8     C184.9,242,182.9,244,180.3,244z"/>
			<path class="st4" d="M193.2,215.5l-20.6,20.6c-0.4,0.4-1.1,0.4-1.6,0l-9.9-9.9"/>
			<path class="st4" d="M193.2,108.4L172.6,129c-0.4,0.4-1.1,0.4-1.6,0l-9.9-9.9"/>
			<rect x="233.6" y="251.5" class="st5" width="10.1" height="34.4"/>
			<rect x="255.8" y="217.1" class="st6" width="10.1" height="68.9"/>
			<rect x="277.9" y="236.4" class="st7" width="10.1" height="49.6"/>
			<rect x="300.1" y="201.7" class="st6" width="10.1" height="84.2"/>
			<rect x="322.2" y="225" class="st5" width="10.1" height="60.9"/>
		</g>
		<path class="st8" d="M558.2,239.2l6.3,17.6c-3,7.6-14.1,24.8-28.4,21.8c-12-2.5-11.4-12.2-10.9-15.3c0.1-0.8,0.2-1.6,0.2-2.4    l0.5-14.1"/>
		<path class="st8" d="M515.5,233c0.7,3,2.1,6.7,9.5,4.6"/>
		<path class="st9" d="M507.9,180.9l0.4-1.1c0.7,0.1,1.4,0,2-0.3c0.6-0.3,1.1-0.7,1.5-1.3c1.5,1.5,3.5,2.4,5.6,2.5    c5.2,0.3,17.1-5.9,36.4,9.7c0,0,6.2,3.2,10.1,1.5c0.1-0.1,0.2-0.1,0.3-0.1c0.1,0,0.2,0.1,0.3,0.1c0.1,0.1,0.1,0.2,0.2,0.3    c0,0.1,0,0.2,0,0.3c-0.8,2-0.7,3.7,0.7,6.1c5.4,9.6,4.1,23.1-0.8,33.1c-1.2,2.4-2.8,4.6-4.7,6.5c-1,0.7-12.6,5.7-12.6,5.2    c0,0-0.1-5.4-0.1-6.7c1.3-0.2,2.6-0.6,3.8-1.1c4.6-1.4,8.7-4.2,7.5-9.7c-0.2-1.1-0.7-2.2-1.5-3.1c-3.6-4.3-9.5-0.9-12.7,2.8    c-0.4,0.2-0.7,0.4-1,0.7c0.7-2,1.4-4,2-6c1.1-3.3,2.2-6.6,3.3-9.9c0.2-0.6,1.7-3.6,1.4-4.1c0,0-3.3-6.1-19.6-5.7    c-11.8,0.3-10-6.9-14.6-4.8c-1.1,0.5-2,1.3-2.8,2.3c-2.6-1.5-4.6-3.7-5.8-6.5c-1.2-2.7-1.5-5.7-0.9-8.6    C507.1,182.4,507.6,181.7,507.9,180.9z"/>
		<path d="M515.1,217.9c0.4-1.1-0.1-2.4-1.3-2.9c-1.1-0.4-2.4,0.1-2.9,1.3c-0.4,1.1,0.1,2.4,1.3,2.9    C513.3,219.6,514.6,219,515.1,217.9z"/>
		<path class="st10" d="M516.4,215.5c1.3-3.4-0.4-7.3-3.8-8.6c-3.4-1.3-7.3,0.4-8.6,3.8c-1.3,3.4,0.4,7.3,3.8,8.6    C511.2,220.7,515.1,219,516.4,215.5z"/>
		<path class="st8" d="M531.6,246.1c-3.4,1-6.9,1.5-10.5,1.5c-11.3-0.6-16.8-13-16.4-22.8c0.3-8.1,3-16.1,6.5-23.3    c0.4-0.7,0.7-1.5,1.2-2.3c0,0,0-0.1,0.1-0.1c0.2-0.3,0.4-0.7,0.6-1c0.7-1,1.7-1.8,2.8-2.3c4.6-2.1,2.8,5.1,14.6,4.8    c16.3-0.4,19.6,5.7,19.6,5.7c0.3,0.5-1.2,3.6-1.4,4.1c-1.1,3.3-2.2,6.6-3.3,9.9c-0.7,2-1.3,4-2,6c-0.2,0.6-0.3,1.1-0.6,1.6    c0.4-0.8,1-1.6,1.6-2.3c3.2-3.7,9.1-7.1,12.7-2.8c0.7,0.9,1.2,2,1.5,3.1c1.2,5.5-3,8.3-7.5,9.7c-1.2,0.3-2.3,0.6-3.5,0.8    c-0.1,0-0.2,0-0.3,0l0,0.3c0,1.3,0.1,6.7,0.1,6.7c0,0.5,11.6-4.5,12.6-5.2c3.9-2.5,7-6,9.1-10.1c4.8-10,6.2-23.6,0.8-33.1    c-1.4-2.4-1.4-4.1-0.7-6.1c0-0.1,0-0.2,0-0.3c0-0.1-0.1-0.2-0.2-0.3c-0.1-0.1-0.2-0.1-0.3-0.1c-0.1,0-0.2,0-0.3,0.1    c-3.9,1.7-10.1-1.5-10.1-1.5c-19.3-15.7-31.2-9.4-36.4-9.7c-5.2-0.3-7.8-5.1-7.8-5.1l-1.8,5.2c-0.1,0.4-0.3,0.7-0.5,1    c-0.4,0.6-0.9,1-1.5,1.3c-0.6,0.3-1.3,0.4-2,0.3c-0.3,0-0.5-0.1-0.8-0.2l-0.2-0.1c-0.4,1.1-0.7,2.2-1,3.3    c-0.6,2.9-0.3,5.9,0.9,8.6c1.2,2.7,3.2,5,5.8,6.5"/>
		<path d="M530.6,224.8c0.4-1.1-0.1-2.4-1.3-2.9c-1.1-0.4-2.4,0.1-2.9,1.3c-0.4,1.1,0.1,2.4,1.3,2.9    C528.8,226.5,530.1,225.9,530.6,224.8z"/>
		<path class="st8" d="M518.4,225c0,0-4.8-1.3-3.2-3.3c2.3-0.8,6.2-6.9,5.1-6.9"/>
		<path class="st8" d="M538.4,212.9c-3.1-6.8-11.6-5.6-11.6-5.6"/>
		<path class="st8" d="M536.2,222.9c1.6-4.1-0.4-8.6-4.5-10.2c-4.1-1.6-8.6,0.4-10.2,4.5c-1.6,4.1,0.4,8.6,4.5,10.2    C530.1,229,534.6,227,536.2,222.9z"/>
		<path class="st8" d="M517.5,216c1.6-4.1-0.4-8.6-4.5-10.2c-4.1-1.6-8.6,0.4-10.2,4.5c-1.6,4.1,0.4,8.6,4.5,10.2    C511.4,222,515.9,220,517.5,216z"/>
		<path class="st11" d="M514.8,211.1c0.5,1.2,0.6,2.6,0.1,3.8c-0.5,1.3-1.4,2.3-2.6,2.8c-1.2,0.6-2.6,0.6-3.9,0.1l-0.1,0    c-1.2-0.5-2.2-1.5-2.7-2.7c-0.5-1.2-0.5-2.6-0.1-3.8c0.5-1.2,1.4-2.2,2.6-2.8s2.5-0.6,3.8-0.2l0.1,0    C513.2,208.9,514.2,209.9,514.8,211.1z M512.5,206.9c-1.6-0.6-3.5-0.6-5.1,0.2c-1.6,0.7-2.8,2-3.5,3.7c-0.6,1.6-0.6,3.5,0.2,5.1    c0.7,1.6,2,2.8,3.7,3.5l0.1,0c1.6,0.6,3.5,0.6,5.1-0.2c1.6-0.7,2.8-2,3.5-3.7c0.6-1.6,0.6-3.5-0.2-5.1    C515.5,208.8,514.2,207.6,512.5,206.9L512.5,206.9z"/>
		<path class="st8" d="M518.4,213.7l3.8,1.8"/>
		<path class="st10" d="M535.1,222.5c1.3-3.4-0.4-7.3-3.8-8.6c-3.4-1.3-7.3,0.4-8.6,3.8c-1.3,3.4,0.4,7.3,3.8,8.6    C529.9,227.6,533.7,225.9,535.1,222.5z"/>
		<path class="st1" d="M142.5,438.2c1.2-12.5,4.4-24.8,9.5-36.3c0.5-1.1,1-2.2,1.5-3.2"/>
		<path class="st1" d="M201.8,570.6c-5.5-5-10.7-10.1-15.3-15.3"/>
		<path class="st9" d="M661.3,421.9c0,3.5,0,7-0.2,10.5c-1,21.9-5.7,44.4-17.4,62.8c-2.1,3.4-4.5,6.6-7.1,9.7    c-24.9-3.3-28.6-28.7-57.4-43c-34.5-17.2-90.9-11.1-90.9-11.1l27.8-25.7c-1.5-77.3-58.2-72.5-58.2-72.5l-2.9,7.1    c2.2-6.4,4.4-12.4,6.6-17.9l0.1-0.3c26.3-65.3,53.5-73.3,74.7-82.8c5.1-1.2,10.2-1.8,15.4-1.8c54.1-0.3,85.9,54.8,99.8,99.2    c3.5,11.1,8.8,34.7,9.5,61.3C661.2,418.9,661.3,420.4,661.3,421.9z"/>
		<path class="st0" d="M693.1,710.7c-4.2,5.8-11.1,8.9-18.3,8.9h-82.1c-3.2,0-6.3-0.6-9.2-1.8c-2.9-1.2-5.5-3.1-7.7-5.4c0,0,0,0,0,0    c-0.3-0.3-0.6-0.6-0.8-0.9c-2.6-3.2-4.2-7-4.6-11.1c-0.4-3.7,2.4-7.1,6.1-6.9c1.4,0.1,2.8,0.6,3.8,1.6c1,1,1.7,2.3,1.8,3.7    c0,0.3,0.1,0.6,0.1,0.9c0.3,1.7,1,3.3,2.2,4.6c1,1.2,2.2,2.1,3.6,2.7c1.4,0.6,2.9,0.9,4.4,0.8h82.8c1.5,0,3-0.3,4.3-0.9    c1.4-0.6,2.6-1.5,3.6-2.6c1.1-1.3,1.9-2.8,2.2-4.5s0.2-3.4-0.3-5l-37-110c-0.3-0.8-0.7-1.7-1.1-2.5c-2.2-4.6-5.6-8.5-9.9-11.1    c-4.3-2.7-9.3-4.1-14.4-4c-15.6,0.2-35.3,0.2-37.2,0.2c-41.4-0.2-60.3-0.2-70.7,0.1c0.7-2.5,2-4.9,3.8-6.9c0,0,0,0,0-0.1    c2.5-2.7,6-4.3,9.7-4.6c15.4-1.3,30.6-3.6,45.3-7.6c26.1-7.1,50.9-19.2,68.2-38.7c8.4-9.4,14.8-20.5,18.7-32.5    c3-9.5,4.9-19.4,5.7-29.4c0.3-3.2,0.4-6.3,0.5-9.5v-0.1c0-0.7,0-1.5,0-2.2c0.1-4.6-0.1-9.1-0.6-13.6c4.5,0,8.8,1.8,12.1,5    c0.3,0.7,0.5,1.5,0.6,2.3c0.1,0.7,0.2,1.5,0.2,2.3v89.4c0,6.1-1.2,12.2-3.5,17.8c-2.3,5.6-5.8,10.8-10.1,15.1    c-7.2,7.1-9.2,17.9-5.8,27.4L696.2,691c1.1,3.3,1.4,6.8,0.9,10.2C696.5,704.6,695.2,707.9,693.1,710.7z"/>
		<path class="st12" d="M186.5,707.9V457.2h15.3V708L186.5,707.9z"/>
		<path class="st13" d="M489.8,450c11-1.2,23.7-2.6,35.9-2.3"/>
		<path class="st13" d="M429.9,461.1c-19.5,4.9-38.4,12-54.5,23.8c-27.1,19.7-39.5,56.6-28.4,88.5c0,0,43.6,125.7,43.6,125.7h-11.5    c-2.5,0-4.9,0.5-7.2,1.4c-2.3,0.9-4.4,2.3-6.1,4.1c-3.4,3.4-5.1,9-5.1,14.2h103.2l-39.2-128.2c-1-3.2-1.2-6.5-0.6-9.8    s1.9-6.3,3.8-9c2-2.7,4.5-4.8,7.5-6.3c3-1.5,6.2-2.2,9.5-2.2c22.3,0.6,43.1,1.5,65.7,0.5"/>
		<path class="st13" d="M662.9,432.6v-0.1c-1-27-2.4-53.6-9.7-77.2c-13.9-44.4-45.7-99.5-99.8-99.2c-5.2,0-10.4,0.6-15.4,1.8    c-35.7,8.5-60.5,45-74.7,82.8l-0.1,0.3c-1.4,3.6-2.6,7.2-3.8,10.8c-0.8,2.4-1.7,4.8-2.9,7.1c-4.3,8.8-11.2,16-19.8,20.8    c-8.5,4.8-18.3,6.9-28.1,6c-65.5-6-151.9-9.4-179.1,36.7"/>
		<path class="st13" d="M555.6,382.5c-9.5,11.5-19.6,22.6-30,33.4c-21.3,22-39.6,45.5-72.6,47c-26.3,1.3-51.4-8.8-76.3-15.8    c-26.6-7.5-40.1-13.5-64.9-21c-7.1-2.2-14.6-3.3-22-3.5l-25,0.2"/>
		<path class="st13" d="M458.2,700.6c2.4-1.1,5-1.6,7.6-1.6h11.5c0,0-24-46.7-43.2-77.8"/>
		<path class="st13" d="M474,563.8l80.3,155.8h-90.9h-16.5"/>
		<path class="st13" d="M693.1,710.7c-4.2,5.8-11.1,8.9-18.3,8.9h-82.1c-6.8,0-13.5-2.8-17.7-8.1c-2.6-3.2-4.2-7-4.6-11.1    c-0.4-3.7,2.4-7.1,6.1-6.9c1.4,0.1,2.8,0.6,3.8,1.6c1,1,1.7,2.3,1.8,3.7c0.2,2,1,3.9,2.3,5.5c1,1.1,2.2,2,3.6,2.7    c1.4,0.6,2.9,0.9,4.4,0.9h82.8c1.5,0,3-0.3,4.3-0.9c1.4-0.6,2.6-1.5,3.6-2.6c1.1-1.3,1.9-2.8,2.2-4.5c0.3-1.7,0.2-3.4-0.3-5    l-37-109.9c-1.9-5.2-5.3-9.7-9.9-12.9c-4.5-3.2-10-4.8-15.5-4.8c-15.6,0.2-35.3,0.2-37.2,0.2c-46.1-0.1-64.3-0.1-73.9,0.2    c-0.2,0-0.3,0-0.4-0.1c-0.1-0.1-0.3-0.1-0.4-0.2c-0.1-0.1-0.2-0.2-0.2-0.4c-0.1-0.1-0.1-0.3-0.1-0.4c0-4.3,1.6-8.4,4.4-11.6    c0,0,0,0,0,0c0,0,0,0,0,0c2.5-2.7,6-4.3,9.7-4.5c15.4-1.3,30.6-3.6,45.3-7.6c26.1-7.1,50.9-19.2,68.2-38.7    c8.4-9.4,14.8-20.5,18.7-32.5c3-9.5,4.9-19.4,5.7-29.4c0.3-3.2,0.4-6.3,0.5-9.5v-0.2c0-0.7,0-1.5,0-2.2c0.1-4.6-0.1-9.1-0.6-13.6    c7.5,0,15.1,5.4,16.4,13.1c0.1,0.7,0.2,1.5,0.2,2.3v89.4c0,6.1-1.2,12.2-3.5,17.8c-2.3,5.6-5.8,10.8-10.1,15.1    c-7.2,7.1-9.2,17.9-5.8,27.4L696.1,691c1.1,3.3,1.4,6.8,0.9,10.2C696.5,704.6,695.2,707.9,693.1,710.7z"/>
		<path class="st14" d="M298.5,438.2h-214c-5.2,0-9.5,4.2-9.5,9.5v0c0,5.2,4.2,9.5,9.5,9.5h214c5.2,0,9.5-4.2,9.5-9.5v0    C308,442.5,303.8,438.2,298.5,438.2z"/>
		<path class="st15" d="M237.9,709.1h-86.5c-2.9,0-5.3,2.4-5.3,5.3s2.4,5.3,5.3,5.3h86.5c2.9,0,5.3-2.4,5.3-5.3    S240.9,709.1,237.9,709.1z"/>
		<path class="st13" d="M174.5,429.7v1c0.1,6.6,6.3,7.6,11.6,7.6l102.9-0.1c4.5,0,8.2-3.5,8.2-7.7v-0.2c-0.1-4.1-3.7-7.5-8.2-7.5    c0,0-57.6-0.2-102.2-0.3c-0.8,2.3-2.8,4.1-5.4,5.6C179.4,429.2,177,429.7,174.5,429.7z"/>
		<path class="st11" d="M357.6,319.3l-50.4,30.9c0,0-44.7-16.9-43.6-24.3c1.1-7.4,13.7-38.7,43.6-29.6    C337,305.3,357.6,319.3,357.6,319.3z"/>
		<path class="st13" d="M117.9,337.2c0,1.1,0.3,2.2,0.9,3.1l47.7,80.1c0.6,1,1.4,1.8,2.4,2.4c1,0.6,2,1.1,3.2,1.3    c1.9,0.4,3.9,0.2,5.7-0.6c2.9-1.3,4.6-3.9,4.6-6.6c0-0.3,0-0.7-0.1-1c-0.1-0.7-0.4-1.4-0.8-2.1l-47.7-80.1    c-2.1-3.5-7.1-4.9-11.2-3.1C119.5,332,117.8,334.6,117.9,337.2z"/>
		<path class="st13" d="M246.9,422.8c0,0,5.7-5.5,19-14.2"/>
		<path class="st13" d="M293.7,332.9l-20.9,23.2c-1.5,1.6-3.5,2.6-5.7,2.8c-2.2,0.2-4.3-0.5-6-1.9c-0.9-0.8-1.7-1.7-2.2-2.8    s-0.8-2.3-0.9-3.5c-0.1-1.2,0.2-2.4,0.6-3.5c0.4-1.1,1.1-2.1,2-3l3.8-3.7c0.1-0.2,0.3-0.4,0.5-0.6l2.8-3l23.8-25.8    c2.9-3.2,6.5-5.6,10.6-7c4.1-1.4,8.4-1.8,12.6-1.1l0.4,0.1"/>
		<path class="st13" d="M323.2,339.2h-20.9c-2.4,0-4.7-0.9-6.4-2.6c-1.7-1.7-2.6-4-2.6-6.4s0.9-4.7,2.6-6.4c1.7-1.7,4-2.6,6.4-2.6    H332"/>
		<path class="st13" d="M307.2,339.2c-0.3,3.7-1.7,6.4-3.8,8.3c-5.3,4.8-15.1,4.3-21.9,1"/>
		<path class="st13" d="M267.7,336.9c-6-7.3-4.8-17.1-0.1-24.7c19.3-31.6,56.2-12.1,80.4,1.5c14.4,8.1,28.2,17.3,41.2,27.6    c11.5,9,22.2,19.7,36.1,25.2c8.3,3.2,18.1,4,26.3,0.3"/>
		<path class="st13" d="M303.4,347.4c14.6,10.8,28.6,22.4,41.8,34.9"/>
		<path class="st16" d="M186.5,707.9V457.2h15.3V708"/>
		<path class="st17" d="M272.7,719.6h287.8"/>
	</g>
	<path class="st3" d="M138.6,21.3h236.1c3.3,0,6,2.7,6,6v24.1H132.6V27.3C132.6,24,135.3,21.3,138.6,21.3z"/>
	<circle class="st9" cx="152.1" cy="36.8" r="3.9"/>
	<circle class="st9" cx="169" cy="36.8" r="3.9"/>
	<circle class="st9" cx="185.9" cy="36.8" r="3.9"/>
	<path class="st9" d="M315,129.3h-31.5v31.5c-17.4,0-31.5-14.1-31.5-31.5s14.1-31.5,31.5-31.5S315,111.9,315,129.3z"/>
	<path class="st0" d="M292.5,170.3v-31.5l31.5,0C324.1,156.2,310,170.3,292.5,170.3z"/>
	<polyline class="st4" points="312.7,175.3 318.3,181.3 348.4,181.3  "/>
	<polyline class="st4" points="315,100.8 320.7,94.8 349,94.8  "/>
	<g>
		<text transform="matrix(1 0 0 1 344.3418 110.5273)" class="st18 st19 st20">%</text>
	</g>
	<g>
		<text transform="matrix(1 0 0 1 348.4131 172.1201)" class="st18 st19 st20">%</text>
	</g>
</g>
</svg>