<svg xmlns="http://www.w3.org/2000/svg" xmlns:xlink="http://www.w3.org/1999/xlink" contentStyleType="text/css" data-diagram-type="ACTIVITY" height="1557px" preserveAspectRatio="none" style="width:1673px;height:1557px;background:#FFFFFF;" version="1.1" viewBox="0 0 1673 1557" width="1673px" zoomAndPan="magnify"><title>Collaborative Task Management System - Activity Diagram</title><defs/><g><text fill="#000000" font-family="sans-serif" font-size="14" font-weight="bold" lengthAdjust="spacing" textLength="465.3018" x="602.4114" y="32.9951">Collaborative Task Management System - Activity Diagram</text><ellipse cx="605.0048" cy="57.2969" fill="#43A047" rx="10" ry="10" style="stroke:#222222;stroke-width:1;"/><rect fill="#E3F2FD" height="33.9688" rx="12.5" ry="12.5" style="stroke:#1E88E5;stroke-width:0.5;" width="159.7402" x="525.1346" y="87.2969"/><text fill="#000000" font-family="sans-serif" font-size="12" lengthAdjust="spacing" textLength="139.7402" x="535.1346" y="108.4355">User enters credentials</text><polygon fill="#FFECB3" points="556.1788,141.2656,653.8307,141.2656,665.8307,153.2656,653.8307,165.2656,556.1788,165.2656,544.1788,153.2656,556.1788,141.2656" style="stroke:#FFA000;stroke-width:0.5;"/><text fill="#000000" font-family="sans-serif" font-size="11" lengthAdjust="spacing" textLength="97.6519" x="556.1788" y="157.0737">Valid credentials?</text><text fill="#000000" font-family="sans-serif" font-size="11" lengthAdjust="spacing" textLength="19.0083" x="525.1705" y="150.6714">yes</text><text fill="#000000" font-family="sans-serif" font-size="11" lengthAdjust="spacing" textLength="13.7017" x="665.8307" y="150.6714">no</text><rect fill="#E3F2FD" height="33.9688" rx="12.5" ry="12.5" style="stroke:#1E88E5;stroke-width:0.5;" width="140.3926" x="453.8446" y="175.2656"/><text fill="#000000" font-family="sans-serif" font-size="12" lengthAdjust="spacing" textLength="120.3926" x="463.8446" y="196.4043">Generate JWT token</text><rect fill="#E3F2FD" height="33.9688" rx="12.5" ry="12.5" style="stroke:#1E88E5;stroke-width:0.5;" width="133.3613" x="457.3602" y="229.2344"/><text fill="#000000" font-family="sans-serif" font-size="12" lengthAdjust="spacing" textLength="113.3613" x="467.3602" y="250.373">Display Dashboard</text><rect fill="#E3F2FD" height="33.9688" rx="12.5" ry="12.5" style="stroke:#1E88E5;stroke-width:0.5;" width="143.4629" x="614.2372" y="175.2656"/><text fill="#000000" font-family="sans-serif" font-size="12" lengthAdjust="spacing" textLength="123.4629" x="624.2372" y="196.4043">Show error message</text><ellipse cx="685.9686" cy="240.2344" fill="transparent" rx="11" ry="11" style="stroke:#222222;stroke-width:1;"/><ellipse cx="685.9686" cy="240.2344" fill="#222222" rx="6" ry="6" style="stroke:#222222;stroke-width:1;"/><rect fill="#E8F5E9" height="1123.3901" style="stroke:#BDBDBD;stroke-width:1.5;" width="1651.1245" x="11" y="273.2031"/><path d="M97.2002,273.2031 L97.2002,282.5 L87.2002,292.5 L11,292.5 " fill="transparent" style="stroke:#BDBDBD;stroke-width:1.5;"/><text fill="#000000" font-family="sans-serif" font-size="14" lengthAdjust="spacing" textLength="76.2002" x="14" y="287.1982">Dashboard</text><rect fill="#E3F2FD" height="33.9688" rx="12.5" ry="12.5" style="stroke:#1E88E5;stroke-width:0.5;" width="140.75" x="534.6298" y="309.5"/><text fill="#000000" font-family="sans-serif" font-size="12" lengthAdjust="spacing" textLength="120.75" x="544.6298" y="330.6387">View Task Overview</text><rect fill="#E3F2FD" height="33.9688" rx="12.5" ry="12.5" style="stroke:#1E88E5;stroke-width:0.5;" width="161.5098" x="524.2499" y="363.4688"/><text fill="#000000" font-family="sans-serif" font-size="12" lengthAdjust="spacing" textLength="141.5098" x="534.2499" y="384.6074">Check Recent Activities</text><rect fill="#E3F2FD" height="33.9688" rx="12.5" ry="12.5" style="stroke:#1E88E5;stroke-width:0.5;" width="191.2227" x="509.3934" y="417.4375"/><text fill="#000000" font-family="sans-serif" font-size="12" lengthAdjust="spacing" textLength="171.2227" x="519.3934" y="438.5762">Review Performance Metrics</text><polygon fill="#FFECB3" points="570.8715,471.4063,639.1381,471.4063,651.1381,483.4063,639.1381,495.4063,570.8715,495.4063,558.8715,483.4063,570.8715,471.4063" style="stroke:#FFA000;stroke-width:0.5;"/><text fill="#000000" font-family="sans-serif" font-size="11" lengthAdjust="spacing" textLength="68.2666" x="570.8715" y="487.2144">User action?</text><text fill="#000000" font-family="sans-serif" font-size="11" lengthAdjust="spacing" textLength="93.3389" x="465.5326" y="480.812">Create New Task</text><text fill="#000000" font-family="sans-serif" font-size="11" lengthAdjust="spacing" textLength="125.5493" x="651.1381" y="480.812">Manage Existing Tasks</text><rect fill="#E1F5FE" height="747.0854" style="stroke:#BDBDBD;stroke-width:1.5;" width="359.168" x="23" y="505.4063"/><path d="M129.5234,505.4063 L129.5234,514.7031 L119.5234,524.7031 L23,524.7031 " fill="transparent" style="stroke:#BDBDBD;stroke-width:1.5;"/><text fill="#000000" font-family="sans-serif" font-size="14" lengthAdjust="spacing" textLength="96.5234" x="26" y="519.4014">Task Creation</text><rect fill="#E3F2FD" height="33.9688" rx="12.5" ry="12.5" style="stroke:#1E88E5;stroke-width:0.5;" width="129.3242" x="119.2012" y="598.7031"/><text fill="#000000" font-family="sans-serif" font-size="12" lengthAdjust="spacing" textLength="109.3242" x="129.2012" y="619.8418">Enter Task Details</text><rect fill="#E3F2FD" height="33.9688" rx="12.5" ry="12.5" style="stroke:#1E88E5;stroke-width:0.5;" width="139.4551" x="114.1357" y="667.6719"/><text fill="#000000" font-family="sans-serif" font-size="12" lengthAdjust="spacing" textLength="119.4551" x="124.1357" y="688.8105">Select Priority Level</text><rect fill="#E3F2FD" height="33.9688" rx="12.5" ry="12.5" style="stroke:#1E88E5;stroke-width:0.5;" width="96.7695" x="135.4785" y="721.6406"/><text fill="#000000" font-family="sans-serif" font-size="12" lengthAdjust="spacing" textLength="76.7695" x="145.4785" y="742.7793">Set Deadline</text><rect fill="#E3F2FD" height="33.9688" rx="12.5" ry="12.5" style="stroke:#1E88E5;stroke-width:0.5;" width="156.2656" x="105.7305" y="789.5151"/><text fill="#000000" font-family="sans-serif" font-size="12" lengthAdjust="spacing" textLength="136.2656" x="115.7305" y="810.6538">Assign Team Members</text><rect fill="#E3F2FD" height="33.9688" rx="12.5" ry="12.5" style="stroke:#1E88E5;stroke-width:0.5;" width="75.8105" x="145.958" y="858.4839"/><text fill="#000000" font-family="sans-serif" font-size="12" lengthAdjust="spacing" textLength="55.8105" x="155.958" y="879.6226">Add Tags</text><rect fill="#E3F2FD" height="33.9688" rx="12.5" ry="12.5" style="stroke:#1E88E5;stroke-width:0.5;" width="81.1543" x="143.2861" y="927.4526"/><text fill="#000000" font-family="sans-serif" font-size="12" lengthAdjust="spacing" textLength="61.1543" x="153.2861" y="948.5913">Save Task</text><polygon fill="#FFECB3" points="152.7351,996.4214,214.9915,996.4214,226.9915,1008.4214,214.9915,1020.4214,152.7351,1020.4214,140.7351,1008.4214,152.7351,996.4214" style="stroke:#FFA000;stroke-width:0.5;"/><text fill="#000000" font-family="sans-serif" font-size="11" lengthAdjust="spacing" textLength="62.2563" x="152.7351" y="1012.2295">Task Valid?</text><text fill="#000000" font-family="sans-serif" font-size="11" lengthAdjust="spacing" textLength="19.0083" x="121.7268" y="1005.8271">yes</text><text fill="#000000" font-family="sans-serif" font-size="11" lengthAdjust="spacing" textLength="13.7017" x="226.9915" y="1005.8271">no</text><rect fill="#E3F2FD" height="33.9688" rx="12.5" ry="12.5" style="stroke:#1E88E5;stroke-width:0.5;" width="127.8066" x="35.668" y="1030.4214"/><text fill="#000000" font-family="sans-serif" font-size="12" lengthAdjust="spacing" textLength="107.8066" x="45.668" y="1051.5601">Store in Database</text><rect fill="#E3F2FD" height="33.9688" rx="12.5" ry="12.5" style="stroke:#1E88E5;stroke-width:0.5;" width="129.1426" x="35" y="1099.3901"/><text fill="#000000" font-family="sans-serif" font-size="12" lengthAdjust="spacing" textLength="109.1426" x="45" y="1120.5288">Send Notifications</text><rect fill="#E3F2FD" height="33.9688" rx="12.5" ry="12.5" style="stroke:#1E88E5;stroke-width:0.5;" width="168.0254" x="184.1426" y="1030.4214"/><text fill="#000000" font-family="sans-serif" font-size="12" lengthAdjust="spacing" textLength="148.0254" x="194.1426" y="1051.5601">Display Validation Errors</text><rect fill="#E3F2FD" height="33.9688" rx="12.5" ry="12.5" style="stroke:#1E88E5;stroke-width:0.5;" width="141.3887" x="197.4609" y="1099.3901"/><text fill="#000000" font-family="sans-serif" font-size="12" lengthAdjust="spacing" textLength="121.3887" x="207.4609" y="1120.5288">Correct Task Details</text><polygon fill="#FFECB3" points="183.8633,1139.3589,195.8633,1151.3589,183.8633,1163.3589,171.8633,1151.3589,183.8633,1139.3589" style="stroke:#FFA000;stroke-width:0.5;"/><polygon fill="#FFECB3" points="183.8633,541.7031,195.8633,553.7031,183.8633,565.7031,171.8633,553.7031,183.8633,541.7031" style="stroke:#FFA000;stroke-width:0.5;"/><polygon fill="#FFECB3" points="152.7351,1208.4917,214.9915,1208.4917,226.9915,1220.4917,214.9915,1232.4917,152.7351,1232.4917,140.7351,1220.4917,152.7351,1208.4917" style="stroke:#FFA000;stroke-width:0.5;"/><text fill="#000000" font-family="sans-serif" font-size="11" lengthAdjust="spacing" textLength="62.2563" x="152.7351" y="1224.2998">Task Valid?</text><text fill="#000000" font-family="sans-serif" font-size="11" lengthAdjust="spacing" textLength="13.7017" x="226.9915" y="1217.8975">no</text><rect fill="#E8EAF6" height="849.187" style="stroke:#BDBDBD;stroke-width:1.5;" width="1257.9565" x="392.168" y="505.4063"/><path d="M500.9814,505.4063 L500.9814,514.7031 L490.9814,524.7031 L392.168,524.7031 " fill="transparent" style="stroke:#BDBDBD;stroke-width:1.5;"/><text fill="#000000" font-family="sans-serif" font-size="14" lengthAdjust="spacing" textLength="98.8135" x="395.168" y="519.4014">Kanban Board</text><rect fill="#E3F2FD" height="33.9688" rx="12.5" ry="12.5" style="stroke:#1E88E5;stroke-width:0.5;" width="147.2773" x="958.5076" y="541.7031"/><text fill="#000000" font-family="sans-serif" font-size="12" lengthAdjust="spacing" textLength="127.2773" x="968.5076" y="562.8418">View Tasks by Status</text><rect fill="#555555" height="6" rx="2.5" ry="2.5" style="stroke:#555555;stroke-width:1;" width="354.5332" x="854.8796" y="595.6719"/><rect fill="#E3F2FD" height="33.9688" rx="12.5" ry="12.5" style="stroke:#1E88E5;stroke-width:0.5;" width="88.543" x="868.8796" y="621.6719"/><text fill="#000000" font-family="sans-serif" font-size="12" lengthAdjust="spacing" textLength="68.543" x="878.8796" y="642.8105">Filter Tasks</text><rect fill="#E3F2FD" height="33.9688" rx="12.5" ry="12.5" style="stroke:#1E88E5;stroke-width:0.5;" width="82.5488" x="985.4226" y="621.6719"/><text fill="#000000" font-family="sans-serif" font-size="12" lengthAdjust="spacing" textLength="62.5488" x="995.4226" y="642.8105">Sort Tasks</text><rect fill="#E3F2FD" height="33.9688" rx="12.5" ry="12.5" style="stroke:#1E88E5;stroke-width:0.5;" width="99.4414" x="1095.9714" y="621.6719"/><text fill="#000000" font-family="sans-serif" font-size="12" lengthAdjust="spacing" textLength="79.4414" x="1105.9714" y="642.8105">Search Tasks</text><rect fill="#555555" height="6" rx="2.5" ry="2.5" style="stroke:#555555;stroke-width:1;" width="354.5332" x="854.8796" y="675.6406"/><polygon fill="#FFECB3" points="455.6296,726.6406,525.1692,726.6406,537.1692,738.6406,525.1692,750.6406,455.6296,750.6406,443.6296,738.6406,455.6296,726.6406" style="stroke:#FFA000;stroke-width:0.5;"/><text fill="#000000" font-family="sans-serif" font-size="11" lengthAdjust="spacing" textLength="78.3857" x="494.3994" y="760.8511">Update Status</text><text fill="#000000" font-family="sans-serif" font-size="11" lengthAdjust="spacing" textLength="69.5396" x="455.6296" y="742.4487">Task Action?</text><rect fill="#E3F2FD" height="33.9688" rx="12.5" ry="12.5" style="stroke:#1E88E5;stroke-width:0.5;" width="176.4629" x="402.168" y="782.3511"/><text fill="#000000" font-family="sans-serif" font-size="12" lengthAdjust="spacing" textLength="156.4629" x="412.168" y="803.4897">Drag Task to New Column</text><rect fill="#E3F2FD" height="33.9688" rx="12.5" ry="12.5" style="stroke:#1E88E5;stroke-width:0.5;" width="124.5313" x="428.1338" y="851.3198"/><text fill="#000000" font-family="sans-serif" font-size="12" lengthAdjust="spacing" textLength="104.5313" x="438.1338" y="872.4585">Update Database</text><rect fill="#E3F2FD" height="33.9688" rx="12.5" ry="12.5" style="stroke:#1E88E5;stroke-width:0.5;" width="152.6797" x="414.0596" y="920.2886"/><text fill="#000000" font-family="sans-serif" font-size="12" lengthAdjust="spacing" textLength="132.6797" x="424.0596" y="941.4272">Notify Team Members</text><polygon fill="#FFECB3" points="906.9048,726.6406,976.4443,726.6406,988.4443,738.6406,976.4443,750.6406,906.9048,750.6406,894.9048,738.6406,906.9048,726.6406" style="stroke:#FFA000;stroke-width:0.5;"/><text fill="#000000" font-family="sans-serif" font-size="11" lengthAdjust="spacing" textLength="67.9766" x="945.6746" y="760.8511">View Details</text><text fill="#000000" font-family="sans-serif" font-size="11" lengthAdjust="spacing" textLength="69.5396" x="906.9048" y="742.4487">Task Action?</text><text fill="#000000" font-family="sans-serif" font-size="11" lengthAdjust="spacing" textLength="36.1421" x="988.4443" y="736.0464">Delete</text><rect fill="#FFF3E0" height="540.2422" style="stroke:#BDBDBD;stroke-width:1.5;" width="692.0874" x="598.6309" y="782.3511"/><path d="M694.1484,782.3511 L694.1484,791.6479 L684.1484,801.6479 L598.6309,801.6479 " fill="transparent" style="stroke:#BDBDBD;stroke-width:1.5;"/><text fill="#000000" font-family="sans-serif" font-size="14" lengthAdjust="spacing" textLength="85.5176" x="601.6309" y="796.3462">Task Details</text><rect fill="#E3F2FD" height="33.9688" rx="12.5" ry="12.5" style="stroke:#1E88E5;stroke-width:0.5;" width="169.4199" x="856.9646" y="818.6479"/><text fill="#000000" font-family="sans-serif" font-size="12" lengthAdjust="spacing" textLength="149.4199" x="866.9646" y="839.7866">Display Task Information</text><rect fill="#E3F2FD" height="33.9688" rx="12.5" ry="12.5" style="stroke:#1E88E5;stroke-width:0.5;" width="186.7168" x="848.3162" y="887.6167"/><text fill="#000000" font-family="sans-serif" font-size="12" lengthAdjust="spacing" textLength="166.7168" x="858.3162" y="908.7554">Show Assignees &amp; Deadline</text><rect fill="#E3F2FD" height="33.9688" rx="12.5" ry="12.5" style="stroke:#1E88E5;stroke-width:0.5;" width="203.6328" x="839.8582" y="956.5854"/><text fill="#000000" font-family="sans-serif" font-size="12" lengthAdjust="spacing" textLength="183.6328" x="849.8582" y="977.7241">List Comments &amp; Attachments</text><rect fill="#555555" height="6" rx="2.5" ry="2.5" style="stroke:#555555;stroke-width:1;" width="672.0874" x="608.6309" y="1025.5542"/><rect fill="#E3F2FD" height="33.9688" rx="12.5" ry="12.5" style="stroke:#1E88E5;stroke-width:0.5;" width="106.0508" x="649.7275" y="1083.5542"/><text fill="#000000" font-family="sans-serif" font-size="12" lengthAdjust="spacing" textLength="86.0508" x="659.7275" y="1104.6929">Add Comment</text><rect fill="#E3F2FD" height="33.9688" rx="12.5" ry="12.5" style="stroke:#1E88E5;stroke-width:0.5;" width="114.5879" x="645.459" y="1152.5229"/><text fill="#000000" font-family="sans-serif" font-size="12" lengthAdjust="spacing" textLength="94.5879" x="655.459" y="1173.6616">Store Comment</text><rect fill="#E3F2FD" height="33.9688" rx="12.5" ry="12.5" style="stroke:#1E88E5;stroke-width:0.5;" width="160.2441" x="622.6309" y="1218.6245"/><text fill="#000000" font-family="sans-serif" font-size="12" lengthAdjust="spacing" textLength="140.2441" x="632.6309" y="1239.7632">Notify Mentioned Users</text><rect fill="#E3F2FD" height="33.9688" rx="12.5" ry="12.5" style="stroke:#1E88E5;stroke-width:0.5;" width="136.4199" x="792.875" y="1083.5542"/><text fill="#000000" font-family="sans-serif" font-size="12" lengthAdjust="spacing" textLength="116.4199" x="802.875" y="1104.6929">Upload Attachment</text><rect fill="#E3F2FD" height="33.9688" rx="12.5" ry="12.5" style="stroke:#1E88E5;stroke-width:0.5;" width="90.7637" x="815.7031" y="1152.5229"/><text fill="#000000" font-family="sans-serif" font-size="12" lengthAdjust="spacing" textLength="70.7637" x="825.7031" y="1173.6616">Process File</text><rect fill="#E3F2FD" height="33.9688" rx="12.5" ry="12.5" style="stroke:#1E88E5;stroke-width:0.5;" width="92.1348" x="815.0176" y="1218.6245"/><text fill="#000000" font-family="sans-serif" font-size="12" lengthAdjust="spacing" textLength="72.1348" x="825.0176" y="1239.7632">Link to Task</text><rect fill="#E3F2FD" height="33.9688" rx="12.5" ry="12.5" style="stroke:#1E88E5;stroke-width:0.5;" width="120.3535" x="1050.1892" y="1051.5542"/><text fill="#000000" font-family="sans-serif" font-size="12" lengthAdjust="spacing" textLength="100.3535" x="1060.1892" y="1072.6929">Edit Task Details</text><polygon fill="#FFECB3" points="1051.5605,1120.5229,1169.1714,1120.5229,1181.1714,1132.5229,1169.1714,1144.5229,1051.5605,1144.5229,1039.5605,1132.5229,1051.5605,1120.5229" style="stroke:#FFA000;stroke-width:0.5;"/><text fill="#000000" font-family="sans-serif" font-size="11" lengthAdjust="spacing" textLength="117.6108" x="1051.5605" y="1136.3311">User has permission?</text><text fill="#000000" font-family="sans-serif" font-size="11" lengthAdjust="spacing" textLength="19.0083" x="1020.5522" y="1129.9287">yes</text><text fill="#000000" font-family="sans-serif" font-size="11" lengthAdjust="spacing" textLength="13.7017" x="1181.1714" y="1129.9287">no</text><rect fill="#E3F2FD" height="33.9688" rx="12.5" ry="12.5" style="stroke:#1E88E5;stroke-width:0.5;" width="105.4648" x="976.8281" y="1154.5229"/><text fill="#000000" font-family="sans-serif" font-size="12" lengthAdjust="spacing" textLength="85.4648" x="986.8281" y="1175.6616">Save Changes</text><rect fill="#E3F2FD" height="33.9688" rx="12.5" ry="12.5" style="stroke:#1E88E5;stroke-width:0.5;" width="124.5313" x="967.2949" y="1220.6245"/><text fill="#000000" font-family="sans-serif" font-size="12" lengthAdjust="spacing" textLength="104.5313" x="977.2949" y="1241.7632">Update Database</text><rect fill="#E3F2FD" height="33.9688" rx="12.5" ry="12.5" style="stroke:#1E88E5;stroke-width:0.5;" width="155.0938" x="1113.6245" y="1154.5229"/><text fill="#000000" font-family="sans-serif" font-size="12" lengthAdjust="spacing" textLength="135.0938" x="1123.6245" y="1175.6616">Show Permission Error</text><polygon fill="#FFECB3" points="1110.366,1260.5933,1122.366,1272.5933,1110.366,1284.5933,1098.366,1272.5933,1110.366,1260.5933" style="stroke:#FFA000;stroke-width:0.5;"/><rect fill="#555555" height="6" rx="2.5" ry="2.5" style="stroke:#555555;stroke-width:1;" width="672.0874" x="608.6309" y="1304.5933"/><polygon fill="#FFECB3" points="1412.4207,936.5503,1530.0315,936.5503,1542.0315,948.5503,1530.0315,960.5503,1412.4207,960.5503,1400.4207,948.5503,1412.4207,936.5503" style="stroke:#FFA000;stroke-width:0.5;"/><text fill="#000000" font-family="sans-serif" font-size="11" lengthAdjust="spacing" textLength="117.6108" x="1412.4207" y="952.3584">User has permission?</text><text fill="#000000" font-family="sans-serif" font-size="11" lengthAdjust="spacing" textLength="19.0083" x="1381.4124" y="945.9561">yes</text><text fill="#000000" font-family="sans-serif" font-size="11" lengthAdjust="spacing" textLength="13.7017" x="1542.0315" y="945.9561">no</text><rect fill="#E3F2FD" height="33.9688" rx="12.5" ry="12.5" style="stroke:#1E88E5;stroke-width:0.5;" width="121.6484" x="1321.0503" y="970.5503"/><text fill="#000000" font-family="sans-serif" font-size="12" lengthAdjust="spacing" textLength="101.6484" x="1331.0503" y="991.689">Confirm Deletion</text><rect fill="#E3F2FD" height="33.9688" rx="12.5" ry="12.5" style="stroke:#1E88E5;stroke-width:0.5;" width="162.3125" x="1300.7183" y="1039.519"/><text fill="#000000" font-family="sans-serif" font-size="12" lengthAdjust="spacing" textLength="142.3125" x="1310.7183" y="1060.6577">Remove from Database</text><rect fill="#E3F2FD" height="33.9688" rx="12.5" ry="12.5" style="stroke:#1E88E5;stroke-width:0.5;" width="130.3789" x="1316.6851" y="1108.4878"/><text fill="#000000" font-family="sans-serif" font-size="12" lengthAdjust="spacing" textLength="110.3789" x="1326.6851" y="1129.6265">Notify Task Owner</text><rect fill="#E3F2FD" height="33.9688" rx="12.5" ry="12.5" style="stroke:#1E88E5;stroke-width:0.5;" width="155.0938" x="1483.0308" y="970.5503"/><text fill="#000000" font-family="sans-serif" font-size="12" lengthAdjust="spacing" textLength="135.0938" x="1493.0308" y="991.689">Show Permission Error</text><polygon fill="#FFECB3" points="1471.2261,1148.4565,1483.2261,1160.4565,1471.2261,1172.4565,1459.2261,1160.4565,1471.2261,1148.4565" style="stroke:#FFA000;stroke-width:0.5;"/><polygon fill="#FFECB3" points="605.0048,1360.5933,617.0048,1372.5933,605.0048,1384.5933,593.0048,1372.5933,605.0048,1360.5933" style="stroke:#FFA000;stroke-width:0.5;"/><rect fill="#E3F2FD" height="33.9688" rx="12.5" ry="12.5" style="stroke:#1E88E5;stroke-width:0.5;" width="145.5605" x="532.2245" y="1416.5933"/><text fill="#000000" font-family="sans-serif" font-size="12" lengthAdjust="spacing" textLength="125.5605" x="542.2245" y="1437.7319">Return to Dashboard</text><rect fill="#E3F2FD" height="33.9688" rx="12.5" ry="12.5" style="stroke:#1E88E5;stroke-width:0.5;" width="130.2852" x="539.8622" y="1470.562"/><text fill="#000000" font-family="sans-serif" font-size="12" lengthAdjust="spacing" textLength="110.2852" x="549.8622" y="1491.7007">Refresh Task Data</text><ellipse cx="605.0048" cy="1535.5308" fill="transparent" rx="11" ry="11" style="stroke:#222222;stroke-width:1;"/><ellipse cx="605.0048" cy="1535.5308" fill="#222222" rx="6" ry="6" style="stroke:#222222;stroke-width:1;"/><line style="stroke:#555555;stroke-width:1;" x1="605.0048" x2="605.0048" y1="67.2969" y2="87.2969"/><polygon fill="#555555" points="601.0048,77.2969,605.0048,87.2969,609.0048,77.2969,605.0048,81.2969" style="stroke:#555555;stroke-width:1;"/><line style="stroke:#555555;stroke-width:1;" x1="524.0409" x2="524.0409" y1="209.2344" y2="229.2344"/><polygon fill="#555555" points="520.0409,219.2344,524.0409,229.2344,528.0409,219.2344,524.0409,223.2344" style="stroke:#555555;stroke-width:1;"/><line style="stroke:#555555;stroke-width:1;" x1="685.9686" x2="685.9686" y1="209.2344" y2="229.2344"/><polygon fill="#555555" points="681.9686,219.2344,685.9686,229.2344,689.9686,219.2344,685.9686,223.2344" style="stroke:#555555;stroke-width:1;"/><line style="stroke:#555555;stroke-width:1;" x1="544.1788" x2="524.0409" y1="153.2656" y2="153.2656"/><line style="stroke:#555555;stroke-width:1;" x1="524.0409" x2="524.0409" y1="153.2656" y2="175.2656"/><polygon fill="#555555" points="520.0409,165.2656,524.0409,175.2656,528.0409,165.2656,524.0409,169.2656" style="stroke:#555555;stroke-width:1;"/><line style="stroke:#555555;stroke-width:1;" x1="665.8307" x2="685.9686" y1="153.2656" y2="153.2656"/><line style="stroke:#555555;stroke-width:1;" x1="685.9686" x2="685.9686" y1="153.2656" y2="175.2656"/><polygon fill="#555555" points="681.9686,165.2656,685.9686,175.2656,689.9686,165.2656,685.9686,169.2656" style="stroke:#555555;stroke-width:1;"/><line style="stroke:#555555;stroke-width:1;" x1="524.0409" x2="524.0409" y1="263.2031" y2="268.2031"/><line style="stroke:#555555;stroke-width:1;" x1="524.0409" x2="605.0048" y1="268.2031" y2="268.2031"/><line style="stroke:#555555;stroke-width:1;" x1="605.0048" x2="605.0048" y1="268.2031" y2="309.5"/><polygon fill="#555555" points="601.0048,299.5,605.0048,309.5,609.0048,299.5,605.0048,303.5" style="stroke:#555555;stroke-width:1;"/><line style="stroke:#555555;stroke-width:1;" x1="605.0048" x2="605.0048" y1="121.2656" y2="141.2656"/><polygon fill="#555555" points="601.0048,131.2656,605.0048,141.2656,609.0048,131.2656,605.0048,135.2656" style="stroke:#555555;stroke-width:1;"/><line style="stroke:#555555;stroke-width:1;" x1="605.0048" x2="605.0048" y1="343.4688" y2="363.4688"/><polygon fill="#555555" points="601.0048,353.4688,605.0048,363.4688,609.0048,353.4688,605.0048,357.4688" style="stroke:#555555;stroke-width:1;"/><line style="stroke:#555555;stroke-width:1;" x1="605.0048" x2="605.0048" y1="397.4375" y2="417.4375"/><polygon fill="#555555" points="601.0048,407.4375,605.0048,417.4375,609.0048,407.4375,605.0048,411.4375" style="stroke:#555555;stroke-width:1;"/><line style="stroke:#555555;stroke-width:1;" x1="183.8633" x2="183.8633" y1="632.6719" y2="667.6719"/><polygon fill="#555555" points="179.8633,657.6719,183.8633,667.6719,187.8633,657.6719,183.8633,661.6719" style="stroke:#555555;stroke-width:1;"/><line style="stroke:#555555;stroke-width:1;" x1="183.8633" x2="183.8633" y1="701.6406" y2="721.6406"/><polygon fill="#555555" points="179.8633,711.6406,183.8633,721.6406,187.8633,711.6406,183.8633,715.6406" style="stroke:#555555;stroke-width:1;"/><line style="stroke:#555555;stroke-width:1;" x1="183.8633" x2="183.8633" y1="755.6094" y2="789.5151"/><polygon fill="#555555" points="179.8633,779.5151,183.8633,789.5151,187.8633,779.5151,183.8633,783.5151" style="stroke:#555555;stroke-width:1;"/><line style="stroke:#555555;stroke-width:1;" x1="183.8633" x2="183.8633" y1="823.4839" y2="858.4839"/><polygon fill="#555555" points="179.8633,848.4839,183.8633,858.4839,187.8633,848.4839,183.8633,852.4839" style="stroke:#555555;stroke-width:1;"/><line style="stroke:#555555;stroke-width:1;" x1="183.8633" x2="183.8633" y1="892.4526" y2="927.4526"/><polygon fill="#555555" points="179.8633,917.4526,183.8633,927.4526,187.8633,917.4526,183.8633,921.4526" style="stroke:#555555;stroke-width:1;"/><line style="stroke:#555555;stroke-width:1;" x1="99.5713" x2="99.5713" y1="1064.3901" y2="1099.3901"/><polygon fill="#555555" points="95.5713,1089.3901,99.5713,1099.3901,103.5713,1089.3901,99.5713,1093.3901" style="stroke:#555555;stroke-width:1;"/><line style="stroke:#555555;stroke-width:1;" x1="268.1553" x2="268.1553" y1="1064.3901" y2="1099.3901"/><polygon fill="#555555" points="264.1553,1089.3901,268.1553,1099.3901,272.1553,1089.3901,268.1553,1093.3901" style="stroke:#555555;stroke-width:1;"/><line style="stroke:#555555;stroke-width:1;" x1="140.7351" x2="99.5713" y1="1008.4214" y2="1008.4214"/><line style="stroke:#555555;stroke-width:1;" x1="99.5713" x2="99.5713" y1="1008.4214" y2="1030.4214"/><polygon fill="#555555" points="95.5713,1020.4214,99.5713,1030.4214,103.5713,1020.4214,99.5713,1024.4214" style="stroke:#555555;stroke-width:1;"/><line style="stroke:#555555;stroke-width:1;" x1="226.9915" x2="268.1553" y1="1008.4214" y2="1008.4214"/><line style="stroke:#555555;stroke-width:1;" x1="268.1553" x2="268.1553" y1="1008.4214" y2="1030.4214"/><polygon fill="#555555" points="264.1553,1020.4214,268.1553,1030.4214,272.1553,1020.4214,268.1553,1024.4214" style="stroke:#555555;stroke-width:1;"/><line style="stroke:#555555;stroke-width:1;" x1="99.5713" x2="99.5713" y1="1133.3589" y2="1151.3589"/><line style="stroke:#555555;stroke-width:1;" x1="99.5713" x2="171.8633" y1="1151.3589" y2="1151.3589"/><polygon fill="#555555" points="161.8633,1147.3589,171.8633,1151.3589,161.8633,1155.3589,165.8633,1151.3589" style="stroke:#555555;stroke-width:1;"/><line style="stroke:#555555;stroke-width:1;" x1="268.1553" x2="268.1553" y1="1133.3589" y2="1151.3589"/><line style="stroke:#555555;stroke-width:1;" x1="268.1553" x2="195.8633" y1="1151.3589" y2="1151.3589"/><polygon fill="#555555" points="205.8633,1147.3589,195.8633,1151.3589,205.8633,1155.3589,201.8633,1151.3589" style="stroke:#555555;stroke-width:1;"/><line style="stroke:#555555;stroke-width:1;" x1="183.8633" x2="183.8633" y1="961.4214" y2="996.4214"/><polygon fill="#555555" points="179.8633,986.4214,183.8633,996.4214,187.8633,986.4214,183.8633,990.4214" style="stroke:#555555;stroke-width:1;"/><line style="stroke:#555555;stroke-width:1;" x1="183.8633" x2="183.8633" y1="565.7031" y2="598.7031"/><polygon fill="#555555" points="179.8633,588.7031,183.8633,598.7031,187.8633,588.7031,183.8633,592.7031" style="stroke:#555555;stroke-width:1;"/><line style="stroke:#555555;stroke-width:1;" x1="226.9915" x2="366.168" y1="1220.4917" y2="1220.4917"/><polygon fill="#555555" points="362.168,882.9839,366.168,872.9839,370.168,882.9839,366.168,878.9839" style="stroke:#555555;stroke-width:1;"/><line style="stroke:#555555;stroke-width:1;" x1="366.168" x2="366.168" y1="553.7031" y2="1220.4917"/><line style="stroke:#555555;stroke-width:1;" x1="366.168" x2="195.8633" y1="553.7031" y2="553.7031"/><polygon fill="#555555" points="205.8633,549.7031,195.8633,553.7031,205.8633,557.7031,201.8633,553.7031" style="stroke:#555555;stroke-width:1;"/><line style="stroke:#555555;stroke-width:1;" x1="183.8633" x2="183.8633" y1="1163.3589" y2="1208.4917"/><polygon fill="#555555" points="179.8633,1198.4917,183.8633,1208.4917,187.8633,1198.4917,183.8633,1202.4917" style="stroke:#555555;stroke-width:1;"/><line style="stroke:#555555;stroke-width:1;" x1="913.1511" x2="913.1511" y1="601.6719" y2="621.6719"/><polygon fill="#555555" points="909.1511,611.6719,913.1511,621.6719,917.1511,611.6719,913.1511,615.6719" style="stroke:#555555;stroke-width:1;"/><line style="stroke:#555555;stroke-width:1;" x1="1026.697" x2="1026.697" y1="601.6719" y2="621.6719"/><polygon fill="#555555" points="1022.697,611.6719,1026.697,621.6719,1030.697,611.6719,1026.697,615.6719" style="stroke:#555555;stroke-width:1;"/><line style="stroke:#555555;stroke-width:1;" x1="1145.6921" x2="1145.6921" y1="601.6719" y2="621.6719"/><polygon fill="#555555" points="1141.6921,611.6719,1145.6921,621.6719,1149.6921,611.6719,1145.6921,615.6719" style="stroke:#555555;stroke-width:1;"/><line style="stroke:#555555;stroke-width:1;" x1="913.1511" x2="913.1511" y1="655.6406" y2="675.6406"/><polygon fill="#555555" points="909.1511,665.6406,913.1511,675.6406,917.1511,665.6406,913.1511,669.6406" style="stroke:#555555;stroke-width:1;"/><line style="stroke:#555555;stroke-width:1;" x1="1026.697" x2="1026.697" y1="655.6406" y2="675.6406"/><polygon fill="#555555" points="1022.697,665.6406,1026.697,675.6406,1030.697,665.6406,1026.697,669.6406" style="stroke:#555555;stroke-width:1;"/><line style="stroke:#555555;stroke-width:1;" x1="1145.6921" x2="1145.6921" y1="655.6406" y2="675.6406"/><polygon fill="#555555" points="1141.6921,665.6406,1145.6921,675.6406,1149.6921,665.6406,1145.6921,669.6406" style="stroke:#555555;stroke-width:1;"/><line style="stroke:#555555;stroke-width:1;" x1="1032.1462" x2="1032.1462" y1="575.6719" y2="595.6719"/><polygon fill="#555555" points="1028.1462,585.6719,1032.1462,595.6719,1036.1462,585.6719,1032.1462,589.6719" style="stroke:#555555;stroke-width:1;"/><line style="stroke:#555555;stroke-width:1;" x1="490.3994" x2="490.3994" y1="816.3198" y2="851.3198"/><polygon fill="#555555" points="486.3994,841.3198,490.3994,851.3198,494.3994,841.3198,490.3994,845.3198" style="stroke:#555555;stroke-width:1;"/><line style="stroke:#555555;stroke-width:1;" x1="490.3994" x2="490.3994" y1="885.2886" y2="920.2886"/><polygon fill="#555555" points="486.3994,910.2886,490.3994,920.2886,494.3994,910.2886,490.3994,914.2886" style="stroke:#555555;stroke-width:1;"/><line style="stroke:#555555;stroke-width:1;" x1="941.6746" x2="941.6746" y1="852.6167" y2="887.6167"/><polygon fill="#555555" points="937.6746,877.6167,941.6746,887.6167,945.6746,877.6167,941.6746,881.6167" style="stroke:#555555;stroke-width:1;"/><line style="stroke:#555555;stroke-width:1;" x1="941.6746" x2="941.6746" y1="921.5854" y2="956.5854"/><polygon fill="#555555" points="937.6746,946.5854,941.6746,956.5854,945.6746,946.5854,941.6746,950.5854" style="stroke:#555555;stroke-width:1;"/><line style="stroke:#555555;stroke-width:1;" x1="702.7529" x2="702.7529" y1="1117.5229" y2="1152.5229"/><polygon fill="#555555" points="698.7529,1142.5229,702.7529,1152.5229,706.7529,1142.5229,702.7529,1146.5229" style="stroke:#555555;stroke-width:1;"/><line style="stroke:#555555;stroke-width:1;" x1="702.7529" x2="702.7529" y1="1186.4917" y2="1218.6245"/><polygon fill="#555555" points="698.7529,1208.6245,702.7529,1218.6245,706.7529,1208.6245,702.7529,1212.6245" style="stroke:#555555;stroke-width:1;"/><line style="stroke:#555555;stroke-width:1;" x1="861.085" x2="861.085" y1="1117.5229" y2="1152.5229"/><polygon fill="#555555" points="857.085,1142.5229,861.085,1152.5229,865.085,1142.5229,861.085,1146.5229" style="stroke:#555555;stroke-width:1;"/><line style="stroke:#555555;stroke-width:1;" x1="861.085" x2="861.085" y1="1186.4917" y2="1218.6245"/><polygon fill="#555555" points="857.085,1208.6245,861.085,1218.6245,865.085,1208.6245,861.085,1212.6245" style="stroke:#555555;stroke-width:1;"/><line style="stroke:#555555;stroke-width:1;" x1="1029.5605" x2="1029.5605" y1="1188.4917" y2="1220.6245"/><polygon fill="#555555" points="1025.5605,1210.6245,1029.5605,1220.6245,1033.5605,1210.6245,1029.5605,1214.6245" style="stroke:#555555;stroke-width:1;"/><line style="stroke:#555555;stroke-width:1;" x1="1039.5605" x2="1029.5605" y1="1132.5229" y2="1132.5229"/><line style="stroke:#555555;stroke-width:1;" x1="1029.5605" x2="1029.5605" y1="1132.5229" y2="1154.5229"/><polygon fill="#555555" points="1025.5605,1144.5229,1029.5605,1154.5229,1033.5605,1144.5229,1029.5605,1148.5229" style="stroke:#555555;stroke-width:1;"/><line style="stroke:#555555;stroke-width:1;" x1="1181.1714" x2="1191.1714" y1="1132.5229" y2="1132.5229"/><line style="stroke:#555555;stroke-width:1;" x1="1191.1714" x2="1191.1714" y1="1132.5229" y2="1154.5229"/><polygon fill="#555555" points="1187.1714,1144.5229,1191.1714,1154.5229,1195.1714,1144.5229,1191.1714,1148.5229" style="stroke:#555555;stroke-width:1;"/><line style="stroke:#555555;stroke-width:1;" x1="1029.5605" x2="1029.5605" y1="1254.5933" y2="1272.5933"/><line style="stroke:#555555;stroke-width:1;" x1="1029.5605" x2="1098.366" y1="1272.5933" y2="1272.5933"/><polygon fill="#555555" points="1088.366,1268.5933,1098.366,1272.5933,1088.366,1276.5933,1092.366,1272.5933" style="stroke:#555555;stroke-width:1;"/><line style="stroke:#555555;stroke-width:1;" x1="1191.1714" x2="1191.1714" y1="1188.4917" y2="1272.5933"/><line style="stroke:#555555;stroke-width:1;" x1="1191.1714" x2="1122.366" y1="1272.5933" y2="1272.5933"/><polygon fill="#555555" points="1132.366,1268.5933,1122.366,1272.5933,1132.366,1276.5933,1128.366,1272.5933" style="stroke:#555555;stroke-width:1;"/><line style="stroke:#555555;stroke-width:1;" x1="1110.366" x2="1110.366" y1="1085.5229" y2="1120.5229"/><polygon fill="#555555" points="1106.366,1110.5229,1110.366,1120.5229,1114.366,1110.5229,1110.366,1114.5229" style="stroke:#555555;stroke-width:1;"/><line style="stroke:#555555;stroke-width:1;" x1="702.7529" x2="702.7529" y1="1031.5542" y2="1083.5542"/><polygon fill="#555555" points="698.7529,1073.5542,702.7529,1083.5542,706.7529,1073.5542,702.7529,1077.5542" style="stroke:#555555;stroke-width:1;"/><line style="stroke:#555555;stroke-width:1;" x1="861.085" x2="861.085" y1="1031.5542" y2="1083.5542"/><polygon fill="#555555" points="857.085,1073.5542,861.085,1083.5542,865.085,1073.5542,861.085,1077.5542" style="stroke:#555555;stroke-width:1;"/><line style="stroke:#555555;stroke-width:1;" x1="1110.366" x2="1110.366" y1="1031.5542" y2="1051.5542"/><polygon fill="#555555" points="1106.366,1041.5542,1110.366,1051.5542,1114.366,1041.5542,1110.366,1045.5542" style="stroke:#555555;stroke-width:1;"/><line style="stroke:#555555;stroke-width:1;" x1="702.7529" x2="702.7529" y1="1252.5933" y2="1304.5933"/><polygon fill="#555555" points="698.7529,1294.5933,702.7529,1304.5933,706.7529,1294.5933,702.7529,1298.5933" style="stroke:#555555;stroke-width:1;"/><line style="stroke:#555555;stroke-width:1;" x1="861.085" x2="861.085" y1="1252.5933" y2="1304.5933"/><polygon fill="#555555" points="857.085,1294.5933,861.085,1304.5933,865.085,1294.5933,861.085,1298.5933" style="stroke:#555555;stroke-width:1;"/><line style="stroke:#555555;stroke-width:1;" x1="1110.366" x2="1110.366" y1="1284.5933" y2="1304.5933"/><polygon fill="#555555" points="1106.366,1294.5933,1110.366,1304.5933,1114.366,1294.5933,1110.366,1298.5933" style="stroke:#555555;stroke-width:1;"/><line style="stroke:#555555;stroke-width:1;" x1="941.6746" x2="941.6746" y1="990.5542" y2="1025.5542"/><polygon fill="#555555" points="937.6746,1015.5542,941.6746,1025.5542,945.6746,1015.5542,941.6746,1019.5542" style="stroke:#555555;stroke-width:1;"/><line style="stroke:#555555;stroke-width:1;" x1="1381.8745" x2="1381.8745" y1="1004.519" y2="1039.519"/><polygon fill="#555555" points="1377.8745,1029.519,1381.8745,1039.519,1385.8745,1029.519,1381.8745,1033.519" style="stroke:#555555;stroke-width:1;"/><line style="stroke:#555555;stroke-width:1;" x1="1381.8745" x2="1381.8745" y1="1073.4878" y2="1108.4878"/><polygon fill="#555555" points="1377.8745,1098.4878,1381.8745,1108.4878,1385.8745,1098.4878,1381.8745,1102.4878" style="stroke:#555555;stroke-width:1;"/><line style="stroke:#555555;stroke-width:1;" x1="1400.4207" x2="1381.8745" y1="948.5503" y2="948.5503"/><line style="stroke:#555555;stroke-width:1;" x1="1381.8745" x2="1381.8745" y1="948.5503" y2="970.5503"/><polygon fill="#555555" points="1377.8745,960.5503,1381.8745,970.5503,1385.8745,960.5503,1381.8745,964.5503" style="stroke:#555555;stroke-width:1;"/><line style="stroke:#555555;stroke-width:1;" x1="1542.0315" x2="1560.5776" y1="948.5503" y2="948.5503"/><line style="stroke:#555555;stroke-width:1;" x1="1560.5776" x2="1560.5776" y1="948.5503" y2="970.5503"/><polygon fill="#555555" points="1556.5776,960.5503,1560.5776,970.5503,1564.5776,960.5503,1560.5776,964.5503" style="stroke:#555555;stroke-width:1;"/><line style="stroke:#555555;stroke-width:1;" x1="1381.8745" x2="1381.8745" y1="1142.4565" y2="1160.4565"/><line style="stroke:#555555;stroke-width:1;" x1="1381.8745" x2="1459.2261" y1="1160.4565" y2="1160.4565"/><polygon fill="#555555" points="1449.2261,1156.4565,1459.2261,1160.4565,1449.2261,1164.4565,1453.2261,1160.4565" style="stroke:#555555;stroke-width:1;"/><line style="stroke:#555555;stroke-width:1;" x1="1560.5776" x2="1560.5776" y1="1004.519" y2="1160.4565"/><line style="stroke:#555555;stroke-width:1;" x1="1560.5776" x2="1483.2261" y1="1160.4565" y2="1160.4565"/><polygon fill="#555555" points="1493.2261,1156.4565,1483.2261,1160.4565,1493.2261,1164.4565,1489.2261,1160.4565" style="stroke:#555555;stroke-width:1;"/><line style="stroke:#555555;stroke-width:1;" x1="490.3994" x2="490.3994" y1="750.6406" y2="782.3511"/><polygon fill="#555555" points="486.3994,772.3511,490.3994,782.3511,494.3994,772.3511,490.3994,776.3511" style="stroke:#555555;stroke-width:1;"/><line style="stroke:#555555;stroke-width:1;" x1="490.3994" x2="490.3994" y1="954.2573" y2="1342.5933"/><polygon fill="#555555" points="486.3994,1332.5933,490.3994,1342.5933,494.3994,1332.5933,490.3994,1336.5933" style="stroke:#555555;stroke-width:1;"/><line style="stroke:#555555;stroke-width:1;" x1="941.6746" x2="941.6746" y1="750.6406" y2="818.6479"/><polygon fill="#555555" points="937.6746,808.6479,941.6746,818.6479,945.6746,808.6479,941.6746,812.6479" style="stroke:#555555;stroke-width:1;"/><line style="stroke:#555555;stroke-width:1;" x1="941.6746" x2="941.6746" y1="1310.5933" y2="1342.5933"/><polygon fill="#555555" points="937.6746,1332.5933,941.6746,1342.5933,945.6746,1332.5933,941.6746,1336.5933" style="stroke:#555555;stroke-width:1;"/><line style="stroke:#555555;stroke-width:1;" x1="537.1692" x2="894.9048" y1="738.6406" y2="738.6406"/><polygon fill="#555555" points="884.9048,734.6406,894.9048,738.6406,884.9048,742.6406,888.9048,738.6406" style="stroke:#555555;stroke-width:1;"/><line style="stroke:#555555;stroke-width:1;" x1="1032.1462" x2="1032.1462" y1="681.6406" y2="706.6406"/><line style="stroke:#555555;stroke-width:1;" x1="1032.1462" x2="490.3994" y1="706.6406" y2="706.6406"/><line style="stroke:#555555;stroke-width:1;" x1="490.3994" x2="490.3994" y1="706.6406" y2="726.6406"/><polygon fill="#555555" points="486.3994,716.6406,490.3994,726.6406,494.3994,716.6406,490.3994,720.6406" style="stroke:#555555;stroke-width:1;"/><line style="stroke:#555555;stroke-width:1;" x1="988.4443" x2="1471.2261" y1="738.6406" y2="738.6406"/><line style="stroke:#555555;stroke-width:1;" x1="1471.2261" x2="1471.2261" y1="738.6406" y2="936.5503"/><polygon fill="#555555" points="1467.2261,926.5503,1471.2261,936.5503,1475.2261,926.5503,1471.2261,930.5503" style="stroke:#555555;stroke-width:1;"/><line style="stroke:#555555;stroke-width:1;" x1="1471.2261" x2="1471.2261" y1="1172.4565" y2="1342.5933"/><polygon fill="#555555" points="1467.2261,1332.5933,1471.2261,1342.5933,1475.2261,1332.5933,1471.2261,1336.5933" style="stroke:#555555;stroke-width:1;"/><line style="stroke:#555555;stroke-width:1;" x1="490.3994" x2="1471.2261" y1="1342.5933" y2="1342.5933"/><line style="stroke:#555555;stroke-width:1;" x1="558.8715" x2="183.8633" y1="483.4063" y2="483.4063"/><line style="stroke:#555555;stroke-width:1;" x1="183.8633" x2="183.8633" y1="483.4063" y2="541.7031"/><polygon fill="#555555" points="179.8633,531.7031,183.8633,541.7031,187.8633,531.7031,183.8633,535.7031" style="stroke:#555555;stroke-width:1;"/><line style="stroke:#555555;stroke-width:1;" x1="651.1381" x2="1032.1462" y1="483.4063" y2="483.4063"/><line style="stroke:#555555;stroke-width:1;" x1="1032.1462" x2="1032.1462" y1="483.4063" y2="541.7031"/><polygon fill="#555555" points="1028.1462,531.7031,1032.1462,541.7031,1036.1462,531.7031,1032.1462,535.7031" style="stroke:#555555;stroke-width:1;"/><line style="stroke:#555555;stroke-width:1;" x1="183.8633" x2="183.8633" y1="1232.4917" y2="1372.5933"/><line style="stroke:#555555;stroke-width:1;" x1="183.8633" x2="593.0048" y1="1372.5933" y2="1372.5933"/><polygon fill="#555555" points="583.0048,1368.5933,593.0048,1372.5933,583.0048,1376.5933,587.0048,1372.5933" style="stroke:#555555;stroke-width:1;"/><line style="stroke:#555555;stroke-width:1;" x1="1032.1462" x2="1032.1462" y1="1342.5933" y2="1372.5933"/><line style="stroke:#555555;stroke-width:1;" x1="1032.1462" x2="617.0048" y1="1372.5933" y2="1372.5933"/><polygon fill="#555555" points="627.0048,1368.5933,617.0048,1372.5933,627.0048,1376.5933,623.0048,1372.5933" style="stroke:#555555;stroke-width:1;"/><line style="stroke:#555555;stroke-width:1;" x1="605.0048" x2="605.0048" y1="451.4063" y2="471.4063"/><polygon fill="#555555" points="601.0048,461.4063,605.0048,471.4063,609.0048,461.4063,605.0048,465.4063" style="stroke:#555555;stroke-width:1;"/><line style="stroke:#555555;stroke-width:1;" x1="605.0048" x2="605.0048" y1="1384.5933" y2="1416.5933"/><polygon fill="#555555" points="601.0048,1406.5933,605.0048,1416.5933,609.0048,1406.5933,605.0048,1410.5933" style="stroke:#555555;stroke-width:1;"/><line style="stroke:#555555;stroke-width:1;" x1="605.0048" x2="605.0048" y1="1450.562" y2="1470.562"/><polygon fill="#555555" points="601.0048,1460.562,605.0048,1470.562,609.0048,1460.562,605.0048,1464.562" style="stroke:#555555;stroke-width:1;"/><line style="stroke:#555555;stroke-width:1;" x1="605.0048" x2="605.0048" y1="1504.5308" y2="1524.5308"/><polygon fill="#555555" points="601.0048,1514.5308,605.0048,1524.5308,609.0048,1514.5308,605.0048,1518.5308" style="stroke:#555555;stroke-width:1;"/><!--SRC=[dLPjRzis4FwkNt78W2tvCC2jwpMDFmn-aOPjIMSaQVUPbiuMOOaqI2QkCVI_xuwI9KgMss5sW8YyvzwVEzdkfDeB8qfOYtItDVf5PGjTQ0E7N3gCefzWYHkf43RQbAA0b8KsietUB7NoLRhZlAV_GpnEtYRB8QGs6PeQzIQ-lOqd0wYb5ALMsPdP98aNy_4t54BhIJ8RZKO3u2SdZAj1xyQpqRlt0w2upMKo_Z3kH6cCFjJ2YVy4mXNPbavgTHxyXB-3q33i-PA_0UoZTjXDRBuOlJr3dDSgMSRleqlvd-KNKIm50bqMOgsD82p2ix0xU11ARB54vU3fQ1sMy7DZ2wZoMp9EVjXg5DrzicY0i6Wif0OpUfIYiDCeaXku_YmAcONtlzw0or71zH7jJGHmznig9Ey8V_pz34xlK4tvUYdjlX3aJzXyhON9fX4M5k5QQQ_sbEi387N6G8dMKi2iPftUHwWokOcY_QdShGrA_ZQPn1_W7pRnMUAXolYlLpIlTFAU5pccEtZ4b0jGvotHUjaZCWnMQFo8g1JX0PsHgHVJ7-ViAo9ITjrakp38ENwiFN8A06s4LpuC3wBZ5SNvXiWJ-pZvOt1Felf0SSHSxohs9JeX2- -_5ZvXWQc3bP7QSClkyHMBZjoHbiWA6lNWUcQjt2fuHgBE0vPhQcWepJBoj-tu4JLZshlcWUlWm_C4w3UzDU6qGP3S8YVMmWRn-41LncIN6vdwmWJUGp8q2YVIUATU0sAcYEsONMXZk433vQlO4vQTroDDIZSVQLllNwDJFDNeGFn5MYVLrhkmPyt-KwYrK31dIdAlR-DPyalJwvQN5jP7eEbrBqryzJzYtwvjH2AB4nqQ82D0R8LKGSEqSVy1XSAaUHV7ZGXyHhqcpxfa_xJFcEnLv6s3xfP6L2MXEVUZGCldfLG1fMhDSpRSUHeS1zdfItyf5b_CkibjAFt9gm5NVesEur7JZ0wjFFHtvKUVbRjavOLKpH2YXHy7HenGzqGCIhlaxSgWcNCYpVqfn0MFdLOterYRc7ObrJWDo-e2Fl0UrWepu3NLSJf0XhefXHPP46hFyiheb5Om40sn9xgNoZUxkoKkkuepUMakJuJpspKN5lPeIadr3fhTMo_jbbhaGcsnP-rRVBkqOjfMhnhtrOxfwGPRP620gftHEbdIodPu4_tFH6cbgOqq9NWxVMO-Ogcf1XkZo-4zUvej_oeyqEluEslsE_c7kRVFVadwqrVwrV28xiKefaRmWgVRZK6RrmoWKAVyEqFl_mK0]--></g></svg>