<svg xmlns="http://www.w3.org/2000/svg" xmlns:xlink="http://www.w3.org/1999/xlink" contentStyleType="text/css" data-diagram-type="ACTIVITY" height="1058px" preserveAspectRatio="none" style="width:1718px;height:1058px;background:#FFFFFF;" version="1.1" viewBox="0 0 1718 1058" width="1718px" zoomAndPan="magnify"><title>Task Assignment and Execution</title><defs/><g><text fill="#000000" font-family="Verdana" font-size="22" font-weight="bold" lengthAdjust="spacing" textLength="394.6787" x="660.2292" y="35.4209">Task Assignment and Execution</text><rect fill="#FFFFFF" height="20.9531" style="stroke:#FFFFFF;stroke-width:1;" width="1695.1372" x="10" y="54.3545"/><rect fill="#E6F7FF" height="997.5781" style="stroke:#E6F7FF;stroke-width:1;" width="781.3828" x="10" y="54.3545"/><ellipse cx="235.6094" cy="90.3076" fill="#3498DB" rx="10" ry="10" style="stroke:#000000;stroke-width:1;"/><rect fill="#FFFFFF" height="33.9688" rx="12.5" ry="12.5" style="stroke:#3498DB;stroke-width:1;" width="121.8242" x="174.6973" y="120.3076"/><text fill="#000000" font-family="Verdana" font-size="12" lengthAdjust="spacing" textLength="101.8242" x="184.6973" y="141.4463">Create New Task</text><rect fill="#FFFFFF" height="33.9688" rx="12.5" ry="12.5" style="stroke:#3498DB;stroke-width:1;" width="197.5742" x="136.8223" y="174.2764"/><text fill="#000000" font-family="Verdana" font-size="12" lengthAdjust="spacing" textLength="177.5742" x="146.8223" y="195.415">Assign Task to Team Member</text><rect fill="#FFFFFF" height="33.9688" rx="12.5" ry="12.5" style="stroke:#3498DB;stroke-width:1;" width="188.8789" x="468.6499" y="380.1826"/><text fill="#000000" font-family="Verdana" font-size="12" lengthAdjust="spacing" textLength="168.8789" x="478.6499" y="401.3213">Receive Decline Notification</text><polygon fill="#FFFFFF" points="535.3584,434.1514,590.8203,434.1514,602.8203,446.1514,590.8203,458.1514,535.3584,458.1514,523.3584,446.1514,535.3584,434.1514" style="stroke:#0B5394;stroke-width:1;"/><text fill="#000000" font-family="Verdana" font-size="11" lengthAdjust="spacing" textLength="55.4619" x="535.3584" y="449.9595">Reassign?</text><text fill="#000000" font-family="Verdana" font-size="11" lengthAdjust="spacing" textLength="19.0083" x="504.3501" y="443.5571">yes</text><text fill="#000000" font-family="Verdana" font-size="11" lengthAdjust="spacing" textLength="13.7017" x="602.8203" y="443.5571">no</text><path d="M499.5332,472.5693 L499.5332,481.1357 L479.5332,485.1357 L499.5332,489.1357 L499.5332,497.7021 A0,0 0 0 0 499.5332,497.7021 L680.5195,497.7021 A0,0 0 0 0 680.5195,497.7021 L680.5195,482.5693 L670.5195,472.5693 L499.5332,472.5693 A0,0 0 0 0 499.5332,472.5693 " fill="#FFFFFF" style="stroke:#000000;stroke-width:1;"/><path d="M670.5195,472.5693 L670.5195,482.5693 L680.5195,482.5693 L670.5195,472.5693 " fill="#FFFFFF" style="stroke:#000000;stroke-width:1;"/><text fill="#000000" font-family="Verdana" font-size="13" lengthAdjust="spacing" textLength="159.9863" x="505.5332" y="489.6362">Back to task assignment</text><rect fill="#FFFFFF" height="33.9688" rx="12.5" ry="12.5" style="stroke:#3498DB;stroke-width:1;" width="204.6113" x="274.9219" y="468.1514"/><text fill="#000000" font-family="Verdana" font-size="12" lengthAdjust="spacing" textLength="184.6113" x="284.9219" y="489.29">Select Different Team Member</text><rect fill="#FFFFFF" height="33.9688" rx="12.5" ry="12.5" style="stroke:#3498DB;stroke-width:1;" width="92.3516" x="692.7754" y="468.1514"/><text fill="#000000" font-family="Verdana" font-size="12" lengthAdjust="spacing" textLength="72.3516" x="702.7754" y="489.29">Cancel Task</text><rect fill="#FFFFFF" height="33.9688" rx="12.5" ry="12.5" style="stroke:#3498DB;stroke-width:1;" width="96.8633" x="690.5195" y="537.1201"/><text fill="#000000" font-family="Verdana" font-size="12" lengthAdjust="spacing" textLength="76.8633" x="700.5195" y="558.2588">Archive Task</text><ellipse cx="738.9512" cy="617.0889" fill="transparent" rx="11" ry="11" style="stroke:#000000;stroke-width:1;"/><ellipse cx="738.9512" cy="617.0889" fill="#FFFFFF" rx="6" ry="6" style="stroke:#000000;stroke-width:1;"/><rect fill="#FFFFFF" height="33.9688" rx="12.5" ry="12.5" style="stroke:#3498DB;stroke-width:1;" width="164.3164" x="153.4512" y="682.0889"/><text fill="#000000" font-family="Verdana" font-size="12" lengthAdjust="spacing" textLength="144.3164" x="163.4512" y="703.2275">Review Completed Task</text><polygon fill="#FFFFFF" points="209.6804,736.0576,261.5383,736.0576,273.5383,748.0576,261.5383,760.0576,209.6804,760.0576,197.6804,748.0576,209.6804,736.0576" style="stroke:#0B5394;stroke-width:1;"/><text fill="#000000" font-family="Verdana" font-size="11" lengthAdjust="spacing" textLength="51.8579" x="209.6804" y="751.8657">Approve?</text><text fill="#000000" font-family="Verdana" font-size="11" lengthAdjust="spacing" textLength="19.0083" x="178.6721" y="745.4634">yes</text><text fill="#000000" font-family="Verdana" font-size="11" lengthAdjust="spacing" textLength="13.7017" x="273.5383" y="745.4634">no</text><rect fill="#FFFFFF" height="33.9688" rx="12.5" ry="12.5" style="stroke:#3498DB;stroke-width:1;" width="190.1738" x="30.2998" y="780.0576"/><text fill="#000000" font-family="Verdana" font-size="12" lengthAdjust="spacing" textLength="170.1738" x="40.2998" y="801.1963">Set Task Status: "Approved"</text><rect fill="#FFFFFF" height="33.9688" rx="12.5" ry="12.5" style="stroke:#3498DB;stroke-width:1;" width="218.7734" x="16" y="834.0264"/><text fill="#000000" font-family="Verdana" font-size="12" lengthAdjust="spacing" textLength="198.7734" x="26" y="855.165">Move Task to Completed Column</text><rect fill="#FFFFFF" height="33.9688" rx="12.5" ry="12.5" style="stroke:#3498DB;stroke-width:1;" width="130.0391" x="280.8125" y="780.0576"/><text fill="#000000" font-family="Verdana" font-size="12" lengthAdjust="spacing" textLength="110.0391" x="290.8125" y="801.1963">Request Revisions</text><polygon fill="#FFFFFF" points="235.6094,877.9951,247.6094,889.9951,235.6094,901.9951,223.6094,889.9951,235.6094,877.9951" style="stroke:#0B5394;stroke-width:1;"/><rect fill="#FFFFFF" height="33.9688" rx="12.5" ry="12.5" style="stroke:#3498DB;stroke-width:1;" width="151.877" x="159.6709" y="921.9951"/><text fill="#000000" font-family="Verdana" font-size="12" lengthAdjust="spacing" textLength="131.877" x="169.6709" y="943.1338">Generate Task Report</text><rect fill="#FFFFFF" height="33.9688" rx="12.5" ry="12.5" style="stroke:#3498DB;stroke-width:1;" width="164.5684" x="153.3252" y="975.9639"/><text fill="#000000" font-family="Verdana" font-size="12" lengthAdjust="spacing" textLength="144.5684" x="163.3252" y="997.1025">Update Project Progress</text><ellipse cx="235.6094" cy="1040.9326" fill="transparent" rx="11" ry="11" style="stroke:#000000;stroke-width:1;"/><ellipse cx="235.6094" cy="1040.9326" fill="#FFFFFF" rx="6" ry="6" style="stroke:#000000;stroke-width:1;"/><line style="stroke:#3498DB;stroke-width:1;" x1="10" x2="10" y1="54.3545" y2="1051.9326"/><rect fill="#F0F8FF" height="997.5781" style="stroke:#F0F8FF;stroke-width:1;" width="911.8936" x="791.3828" y="54.3545"/><rect fill="#FFFFFF" height="33.9688" rx="12.5" ry="12.5" style="stroke:#3498DB;stroke-width:1;" width="171.8867" x="1233.8945" y="228.2451"/><text fill="#000000" font-family="Verdana" font-size="12" lengthAdjust="spacing" textLength="151.8867" x="1243.8945" y="249.3838">Receive Task Notification</text><polygon fill="#FFFFFF" points="1283.5481,282.2139,1356.1277,282.2139,1368.1277,294.2139,1356.1277,306.2139,1283.5481,306.2139,1271.5481,294.2139,1283.5481,282.2139" style="stroke:#0B5394;stroke-width:1;"/><text fill="#000000" font-family="Verdana" font-size="11" lengthAdjust="spacing" textLength="72.5796" x="1283.5481" y="298.022">Accept Task?</text><text fill="#000000" font-family="Verdana" font-size="11" lengthAdjust="spacing" textLength="19.0083" x="1252.5398" y="291.6196">yes</text><text fill="#000000" font-family="Verdana" font-size="11" lengthAdjust="spacing" textLength="13.7017" x="1368.1277" y="291.6196">no</text><rect fill="#FFFFFF" height="33.9688" rx="12.5" ry="12.5" style="stroke:#3498DB;stroke-width:1;" width="205.6191" x="889.5483" y="326.2139"/><text fill="#000000" font-family="Verdana" font-size="12" lengthAdjust="spacing" textLength="185.6191" x="899.5483" y="347.3525">Change Status to "In Progress"</text><rect fill="#FFFFFF" height="33.9688" rx="12.5" ry="12.5" style="stroke:#3498DB;stroke-width:1;" width="101.5508" x="941.5825" y="380.1826"/><text fill="#000000" font-family="Verdana" font-size="12" lengthAdjust="spacing" textLength="81.5508" x="951.5825" y="401.3213">Work on Task</text><rect fill="#FFFFFF" height="33.9688" rx="12.5" ry="12.5" style="stroke:#3498DB;stroke-width:1;" width="150.9219" x="916.897" y="434.1514"/><text fill="#000000" font-family="Verdana" font-size="12" lengthAdjust="spacing" textLength="130.9219" x="926.897" y="455.29">Update Task Progress</text><polygon fill="#FFFFFF" points="948.4036,503.1201,1036.3123,503.1201,1048.3123,515.1201,1036.3123,527.1201,948.4036,527.1201,936.4036,515.1201,948.4036,503.1201" style="stroke:#0B5394;stroke-width:1;"/><text fill="#000000" font-family="Verdana" font-size="11" lengthAdjust="spacing" textLength="87.9087" x="948.4036" y="518.9282">Task Complete?</text><text fill="#000000" font-family="Verdana" font-size="11" lengthAdjust="spacing" textLength="19.0083" x="917.3953" y="512.5259">yes</text><text fill="#000000" font-family="Verdana" font-size="11" lengthAdjust="spacing" textLength="13.7017" x="1048.3123" y="512.5259">no</text><rect fill="#FFFFFF" height="33.9688" rx="12.5" ry="12.5" style="stroke:#3498DB;stroke-width:1;" width="204.1602" x="797.3828" y="537.1201"/><text fill="#000000" font-family="Verdana" font-size="12" lengthAdjust="spacing" textLength="184.1602" x="807.3828" y="558.2588">Change Status to "Completed"</text><path d="M1168.9629,541.5381 L1168.9629,550.1045 L1148.9629,554.1045 L1168.9629,558.1045 L1168.9629,566.6709 A0,0 0 0 0 1168.9629,566.6709 L1319.1504,566.6709 A0,0 0 0 0 1319.1504,566.6709 L1319.1504,551.5381 L1309.1504,541.5381 L1168.9629,541.5381 A0,0 0 0 0 1168.9629,541.5381 " fill="#FFFFFF" style="stroke:#000000;stroke-width:1;"/><path d="M1309.1504,541.5381 L1309.1504,551.5381 L1319.1504,551.5381 L1309.1504,541.5381 " fill="#FFFFFF" style="stroke:#000000;stroke-width:1;"/><text fill="#000000" font-family="Verdana" font-size="13" lengthAdjust="spacing" textLength="129.1875" x="1174.9629" y="558.605">Loop until complete</text><rect fill="#FFFFFF" height="33.9688" rx="12.5" ry="12.5" style="stroke:#3498DB;stroke-width:1;" width="127.4199" x="1021.543" y="537.1201"/><text fill="#000000" font-family="Verdana" font-size="12" lengthAdjust="spacing" textLength="107.4199" x="1031.543" y="558.2588">Continue Working</text><polygon fill="#FFFFFF" points="992.3579,577.0889,1004.3579,589.0889,992.3579,601.0889,980.3579,589.0889,992.3579,577.0889" style="stroke:#0B5394;stroke-width:1;"/><rect fill="#FFFFFF" height="33.9688" rx="12.5" ry="12.5" style="stroke:#3498DB;stroke-width:1;" width="96.5762" x="1599.0298" y="326.2139"/><text fill="#000000" font-family="Verdana" font-size="12" lengthAdjust="spacing" textLength="76.5762" x="1609.0298" y="347.3525">Decline Task</text><polygon fill="#FFFFFF" points="1319.8379,638.0889,1331.8379,650.0889,1319.8379,662.0889,1307.8379,650.0889,1319.8379,638.0889" style="stroke:#0B5394;stroke-width:1;"/><path d="M1541.1191,838.4443 L1541.1191,847.0107 L1521.1191,851.0107 L1541.1191,855.0107 L1541.1191,863.5771 A0,0 0 0 0 1541.1191,863.5771 L1698.2764,863.5771 A0,0 0 0 0 1698.2764,863.5771 L1698.2764,848.4443 L1688.2764,838.4443 L1541.1191,838.4443 A0,0 0 0 0 1541.1191,838.4443 " fill="#FFFFFF" style="stroke:#000000;stroke-width:1;"/><path d="M1688.2764,838.4443 L1688.2764,848.4443 L1698.2764,848.4443 L1688.2764,838.4443 " fill="#FFFFFF" style="stroke:#000000;stroke-width:1;"/><text fill="#000000" font-family="Verdana" font-size="13" lengthAdjust="spacing" textLength="136.1572" x="1547.1191" y="855.5112">Back to work on task</text><rect fill="#FFFFFF" height="33.9688" rx="12.5" ry="12.5" style="stroke:#3498DB;stroke-width:1;" width="182.1172" x="1339.002" y="834.0264"/><text fill="#000000" font-family="Verdana" font-size="12" lengthAdjust="spacing" textLength="162.1172" x="1349.002" y="855.165">Address Revision Requests</text><line style="stroke:#3498DB;stroke-width:1;" x1="791.3828" x2="791.3828" y1="54.3545" y2="1051.9326"/><line style="stroke:#3498DB;stroke-width:1;" x1="1703.2764" x2="1703.2764" y1="54.3545" y2="1051.9326"/><line style="stroke:#000000;stroke-width:1;" x1="235.6094" x2="235.6094" y1="100.3076" y2="120.3076"/><polygon fill="#000000" points="231.6094,110.3076,235.6094,120.3076,239.6094,110.3076,235.6094,114.3076" style="stroke:#000000;stroke-width:1;"/><line style="stroke:#000000;stroke-width:1;" x1="235.6094" x2="235.6094" y1="154.2764" y2="174.2764"/><polygon fill="#000000" points="231.6094,164.2764,235.6094,174.2764,239.6094,164.2764,235.6094,168.2764" style="stroke:#000000;stroke-width:1;"/><line style="stroke:#000000;stroke-width:1;" x1="738.9512" x2="738.9512" y1="502.1201" y2="537.1201"/><polygon fill="#000000" points="734.9512,527.1201,738.9512,537.1201,742.9512,527.1201,738.9512,531.1201" style="stroke:#000000;stroke-width:1;"/><line style="stroke:#000000;stroke-width:1;" x1="738.9512" x2="738.9512" y1="571.0889" y2="606.0889"/><polygon fill="#000000" points="734.9512,596.0889,738.9512,606.0889,742.9512,596.0889,738.9512,600.0889" style="stroke:#000000;stroke-width:1;"/><line style="stroke:#000000;stroke-width:1;" x1="523.3584" x2="377.2275" y1="446.1514" y2="446.1514"/><line style="stroke:#000000;stroke-width:1;" x1="377.2275" x2="377.2275" y1="446.1514" y2="468.1514"/><polygon fill="#000000" points="373.2275,458.1514,377.2275,468.1514,381.2275,458.1514,377.2275,462.1514" style="stroke:#000000;stroke-width:1;"/><line style="stroke:#000000;stroke-width:1;" x1="602.8203" x2="738.9512" y1="446.1514" y2="446.1514"/><line style="stroke:#000000;stroke-width:1;" x1="738.9512" x2="738.9512" y1="446.1514" y2="468.1514"/><polygon fill="#000000" points="734.9512,458.1514,738.9512,468.1514,742.9512,458.1514,738.9512,462.1514" style="stroke:#000000;stroke-width:1;"/><line style="stroke:#000000;stroke-width:1;" x1="377.2275" x2="377.2275" y1="502.1201" y2="633.0889"/><line style="stroke:#000000;stroke-width:1;" x1="377.2275" x2="1349.8379" y1="633.0889" y2="633.0889"/><line style="stroke:#000000;stroke-width:1;" x1="1349.8379" x2="1349.8379" y1="633.0889" y2="650.0889"/><line style="stroke:#000000;stroke-width:1;" x1="1349.8379" x2="1331.8379" y1="650.0889" y2="650.0889"/><polygon fill="#000000" points="1341.8379,646.0889,1331.8379,650.0889,1341.8379,654.0889,1337.8379,650.0889" style="stroke:#000000;stroke-width:1;"/><line style="stroke:#000000;stroke-width:1;" x1="563.0894" x2="563.0894" y1="414.1514" y2="434.1514"/><polygon fill="#000000" points="559.0894,424.1514,563.0894,434.1514,567.0894,424.1514,563.0894,428.1514" style="stroke:#000000;stroke-width:1;"/><line style="stroke:#000000;stroke-width:1;" x1="125.3867" x2="125.3867" y1="814.0264" y2="834.0264"/><polygon fill="#000000" points="121.3867,824.0264,125.3867,834.0264,129.3867,824.0264,125.3867,828.0264" style="stroke:#000000;stroke-width:1;"/><line style="stroke:#000000;stroke-width:1;" x1="197.6804" x2="125.3867" y1="748.0576" y2="748.0576"/><line style="stroke:#000000;stroke-width:1;" x1="125.3867" x2="125.3867" y1="748.0576" y2="780.0576"/><polygon fill="#000000" points="121.3867,770.0576,125.3867,780.0576,129.3867,770.0576,125.3867,774.0576" style="stroke:#000000;stroke-width:1;"/><line style="stroke:#000000;stroke-width:1;" x1="273.5383" x2="345.832" y1="748.0576" y2="748.0576"/><line style="stroke:#000000;stroke-width:1;" x1="345.832" x2="345.832" y1="748.0576" y2="780.0576"/><polygon fill="#000000" points="341.832,770.0576,345.832,780.0576,349.832,770.0576,345.832,774.0576" style="stroke:#000000;stroke-width:1;"/><line style="stroke:#000000;stroke-width:1;" x1="125.3867" x2="125.3867" y1="867.9951" y2="889.9951"/><line style="stroke:#000000;stroke-width:1;" x1="125.3867" x2="223.6094" y1="889.9951" y2="889.9951"/><polygon fill="#000000" points="213.6094,885.9951,223.6094,889.9951,213.6094,893.9951,217.6094,889.9951" style="stroke:#000000;stroke-width:1;"/><line style="stroke:#000000;stroke-width:1;" x1="235.6094" x2="235.6094" y1="716.0576" y2="736.0576"/><polygon fill="#000000" points="231.6094,726.0576,235.6094,736.0576,239.6094,726.0576,235.6094,730.0576" style="stroke:#000000;stroke-width:1;"/><line style="stroke:#000000;stroke-width:1;" x1="235.6094" x2="235.6094" y1="901.9951" y2="921.9951"/><polygon fill="#000000" points="231.6094,911.9951,235.6094,921.9951,239.6094,911.9951,235.6094,915.9951" style="stroke:#000000;stroke-width:1;"/><line style="stroke:#000000;stroke-width:1;" x1="235.6094" x2="235.6094" y1="955.9639" y2="975.9639"/><polygon fill="#000000" points="231.6094,965.9639,235.6094,975.9639,239.6094,965.9639,235.6094,969.9639" style="stroke:#000000;stroke-width:1;"/><line style="stroke:#000000;stroke-width:1;" x1="235.6094" x2="235.6094" y1="1009.9326" y2="1029.9326"/><polygon fill="#000000" points="231.6094,1019.9326,235.6094,1029.9326,239.6094,1019.9326,235.6094,1023.9326" style="stroke:#000000;stroke-width:1;"/><line style="stroke:#000000;stroke-width:1;" x1="992.3579" x2="992.3579" y1="360.1826" y2="380.1826"/><polygon fill="#000000" points="988.3579,370.1826,992.3579,380.1826,996.3579,370.1826,992.3579,374.1826" style="stroke:#000000;stroke-width:1;"/><line style="stroke:#000000;stroke-width:1;" x1="992.3579" x2="992.3579" y1="414.1514" y2="434.1514"/><polygon fill="#000000" points="988.3579,424.1514,992.3579,434.1514,996.3579,424.1514,992.3579,428.1514" style="stroke:#000000;stroke-width:1;"/><line style="stroke:#000000;stroke-width:1;" x1="936.4036" x2="899.4629" y1="515.1201" y2="515.1201"/><line style="stroke:#000000;stroke-width:1;" x1="899.4629" x2="899.4629" y1="515.1201" y2="537.1201"/><polygon fill="#000000" points="895.4629,527.1201,899.4629,537.1201,903.4629,527.1201,899.4629,531.1201" style="stroke:#000000;stroke-width:1;"/><line style="stroke:#000000;stroke-width:1;" x1="1048.3123" x2="1085.2529" y1="515.1201" y2="515.1201"/><line style="stroke:#000000;stroke-width:1;" x1="1085.2529" x2="1085.2529" y1="515.1201" y2="537.1201"/><polygon fill="#000000" points="1081.2529,527.1201,1085.2529,537.1201,1089.2529,527.1201,1085.2529,531.1201" style="stroke:#000000;stroke-width:1;"/><line style="stroke:#000000;stroke-width:1;" x1="899.4629" x2="899.4629" y1="571.0889" y2="589.0889"/><line style="stroke:#000000;stroke-width:1;" x1="899.4629" x2="980.3579" y1="589.0889" y2="589.0889"/><polygon fill="#000000" points="970.3579,585.0889,980.3579,589.0889,970.3579,593.0889,974.3579,589.0889" style="stroke:#000000;stroke-width:1;"/><line style="stroke:#000000;stroke-width:1;" x1="1085.2529" x2="1085.2529" y1="571.0889" y2="589.0889"/><line style="stroke:#000000;stroke-width:1;" x1="1085.2529" x2="1004.3579" y1="589.0889" y2="589.0889"/><polygon fill="#000000" points="1014.3579,585.0889,1004.3579,589.0889,1014.3579,593.0889,1010.3579,589.0889" style="stroke:#000000;stroke-width:1;"/><line style="stroke:#000000;stroke-width:1;" x1="992.3579" x2="992.3579" y1="468.1201" y2="503.1201"/><polygon fill="#000000" points="988.3579,493.1201,992.3579,503.1201,996.3579,493.1201,992.3579,497.1201" style="stroke:#000000;stroke-width:1;"/><line style="stroke:#000000;stroke-width:1;" x1="1271.5481" x2="992.3579" y1="294.2139" y2="294.2139"/><line style="stroke:#000000;stroke-width:1;" x1="992.3579" x2="992.3579" y1="294.2139" y2="326.2139"/><polygon fill="#000000" points="988.3579,316.2139,992.3579,326.2139,996.3579,316.2139,992.3579,320.2139" style="stroke:#000000;stroke-width:1;"/><line style="stroke:#000000;stroke-width:1;" x1="1368.1277" x2="1647.3179" y1="294.2139" y2="294.2139"/><line style="stroke:#000000;stroke-width:1;" x1="1647.3179" x2="1647.3179" y1="294.2139" y2="326.2139"/><polygon fill="#000000" points="1643.3179,316.2139,1647.3179,326.2139,1651.3179,316.2139,1647.3179,320.2139" style="stroke:#000000;stroke-width:1;"/><line style="stroke:#000000;stroke-width:1;" x1="992.3579" x2="992.3579" y1="601.0889" y2="650.0889"/><line style="stroke:#000000;stroke-width:1;" x1="992.3579" x2="1307.8379" y1="650.0889" y2="650.0889"/><polygon fill="#000000" points="1297.8379,646.0889,1307.8379,650.0889,1297.8379,654.0889,1301.8379,650.0889" style="stroke:#000000;stroke-width:1;"/><line style="stroke:#000000;stroke-width:1;" x1="1319.8379" x2="1319.8379" y1="262.2139" y2="282.2139"/><polygon fill="#000000" points="1315.8379,272.2139,1319.8379,282.2139,1323.8379,272.2139,1319.8379,276.2139" style="stroke:#000000;stroke-width:1;"/><line style="stroke:#000000;stroke-width:1;" x1="235.6094" x2="235.6094" y1="208.2451" y2="213.2451"/><line style="stroke:#000000;stroke-width:1;" x1="235.6094" x2="1319.8379" y1="213.2451" y2="213.2451"/><line style="stroke:#000000;stroke-width:1;" x1="1319.8379" x2="1319.8379" y1="213.2451" y2="228.2451"/><polygon fill="#000000" points="1315.8379,218.2451,1319.8379,228.2451,1323.8379,218.2451,1319.8379,222.2451" style="stroke:#000000;stroke-width:1;"/><line style="stroke:#000000;stroke-width:1;" x1="1647.3179" x2="1647.3179" y1="360.1826" y2="365.1826"/><line style="stroke:#000000;stroke-width:1;" x1="1647.3179" x2="563.0894" y1="365.1826" y2="365.1826"/><line style="stroke:#000000;stroke-width:1;" x1="563.0894" x2="563.0894" y1="365.1826" y2="380.1826"/><polygon fill="#000000" points="559.0894,370.1826,563.0894,380.1826,567.0894,370.1826,563.0894,374.1826" style="stroke:#000000;stroke-width:1;"/><line style="stroke:#000000;stroke-width:1;" x1="1319.8379" x2="1319.8379" y1="662.0889" y2="667.0889"/><line style="stroke:#000000;stroke-width:1;" x1="1319.8379" x2="235.6094" y1="667.0889" y2="667.0889"/><line style="stroke:#000000;stroke-width:1;" x1="235.6094" x2="235.6094" y1="667.0889" y2="682.0889"/><polygon fill="#000000" points="231.6094,672.0889,235.6094,682.0889,239.6094,672.0889,235.6094,676.0889" style="stroke:#000000;stroke-width:1;"/><line style="stroke:#000000;stroke-width:1;" x1="345.832" x2="345.832" y1="814.0264" y2="819.0264"/><line style="stroke:#000000;stroke-width:1;" x1="345.832" x2="1430.0605" y1="819.0264" y2="819.0264"/><line style="stroke:#000000;stroke-width:1;" x1="1430.0605" x2="1430.0605" y1="819.0264" y2="834.0264"/><polygon fill="#000000" points="1426.0605,824.0264,1430.0605,834.0264,1434.0605,824.0264,1430.0605,828.0264" style="stroke:#000000;stroke-width:1;"/><line style="stroke:#000000;stroke-width:1;" x1="1430.0605" x2="1430.0605" y1="867.9951" y2="889.9951"/><line style="stroke:#000000;stroke-width:1;" x1="1430.0605" x2="247.6094" y1="889.9951" y2="889.9951"/><polygon fill="#000000" points="257.6094,885.9951,247.6094,889.9951,257.6094,893.9951,253.6094,889.9951" style="stroke:#000000;stroke-width:1;"/><text fill="#000000" font-family="Verdana" font-size="18" lengthAdjust="spacing" textLength="146.918" x="327.2324" y="71.0625">Project Manager</text><text fill="#000000" font-family="Verdana" font-size="18" lengthAdjust="spacing" textLength="130.3945" x="1182.1323" y="71.0625">Team Member</text><!--SRC=[ZLFBRjim4BphAxREnRa5IDecyg7mioXG1u6Te6U6MikigQLAKdO3vEExr2jMBBW131rsnpExiyDFVeiPGgw5eiZj5EN2YWmcGkvIQmfAfaOR2uUjydZK7qklzig_J8nDq5QOY-kRkzlPf0_rGRQP4fcXf4DwDVbyVNTp1ln1xhKNrlzlq7d3qWEnrXogvhDcpQFM0pChhmoTTsDzK9aMX7sewFLY_cNnTR5uVR3cDqeFIq4YHVlAdSNLufOxZyWaIyoUGpLYHOtmADmEniwfb38a3u8IcFz5MOHncFM4pGKRedXgKNY4UpoK5ACehaWgGc_WI6p4F1tjU8KIrRvMlpTURPGKGP6XQWF3iPIO-xBzxH8uOGJ35tIN4K0ytGfA4VWSld11QV23WCTCBJet60N8BsDtOAYUZ0jFUHAcBUKQQ6ZmByYLzQd9SeqUtmlsIZRWf1H4xH26P1gu8Q-eG0XpA4f7PPaCJs1LklKn_3GcXu9H6cJD56WeKPimrJ5VF4Ef5M6xpEb96DGOse2xdhQBhb2KL-hPSOqwaCxKPeCs9A5pmFSBX4SJZF31ET76fySBGH9rEpnNnbPkczjN9UTDtgvVVNk2nplk5SUjjRvcg0AJvzRiJsx7MrKfgcyNmw16LeUBbwP98I_pninlgyZOkCuXLlYdGESXpE7Orp91tM27zP8afAj5GVst4jrduQ4EQx3opFRVaT2s8LvXRgpdLrSdky6_XJiAhlu3]--></g></svg>