<svg xmlns="http://www.w3.org/2000/svg" xmlns:xlink="http://www.w3.org/1999/xlink" contentStyleType="text/css" data-diagram-type="CLASS" height="1039px" preserveAspectRatio="none" style="width:805px;height:1039px;background:#FFFFFF;" version="1.1" viewBox="0 0 805 1039" width="805px" zoomAndPan="magnify"><defs/><g><!--class User--><g id="elem_User"><rect codeLine="7" fill="#E0FFFF" height="178.375" id="User" rx="2.5" ry="2.5" style="stroke:#000000;stroke-width:0.5;" width="166.8613" x="198.5" y="7"/><ellipse cx="259.6304" cy="23" fill="#ADD1B2" rx="11" ry="11" style="stroke:#181818;stroke-width:1;"/><path d="M262.5991,28.6406 Q262.021,28.9375 261.3804,29.0781 Q260.7397,29.2344 260.0366,29.2344 Q257.5366,29.2344 256.2085,27.5938 Q254.896,25.9375 254.896,22.8125 Q254.896,19.6875 256.2085,18.0313 Q257.5366,16.375 260.0366,16.375 Q260.7397,16.375 261.3804,16.5313 Q262.0366,16.6875 262.5991,16.9844 L262.5991,19.7031 Q261.9741,19.125 261.3804,18.8594 Q260.7866,18.5781 260.1616,18.5781 Q258.8179,18.5781 258.1304,19.6563 Q257.4429,20.7188 257.4429,22.8125 Q257.4429,24.9063 258.1304,25.9844 Q258.8179,27.0469 260.1616,27.0469 Q260.7866,27.0469 261.3804,26.7813 Q261.9741,26.5 262.5991,25.9219 L262.5991,28.6406 Z " fill="#000000"/><text fill="#000000" font-family="sans-serif" font-size="14" font-weight="bold" lengthAdjust="spacing" textLength="36.1006" x="280.1304" y="27.8467">User</text><line style="stroke:#000000;stroke-width:0.5;" x1="199.5" x2="364.3613" y1="39" y2="39"/><text fill="#000000" font-family="sans-serif" font-size="14" lengthAdjust="spacing" textLength="101.4453" x="204.5" y="55.9951">-userID: String</text><text fill="#000000" font-family="sans-serif" font-size="14" lengthAdjust="spacing" textLength="95.7031" x="204.5" y="72.292">-name: String</text><text fill="#000000" font-family="sans-serif" font-size="14" lengthAdjust="spacing" textLength="94.6094" x="204.5" y="88.5889">-email: String</text><text fill="#000000" font-family="sans-serif" font-size="14" lengthAdjust="spacing" textLength="122.7119" x="204.5" y="104.8857">-password: String</text><text fill="#000000" font-family="sans-serif" font-size="14" lengthAdjust="spacing" textLength="82.8242" x="204.5" y="121.1826">-role: String</text><line style="stroke:#000000;stroke-width:0.5;" x1="199.5" x2="364.3613" y1="128.4844" y2="128.4844"/><text fill="#000000" font-family="sans-serif" font-size="14" lengthAdjust="spacing" textLength="122.6162" x="204.5" y="145.4795">+login(): Boolean</text><text fill="#000000" font-family="sans-serif" font-size="14" lengthAdjust="spacing" textLength="105.7178" x="204.5" y="161.7764">+logout(): void</text><text fill="#000000" font-family="sans-serif" font-size="14" lengthAdjust="spacing" textLength="154.8613" x="204.5" y="178.0732">+updateProfile(): void</text></g><!--class Task--><g id="elem_Task"><rect codeLine="18" fill="#E0FFFF" height="227.2656" id="Task" rx="2.5" ry="2.5" style="stroke:#000000;stroke-width:0.5;" width="294.0781" x="135" y="550"/><ellipse cx="259.4688" cy="566" fill="#ADD1B2" rx="11" ry="11" style="stroke:#181818;stroke-width:1;"/><path d="M262.4375,571.6406 Q261.8594,571.9375 261.2188,572.0781 Q260.5781,572.2344 259.875,572.2344 Q257.375,572.2344 256.0469,570.5938 Q254.7344,568.9375 254.7344,565.8125 Q254.7344,562.6875 256.0469,561.0313 Q257.375,559.375 259.875,559.375 Q260.5781,559.375 261.2188,559.5313 Q261.875,559.6875 262.4375,559.9844 L262.4375,562.7031 Q261.8125,562.125 261.2188,561.8594 Q260.625,561.5781 260,561.5781 Q258.6563,561.5781 257.9688,562.6563 Q257.2813,563.7188 257.2813,565.8125 Q257.2813,567.9063 257.9688,568.9844 Q258.6563,570.0469 260,570.0469 Q260.625,570.0469 261.2188,569.7813 Q261.8125,569.5 262.4375,568.9219 L262.4375,571.6406 Z " fill="#000000"/><text fill="#000000" font-family="sans-serif" font-size="14" font-weight="bold" lengthAdjust="spacing" textLength="36.6406" x="279.9688" y="570.8467">Task</text><line style="stroke:#000000;stroke-width:0.5;" x1="136" x2="428.0781" y1="582" y2="582"/><text fill="#000000" font-family="sans-serif" font-size="14" lengthAdjust="spacing" textLength="100.3789" x="141" y="598.9951">-taskID: String</text><text fill="#000000" font-family="sans-serif" font-size="14" lengthAdjust="spacing" textLength="83.3711" x="141" y="615.292">-title: String</text><text fill="#000000" font-family="sans-serif" font-size="14" lengthAdjust="spacing" textLength="133.8408" x="141" y="631.5889">-description: String</text><text fill="#000000" font-family="sans-serif" font-size="14" lengthAdjust="spacing" textLength="99.0186" x="141" y="647.8857">-status: String</text><text fill="#000000" font-family="sans-serif" font-size="14" lengthAdjust="spacing" textLength="106.5176" x="141" y="664.1826">-priority: String</text><text fill="#000000" font-family="sans-serif" font-size="14" lengthAdjust="spacing" textLength="107.9121" x="141" y="680.4795">-deadline: Date</text><text fill="#000000" font-family="sans-serif" font-size="14" lengthAdjust="spacing" textLength="132.9521" x="141" y="696.7764">-assigneeID: String</text><line style="stroke:#000000;stroke-width:0.5;" x1="136" x2="428.0781" y1="704.0781" y2="704.0781"/><text fill="#000000" font-family="sans-serif" font-size="14" lengthAdjust="spacing" textLength="106.1963" x="141" y="721.0732">+create(): void</text><text fill="#000000" font-family="sans-serif" font-size="14" lengthAdjust="spacing" textLength="110.7764" x="141" y="737.3701">+update(): void</text><text fill="#000000" font-family="sans-serif" font-size="14" lengthAdjust="spacing" textLength="105.5537" x="141" y="753.667">+delete(): void</text><text fill="#000000" font-family="sans-serif" font-size="14" lengthAdjust="spacing" textLength="282.0781" x="141" y="769.9639">+changeStatus(newStatus: String): void</text></g><!--class Project--><g id="elem_Project"><rect codeLine="32" fill="#E0FFFF" height="210.9688" id="Project" rx="2.5" ry="2.5" style="stroke:#000000;stroke-width:0.5;" width="253.7803" x="340" y="262"/><ellipse cx="434.606" cy="278" fill="#ADD1B2" rx="11" ry="11" style="stroke:#181818;stroke-width:1;"/><path d="M437.5747,283.6406 Q436.9966,283.9375 436.356,284.0781 Q435.7153,284.2344 435.0122,284.2344 Q432.5122,284.2344 431.1841,282.5938 Q429.8716,280.9375 429.8716,277.8125 Q429.8716,274.6875 431.1841,273.0313 Q432.5122,271.375 435.0122,271.375 Q435.7153,271.375 436.356,271.5313 Q437.0122,271.6875 437.5747,271.9844 L437.5747,274.7031 Q436.9497,274.125 436.356,273.8594 Q435.7622,273.5781 435.1372,273.5781 Q433.7935,273.5781 433.106,274.6563 Q432.4185,275.7188 432.4185,277.8125 Q432.4185,279.9063 433.106,280.9844 Q433.7935,282.0469 435.1372,282.0469 Q435.7622,282.0469 436.356,281.7813 Q436.9497,281.5 437.5747,280.9219 L437.5747,283.6406 Z " fill="#000000"/><text fill="#000000" font-family="sans-serif" font-size="14" font-weight="bold" lengthAdjust="spacing" textLength="56.0684" x="455.106" y="282.8467">Project</text><line style="stroke:#000000;stroke-width:0.5;" x1="341" x2="592.7803" y1="294" y2="294"/><text fill="#000000" font-family="sans-serif" font-size="14" lengthAdjust="spacing" textLength="119.8066" x="346" y="310.9951">-projectID: String</text><text fill="#000000" font-family="sans-serif" font-size="14" lengthAdjust="spacing" textLength="95.7031" x="346" y="327.292">-name: String</text><text fill="#000000" font-family="sans-serif" font-size="14" lengthAdjust="spacing" textLength="133.8408" x="346" y="343.5889">-description: String</text><text fill="#000000" font-family="sans-serif" font-size="14" lengthAdjust="spacing" textLength="113.75" x="346" y="359.8857">-startDate: Date</text><text fill="#000000" font-family="sans-serif" font-size="14" lengthAdjust="spacing" textLength="107.5156" x="346" y="376.1826">-endDate: Date</text><text fill="#000000" font-family="sans-serif" font-size="14" lengthAdjust="spacing" textLength="114.167" x="346" y="392.4795">-ownerID: String</text><line style="stroke:#000000;stroke-width:0.5;" x1="341" x2="592.7803" y1="399.7813" y2="399.7813"/><text fill="#000000" font-family="sans-serif" font-size="14" lengthAdjust="spacing" textLength="106.1963" x="346" y="416.7764">+create(): void</text><text fill="#000000" font-family="sans-serif" font-size="14" lengthAdjust="spacing" textLength="110.7764" x="346" y="433.0732">+update(): void</text><text fill="#000000" font-family="sans-serif" font-size="14" lengthAdjust="spacing" textLength="105.5537" x="346" y="449.3701">+delete(): void</text><text fill="#000000" font-family="sans-serif" font-size="14" lengthAdjust="spacing" textLength="241.7803" x="346" y="465.667">+addMember(userID: String): void</text></g><!--class Comment--><g id="elem_Comment"><rect codeLine="45" fill="#E0FFFF" height="178.375" id="Comment" rx="2.5" ry="2.5" style="stroke:#000000;stroke-width:0.5;" width="169.8896" x="7" y="854"/><ellipse cx="50.2001" cy="870" fill="#ADD1B2" rx="11" ry="11" style="stroke:#181818;stroke-width:1;"/><path d="M53.1689,875.6406 Q52.5908,875.9375 51.9501,876.0781 Q51.3095,876.2344 50.6064,876.2344 Q48.1064,876.2344 46.7783,874.5938 Q45.4658,872.9375 45.4658,869.8125 Q45.4658,866.6875 46.7783,865.0313 Q48.1064,863.375 50.6064,863.375 Q51.3095,863.375 51.9501,863.5313 Q52.6064,863.6875 53.1689,863.9844 L53.1689,866.7031 Q52.5439,866.125 51.9501,865.8594 Q51.3564,865.5781 50.7314,865.5781 Q49.3876,865.5781 48.7001,866.6563 Q48.0126,867.7188 48.0126,869.8125 Q48.0126,871.9063 48.7001,872.9844 Q49.3876,874.0469 50.7314,874.0469 Q51.3564,874.0469 51.9501,873.7813 Q52.5439,873.5 53.1689,872.9219 L53.1689,875.6406 Z " fill="#000000"/><text fill="#000000" font-family="sans-serif" font-size="14" font-weight="bold" lengthAdjust="spacing" textLength="75.2227" x="70.4668" y="874.8467">Comment</text><line style="stroke:#000000;stroke-width:0.5;" x1="8" x2="175.8896" y1="886" y2="886"/><text fill="#000000" font-family="sans-serif" font-size="14" lengthAdjust="spacing" textLength="137.4229" x="13" y="902.9951">-commentID: String</text><text fill="#000000" font-family="sans-serif" font-size="14" lengthAdjust="spacing" textLength="100.3789" x="13" y="919.292">-taskID: String</text><text fill="#000000" font-family="sans-serif" font-size="14" lengthAdjust="spacing" textLength="101.4453" x="13" y="935.5889">-userID: String</text><text fill="#000000" font-family="sans-serif" font-size="14" lengthAdjust="spacing" textLength="109.6006" x="13" y="951.8857">-content: String</text><text fill="#000000" font-family="sans-serif" font-size="14" lengthAdjust="spacing" textLength="157.8896" x="13" y="968.1826">-timestamp: DateTime</text><line style="stroke:#000000;stroke-width:0.5;" x1="8" x2="175.8896" y1="975.4844" y2="975.4844"/><text fill="#000000" font-family="sans-serif" font-size="14" lengthAdjust="spacing" textLength="106.1963" x="13" y="992.4795">+create(): void</text><text fill="#000000" font-family="sans-serif" font-size="14" lengthAdjust="spacing" textLength="110.7764" x="13" y="1008.7764">+update(): void</text><text fill="#000000" font-family="sans-serif" font-size="14" lengthAdjust="spacing" textLength="105.5537" x="13" y="1025.0732">+delete(): void</text></g><!--class Notification--><g id="elem_Notification"><rect codeLine="56" fill="#E0FFFF" height="178.375" id="Notification" rx="2.5" ry="2.5" style="stroke:#000000;stroke-width:0.5;" width="169.8896" x="629" y="278.5"/><ellipse cx="664.4082" cy="294.5" fill="#ADD1B2" rx="11" ry="11" style="stroke:#181818;stroke-width:1;"/><path d="M667.377,300.1406 Q666.7988,300.4375 666.1582,300.5781 Q665.5176,300.7344 664.8145,300.7344 Q662.3145,300.7344 660.9863,299.0938 Q659.6738,297.4375 659.6738,294.3125 Q659.6738,291.1875 660.9863,289.5313 Q662.3145,287.875 664.8145,287.875 Q665.5176,287.875 666.1582,288.0313 Q666.8145,288.1875 667.377,288.4844 L667.377,291.2031 Q666.752,290.625 666.1582,290.3594 Q665.5645,290.0781 664.9395,290.0781 Q663.5957,290.0781 662.9082,291.1563 Q662.2207,292.2188 662.2207,294.3125 Q662.2207,296.4063 662.9082,297.4844 Q663.5957,298.5469 664.9395,298.5469 Q665.5645,298.5469 666.1582,298.2813 Q666.752,298 667.377,297.4219 L667.377,300.1406 Z " fill="#000000"/><text fill="#000000" font-family="sans-serif" font-size="14" font-weight="bold" lengthAdjust="spacing" textLength="92.5381" x="682.9434" y="299.3467">Notification</text><line style="stroke:#000000;stroke-width:0.5;" x1="630" x2="797.8896" y1="310.5" y2="310.5"/><text fill="#000000" font-family="sans-serif" font-size="14" lengthAdjust="spacing" textLength="149.6387" x="635" y="327.4951">-notificationID: String</text><text fill="#000000" font-family="sans-serif" font-size="14" lengthAdjust="spacing" textLength="101.4453" x="635" y="343.792">-userID: String</text><text fill="#000000" font-family="sans-serif" font-size="14" lengthAdjust="spacing" textLength="118.918" x="635" y="360.0889">-message: String</text><text fill="#000000" font-family="sans-serif" font-size="14" lengthAdjust="spacing" textLength="157.8896" x="635" y="376.3857">-timestamp: DateTime</text><text fill="#000000" font-family="sans-serif" font-size="14" lengthAdjust="spacing" textLength="117.8994" x="635" y="392.6826">-isRead: Boolean</text><line style="stroke:#000000;stroke-width:0.5;" x1="630" x2="797.8896" y1="399.9844" y2="399.9844"/><text fill="#000000" font-family="sans-serif" font-size="14" lengthAdjust="spacing" textLength="106.1963" x="635" y="416.9795">+create(): void</text><text fill="#000000" font-family="sans-serif" font-size="14" lengthAdjust="spacing" textLength="150.2061" x="635" y="433.2764">+markAsRead(): void</text><text fill="#000000" font-family="sans-serif" font-size="14" lengthAdjust="spacing" textLength="105.5537" x="635" y="449.5732">+delete(): void</text></g><!--class KanbanBoard--><g id="elem_KanbanBoard"><rect codeLine="67" fill="#E0FFFF" height="145.7813" id="KanbanBoard" rx="2.5" ry="2.5" style="stroke:#000000;stroke-width:0.5;" width="514.2773" x="232" y="870"/><ellipse cx="431.7085" cy="886" fill="#ADD1B2" rx="11" ry="11" style="stroke:#181818;stroke-width:1;"/><path d="M434.6772,891.6406 Q434.0991,891.9375 433.4585,892.0781 Q432.8179,892.2344 432.1147,892.2344 Q429.6147,892.2344 428.2866,890.5938 Q426.9741,888.9375 426.9741,885.8125 Q426.9741,882.6875 428.2866,881.0313 Q429.6147,879.375 432.1147,879.375 Q432.8179,879.375 433.4585,879.5313 Q434.1147,879.6875 434.6772,879.9844 L434.6772,882.7031 Q434.0522,882.125 433.4585,881.8594 Q432.8647,881.5781 432.2397,881.5781 Q430.896,881.5781 430.2085,882.6563 Q429.521,883.7188 429.521,885.8125 Q429.521,887.9063 430.2085,888.9844 Q430.896,890.0469 432.2397,890.0469 Q432.8647,890.0469 433.4585,889.7813 Q434.0522,889.5 434.6772,888.9219 L434.6772,891.6406 Z " fill="#000000"/><text fill="#000000" font-family="sans-serif" font-size="14" font-weight="bold" lengthAdjust="spacing" textLength="106.3604" x="452.2085" y="890.8467">KanbanBoard</text><line style="stroke:#000000;stroke-width:0.5;" x1="233" x2="745.2773" y1="902" y2="902"/><text fill="#000000" font-family="sans-serif" font-size="14" lengthAdjust="spacing" textLength="111.583" x="238" y="918.9951">-boardID: String</text><text fill="#000000" font-family="sans-serif" font-size="14" lengthAdjust="spacing" textLength="119.8066" x="238" y="935.292">-projectID: String</text><text fill="#000000" font-family="sans-serif" font-size="14" lengthAdjust="spacing" textLength="162.7637" x="238" y="951.5889">-columns: List&lt;String&gt;</text><line style="stroke:#000000;stroke-width:0.5;" x1="233" x2="745.2773" y1="958.8906" y2="958.8906"/><text fill="#000000" font-family="sans-serif" font-size="14" lengthAdjust="spacing" textLength="250.4619" x="238" y="975.8857">+createColumn(name: String): void</text><text fill="#000000" font-family="sans-serif" font-size="14" lengthAdjust="spacing" textLength="502.2773" x="238" y="992.1826">+moveTask(taskID: String, fromColumn: String, toColumn: String): void</text><text fill="#000000" font-family="sans-serif" font-size="14" lengthAdjust="spacing" textLength="308.1777" x="238" y="1008.4795">+updateColumn(columnName: String): void</text></g><!--link User to Task--><g id="link_User_Task"><path codeLine="77" d="M240.91,185.15 C231.47,209.52 222.8,236.33 218,262 C200.75,354.18 202.8,380.46 218,473 C222.17,498.36 229.27,524.89 237.27,549.8 " fill="transparent" id="User-Task" style="stroke:#181818;stroke-width:1;"/><polygon fill="#000000" points="222.9501,372.5662,225.9792,363.5509,220.1016,363.4922,222.9501,372.5662" style="stroke:#000000;stroke-width:1;"/><text fill="#000000" font-family="sans-serif" font-size="13" lengthAdjust="spacing" textLength="89.5654" x="232" y="372.0669">is assigned to</text><text fill="#000000" font-family="sans-serif" font-size="13" lengthAdjust="spacing" textLength="8.271" x="229.0527" y="205.5123">1</text><text fill="#000000" font-family="sans-serif" font-size="13" lengthAdjust="spacing" textLength="23.0356" x="210.6664" y="539.0983">0..*</text></g><!--link User to Project--><g id="link_User_Project"><path codeLine="78" d="M342.58,185.24 C359.33,209.65 377.68,236.38 395.01,261.64 " fill="transparent" id="User-Project" style="stroke:#181818;stroke-width:1;"/><polygon fill="#000000" points="382.8292,227.689,380.1344,218.5682,375.288,221.8941,382.8292,227.689" style="stroke:#000000;stroke-width:1;"/><text fill="#000000" font-family="sans-serif" font-size="13" lengthAdjust="spacing" textLength="33.5981" x="389" y="228.0669">owns</text><text fill="#000000" font-family="sans-serif" font-size="13" lengthAdjust="spacing" textLength="8.271" x="339.2825" y="205.3081">1</text><text fill="#000000" font-family="sans-serif" font-size="13" lengthAdjust="spacing" textLength="23.0356" x="366.4091" y="251.096">0..*</text></g><!--link User to Comment--><g id="link_User_Comment"><path codeLine="79" d="M231.77,185.01 C219.37,209.38 207.07,236.23 198,262 C153.88,387.43 139.36,418.93 117,550 C99.37,653.36 93.9,773.96 92.34,853.81 " fill="transparent" id="User-Comment" style="stroke:#181818;stroke-width:1;"/><polygon fill="#000000" points="129.9796,516.4612,134.7026,508.2063,128.9485,507.0067,129.9796,516.4612" style="stroke:#000000;stroke-width:1;"/><text fill="#000000" font-family="sans-serif" font-size="13" lengthAdjust="spacing" textLength="48.3247" x="140" y="516.0669">creates</text><text fill="#000000" font-family="sans-serif" font-size="13" lengthAdjust="spacing" textLength="8.271" x="219.1272" y="205.3603">1</text><text fill="#000000" font-family="sans-serif" font-size="13" lengthAdjust="spacing" textLength="23.0356" x="68.4219" y="842.8597">0..*</text></g><!--link User to Notification--><g id="link_User_Notification"><path codeLine="80" d="M365.66,129.59 C435.1,158.75 534.66,205.54 612,262 C618.86,267.01 625.67,272.49 632.33,278.25 " fill="transparent" id="User-Notification" style="stroke:#181818;stroke-width:1;"/><polygon fill="#000000" points="570.3672,226.001,563.8979,219.0298,561.0358,224.1638,570.3672,226.001" style="stroke:#000000;stroke-width:1;"/><text fill="#000000" font-family="sans-serif" font-size="13" lengthAdjust="spacing" textLength="54.5645" x="575" y="228.0669">receives</text><text fill="#000000" font-family="sans-serif" font-size="13" lengthAdjust="spacing" textLength="8.271" x="373.4855" y="128.9698">1</text><text fill="#000000" font-family="sans-serif" font-size="13" lengthAdjust="spacing" textLength="23.0356" x="601.6204" y="267.2948">0..*</text></g><!--link Project to Task--><g id="link_Project_Task"><path codeLine="82" d="M400.99,473.4 C385.38,498.21 368.66,524.78 352.84,549.93 " fill="transparent" id="Project-Task" style="stroke:#181818;stroke-width:1;"/><polygon fill="#000000" points="383.3373,515.7985,390.6417,509.7077,385.6666,506.5775,383.3373,515.7985" style="stroke:#000000;stroke-width:1;"/><text fill="#000000" font-family="sans-serif" font-size="13" lengthAdjust="spacing" textLength="55.0278" x="395" y="516.0669">contains</text><text fill="#000000" font-family="sans-serif" font-size="13" lengthAdjust="spacing" textLength="8.271" x="388.3027" y="493.0915">1</text><text fill="#000000" font-family="sans-serif" font-size="13" lengthAdjust="spacing" textLength="23.0356" x="333.8255" y="538.858">0..*</text></g><!--link Project to KanbanBoard--><g id="link_Project_KanbanBoard"><path codeLine="83" d="M471.01,473.02 C475.42,588.04 482.4,769.84 486.24,869.95 " fill="transparent" id="Project-KanbanBoard" style="stroke:#181818;stroke-width:1;"/><polygon fill="#000000" points="488.1917,668.5627,490.7817,659.4116,484.9081,659.637,488.1917,668.5627" style="stroke:#000000;stroke-width:1;"/><text fill="#000000" font-family="sans-serif" font-size="13" lengthAdjust="spacing" textLength="22.9785" x="497" y="668.0669">has</text><text fill="#000000" font-family="sans-serif" font-size="13" lengthAdjust="spacing" textLength="8.271" x="463.028" y="493.0394">1</text><text fill="#000000" font-family="sans-serif" font-size="13" lengthAdjust="spacing" textLength="8.271" x="477.5425" y="858.7283">1</text></g><!--link Task to Comment--><g id="link_Task_Comment"><path codeLine="85" d="M204.72,777.37 C187.25,802.88 168.96,829.6 152.31,853.91 " fill="transparent" id="Task-Comment" style="stroke:#181818;stroke-width:1;"/><polygon fill="#000000" points="184.1751,819.6919,191.7103,813.8892,186.8605,810.5684,184.1751,819.6919" style="stroke:#000000;stroke-width:1;"/><text fill="#000000" font-family="sans-serif" font-size="13" lengthAdjust="spacing" textLength="22.9785" x="196" y="820.0669">has</text><text fill="#000000" font-family="sans-serif" font-size="13" lengthAdjust="spacing" textLength="8.271" x="191.5192" y="797.2079">1</text><text fill="#000000" font-family="sans-serif" font-size="13" lengthAdjust="spacing" textLength="23.0356" x="133.3581" y="842.968">0..*</text></g><!--link Task to KanbanBoard--><g id="link_Task_KanbanBoard"><path codeLine="86" d="M352.8,777.41 C363.57,793.3 374.83,809.24 386,824 C397.57,839.29 410.57,855.1 423.35,870 " fill="transparent" id="Task-KanbanBoard" style="stroke:#181818;stroke-width:1;"/><polygon fill="#000000" points="394.0304,819.5435,390.886,810.5677,386.2107,814.1301,394.0304,819.5435" style="stroke:#000000;stroke-width:1;"/><text fill="#000000" font-family="sans-serif" font-size="13" lengthAdjust="spacing" textLength="72.8774" x="400" y="820.0669">appears on</text><text fill="#000000" font-family="sans-serif" font-size="13" lengthAdjust="spacing" textLength="6.5" x="351.157" y="797.2505">*</text><text fill="#000000" font-family="sans-serif" font-size="13" lengthAdjust="spacing" textLength="8.271" x="408.167" y="858.7835">1</text></g><!--SRC=[fLJRRjim37ttLmXvMTOkHGlioHW2D2a65EkAeMa_WB5OHuii6fAS81lsxwDbkxCSPoss9qk7f7WEBtPRPKgmK8XCWtFNtbkrhZpUPcHMwWUAoyJ5Bf_9-9K_Q1HhqdBKMiTTVHoQ5f1jSqkLaKlIPCMToZT-UG1pv4XMecsS5fgZaYJWuicX5JyJ8MQYukFjJIfMpDVa0J9GO0HW0Kf7ICclxFdr2BIa-t7dGbEkpFHzAXR49kRNWbJv6jsHaW6gIWaUlrbwLXfVBBywje_WjYrRpyS1Mw-yZkbAT9bLfLTa8jnvy9MBTLX5Lld381waLeOVlM5Q0M8QAZU8KUvpaLbaZn4j4IHHum3ADc1oN0L2KuFxLKJjg09Sck-O-RO8PNDxhMj_AOFrjRAUFZHoWD3U30RZF-I2b5-nMAETnkDs97H9HO6c4verjs73ZsTWP8XvxJp73aQbG5PVb8tEHxx-kwuNplVarRFAe2vqIzpqeDUfCYa7ERw1wamezy3J6M_K2Fq2xFOwkBv9mXSmQp0B0YjR1UlwFE0vFdSPwQemFBjtolbFZM7UuxKCzcb_F2EcjCDwmQTnMp-8Pqj54_i7ynGZnnrhipMaxaToikPtuW5rw8tRgD8buMyukPg8sKnCBYykpYRDBoVbQdURBpctc8-vThkPrYlZndswiKxRcfnmYoOf5HOpLBlWd7HPHcdMimug91_wyQVVt5Hi8BmN8a-HR7mQbxCJxq1P8bWdcEdyDm00]--></g></svg>