<svg xmlns="http://www.w3.org/2000/svg" xmlns:xlink="http://www.w3.org/1999/xlink" contentStyleType="text/css" data-diagram-type="DESCRIPTION" height="596px" preserveAspectRatio="none" style="width:1095px;height:596px;background:#FFFFFF;" version="1.1" viewBox="0 0 1095 596" width="1095px" zoomAndPan="magnify"><title>Collaborative Task Management System - Collaboration Diagram</title><defs/><g><text fill="#000000" font-family="sans-serif" font-size="14" font-weight="bold" lengthAdjust="spacing" textLength="510.9385" x="285.2224" y="22.9951">Collaborative Task Management System - Collaboration Diagram</text><!--entity user--><g id="elem_user"><ellipse cx="750.4551" cy="51.2969" fill="#FFF8E1" rx="8" ry="8" style="stroke:#FFA000;stroke-width:0.5;"/><path d="M750.4551,59.2969 L750.4551,86.2969 M737.4551,67.2969 L763.4551,67.2969 M750.4551,86.2969 L737.4551,101.2969 M750.4551,86.2969 L763.4551,101.2969 " fill="transparent" style="stroke:#FFA000;stroke-width:0.5;"/><text fill="#000000" font-family="sans-serif" font-size="14" lengthAdjust="spacing" textLength="31.9102" x="734.5" y="115.792">User</text></g><!--entity frontend--><g id="elem_frontend"><rect fill="#E3F2FD" height="46.2969" rx="2.5" ry="2.5" style="stroke:#1E88E5;stroke-width:0.5;" width="147.666" x="400.5" y="195.7969"/><rect fill="#E3F2FD" height="10" style="stroke:#1E88E5;stroke-width:0.5;" width="15" x="528.166" y="200.7969"/><rect fill="#E3F2FD" height="2" style="stroke:#1E88E5;stroke-width:0.5;" width="4" x="526.166" y="202.7969"/><rect fill="#E3F2FD" height="2" style="stroke:#1E88E5;stroke-width:0.5;" width="4" x="526.166" y="206.7969"/><text fill="#000000" font-family="sans-serif" font-size="14" lengthAdjust="spacing" textLength="107.666" x="415.5" y="228.792">React Frontend</text></g><!--entity auth--><g id="elem_auth"><rect fill="#E3F2FD" height="46.2969" rx="2.5" ry="2.5" style="stroke:#1E88E5;stroke-width:0.5;" width="228.501" x="656" y="318.7969"/><rect fill="#E3F2FD" height="10" style="stroke:#1E88E5;stroke-width:0.5;" width="15" x="864.501" y="323.7969"/><rect fill="#E3F2FD" height="2" style="stroke:#1E88E5;stroke-width:0.5;" width="4" x="862.501" y="325.7969"/><rect fill="#E3F2FD" height="2" style="stroke:#1E88E5;stroke-width:0.5;" width="4" x="862.501" y="329.7969"/><text fill="#000000" font-family="sans-serif" font-size="14" lengthAdjust="spacing" textLength="188.501" x="671" y="351.792">Authentication Component</text></g><!--entity backend--><g id="elem_backend"><rect fill="#E3F2FD" height="46.2969" rx="2.5" ry="2.5" style="stroke:#1E88E5;stroke-width:0.5;" width="159.7861" x="207.5" y="318.7969"/><rect fill="#E3F2FD" height="10" style="stroke:#1E88E5;stroke-width:0.5;" width="15" x="347.2861" y="323.7969"/><rect fill="#E3F2FD" height="2" style="stroke:#1E88E5;stroke-width:0.5;" width="4" x="345.2861" y="325.7969"/><rect fill="#E3F2FD" height="2" style="stroke:#1E88E5;stroke-width:0.5;" width="4" x="345.2861" y="329.7969"/><text fill="#000000" font-family="sans-serif" font-size="14" lengthAdjust="spacing" textLength="119.7861" x="222.5" y="351.792">Express Backend</text></g><!--entity db--><g id="elem_db"><path d="M300.5,452.2969 C300.5,442.2969 386.502,442.2969 386.502,442.2969 C386.502,442.2969 472.5039,442.2969 472.5039,452.2969 L472.5039,477.5938 C472.5039,487.5938 386.502,487.5938 386.502,487.5938 C386.502,487.5938 300.5,487.5938 300.5,477.5938 L300.5,452.2969 " fill="#E8F5E9" style="stroke:#43A047;stroke-width:0.5;"/><path d="M300.5,452.2969 C300.5,462.2969 386.502,462.2969 386.502,462.2969 C386.502,462.2969 472.5039,462.2969 472.5039,452.2969 " fill="transparent" style="stroke:#43A047;stroke-width:0.5;"/><text fill="#000000" font-family="sans-serif" font-size="14" lengthAdjust="spacing" textLength="152.0039" x="310.5" y="479.292">PostgreSQL Database</text></g><!--entity notification--><g id="elem_notification"><rect fill="#E3F2FD" height="46.2969" rx="2.5" ry="2.5" style="stroke:#1E88E5;stroke-width:0.5;" width="176.5205" x="38" y="441.7969"/><rect fill="#E3F2FD" height="10" style="stroke:#1E88E5;stroke-width:0.5;" width="15" x="194.5205" y="446.7969"/><rect fill="#E3F2FD" height="2" style="stroke:#1E88E5;stroke-width:0.5;" width="4" x="192.5205" y="448.7969"/><rect fill="#E3F2FD" height="2" style="stroke:#1E88E5;stroke-width:0.5;" width="4" x="192.5205" y="452.7969"/><text fill="#000000" font-family="sans-serif" font-size="14" lengthAdjust="spacing" textLength="136.5205" x="53" y="474.792">Notification Service</text></g><g id="elem_GMN26"><path d="M293.5,548.7969 L293.5,589.0625 A0,0 0 0 0 293.5,589.0625 L479.2534,589.0625 A0,0 0 0 0 479.2534,589.0625 L479.2534,558.7969 L469.2534,548.7969 L390.5,548.7969 L386.5,487.4269 L382.5,548.7969 L293.5,548.7969 A0,0 0 0 0 293.5,548.7969 " fill="#FFFDE7" style="stroke:#FBC02D;stroke-width:0.5;"/><path d="M469.2534,548.7969 L469.2534,558.7969 L479.2534,558.7969 L469.2534,548.7969 " fill="#FFFDE7" style="stroke:#FBC02D;stroke-width:0.5;"/><text fill="#000000" font-family="sans-serif" font-size="13" lengthAdjust="spacing" textLength="160.6211" x="299.5" y="565.8638">Stores tasks, comments,</text><text fill="#000000" font-family="sans-serif" font-size="13" lengthAdjust="spacing" textLength="155.0034" x="299.5" y="580.9966">user data &amp; board state</text></g><g id="elem_GMN29"><path d="M6,548.7969 L6,589.0625 A0,0 0 0 0 6,589.0625 L246.5591,589.0625 A0,0 0 0 0 246.5591,589.0625 L246.5591,558.7969 L236.5591,548.7969 L130.5,548.7969 L126.5,487.9269 L122.5,548.7969 L6,548.7969 A0,0 0 0 0 6,548.7969 " fill="#FFFDE7" style="stroke:#FBC02D;stroke-width:0.5;"/><path d="M236.5591,548.7969 L236.5591,558.7969 L246.5591,558.7969 L236.5591,548.7969 " fill="#FFFDE7" style="stroke:#FBC02D;stroke-width:0.5;"/><text fill="#000000" font-family="sans-serif" font-size="13" lengthAdjust="spacing" textLength="219.5591" x="12" y="565.8638">Sends emails, in-app notifications</text><text fill="#000000" font-family="sans-serif" font-size="13" lengthAdjust="spacing" textLength="158.3804" x="12" y="580.9966">and WebSocket updates</text></g><!--link user to frontend--><g id="link_user_frontend"><path d="M749.35,118.8969 C746.9,135.3969 741.2,153.7669 728.5,165.7969 C702.97,189.9769 613.98,204.0169 548.51,211.2769 " fill="transparent" id="user-frontend" style="stroke:#555555;stroke-width:1;"/></g><!--link user to frontend--><g id="link_user_frontend"><path d="M734.41,81.7969 C665.04,82.1569 392.58,87.5169 340.5,148.7969 C317.12,176.3169 352.0595,192.7601 394.6095,203.4101 " fill="transparent" id="user-to-frontend" style="stroke:#555555;stroke-width:1;"/><polygon fill="#555555" points="400.43,204.8669,392.6705,198.8013,395.5796,203.6529,390.7281,206.5619,400.43,204.8669" style="stroke:#555555;stroke-width:1;"/><text fill="#333333" font-family="sans-serif" font-size="13" lengthAdjust="spacing" textLength="122.7637" x="341.5" y="161.8638">3: Create new task</text></g><!--reverse link user to frontend--><g id="link_user_frontend"><path d="M728.2203,81.6984 C685.3003,82.1384 573.62,88.9869 504.5,148.7969 C490.67,160.7669 483,180.2769 478.88,195.5069 " fill="transparent" id="user-backto-frontend" style="stroke:#555555;stroke-width:1;"/><polygon fill="#555555" points="734.22,81.6369,725.1795,77.7293,729.2203,81.6881,725.2615,85.7289,734.22,81.6369" style="stroke:#555555;stroke-width:1;"/><text fill="#333333" font-family="sans-serif" font-size="13" lengthAdjust="spacing" textLength="218.1118" x="505.5" y="161.8638">9: Display updated Kanban board</text></g><!--link frontend to auth--><g id="link_frontend_auth"><path d="M548.7,223.8669 C597.83,229.3769 662.08,242.1969 711.5,271.7969 C730.7,283.2969 746.75,303.2669 757.24,318.7769 " fill="transparent" id="frontend-auth" style="stroke:#555555;stroke-width:1;"/></g><!--link frontend to backend--><g id="link_frontend_backend"><path d="M400.19,222.6069 C323.54,227.2569 211.5,239.5269 184.5,271.7969 C168.41,291.0269 188.3,307.0469 214.74,318.7969 " fill="transparent" id="frontend-backend" style="stroke:#555555;stroke-width:1;"/></g><!--link frontend to backend--><g id="link_frontend_backend"><path d="M400.36,224.5869 C332.83,230.6769 240.27,243.9569 217.5,271.7969 C203.78,288.5769 215.8139,302.5038 236.5539,315.4838 " fill="transparent" id="frontend-to-backend" style="stroke:#555555;stroke-width:1;"/><polygon fill="#555555" points="241.64,318.6669,236.133,310.5015,237.4016,316.0143,231.8889,317.283,241.64,318.6669" style="stroke:#555555;stroke-width:1;"/><text fill="#333333" font-family="sans-serif" font-size="13" lengthAdjust="spacing" textLength="212.5767" x="218.5" y="284.8638">4: Forward task creation request</text></g><!--reverse link frontend to backend--><g id="link_frontend_backend"><path d="M464.5286,247.3779 C458.2486,262.4979 450.27,276.4269 435.5,288.7969 C416.19,304.9669 391.51,316.2469 367.86,324.0469 " fill="transparent" id="frontend-backto-backend" style="stroke:#555555;stroke-width:1;"/><polygon fill="#555555" points="466.83,241.8369,459.6838,248.6142,464.9121,246.4544,467.0719,251.6828,466.83,241.8369" style="stroke:#555555;stroke-width:1;"/><text fill="#333333" font-family="sans-serif" font-size="13" lengthAdjust="spacing" textLength="251.2085" x="451.5" y="284.8638">8: Return updated Kanban board state</text></g><!--link backend to db--><g id="link_backend_db"><path d="M305.66,364.9869 C323.63,386.9569 350.97,420.3769 368.79,442.1469 " fill="transparent" id="backend-db" style="stroke:#555555;stroke-width:1;"/></g><!--link backend to db--><g id="link_backend_db"><path d="M317.16,365.0469 C327.49,373.6569 338.69,384.0169 347.5,394.7969 C359.35,409.2869 366.9525,422.4675 373.9825,436.6975 " fill="transparent" id="backend-to-db" style="stroke:#555555;stroke-width:1;"/><polygon fill="#555555" points="376.64,442.0769,376.2399,432.2361,374.4254,437.5941,369.0674,435.7795,376.64,442.0769" style="stroke:#555555;stroke-width:1;"/><text fill="#333333" font-family="sans-serif" font-size="13" lengthAdjust="spacing" textLength="116.3398" x="360.5" y="407.8638">6: Store task data</text></g><!--link backend to notification--><g id="link_backend_notification"><path d="M285.47,364.9269 C283,379.8869 277.55,399.1369 265.5,411.7969 C251.82,426.1669 233.8,436.5969 215.28,444.1569 " fill="transparent" id="backend-notification" style="stroke:#555555;stroke-width:1;"/></g><!--link backend to notification--><g id="link_backend_notification"><path d="M207.19,357.0269 C167.02,365.9469 124.44,378.7969 112.5,394.7969 C102.49,408.2169 104.7426,421.5632 111.2926,436.1532 " fill="transparent" id="backend-to-notification" style="stroke:#555555;stroke-width:1;"/><polygon fill="#555555" points="113.75,441.6269,113.7131,431.7781,111.7022,437.0655,106.4148,435.0546,113.75,441.6269" style="stroke:#555555;stroke-width:1;"/><text fill="#333333" font-family="sans-serif" font-size="13" lengthAdjust="spacing" textLength="147.5386" x="113.5" y="407.8638">7: Trigger notifications</text></g><!--link auth to db--><g id="link_auth_db"><path d="M700.51,364.8469 C630.75,386.8369 524.29,420.3769 455.04,442.1969 " fill="transparent" id="auth-db" style="stroke:#555555;stroke-width:1;"/></g><!--link user to auth--><g id="link_user_auth"><path d="M757.38,118.9069 C758.96,128.6069 760.48,139.0669 761.5,148.7969 C767.94,210.0269 769.6829,276.7275 770.2029,312.5575 " fill="transparent" id="user-to-auth" style="stroke:#555555;stroke-width:1;"/><polygon fill="#555555" points="770.29,318.5569,774.159,309.4998,770.2174,313.5574,766.1598,309.6159,770.29,318.5569" style="stroke:#555555;stroke-width:1;"/><text fill="#333333" font-family="sans-serif" font-size="13" lengthAdjust="spacing" textLength="174.8716" x="769.5" y="223.3638">1: Submit login credentials</text></g><!--reverse link user to auth--><g id="link_user_auth"><path d="M772.5359,86.4978 C812.7359,95.7878 910.98,124.6869 952.5,195.7969 C985.2,251.7869 905.35,294.5669 841.24,318.6969 " fill="transparent" id="user-backto-auth" style="stroke:#555555;stroke-width:1;"/><polygon fill="#555555" points="766.69,85.1469,774.5583,91.0706,771.5616,86.2727,776.3595,83.276,766.69,85.1469" style="stroke:#555555;stroke-width:1;"/><text fill="#333333" font-family="sans-serif" font-size="13" lengthAdjust="spacing" textLength="126.8833" x="960.5" y="223.3638">2: Issues JWT token</text></g><!--link backend to backend--><g id="link_backend_backend"><path d="M367.58,330.6969 C387.56,331.4769 402.5,335.1769 402.5,341.7969 C402.5,348.4169 393.5554,351.8828 373.5754,352.6628 " fill="transparent" id="backend-to-backend" style="stroke:#555555;stroke-width:1;"/><polygon fill="#555555" points="367.58,352.8969,376.7292,356.5427,372.5762,352.7018,376.4171,348.5488,367.58,352.8969" style="stroke:#555555;stroke-width:1;"/><text fill="#333333" font-family="sans-serif" font-size="13" lengthAdjust="spacing" textLength="135.0908" x="408.5" y="346.3638">5: Validate task data</text></g><!--SRC=[XLJVRvim47xdhpWnQNjPfBHfbfI7IMq2qdvgQxhrsS11l8BDRDEiclQ_xsmWSMYgaeUOk-_xxhkpZRxdec6ArP2oxBvKiXNvIbPImMxB3GPwdzTRbiiT5oKKhD8O16zWZGKN28LKDQiWipJjCMJw2pC3VmE0wv7ugsHkVpOZLOwgZyxSGz542jF5qegemR_0qyratKY1uXdfU9QS9-knz5cyNCRpbwHpPbZAD3wZl4pcyULO-M9sDRrOlAJCCaE9qxD8acLyDfPDaglfTFgYh59ovsHxsjmzHxHXh4T48Gq-QsSTBvxOkLvDpzUdxHXkAhG6AfPAnGn_GBXb-Xw-CC5AhErMRHwrmHecFamAM7DMafqWwEOJ_j2eGc0QMbe4XvqERv0Ga2YgZY9taA9_yM5NhTdIWcUT_6h8E0AZf0-E_pGAjNOZ64JJRXtiJqBuJMfJAjny_mphFkYGUUfhVPM65qFP3Qe7ddKmuIMyIwEmSY6zvOqERBSmcHnQ6XOsw6pxWS5Z_sz3PCPxEwffwJtaKBwclcbheAZaJiEE4qJZxnP5XY3QEaKrc5Ayt9h9U-S28WZF8jYqQSqDLBBa0ZA5kPquVHJ2lbQ5XMKuFZ7E8_YWTOiQFjxTWf7aCXo9xxiZ-2o2bK96nrFW3WoTez3hdhv1WWX3iuI_YEXCgXrJkGDRGzqkADkGDk5XCaCvZpsFu2UhU6xhERhTU8_IryjJ2tv7lTCnFOqSnFtXMz8YWblAbTIldz8UjMr6CrX6S8EcLGBQnbhBuHCJAHEGIjkdDXJpfpAQ-6L45qit5NiyoG-3m5t_L1eZwJjTsBC1NMlQzQRVsg-ilRYqefGJjlt2Qzz2O8jRgIU2HoUGf0ce0Ml6AnBaOiAQvdWQ168aTeVfHj9KJ6zSxqly1m00]--></g></svg>