<svg xmlns="http://www.w3.org/2000/svg" xmlns:xlink="http://www.w3.org/1999/xlink" contentStyleType="text/css" data-diagram-type="DESCRIPTION" height="726px" preserveAspectRatio="none" style="width:1143px;height:726px;background:#FFFFFF;" version="1.1" viewBox="0 0 1143 726" width="1143px" zoomAndPan="magnify"><defs/><g><!--entity frontend--><g id="elem_frontend"><rect fill="#1E5FA0" height="36.2969" rx="2.5" ry="2.5" style="stroke:#333333;stroke-width:0.5;" width="139.7656" x="492" y="15.5"/><text fill="#FFFFFF" font-family="sans-serif" font-size="14" lengthAdjust="spacing" textLength="119.7656" x="502" y="38.4951">Frontend System</text></g><!--entity backend--><g id="elem_backend"><rect fill="#1E5FA0" height="36.2969" rx="2.5" ry="2.5" style="stroke:#333333;stroke-width:0.5;" width="137.0176" x="493.5" y="149"/><text fill="#FFFFFF" font-family="sans-serif" font-size="14" lengthAdjust="spacing" textLength="117.0176" x="503.5" y="171.9951">Backend System</text></g><!--entity database--><g id="elem_database"><rect fill="#1E5FA0" height="36.2969" rx="2.5" ry="2.5" style="stroke:#333333;stroke-width:0.5;" width="143.457" x="238.5" y="289.5"/><text fill="#FFFFFF" font-family="sans-serif" font-size="14" lengthAdjust="spacing" textLength="123.457" x="248.5" y="312.4951">Database System</text></g><!--entity auth--><g id="elem_auth"><rect fill="#1E5FA0" height="36.2969" rx="2.5" ry="2.5" style="stroke:#333333;stroke-width:0.5;" width="178.9629" x="414.5" y="435.5"/><text fill="#FFFFFF" font-family="sans-serif" font-size="14" lengthAdjust="spacing" textLength="158.9629" x="424.5" y="458.4951">Authentication Service</text></g><!--entity deploy--><g id="elem_deploy"><rect fill="#1E5FA0" height="36.2969" rx="2.5" ry="2.5" style="stroke:#333333;stroke-width:0.5;" width="199.7852" x="7" y="435.5"/><text fill="#FFFFFF" font-family="sans-serif" font-size="14" lengthAdjust="spacing" textLength="179.7852" x="17" y="458.4951">Deployment Environment</text></g><!--entity fronttech--><g id="elem_fronttech"><rect fill="#1E5FA0" height="68.8906" rx="2.5" ry="2.5" style="stroke:#333333;stroke-width:0.5;" width="111.5811" x="1026" y="273"/><text fill="#FFFFFF" font-family="sans-serif" font-size="14" lengthAdjust="spacing" textLength="55.7402" x="1036" y="295.9951">React.js</text><text fill="#FFFFFF" font-family="sans-serif" font-size="14" lengthAdjust="spacing" textLength="76.3027" x="1036" y="312.292">Material-UI</text><text fill="#FFFFFF" font-family="sans-serif" font-size="14" lengthAdjust="spacing" textLength="91.5811" x="1036" y="328.5889">React Router</text></g><!--entity backtech--><g id="elem_backtech"><rect fill="#1E5FA0" height="68.8906" rx="2.5" ry="2.5" style="stroke:#333333;stroke-width:0.5;" width="90.6084" x="878.5" y="419"/><text fill="#FFFFFF" font-family="sans-serif" font-size="14" lengthAdjust="spacing" textLength="52.1719" x="888.5" y="441.9951">Node.js</text><text fill="#FFFFFF" font-family="sans-serif" font-size="14" lengthAdjust="spacing" textLength="70.6084" x="888.5" y="458.292">Express.js</text><text fill="#FFFFFF" font-family="sans-serif" font-size="14" lengthAdjust="spacing" textLength="69.9043" x="888.5" y="474.5889">REST APIs</text></g><!--entity dbtech--><g id="elem_dbtech"><rect fill="#1E5FA0" height="36.2969" rx="2.5" ry="2.5" style="stroke:#333333;stroke-width:0.5;" width="100.7529" x="259.5" y="560"/><text fill="#FFFFFF" font-family="sans-serif" font-size="14" lengthAdjust="spacing" textLength="80.7529" x="269.5" y="582.9951">PostgreSQL</text></g><!--entity authtech--><g id="elem_authtech"><rect fill="#1E5FA0" height="52.5938" rx="2.5" ry="2.5" style="stroke:#333333;stroke-width:0.5;" width="81.3525" x="463.5" y="668"/><text fill="#FFFFFF" font-family="sans-serif" font-size="14" lengthAdjust="spacing" textLength="26.5234" x="473.5" y="690.9951">JWT</text><text fill="#FFFFFF" font-family="sans-serif" font-size="14" lengthAdjust="spacing" textLength="61.3525" x="473.5" y="707.292">Bcrypt.js</text></g><!--entity deploytech--><g id="elem_deploytech"><rect fill="#1E5FA0" height="52.5938" rx="2.5" ry="2.5" style="stroke:#333333;stroke-width:0.5;" width="162.3789" x="26" y="551.5"/><text fill="#FFFFFF" font-family="sans-serif" font-size="14" lengthAdjust="spacing" textLength="103.4756" x="36" y="574.4951">Cloud Services</text><text fill="#FFFFFF" font-family="sans-serif" font-size="14" lengthAdjust="spacing" textLength="142.3789" x="36" y="590.792">(AWS/Vercel/Netlify)</text></g><!--entity ui--><g id="elem_ui"><ellipse cx="1040" cy="167" fill="#FFFFFF" rx="8" ry="8" style="stroke:#333333;stroke-width:0.5;"/><text fill="#333333" font-family="sans-serif" font-size="14" lengthAdjust="spacing" textLength="117.6396" x="981.1802" y="196.9951">Kanban Board UI</text></g><!--entity api--><g id="elem_api"><ellipse cx="924" cy="307.5" fill="#FFFFFF" rx="8" ry="8" style="stroke:#333333;stroke-width:0.5;"/><text fill="#333333" font-family="sans-serif" font-size="14" lengthAdjust="spacing" textLength="118.1523" x="864.9238" y="337.4951">Task &amp; User APIs</text></g><!--entity crud--><g id="elem_crud"><ellipse cx="310" cy="453.5" fill="#FFFFFF" rx="8" ry="8" style="stroke:#333333;stroke-width:0.5;"/><text fill="#333333" font-family="sans-serif" font-size="14" lengthAdjust="spacing" textLength="121.9463" x="249.0269" y="483.4951">CRUD Operations</text></g><!--entity rbac--><g id="elem_rbac"><ellipse cx="504" cy="578" fill="#FFFFFF" rx="8" ry="8" style="stroke:#333333;stroke-width:0.5;"/><text fill="#333333" font-family="sans-serif" font-size="14" lengthAdjust="spacing" textLength="131.4482" x="438.2759" y="607.9951">Role-Based Access</text></g><g id="elem_GMN36"><path d="M667,6 L667,29.5 L632.21,33.5 L667,37.5 L667,61.3984 A0,0 0 0 0 667,61.3984 L875.1289,61.3984 A0,0 0 0 0 875.1289,61.3984 L875.1289,16 L865.1289,6 L667,6 A0,0 0 0 0 667,6 " fill="#3E7DB9" style="stroke:#333333;stroke-width:0.5;"/><path d="M865.1289,6 L865.1289,16 L875.1289,16 L865.1289,6 " fill="#3E7DB9" style="stroke:#333333;stroke-width:0.5;"/><text fill="#FFFFFF" font-family="sans-serif" font-size="13" lengthAdjust="spacing" textLength="144.4346" x="673" y="23.0669">Kanban-style board UI</text><text fill="#FFFFFF" font-family="sans-serif" font-size="13" lengthAdjust="spacing" textLength="182.9585" x="673" y="38.1997">User management interface</text><text fill="#FFFFFF" font-family="sans-serif" font-size="13" lengthAdjust="spacing" textLength="187.1289" x="673" y="53.3325">Task tracking &amp; visualization</text></g><g id="elem_GMN39"><path d="M665.5,139.5 L665.5,163 L630.87,167 L665.5,171 L665.5,194.8984 A0,0 0 0 0 665.5,194.8984 L896.1313,194.8984 A0,0 0 0 0 896.1313,194.8984 L896.1313,149.5 L886.1313,139.5 L665.5,139.5 A0,0 0 0 0 665.5,139.5 " fill="#3E7DB9" style="stroke:#333333;stroke-width:0.5;"/><path d="M886.1313,139.5 L886.1313,149.5 L896.1313,149.5 L886.1313,139.5 " fill="#3E7DB9" style="stroke:#333333;stroke-width:0.5;"/><text fill="#FFFFFF" font-family="sans-serif" font-size="13" lengthAdjust="spacing" textLength="209.6313" x="671.5" y="156.5669">REST APIs for task management</text><text fill="#FFFFFF" font-family="sans-serif" font-size="13" lengthAdjust="spacing" textLength="194.0542" x="671.5" y="171.6997">User management controllers</text><text fill="#FFFFFF" font-family="sans-serif" font-size="13" lengthAdjust="spacing" textLength="146.6816" x="671.5" y="186.8325">Real-time notifications</text></g><g id="elem_GMN42"><path d="M416.5,280 L416.5,303.5 L381.71,307.5 L416.5,311.5 L416.5,335.3984 A0,0 0 0 0 416.5,335.3984 L625.3589,335.3984 A0,0 0 0 0 625.3589,335.3984 L625.3589,290 L615.3589,280 L416.5,280 A0,0 0 0 0 416.5,280 " fill="#3E7DB9" style="stroke:#333333;stroke-width:0.5;"/><path d="M615.3589,280 L615.3589,290 L625.3589,290 L615.3589,280 " fill="#3E7DB9" style="stroke:#333333;stroke-width:0.5;"/><text fill="#FFFFFF" font-family="sans-serif" font-size="13" lengthAdjust="spacing" textLength="185.5103" x="422.5" y="297.0669">Tasks, Users, Projects tables</text><text fill="#FFFFFF" font-family="sans-serif" font-size="13" lengthAdjust="spacing" textLength="187.8589" x="422.5" y="312.1997">Optimized queries &amp; indexes</text><text fill="#FFFFFF" font-family="sans-serif" font-size="13" lengthAdjust="spacing" textLength="166.4927" x="422.5" y="327.3325">Data integrity constraints</text></g><g id="elem_GMN45"><path d="M628.5,426 L628.5,449.5 L593.72,453.5 L628.5,457.5 L628.5,481.3984 A0,0 0 0 0 628.5,481.3984 L843.4653,481.3984 A0,0 0 0 0 843.4653,481.3984 L843.4653,436 L833.4653,426 L628.5,426 A0,0 0 0 0 628.5,426 " fill="#3E7DB9" style="stroke:#333333;stroke-width:0.5;"/><path d="M833.4653,426 L833.4653,436 L843.4653,436 L833.4653,426 " fill="#3E7DB9" style="stroke:#333333;stroke-width:0.5;"/><text fill="#FFFFFF" font-family="sans-serif" font-size="13" lengthAdjust="spacing" textLength="167.1973" x="634.5" y="443.0669">JWT-based authentication</text><text fill="#FFFFFF" font-family="sans-serif" font-size="13" lengthAdjust="spacing" textLength="169.9458" x="634.5" y="458.1997">Role-based access control</text><text fill="#FFFFFF" font-family="sans-serif" font-size="13" lengthAdjust="spacing" textLength="193.9653" x="634.5" y="473.3325">(Admin, Team Lead, Member)</text></g><!--link frontend to ui--><g id="link_frontend_ui"><path d="M617.79,51.57 C628.47,54.76 639.57,58.03 650,61 C801.72,104.26 988.01,152.59 1030.9,163.66 " fill="transparent" id="frontend-ui" style="stroke:#333333;stroke-width:1;"/></g><!--link ui to fronttech--><g id="link_ui_fronttech"><path d="M1042.5,176.25 C1048.13,194.83 1062.08,240.82 1071.8,272.85 " fill="transparent" id="ui-fronttech" style="stroke:#333333;stroke-width:1;"/></g><!--link backend to api--><g id="link_backend_api"><path d="M610.46,185.12 C642.26,196.46 684.72,211.82 722,226 C796.8,254.46 886.24,290.99 914.78,302.71 " fill="transparent" id="backend-api" style="stroke:#333333;stroke-width:1;"/></g><!--link api to backtech--><g id="link_api_backtech"><path d="M924,316.65 C924,335.93 924,385.21 924,418.8 " fill="transparent" id="api-backtech" style="stroke:#333333;stroke-width:1;"/></g><!--link database to crud--><g id="link_database_crud"><path d="M310,325.58 C310,356.73 310,421.61 310,444.39 " fill="transparent" id="database-crud" style="stroke:#333333;stroke-width:1;"/></g><!--link crud to dbtech--><g id="link_crud_dbtech"><path d="M310,462.54 C310,482.13 310,532.69 310,559.58 " fill="transparent" id="crud-dbtech" style="stroke:#333333;stroke-width:1;"/></g><!--link auth to rbac--><g id="link_auth_rbac"><path d="M504,471.53 C504,498.22 504,548.9 504,568.74 " fill="transparent" id="auth-rbac" style="stroke:#333333;stroke-width:1;"/></g><!--link rbac to authtech--><g id="link_rbac_authtech"><path d="M504,587.23 C504,603.85 504,641.99 504,667.76 " fill="transparent" id="rbac-authtech" style="stroke:#333333;stroke-width:1;"/></g><!--link deploy to deploytech--><g id="link_deploy_deploytech"><path d="M107,471.53 C107,492.18 107,527.17 107,551.14 " fill="transparent" id="deploy-deploytech" style="stroke:#333333;stroke-width:1;"/></g><!--link frontend to backend--><g id="link_frontend_backend"><path d="M562,51.69 C562,76.89 562,117.6 562,142.8 " fill="transparent" id="frontend-to-backend" style="stroke:#333333;stroke-width:1;"/><polygon fill="#333333" points="562,148.8,566,139.8,562,143.8,558,139.8,562,148.8" style="stroke:#333333;stroke-width:1;"/><text fill="#000000" font-family="sans-serif" font-size="13" lengthAdjust="spacing" textLength="97.792" x="563" y="104.0669">HTTP Requests</text></g><!--link backend to database--><g id="link_backend_database"><path d="M530.85,185.12 C482.39,211.76 394.7583,259.9202 346.3383,286.5302 " fill="transparent" id="backend-to-database" style="stroke:#333333;stroke-width:1;"/><polygon fill="#333333" points="341.08,289.42,350.8939,288.5909,345.4619,287.0119,347.0409,281.5799,341.08,289.42" style="stroke:#333333;stroke-width:1;"/><text fill="#000000" font-family="sans-serif" font-size="13" lengthAdjust="spacing" textLength="116.3589" x="452" y="239.0669">Database Queries</text></g><!--link backend to auth--><g id="link_backend_auth"><path d="M581.14,185.09 C601,204.22 630.82,237.26 643,273 C652.89,302.03 656.33,314.38 643,342 C621.9,385.73 579.4429,414.6541 545.8229,432.6041 " fill="transparent" id="backend-to-auth" style="stroke:#333333;stroke-width:1;"/><polygon fill="#333333" points="540.53,435.43,550.3532,434.7197,544.9407,433.0751,546.5853,427.6626,540.53,435.43" style="stroke:#333333;stroke-width:1;"/><text fill="#000000" font-family="sans-serif" font-size="13" lengthAdjust="spacing" textLength="124.1602" x="652" y="312.0669">Authenticate Users</text></g><!--reverse link database to auth--><g id="link_database_auth"><path d="M337.8371,329.157 C375.1671,356.877 443.7,407.74 481.01,435.44 " fill="transparent" id="database-backto-auth" style="stroke:#333333;stroke-width:1;"/><polygon fill="#333333" points="333.02,325.58,337.861,334.157,337.0343,328.5609,342.6304,327.7341,333.02,325.58" style="stroke:#333333;stroke-width:1;"/><text fill="#000000" font-family="sans-serif" font-size="13" lengthAdjust="spacing" textLength="116.2192" x="413" y="385.0669">Verify Credentials</text></g><!--reverse link frontend to deploy--><g id="link_frontend_deploy"><path d="M485.9908,50.1013 C383.6208,75.0613 203.32,136.35 129,273 C99.9,326.51 102.27,402 105.13,435.43 " fill="transparent" id="frontend-backto-deploy" style="stroke:#333333;stroke-width:1;"/><polygon fill="#333333" points="491.82,48.68,482.1286,46.9258,486.9623,49.8644,484.0237,54.6981,491.82,48.68" style="stroke:#333333;stroke-width:1;"/><text fill="#000000" font-family="sans-serif" font-size="13" lengthAdjust="spacing" textLength="36.3721" x="162" y="239.0669">Hosts</text></g><!--reverse link backend to deploy--><g id="link_backend_deploy"><path d="M487.4328,169.9622 C404.3928,175.4022 270.76,195.99 183,273 C132.89,316.97 114.9,399.56 109.26,435.3 " fill="transparent" id="backend-backto-deploy" style="stroke:#333333;stroke-width:1;"/><polygon fill="#333333" points="493.42,169.57,484.1778,166.1669,488.4307,169.8969,484.7007,174.1498,493.42,169.57" style="stroke:#333333;stroke-width:1;"/><text fill="#000000" font-family="sans-serif" font-size="13" lengthAdjust="spacing" textLength="36.3721" x="184" y="312.0669">Hosts</text></g><!--reverse link database to deploy--><g id="link_database_deploy"><path d="M281.0265,329.0519 C241.9565,356.7719 170.1,407.74 131.05,435.44 " fill="transparent" id="database-backto-deploy" style="stroke:#333333;stroke-width:1;"/><polygon fill="#333333" points="285.92,325.58,276.2652,327.5255,281.8421,328.4732,280.8944,334.0501,285.92,325.58" style="stroke:#333333;stroke-width:1;"/><text fill="#000000" font-family="sans-serif" font-size="13" lengthAdjust="spacing" textLength="36.3721" x="216" y="385.0669">Hosts</text></g><!--SRC=[bLNRRjim37tNLn0kiBL0l6ueXc5x692aAPQjbpINzI7TWsmpYLf7SYMvRJhitqV9rmGfXXb8u927v15vn9Xx8JEk-HeY7jyljSfbqbUfql2q4XQPgVsnMcTAehGJkqaHDCQMosMAR1y6VZEWfxUJy-33uEDPzttXKpf1NTfF_EFjPqhQDWDdwsgjdhQXVzfrXRIe5pp6L-escVvTTMy1gUnhkGzE1fzEUv__wqoK-otqgsOPDZ_JX42Pm6HZBAv_0JUmA6rixahkEAF2nEQdtFA86smxazB6vjtShgY2YBaLIi84zQE8qOCukIWSirHjrcva0_aegAHxBx9ubsCwoQCmRjWsKmx6o6FxxixSoWjE8n0y3MV3M-dDC5OvsOBwB1RZLJluKYNeOmVFcKPZ_FjuC9b2TpGqGNNCtR2HCdQfSN9zxY59j0luVZEzbRrORp97BQWEkmlhfofFgfPGvSFkpUJu9-eOq-DBjAbOR8w2fX4-d9enhBHcM2Exu0UN4PSa0AuJc0rzN2xQY2atz_06PWPrSpwURM7wuzafN6Me_RWAIAppf8qPgnJ37aqtWMvCB0gKfauLefAIRgQBPfM080mTbroubsOIhDIGipeUz76lTSjP9IDdzIpSb_jHjfovhhhVlhZxygcgLhEYRpwWrS66LQAUPFYraZ9yWU3RT3g2CJxaQAm96e8biYP4q5htrpdf3jjeBPOhIt1FZw2jIu2-_mGkgEVPJbOQFuqT-XeJ5y5JWjRdyEYQlgEhFCqjV_iqUzpjOgMVfdP9wyKmlsGyUL2Bvle35E8AZL-yKIanidijhRdaI_Gtk5O9-RpSh2OsGYv9Tu_2v3mLBrvPp35qvTXEqMgj0DJt41QqjgpBrbJQKpicjbgbANNNHIDj0YlMwAg8HRb_pAjrwurL43UTOauT66brHtesn21AqQM-oYYlU27vFnIJfyC9cU2pzpfP-3uijR0RnyfG4uHRMw_LzeiGWBP66FbhnRUMfZkDktAbpr-vwhJaE-mcQo4xC4NwcpX7ddJW0jSHwgEwu5y0]--></g></svg>