<svg xmlns="http://www.w3.org/2000/svg" xmlns:xlink="http://www.w3.org/1999/xlink" contentStyleType="text/css" data-diagram-type="DESCRIPTION" height="675px" preserveAspectRatio="none" style="width:2427px;height:675px;background:#FFFFFF;" version="1.1" viewBox="0 0 2427 675" width="2427px" zoomAndPan="magnify"><title>Collaborative Task Management System - Component Diagram</title><defs/><g><text fill="#000000" font-family="sans-serif" font-size="14" font-weight="bold" lengthAdjust="spacing" textLength="495.1748" x="959.3889" y="22.9951">Collaborative Task Management System - Component Diagram</text><!--cluster Frontend Module--><g id="cluster_Frontend Module"><path d="M8.5,43.2969 L144.4346,43.2969 A3.75,3.75 0 0 1 146.9346,45.7969 L153.9346,65.5938 L533.5,65.5938 A2.5,2.5 0 0 1 536,68.0938 L536,243.7969 A2.5,2.5 0 0 1 533.5,246.2969 L8.5,246.2969 A2.5,2.5 0 0 1 6,243.7969 L6,45.7969 A2.5,2.5 0 0 1 8.5,43.2969 " fill="#E8EAF6" style="stroke:#000000;stroke-width:1.5;"/><line style="stroke:#000000;stroke-width:1.5;" x1="6" x2="153.9346" y1="65.5938" y2="65.5938"/><text fill="#000000" font-family="sans-serif" font-size="14" font-weight="bold" lengthAdjust="spacing" textLength="134.9346" x="10" y="58.292">Frontend Module</text></g><!--cluster Backend Module--><g id="cluster_Backend Module"><path d="M1008.5,149.2969 L1139.417,149.2969 A3.75,3.75 0 0 1 1141.917,151.7969 L1148.917,171.5938 L1779.5,171.5938 A2.5,2.5 0 0 1 1782,174.0938 L1782,354.2969 A2.5,2.5 0 0 1 1779.5,356.7969 L1008.5,356.7969 A2.5,2.5 0 0 1 1006,354.2969 L1006,151.7969 A2.5,2.5 0 0 1 1008.5,149.2969 " fill="#E0F7FA" style="stroke:#000000;stroke-width:1.5;"/><line style="stroke:#000000;stroke-width:1.5;" x1="1006" x2="1148.917" y1="171.5938" y2="171.5938"/><text fill="#000000" font-family="sans-serif" font-size="14" font-weight="bold" lengthAdjust="spacing" textLength="129.917" x="1010" y="164.292">Backend Module</text></g><!--cluster Database Module--><g id="cluster_Database Module"><path d="M966.5,380.7969 L1104.7109,380.7969 A3.75,3.75 0 0 1 1107.2109,383.2969 L1114.2109,403.0938 L1857.5,403.0938 A2.5,2.5 0 0 1 1860,405.5938 L1860,589.2969 A2.5,2.5 0 0 1 1857.5,591.7969 L966.5,591.7969 A2.5,2.5 0 0 1 964,589.2969 L964,383.2969 A2.5,2.5 0 0 1 966.5,380.7969 " fill="#F9FBE7" style="stroke:#000000;stroke-width:1.5;"/><line style="stroke:#000000;stroke-width:1.5;" x1="964" x2="1114.2109" y1="403.0938" y2="403.0938"/><text fill="#000000" font-family="sans-serif" font-size="14" font-weight="bold" lengthAdjust="spacing" textLength="137.2109" x="968" y="395.792">Database Module</text></g><!--cluster db--><g id="cluster_db"><path d="M996,441.7969 C996,431.7969 1412,431.7969 1412,431.7969 C1412,431.7969 1828,431.7969 1828,441.7969 L1828,549.7969 C1828,559.7969 1412,559.7969 1412,559.7969 C1412,559.7969 996,559.7969 996,549.7969 L996,441.7969 " fill="#F3E5F5" style="stroke:#8E24AA;stroke-width:1;"/><path d="M996,441.7969 C996,451.7969 1412,451.7969 1412,451.7969 C1412,451.7969 1828,451.7969 1828,441.7969 " fill="transparent" style="stroke:#8E24AA;stroke-width:1;"/><text fill="#000000" font-family="sans-serif" font-size="14" font-weight="bold" lengthAdjust="spacing" textLength="92.2305" x="1365.8848" y="466.792">PostgreSQL</text></g><!--cluster External Services--><g id="cluster_External Services"><path d="M1940.8166,466.12 C1948.3525,452.9833 1956.1896,455.8503 1964.6371,465.1522 C1969.5189,454.2086 1978.4597,453.9414 1985.662,462.6726 C1994.5384,451.3188 2001.8785,454.5546 2009.0319,464.5579 C2014.8731,452.8577 2025.3041,449.5214 2034.6486,460.6222 C2041.4758,448.9981 2051.3264,449.7661 2057.3837,461.3755 C2063.0155,447.8549 2074.7386,449.5195 2082.2328,459.3977 C2090.9859,450.51 2097.6315,452.2105 2103.7146,462.4037 C2109.5935,452.6739 2118.886,450.3198 2126.3199,460.6514 C2133.9621,450.302 2143.1114,449.3151 2149.5766,461.8476 C2156.5503,451.0874 2167.4691,450.6552 2173.5093,462.822 C2180.5311,450.6719 2190.3533,450.7344 2198.9157,461.0822 C2205.9976,451.8948 2214.798,452.4748 2219.794,463.2625 C2229.2323,450.5249 2237.5224,452.8214 2245.5621,464.7251 C2253.0886,456.0083 2259.6834,457.1722 2265.4695,466.6313 C2286.509,478.4195 2284.9201,492.0319 2268.7985,506.8927 C2287.825,522.2996 2283.667,534.8671 2265.4542,547.1829 C2259.5147,555.6024 2249.7333,557.3074 2244.7295,546.1903 C2237.526,559.7005 2228.8553,559.6848 2218.7018,549.4198 C2212.6643,559.0722 2203.949,558.9454 2197.3285,550.0932 C2193.3447,561.3825 2183.2657,561.8062 2175.7063,554.1805 C2167.5402,564.5388 2160.3342,565.0909 2152.3885,553.9415 C2147.0852,566.8485 2136.3749,566.3044 2128.3172,556.9153 C2121.5302,569.9309 2111.6861,571.8596 2102.3252,559.5578 C2095.0633,567.4767 2087.8443,568.892 2082.2179,557.8257 C2072.2004,568.2848 2063.6007,567.5185 2058.5804,553.0811 C2051.4536,564.5167 2042.7414,566.6755 2034.5958,554.0986 C2026.2114,563.1072 2015.2624,561.5178 2011.84,548.8818 C2004.3455,560.7147 1994.244,561.3519 1987.2016,548.4318 C1980.5838,557.2213 1972.7864,559.2202 1966.1627,548.4384 C1957.883,558.0451 1950.1625,559.7462 1942.9206,547.3426 C1919.7981,539.5275 1913.5751,520.6943 1934.7489,504.4417 C1917.5608,489.9034 1921.7115,474.9118 1940.8166,466.12 " fill="#FFF3E0" style="stroke:#FFA000;stroke-width:1;"/><text fill="#000000" font-family="sans-serif" font-size="14" font-weight="bold" lengthAdjust="spacing" textLength="137.3066" x="2033.3467" y="480.792">External Services</text></g><!--entity ui--><g id="elem_ui"><rect fill="#E3F2FD" height="46.2969" rx="2.5" ry="2.5" style="stroke:#1E88E5;stroke-width:0.5;" width="98.9326" x="255.5" y="78.2969"/><rect fill="#E3F2FD" height="10" style="stroke:#1E88E5;stroke-width:0.5;" width="15" x="334.4326" y="83.2969"/><rect fill="#E3F2FD" height="2" style="stroke:#1E88E5;stroke-width:0.5;" width="4" x="332.4326" y="85.2969"/><rect fill="#E3F2FD" height="2" style="stroke:#1E88E5;stroke-width:0.5;" width="4" x="332.4326" y="89.2969"/><text fill="#212121" font-family="sans-serif" font-size="14" lengthAdjust="spacing" textLength="58.9326" x="270.5" y="111.292">React UI</text></g><!--entity state--><g id="elem_state"><rect fill="#E3F2FD" height="46.2969" rx="2.5" ry="2.5" style="stroke:#1E88E5;stroke-width:0.5;" width="173.7314" x="22" y="184.2969"/><rect fill="#E3F2FD" height="10" style="stroke:#1E88E5;stroke-width:0.5;" width="15" x="175.7314" y="189.2969"/><rect fill="#E3F2FD" height="2" style="stroke:#1E88E5;stroke-width:0.5;" width="4" x="173.7314" y="191.2969"/><rect fill="#E3F2FD" height="2" style="stroke:#1E88E5;stroke-width:0.5;" width="4" x="173.7314" y="195.2969"/><text fill="#212121" font-family="sans-serif" font-size="14" lengthAdjust="spacing" textLength="133.7314" x="37" y="217.292">State Management</text></g><!--entity components--><g id="elem_components"><rect fill="#E3F2FD" height="46.2969" rx="2.5" ry="2.5" style="stroke:#1E88E5;stroke-width:0.5;" width="147.3994" x="231.5" y="184.2969"/><rect fill="#E3F2FD" height="10" style="stroke:#1E88E5;stroke-width:0.5;" width="15" x="358.8994" y="189.2969"/><rect fill="#E3F2FD" height="2" style="stroke:#1E88E5;stroke-width:0.5;" width="4" x="356.8994" y="191.2969"/><rect fill="#E3F2FD" height="2" style="stroke:#1E88E5;stroke-width:0.5;" width="4" x="356.8994" y="195.2969"/><text fill="#212121" font-family="sans-serif" font-size="14" lengthAdjust="spacing" textLength="107.3994" x="246.5" y="217.292">UI Components</text></g><!--entity apiClient--><g id="elem_apiClient"><rect fill="#E3F2FD" height="46.2969" rx="2.5" ry="2.5" style="stroke:#1E88E5;stroke-width:0.5;" width="107.1289" x="413.5" y="184.2969"/><rect fill="#E3F2FD" height="10" style="stroke:#1E88E5;stroke-width:0.5;" width="15" x="500.6289" y="189.2969"/><rect fill="#E3F2FD" height="2" style="stroke:#1E88E5;stroke-width:0.5;" width="4" x="498.6289" y="191.2969"/><rect fill="#E3F2FD" height="2" style="stroke:#1E88E5;stroke-width:0.5;" width="4" x="498.6289" y="195.2969"/><text fill="#212121" font-family="sans-serif" font-size="14" lengthAdjust="spacing" textLength="67.1289" x="428.5" y="217.292">API Client</text></g><!--entity api--><g id="elem_api"><rect fill="#E3F2FD" height="46.2969" rx="2.5" ry="2.5" style="stroke:#1E88E5;stroke-width:0.5;" width="121.5732" x="1172" y="184.2969"/><rect fill="#E3F2FD" height="10" style="stroke:#1E88E5;stroke-width:0.5;" width="15" x="1273.5732" y="189.2969"/><rect fill="#E3F2FD" height="2" style="stroke:#1E88E5;stroke-width:0.5;" width="4" x="1271.5732" y="191.2969"/><rect fill="#E3F2FD" height="2" style="stroke:#1E88E5;stroke-width:0.5;" width="4" x="1271.5732" y="195.2969"/><text fill="#212121" font-family="sans-serif" font-size="14" lengthAdjust="spacing" textLength="81.5732" x="1187" y="217.292">Express API</text></g><!--entity auth--><g id="elem_auth"><rect fill="#E3F2FD" height="46.2969" rx="2.5" ry="2.5" style="stroke:#1E88E5;stroke-width:0.5;" width="198.9629" x="1022.5" y="294.7969"/><rect fill="#E3F2FD" height="10" style="stroke:#1E88E5;stroke-width:0.5;" width="15" x="1201.4629" y="299.7969"/><rect fill="#E3F2FD" height="2" style="stroke:#1E88E5;stroke-width:0.5;" width="4" x="1199.4629" y="301.7969"/><rect fill="#E3F2FD" height="2" style="stroke:#1E88E5;stroke-width:0.5;" width="4" x="1199.4629" y="305.7969"/><text fill="#212121" font-family="sans-serif" font-size="14" lengthAdjust="spacing" textLength="158.9629" x="1037.5" y="327.792">Authentication Service</text></g><!--entity taskManager--><g id="elem_taskManager"><rect fill="#E3F2FD" height="46.2969" rx="2.5" ry="2.5" style="stroke:#1E88E5;stroke-width:0.5;" width="138.3486" x="1469" y="294.7969"/><rect fill="#E3F2FD" height="10" style="stroke:#1E88E5;stroke-width:0.5;" width="15" x="1587.3486" y="299.7969"/><rect fill="#E3F2FD" height="2" style="stroke:#1E88E5;stroke-width:0.5;" width="4" x="1585.3486" y="301.7969"/><rect fill="#E3F2FD" height="2" style="stroke:#1E88E5;stroke-width:0.5;" width="4" x="1585.3486" y="305.7969"/><text fill="#212121" font-family="sans-serif" font-size="14" lengthAdjust="spacing" textLength="98.3486" x="1484" y="327.792">Task Manager</text></g><!--entity notificationService--><g id="elem_notificationService"><rect fill="#E3F2FD" height="46.2969" rx="2.5" ry="2.5" style="stroke:#1E88E5;stroke-width:0.5;" width="176.5205" x="1256.5" y="294.7969"/><rect fill="#E3F2FD" height="10" style="stroke:#1E88E5;stroke-width:0.5;" width="15" x="1413.0205" y="299.7969"/><rect fill="#E3F2FD" height="2" style="stroke:#1E88E5;stroke-width:0.5;" width="4" x="1411.0205" y="301.7969"/><rect fill="#E3F2FD" height="2" style="stroke:#1E88E5;stroke-width:0.5;" width="4" x="1411.0205" y="305.7969"/><text fill="#212121" font-family="sans-serif" font-size="14" lengthAdjust="spacing" textLength="136.5205" x="1271.5" y="327.792">Notification Service</text></g><!--entity fileHandler--><g id="elem_fileHandler"><rect fill="#E3F2FD" height="46.2969" rx="2.5" ry="2.5" style="stroke:#1E88E5;stroke-width:0.5;" width="124.0205" x="1642" y="294.7969"/><rect fill="#E3F2FD" height="10" style="stroke:#1E88E5;stroke-width:0.5;" width="15" x="1746.0205" y="299.7969"/><rect fill="#E3F2FD" height="2" style="stroke:#1E88E5;stroke-width:0.5;" width="4" x="1744.0205" y="301.7969"/><rect fill="#E3F2FD" height="2" style="stroke:#1E88E5;stroke-width:0.5;" width="4" x="1744.0205" y="305.7969"/><text fill="#212121" font-family="sans-serif" font-size="14" lengthAdjust="spacing" textLength="84.0205" x="1657" y="327.792">File Handler</text></g><!--entity userRepo--><g id="elem_userRepo"><rect fill="#E3F2FD" height="46.2969" rx="2.5" ry="2.5" style="stroke:#1E88E5;stroke-width:0.5;" width="151.4326" x="1039.5" y="489.7969"/><rect fill="#E3F2FD" height="10" style="stroke:#1E88E5;stroke-width:0.5;" width="15" x="1170.9326" y="494.7969"/><rect fill="#E3F2FD" height="2" style="stroke:#1E88E5;stroke-width:0.5;" width="4" x="1168.9326" y="496.7969"/><rect fill="#E3F2FD" height="2" style="stroke:#1E88E5;stroke-width:0.5;" width="4" x="1168.9326" y="500.7969"/><text fill="#212121" font-family="sans-serif" font-size="14" lengthAdjust="spacing" textLength="111.4326" x="1054.5" y="522.792">User Repository</text></g><!--entity taskRepo--><g id="elem_taskRepo"><rect fill="#E3F2FD" height="46.2969" rx="2.5" ry="2.5" style="stroke:#1E88E5;stroke-width:0.5;" width="152.0547" x="1226" y="489.7969"/><rect fill="#E3F2FD" height="10" style="stroke:#1E88E5;stroke-width:0.5;" width="15" x="1358.0547" y="494.7969"/><rect fill="#E3F2FD" height="2" style="stroke:#1E88E5;stroke-width:0.5;" width="4" x="1356.0547" y="496.7969"/><rect fill="#E3F2FD" height="2" style="stroke:#1E88E5;stroke-width:0.5;" width="4" x="1356.0547" y="500.7969"/><text fill="#212121" font-family="sans-serif" font-size="14" lengthAdjust="spacing" textLength="112.0547" x="1241" y="522.792">Task Repository</text></g><!--entity projectRepo--><g id="elem_projectRepo"><rect fill="#E3F2FD" height="46.2969" rx="2.5" ry="2.5" style="stroke:#1E88E5;stroke-width:0.5;" width="167.9756" x="1413" y="489.7969"/><rect fill="#E3F2FD" height="10" style="stroke:#1E88E5;stroke-width:0.5;" width="15" x="1560.9756" y="494.7969"/><rect fill="#E3F2FD" height="2" style="stroke:#1E88E5;stroke-width:0.5;" width="4" x="1558.9756" y="496.7969"/><rect fill="#E3F2FD" height="2" style="stroke:#1E88E5;stroke-width:0.5;" width="4" x="1558.9756" y="500.7969"/><text fill="#212121" font-family="sans-serif" font-size="14" lengthAdjust="spacing" textLength="127.9756" x="1428" y="522.792">Project Repository</text></g><!--entity commentRepo--><g id="elem_commentRepo"><rect fill="#E3F2FD" height="46.2969" rx="2.5" ry="2.5" style="stroke:#1E88E5;stroke-width:0.5;" width="188.1143" x="1616" y="489.7969"/><rect fill="#E3F2FD" height="10" style="stroke:#1E88E5;stroke-width:0.5;" width="15" x="1784.1143" y="494.7969"/><rect fill="#E3F2FD" height="2" style="stroke:#1E88E5;stroke-width:0.5;" width="4" x="1782.1143" y="496.7969"/><rect fill="#E3F2FD" height="2" style="stroke:#1E88E5;stroke-width:0.5;" width="4" x="1782.1143" y="500.7969"/><text fill="#212121" font-family="sans-serif" font-size="14" lengthAdjust="spacing" textLength="148.1143" x="1631" y="522.792">Comment Repository</text></g><!--entity email--><g id="elem_email"><rect fill="#E3F2FD" height="46.2969" rx="2.5" ry="2.5" style="stroke:#1E88E5;stroke-width:0.5;" width="135.0332" x="1947.5" y="489.7969"/><rect fill="#E3F2FD" height="10" style="stroke:#1E88E5;stroke-width:0.5;" width="15" x="2062.5332" y="494.7969"/><rect fill="#E3F2FD" height="2" style="stroke:#1E88E5;stroke-width:0.5;" width="4" x="2060.5332" y="496.7969"/><rect fill="#E3F2FD" height="2" style="stroke:#1E88E5;stroke-width:0.5;" width="4" x="2060.5332" y="500.7969"/><text fill="#212121" font-family="sans-serif" font-size="14" lengthAdjust="spacing" textLength="95.0332" x="1962.5" y="522.792">Email Service</text></g><!--entity storage--><g id="elem_storage"><rect fill="#E3F2FD" height="46.2969" rx="2.5" ry="2.5" style="stroke:#1E88E5;stroke-width:0.5;" width="139.2168" x="2117.5" y="489.7969"/><rect fill="#E3F2FD" height="10" style="stroke:#1E88E5;stroke-width:0.5;" width="15" x="2236.7168" y="494.7969"/><rect fill="#E3F2FD" height="2" style="stroke:#1E88E5;stroke-width:0.5;" width="4" x="2234.7168" y="496.7969"/><rect fill="#E3F2FD" height="2" style="stroke:#1E88E5;stroke-width:0.5;" width="4" x="2234.7168" y="500.7969"/><text fill="#212121" font-family="sans-serif" font-size="14" lengthAdjust="spacing" textLength="99.2168" x="2132.5" y="522.792">Cloud Storage</text></g><!--entity restApi--><g id="elem_restApi"><ellipse cx="440" cy="317.7969" fill="#FFFFFF" rx="8" ry="8" style="stroke:#424242;stroke-width:0.5;"/><text fill="#000000" font-family="sans-serif" font-size="14" lengthAdjust="spacing" textLength="62.6104" x="408.6948" y="347.792">REST API</text></g><!--entity websocket--><g id="elem_websocket"><ellipse cx="493" cy="317.7969" fill="#FFFFFF" rx="8" ry="8" style="stroke:#424242;stroke-width:0.5;"/><text fill="#000000" font-family="sans-serif" font-size="14" lengthAdjust="spacing" textLength="78.7021" x="453.6489" y="347.792">WebSocket</text></g><!--entity authInterface--><g id="elem_authInterface"><ellipse cx="889" cy="512.7969" fill="#FFFFFF" rx="8" ry="8" style="stroke:#424242;stroke-width:0.5;"/><text fill="#000000" font-family="sans-serif" font-size="14" lengthAdjust="spacing" textLength="102.7715" x="837.6143" y="542.792">Authentication</text></g><!--entity dbInterface--><g id="elem_dbInterface"><ellipse cx="1419" cy="636.7969" fill="#FFFFFF" rx="8" ry="8" style="stroke:#424242;stroke-width:0.5;"/><text fill="#000000" font-family="sans-serif" font-size="14" lengthAdjust="spacing" textLength="119.4238" x="1359.2881" y="666.792">Database Access</text></g><!--entity storageInterface--><g id="elem_storageInterface"><ellipse cx="2360" cy="512.7969" fill="#FFFFFF" rx="8" ry="8" style="stroke:#424242;stroke-width:0.5;"/><text fill="#000000" font-family="sans-serif" font-size="14" lengthAdjust="spacing" textLength="121.9053" x="2299.0474" y="542.792">Storage Interface</text></g><g id="elem_GMN49"><path d="M792.5,290.2969 L792.5,345.6953 L987.1846,345.6953 L987.1846,300.2969 L977.1846,290.2969 L792.5,290.2969 " fill="#FEFFDD" style="stroke:#181818;stroke-width:0.5;"/><path d="M977.1846,290.2969 L977.1846,300.2969 L987.1846,300.2969 L977.1846,290.2969 " fill="#FEFFDD" style="stroke:#181818;stroke-width:1;"/><text fill="#000000" font-family="sans-serif" font-size="13" lengthAdjust="spacing" textLength="165.1216" x="798.5" y="307.3638">RESTful API endpoints for</text><text fill="#000000" font-family="sans-serif" font-size="13" lengthAdjust="spacing" textLength="173.6846" x="798.5" y="322.4966">CRUD operations on tasks,</text><text fill="#000000" font-family="sans-serif" font-size="13" lengthAdjust="spacing" textLength="124.1602" x="798.5" y="337.6294">users, and projects</text></g><g id="elem_GMN52"><path d="M537,297.7969 L537,313.7969 L502.02,317.7969 L537,321.7969 L537,338.0625 A0,0 0 0 0 537,338.0625 L756.7134,338.0625 A0,0 0 0 0 756.7134,338.0625 L756.7134,307.7969 L746.7134,297.7969 L537,297.7969 A0,0 0 0 0 537,297.7969 " fill="#FEFFDD" style="stroke:#181818;stroke-width:0.5;"/><path d="M746.7134,297.7969 L746.7134,307.7969 L756.7134,307.7969 L746.7134,297.7969 " fill="#FEFFDD" style="stroke:#181818;stroke-width:0.5;"/><text fill="#000000" font-family="sans-serif" font-size="13" lengthAdjust="spacing" textLength="141.3877" x="543" y="314.8638">Real-time updates for</text><text fill="#000000" font-family="sans-serif" font-size="13" lengthAdjust="spacing" textLength="198.7134" x="543" y="329.9966">notifications and task changes</text></g><g id="elem_GMN55"><path d="M1925.5,616.7969 L1925.5,657.0625 A0,0 0 0 0 1925.5,657.0625 L2082.8223,657.0625 A0,0 0 0 0 2082.8223,657.0625 L2082.8223,626.7969 L2072.8223,616.7969 L2009.72,616.7969 L2013.01,535.8869 L2001.72,616.7969 L1925.5,616.7969 A0,0 0 0 0 1925.5,616.7969 " fill="#FEFFDD" style="stroke:#181818;stroke-width:0.5;"/><path d="M2072.8223,616.7969 L2072.8223,626.7969 L2082.8223,626.7969 L2072.8223,616.7969 " fill="#FEFFDD" style="stroke:#181818;stroke-width:0.5;"/><text fill="#000000" font-family="sans-serif" font-size="13" lengthAdjust="spacing" textLength="132.4312" x="1931.5" y="633.8638">Uses SMTP for email</text><text fill="#000000" font-family="sans-serif" font-size="13" lengthAdjust="spacing" textLength="136.3223" x="1931.5" y="648.9966">notifications to users</text></g><g id="elem_GMN58"><path d="M2117.5,616.7969 L2117.5,657.0625 A0,0 0 0 0 2117.5,657.0625 L2278.9736,657.0625 A0,0 0 0 0 2278.9736,657.0625 L2278.9736,626.7969 L2268.9736,616.7969 L2200.28,616.7969 L2188.99,535.8869 L2192.28,616.7969 L2117.5,616.7969 A0,0 0 0 0 2117.5,616.7969 " fill="#FEFFDD" style="stroke:#181818;stroke-width:0.5;"/><path d="M2268.9736,616.7969 L2268.9736,626.7969 L2278.9736,626.7969 L2268.9736,616.7969 " fill="#FEFFDD" style="stroke:#181818;stroke-width:0.5;"/><text fill="#000000" font-family="sans-serif" font-size="13" lengthAdjust="spacing" textLength="140.4736" x="2123.5" y="633.8638">S3-compatible API for</text><text fill="#000000" font-family="sans-serif" font-size="13" lengthAdjust="spacing" textLength="106.2153" x="2123.5" y="648.9966">file attachments</text></g><!--link ui to state--><g id="link_ui_state"><path d="M255.26,122.0269 C241.69,127.8369 227.11,134.4769 214,141.2969 C189.08,154.2569 167.1996,167.7054 146.8596,180.9354 " fill="transparent" id="ui-to-state" style="stroke:#555555;stroke-width:1;"/><polygon fill="#555555" points="141.83,184.2069,151.5555,182.6527,146.0214,181.4806,147.1935,175.9465,141.83,184.2069" style="stroke:#555555;stroke-width:1;"/></g><!--link ui to components--><g id="link_ui_components"><path d="M305,124.3569 C305,141.9969 305,160.6369 305,178.2769 " fill="transparent" id="ui-to-components" style="stroke:#555555;stroke-width:1;"/><polygon fill="#555555" points="305,184.2769,309,175.2769,305,179.2769,301,175.2769,305,184.2769" style="stroke:#555555;stroke-width:1;"/></g><!--link ui to apiClient--><g id="link_ui_apiClient"><path d="M354.71,120.0469 C368.57,125.9269 383.29,133.0969 396,141.2969 C414.68,153.3469 428.902,166.1498 442.302,179.7698 " fill="transparent" id="ui-to-apiClient" style="stroke:#555555;stroke-width:1;"/><polygon fill="#555555" points="446.51,184.0469,443.0494,174.826,443.0034,180.4827,437.3467,180.4366,446.51,184.0469" style="stroke:#555555;stroke-width:1;"/></g><!--link api to auth--><g id="link_api_auth"><path d="M1210.27,230.5169 C1191.11,249.2369 1168.1417,271.7038 1148.9917,290.4138 " fill="transparent" id="api-to-auth" style="stroke:#555555;stroke-width:1;"/><polygon fill="#555555" points="1144.7,294.6069,1153.9329,291.1784,1148.2764,291.1127,1148.3421,285.4562,1144.7,294.6069" style="stroke:#555555;stroke-width:1;"/></g><!--link api to taskManager--><g id="link_api_taskManager"><path d="M1294.35,230.1269 C1347.15,248.9069 1417.317,273.866 1470.307,292.716 " fill="transparent" id="api-to-taskManager" style="stroke:#555555;stroke-width:1;"/><polygon fill="#555555" points="1475.96,294.7269,1468.8211,287.9418,1471.2492,293.0511,1466.1399,295.4791,1475.96,294.7269" style="stroke:#555555;stroke-width:1;"/></g><!--link api to notificationService--><g id="link_api_notificationService"><path d="M1255.94,230.5169 C1275.26,249.2369 1298.4699,271.7228 1317.7899,290.4328 " fill="transparent" id="api-to-notificationService" style="stroke:#555555;stroke-width:1;"/><polygon fill="#555555" points="1322.1,294.6069,1318.4175,285.4724,1318.5082,291.1285,1312.8521,291.2192,1322.1,294.6069" style="stroke:#555555;stroke-width:1;"/></g><!--link api to fileHandler--><g id="link_api_fileHandler"><path d="M1294.3,218.8169 C1371.9,232.6569 1509.42,258.9369 1625,290.2969 C1630.45,291.7769 1630.3227,291.661 1635.9427,293.381 " fill="transparent" id="api-to-fileHandler" style="stroke:#555555;stroke-width:1;"/><polygon fill="#555555" points="1641.68,295.1369,1634.2446,288.6781,1636.8989,293.6736,1631.9034,296.3279,1641.68,295.1369" style="stroke:#555555;stroke-width:1;"/></g><!--link taskManager to taskRepo--><g id="link_taskManager_taskRepo"><path d="M1502.82,340.9269 C1487.44,349.6569 1468.87,358.9669 1451,364.7969 C1427.52,372.4569 1416.92,359.6669 1396,372.7969 C1351.58,400.6669 1325.4255,452.5151 1312.4655,484.1351 " fill="transparent" id="taskManager-to-taskRepo" style="stroke:#555555;stroke-width:1;"/><polygon fill="#555555" points="1310.19,489.6869,1317.3044,482.8762,1312.0862,485.0604,1309.9021,479.8422,1310.19,489.6869" style="stroke:#555555;stroke-width:1;"/></g><!--link taskManager to projectRepo--><g id="link_taskManager_projectRepo"><path d="M1533.3,340.9369 C1525.41,378.0669 1510.8465,446.5978 1502.9565,483.7478 " fill="transparent" id="taskManager-to-projectRepo" style="stroke:#555555;stroke-width:1;"/><polygon fill="#555555" points="1501.71,489.6169,1507.4925,481.6442,1502.7487,484.726,1499.667,479.9822,1501.71,489.6169" style="stroke:#555555;stroke-width:1;"/></g><!--link auth to userRepo--><g id="link_auth_userRepo"><path d="M1121.2,340.9369 C1119.85,378.0669 1117.3679,446.4708 1116.0179,483.6208 " fill="transparent" id="auth-to-userRepo" style="stroke:#555555;stroke-width:1;"/><polygon fill="#555555" points="1115.8,489.6169,1120.1242,480.7681,1115.9816,484.6202,1112.1295,480.4776,1115.8,489.6169" style="stroke:#555555;stroke-width:1;"/></g><!--link notificationService to userRepo--><g id="link_notificationService_userRepo"><path d="M1298.37,340.8169 C1280.1,348.9769 1258.8,357.9069 1239,364.7969 C1225.97,369.3369 1220.24,364.7969 1209,372.7969 C1166.63,402.9469 1140.0627,453.1377 1126.4027,484.0877 " fill="transparent" id="notificationService-to-userRepo" style="stroke:#555555;stroke-width:1;"/><polygon fill="#555555" points="1123.98,489.5769,1131.2734,482.9583,1125.9989,485.0026,1123.9546,479.7281,1123.98,489.5769" style="stroke:#555555;stroke-width:1;"/></g><!--link fileHandler to commentRepo--><g id="link_fileHandler_commentRepo"><path d="M1704.69,340.9369 C1705.84,378.0669 1707.9744,446.4697 1709.1244,483.6197 " fill="transparent" id="fileHandler-to-commentRepo" style="stroke:#555555;stroke-width:1;"/><polygon fill="#555555" points="1709.31,489.6169,1713.0296,480.4974,1709.1553,484.6193,1705.0334,480.7449,1709.31,489.6169" style="stroke:#555555;stroke-width:1;"/></g><!--link apiClient to restApi--><g id="link_apiClient_restApi"><path d="M461.47,230.5169 C455.45,254.6969 446.15,292.0969 442.05,308.5569 " fill="transparent" id="apiClient-restApi" style="stroke:#555555;stroke-width:1;"/></g><!--link apiClient to websocket--><g id="link_apiClient_websocket"><path d="M472.32,230.5169 C478.12,254.6969 487.08,292.0969 491.02,308.5569 " fill="transparent" id="apiClient-websocket" style="stroke:#555555;stroke-width:1;"/></g><!--link api to restApi--><g id="link_api_restApi"><path d="M1171.73,209.5569 C1012.68,213.6669 590.39,230.0969 466,290.2969 C457.65,294.3369 450.46,302.2169 445.78,308.3369 " fill="transparent" id="api-restApi" style="stroke:#555555;stroke-width:1;"/></g><!--link api to websocket--><g id="link_api_websocket"><path d="M1171.86,210.1169 C1020.74,215.4269 633.62,234.2769 519,290.2969 C510.66,294.3769 503.48,302.2469 498.79,308.3569 " fill="transparent" id="api-websocket" style="stroke:#555555;stroke-width:1;"/></g><!--link auth to authInterface--><g id="link_auth_authInterface"><path d="M1065,340.9369 C1030.07,354.6369 991.4,370.1169 988,372.7969 C939.14,411.3069 903.82,480.1769 892.71,503.6769 " fill="transparent" id="auth-authInterface" style="stroke:#555555;stroke-width:1;"/></g><!--link taskManager to dbInterface--><g id="link_taskManager_dbInterface"><path d="M1571.25,340.8669 C1586.89,350.0469 1606.2,359.7169 1625,364.7969 C1645.94,370.4469 1804.98,357.1569 1820,372.7969 C1889.86,445.5869 1888.08,525.3369 1820,599.7969 C1792.64,629.7169 1485.53,634.9769 1428.19,635.6969 " fill="transparent" id="taskManager-dbInterface" style="stroke:#555555;stroke-width:1;"/></g><!--link notificationService to email--><g id="link_notificationService_email"><path d="M1385.94,340.7969 C1405.38,350.0769 1429.28,359.8569 1452,364.7969 C1491.97,373.4769 1781.18,359.9069 1820,372.7969 C1891.81,396.6369 1960.08,456.8369 1993.54,489.6469 " fill="transparent" id="notificationService-email" style="stroke:#555555;stroke-width:1;"/></g><!--link fileHandler to storageInterface--><g id="link_fileHandler_storageInterface"><path d="M1766,317.9069 C1895.49,317.1169 2189.52,321.2569 2273,372.7969 C2324.36,404.5069 2350.32,479.0169 2357.72,503.6969 " fill="transparent" id="fileHandler-storageInterface" style="stroke:#555555;stroke-width:1;"/></g><!--link fileHandler to storage--><g id="link_fileHandler_storage"><path d="M1766.04,320.9169 C1863.29,325.2769 2046.09,337.9669 2100,372.7969 C2143.04,400.6069 2168.57,458.0269 2179.93,489.6669 " fill="transparent" id="fileHandler-storage" style="stroke:#555555;stroke-width:1;"/></g><!--link db to dbInterface--><g id="link_db_dbInterface"><path d="M1003.8955,560.1217 C1003.9911,560.7101 1004.0916,561.2991 1004.197,561.8882 C1005.0408,566.6012 1006.2063,571.323 1007.7869,575.8778 C1010.9481,584.9875 1015.77,593.4294 1023,599.7969 C1052.98,626.1969 1352.57,634.2869 1409.64,635.5969 " fill="transparent" id="db-dbInterface" style="stroke:#555555;stroke-width:1;"/></g><!--link restApi to GMN49--><g id="link_restApi_GMN49"><path d="M445.38,308.6769 C452.5,297.6369 466.18,279.6169 483.5,272.2969 C539.38,248.6869 696.65,262.3769 756.5,272.2969 C778.72,275.9769 802.22,282.8969 823.19,290.2369 " fill="transparent" id="restApi-GMN49" style="stroke:#555555;stroke-width:1;stroke-dasharray:7.0,7.0;"/></g><!--SRC=[TLLDRzim3BtxLn3UOPS6I9DcJIy3tCR62gn35xVOOTX1jfL4gsqPajmF3Ftl8sNviudJGqq-FPAF5AsVH5annGf8MFgqLx8kinkPImKl1s6uvts63T-9aiDEgeBba99JUxexbygYaYKl3Vpp0AudB9_2PRI8DkIHAkFAMS_3zJfSeJMIfN6snJdzl7TlG2vAmzMEfVmuUMIVAVd5WdvZeb9c9pZ2TRGAhpvmB8FvnUMO8sE69KoVocKPhgBLb6STBYw2OCp3b98lbiI1LlOPgx6qp_XWciiwEwL4U7Ezd4QFec0-dnE94IRd52zdYLJCY6SE3qm_mHqhsPuNrB_uJHjUm0nXRKitWkqnikTL611nu4SAS-Hb1dSogtFkau1X47snQVtUSfOQUBpz0qn3BSWK6sRu88nrQJAIz_6sZwQjgvidJVxW7W6vQC-nIZHlwCE_Mi1izhLZSwyZ1cVh3xuFYY4PnxNCeyieQ6e9Nol5jGPCeOrjCwhD0Nb4YYBA4cAkdaNA6mIw238GLbc7GODx9_yFQSJk644vS3WxuIE1lVl6oYntV3iqkFT62CojARF9e7qTnssjnwEqtY7tKAjDE_sTMD5LT1rUMh6wg-7VIstsYiS_l_kKQPPOFtLQSmLRNaajZ5HlpOIWZKmDmiesGL05FU9UoRyS1sm2gXfpZyEHiXCzmQMDsU7U6-a66dMQESJKDOv3Mblpe8eZqauX0ttRQUsIGhsRE-w7hxZuIjotZaNxTjijmxaRpeA9V3Gxd2pakh4CCLQDYRlRPlyd-dwX-jimVg3Xjdt2IJS13lZ0_uidiSJxOIpWXIVQlWqXuxlWjtVWjaKCiTty12cMezrq78MwtA5p-eCg-XDUTwbHoAw2aR7FkXdl8MhYRxevoNyy0QDyZxVQjM7Sv8-f7_TxU5icKIWC1oNs1mDorwKFGDtRrJar4725LHBrq_IHfi_Azd43ikBA9gS1jmmLeize7-8awZF0sEquQuzM8CMPHklLmNYSvJCZ2WvrXRUTjx66CcXBIw4WFR1oppzG9z8OMH1tEwwu5ZJ4Tm_tnDTPnwn6DccVPci518YNCzh_U3B1fKdgD7cIui2COUcXi9-6bki_]--></g></svg>