<svg xmlns="http://www.w3.org/2000/svg" xmlns:xlink="http://www.w3.org/1999/xlink" contentStyleType="text/css" data-diagram-type="DESCRIPTION" height="722px" preserveAspectRatio="none" style="width:1016px;height:722px;background:#FFFFFF;" version="1.1" viewBox="0 0 1016 722" width="1016px" zoomAndPan="magnify"><defs/><g><!--entity users--><g id="elem_users"><rect fill="#90EE90" height="36.2969" rx="2.5" ry="2.5" style="stroke:#181818;stroke-width:0.5;" width="59.2041" x="350.34" y="7"/><text fill="#000000" font-family="sans-serif" font-size="14" lengthAdjust="spacing" textLength="39.2041" x="360.34" y="29.9951">Users</text></g><!--entity auth--><g id="elem_auth"><ellipse cx="165.84" cy="136" fill="#F1F1F1" rx="8" ry="8" style="stroke:#181818;stroke-width:0.5;"/><text fill="#000000" font-family="sans-serif" font-size="14" lengthAdjust="spacing" textLength="22.2646" x="114.4543" y="165.9951">1.0</text><text fill="#000000" font-family="sans-serif" font-size="14" lengthAdjust="spacing" textLength="102.7715" x="114.4543" y="182.292">Authentication</text><text fill="#000000" font-family="sans-serif" font-size="14" lengthAdjust="spacing" textLength="52.2061" x="114.4543" y="198.5889">System</text></g><!--entity task_mgmt--><g id="elem_task_mgmt"><ellipse cx="379.84" cy="253" fill="#F1F1F1" rx="8" ry="8" style="stroke:#181818;stroke-width:0.5;"/><text fill="#000000" font-family="sans-serif" font-size="14" lengthAdjust="spacing" textLength="22.2646" x="315.237" y="282.9951">2.0</text><text fill="#000000" font-family="sans-serif" font-size="14" lengthAdjust="spacing" textLength="129.2061" x="315.237" y="299.292">Task Management</text><text fill="#000000" font-family="sans-serif" font-size="14" lengthAdjust="spacing" textLength="52.2061" x="315.237" y="315.5889">System</text></g><!--entity notif--><g id="elem_notif"><ellipse cx="628.84" cy="400" fill="#F1F1F1" rx="8" ry="8" style="stroke:#181818;stroke-width:0.5;"/><text fill="#000000" font-family="sans-serif" font-size="14" lengthAdjust="spacing" textLength="22.2646" x="588.6754" y="429.9951">3.0</text><text fill="#000000" font-family="sans-serif" font-size="14" lengthAdjust="spacing" textLength="80.3291" x="588.6754" y="446.292">Notification</text><text fill="#000000" font-family="sans-serif" font-size="14" lengthAdjust="spacing" textLength="52.2061" x="588.6754" y="462.5889">System</text></g><!--entity user_db--><g id="elem_user_db"><path d="M324.34,670 C324.34,660 385.9206,660 385.9206,660 C385.9206,660 447.5011,660 447.5011,670 L447.5011,695.2969 C447.5011,705.2969 385.9206,705.2969 385.9206,705.2969 C385.9206,705.2969 324.34,705.2969 324.34,695.2969 L324.34,670 " fill="#87CEFA" style="stroke:#181818;stroke-width:0.5;"/><path d="M324.34,670 C324.34,680 385.9206,680 385.9206,680 C385.9206,680 447.5011,680 447.5011,670 " fill="transparent" style="stroke:#181818;stroke-width:0.5;"/><text fill="#000000" font-family="sans-serif" font-size="14" lengthAdjust="spacing" textLength="103.1611" x="334.34" y="696.9951">User Database</text></g><!--entity task_db--><g id="elem_task_db"><path d="M323.84,548 C323.84,538 385.7316,538 385.7316,538 C385.7316,538 447.6232,538 447.6232,548 L447.6232,573.2969 C447.6232,583.2969 385.7316,583.2969 385.7316,583.2969 C385.7316,583.2969 323.84,583.2969 323.84,573.2969 L323.84,548 " fill="#87CEFA" style="stroke:#181818;stroke-width:0.5;"/><path d="M323.84,548 C323.84,558 385.7316,558 385.7316,558 C385.7316,558 447.6232,558 447.6232,548 " fill="transparent" style="stroke:#181818;stroke-width:0.5;"/><text fill="#000000" font-family="sans-serif" font-size="14" lengthAdjust="spacing" textLength="103.7832" x="333.84" y="574.9951">Task Database</text></g><!--link users to auth--><g id="link_users_auth"><path d="M350.15,25.39 C275.1,24.55 80.93,26.96 40.84,73 C6,113.01 116.2815,129.2353 150.6115,133.2953 " fill="transparent" id="users-to-auth" style="stroke:#000000;stroke-width:1;"/><polygon fill="#000000" points="156.57,134,148.1021,128.9707,151.6046,133.4128,147.1625,136.9153,156.57,134" style="stroke:#000000;stroke-width:1;"/><text fill="#000000" font-family="sans-serif" font-size="13" lengthAdjust="spacing" textLength="107.7324" x="41.84" y="86.0669">User Credentials</text></g><!--link auth to users--><g id="link_auth_users"><path d="M166.63,126.81 C168.36,113.49 173.73,87.19 189.84,73 C235.23,33.03 303.3607,26.0108 344.3107,25.3908 " fill="transparent" id="auth-to-users" style="stroke:#000000;stroke-width:1;"/><polygon fill="#000000" points="350.31,25.3,341.2505,21.4367,345.3106,25.3757,341.3716,29.4358,350.31,25.3" style="stroke:#000000;stroke-width:1;"/><text fill="#000000" font-family="sans-serif" font-size="13" lengthAdjust="spacing" textLength="162.5825" x="190.84" y="86.0669">Authentication Response</text></g><!--link auth to user_db--><g id="link_auth_user_db"><path d="M160.3665,150.8064 C153.1565,169.4564 138.84,210.98 138.84,252 C138.84,252 138.84,252 138.84,561.5 C138.84,643.74 245.0269,668.9657 318.1869,677.1157 " fill="transparent" id="auth-user_db" style="stroke:#000000;stroke-width:1;"/><polygon fill="#000000" points="162.53,145.21,155.5538,152.1622,160.7271,149.8736,163.0156,155.0469,162.53,145.21" style="stroke:#000000;stroke-width:1;"/><polygon fill="#000000" points="324.15,677.78,315.6482,672.8082,319.1807,677.2264,314.7625,680.759,324.15,677.78" style="stroke:#000000;stroke-width:1;"/><text fill="#000000" font-family="sans-serif" font-size="13" lengthAdjust="spacing" textLength="116.2192" x="143.5851" y="397.0669">Verify Credentials</text><text fill="#000000" font-family="sans-serif" font-size="13" lengthAdjust="spacing" textLength="123.7095" x="139.84" y="412.1997">Retrieve User Data</text></g><!--link auth to task_mgmt--><g id="link_auth_task_mgmt"><path d="M166.29,145.19 C167.64,161.05 172.94,195.98 193.84,214 C221.04,237.47 330.8101,248.0295 364.5801,250.7995 " fill="transparent" id="auth-to-task_mgmt" style="stroke:#000000;stroke-width:1;"/><polygon fill="#000000" points="370.56,251.29,361.9171,246.5676,365.5767,250.8812,361.2631,254.5409,370.56,251.29" style="stroke:#000000;stroke-width:1;"/><text fill="#000000" font-family="sans-serif" font-size="13" lengthAdjust="spacing" textLength="158.3423" x="194.84" y="202.5669">User Role &amp; Permissions</text></g><!--link users to task_mgmt--><g id="link_users_task_mgmt"><path d="M379.84,43.36 C379.84,89.04 379.84,205.34 379.84,237.93 " fill="transparent" id="users-to-task_mgmt" style="stroke:#000000;stroke-width:1;"/><polygon fill="#000000" points="379.84,243.93,383.84,234.93,379.84,238.93,375.84,234.93,379.84,243.93" style="stroke:#000000;stroke-width:1;"/><text fill="#000000" font-family="sans-serif" font-size="13" lengthAdjust="spacing" textLength="105.8091" x="433.3129" y="133.0669">Task Operations</text><text fill="#000000" font-family="sans-serif" font-size="13" lengthAdjust="spacing" textLength="210.7549" x="380.84" y="148.1997">(Create, Update, Delete, Assign)</text></g><!--link task_mgmt to users--><g id="link_task_mgmt_users"><path d="M388.85,250.7 C436.61,243.41 655.91,204.94 599.84,120 C556.93,55.01 464.8139,35.5323 415.4039,29.3723 " fill="transparent" id="task_mgmt-to-users" style="stroke:#000000;stroke-width:1;"/><polygon fill="#000000" points="409.45,28.63,417.886,33.7127,414.4116,29.2486,418.8757,25.7741,409.45,28.63" style="stroke:#000000;stroke-width:1;"/><text fill="#000000" font-family="sans-serif" font-size="13" lengthAdjust="spacing" textLength="139.2358" x="609.84" y="140.5669">Task Status &amp; Details</text></g><!--link task_mgmt to task_db--><g id="link_task_mgmt_task_db"><path d="M380.1177,268.1688 C380.8977,307.9288 384.0716,469.7412 385.2916,531.5712 " fill="transparent" id="task_mgmt-task_db" style="stroke:#000000;stroke-width:1;"/><polygon fill="#000000" points="380,262.17,376.1773,271.2467,380.0981,267.169,384.1758,271.0898,380,262.17" style="stroke:#000000;stroke-width:1;"/><polygon fill="#000000" points="385.41,537.57,389.2317,528.4928,385.3114,532.571,381.2332,528.6507,385.41,537.57" style="stroke:#000000;stroke-width:1;"/><text fill="#000000" font-family="sans-serif" font-size="13" lengthAdjust="spacing" textLength="163.3125" x="383.84" y="404.5669">Store/Retrieve Task Data</text></g><!--link task_db to user_db--><g id="link_task_db_user_db"><path d="M385.84,589.23 C385.84,610.98 385.84,632.24 385.84,653.93 " fill="transparent" id="task_db-user_db" style="stroke:#000000;stroke-width:1;"/><polygon fill="#000000" points="385.84,583.23,381.84,592.23,385.84,588.23,389.84,592.23,385.84,583.23" style="stroke:#000000;stroke-width:1;"/><polygon fill="#000000" points="385.84,659.93,389.84,650.93,385.84,654.93,381.84,650.93,385.84,659.93" style="stroke:#000000;stroke-width:1;"/><text fill="#000000" font-family="sans-serif" font-size="13" lengthAdjust="spacing" textLength="149.4556" x="386.84" y="626.0669">User-Task Associations</text></g><!--link task_mgmt to notif--><g id="link_task_mgmt_notif"><path d="M389.02,259.08 C412.56,272.13 476.9,307.97 529.84,339 C563.13,358.51 597.065,379.3574 614.505,390.1274 " fill="transparent" id="task_mgmt-to-notif" style="stroke:#000000;stroke-width:1;"/><polygon fill="#000000" points="619.61,393.28,614.0542,385.1478,615.3558,390.6528,609.8507,391.9545,619.61,393.28" style="stroke:#000000;stroke-width:1;"/><text fill="#000000" font-family="sans-serif" font-size="13" lengthAdjust="spacing" textLength="78.3555" x="476.84" y="305.0669">Task Events</text></g><!--link notif to users--><g id="link_notif_users"><path d="M638.04,391.24 C677.87,356.74 830.14,214.86 757.84,120 C715.05,63.87 496.6706,37.3737 415.3106,29.2837 " fill="transparent" id="notif-to-users" style="stroke:#000000;stroke-width:1;"/><polygon fill="#000000" points="409.34,28.69,417.9,33.5609,414.3155,29.1847,418.6916,25.6001,409.34,28.69" style="stroke:#000000;stroke-width:1;"/><text fill="#000000" font-family="sans-serif" font-size="13" lengthAdjust="spacing" textLength="81.3643" x="852.6916" y="195.0669">Notifications</text><text fill="#000000" font-family="sans-serif" font-size="13" lengthAdjust="spacing" textLength="231.0674" x="777.84" y="210.1997">(New Tasks, Comments, Deadlines)</text></g><!--link notif to user_db--><g id="link_notif_user_db"><path d="M632.1599,414.8908 C636.2899,433.0608 643.17,472.6 631.84,508 C611.54,571.43 598.56,590.64 544.84,630 C516.28,650.92 484.664,662.1982 453.284,669.7382 " fill="transparent" id="notif-user_db" style="stroke:#000000;stroke-width:1;"/><polygon fill="#000000" points="630.83,409.04,628.9243,418.7027,631.9382,413.9156,636.7253,416.9296,630.83,409.04" style="stroke:#000000;stroke-width:1;"/><polygon fill="#000000" points="447.45,671.14,457.1355,672.9266,452.3116,669.9718,455.2664,665.148,447.45,671.14" style="stroke:#000000;stroke-width:1;"/><text fill="#000000" font-family="sans-serif" font-size="13" lengthAdjust="spacing" textLength="217.0454" x="620.84" y="565.0669">Get User Notification Preferences</text></g><!--link notif to task_db--><g id="link_notif_task_db"><path d="M614.9328,411.3062 C598.0728,423.6062 565.24,446.16 529.84,461 C479.93,481.92 452.21,454.97 411.84,491 C398.45,502.94 393.1573,516.6369 389.9873,531.8069 " fill="transparent" id="notif-task_db" style="stroke:#000000;stroke-width:1;"/><polygon fill="#000000" points="619.78,407.77,610.1517,409.8428,615.7407,410.7168,614.8667,416.3058,619.78,407.77" style="stroke:#000000;stroke-width:1;"/><polygon fill="#000000" points="388.76,537.68,394.5163,529.6885,389.7827,532.7857,386.6855,528.0521,388.76,537.68" style="stroke:#000000;stroke-width:1;"/><text fill="#000000" font-family="sans-serif" font-size="13" lengthAdjust="spacing" textLength="214.2144" x="412.84" y="504.0669">Get Task Details for Notifications</text></g><!--SRC=[RPJRQkCm48RlzHJJNEnkeTb3zwwKXHnCMUWcmNRt086WscD7n9Q293VaxNSanxOSUc5iDD_C_Fzey4sEXP08ctYzY984Cg6p2jdDvJZwcqRnQlQyYrRfp_GVQCmibsL0B6VfR9UawpY2d5l-oWqozX6MRTJk4J9LAMsWK1foKHIeKLgWHrY1Xfc3a4UkUKrSVLII0eazLmXDNTq7qQxud6U7Kgj6vWjN5vv5kRV9uJol6WpmNkYx_9D6b65hx_eQ_RD7RWEAQwrERMXU4NlbixTqFRJ9Yq5j9i0DDEwBTSEUVFlyTIjd3MLJRiQjK78haxEnM7kSKsYWxnsTSdE0Nrpo4clA6k6MOhkwhEsGyztbh9GLnNlrfGkmu0gzL5XUPjrBtkMl8ygB656-DL7ZaRXBWw9I9yEySvXEVtXJy02-qq9ZxhppoZ1_xe0MVO3nO216G_j1w-N1nuwahiJ-HYsASrXlAsEqMk0RGczgwD6FgbCIAzgv3x11NGjZg9zXWUOGz-RNHzHU5lNvH5svnJjuEUR-lSGAtNj6XKfvouRiq9wlarXk6qEDbsYve2aCx6FVs3jChDBufVVKNm7haAk9E5TJJv4CbObMBRiIupUW4nEzqUmCQyz2gU42ESChFFaCSmSBLRizDCurpokwUNDxgN0bw0bjE-gm6cmq-bz2XYPC6toxjDPiEo7_8na9-Wy0]--></g></svg>