<svg xmlns="http://www.w3.org/2000/svg" xmlns:xlink="http://www.w3.org/1999/xlink" contentStyleType="text/css" data-diagram-type="DESCRIPTION" height="1216px" preserveAspectRatio="none" style="width:3467px;height:1216px;background:#FFFFFF;" version="1.1" viewBox="0 0 3467 1216" width="3467px" zoomAndPan="magnify"><title>Collaborative Task Management System - Deployment Diagram</title><defs/><g><text fill="#000000" font-family="sans-serif" font-size="14" font-weight="bold" lengthAdjust="spacing" textLength="500.3564" x="1476.6416" y="22.9951">Collaborative Task Management System - Deployment Diagram</text><!--cluster client--><g id="cluster_client"><polygon fill="#E3F2FD" points="16,53.2969,26,43.2969,519,43.2969,519,479.7969,509,489.7969,16,489.7969,16,53.2969" style="stroke:#1E88E5;stroke-width:1;"/><line style="stroke:#1E88E5;stroke-width:1;" x1="509" x2="519" y1="53.2969" y2="43.2969"/><line style="stroke:#1E88E5;stroke-width:1;" x1="16" x2="509" y1="53.2969" y2="53.2969"/><line style="stroke:#1E88E5;stroke-width:1;" x1="509" x2="509" y1="53.2969" y2="489.7969"/><text fill="#212121" font-family="sans-serif" font-size="14" font-weight="bold" lengthAdjust="spacing" textLength="103.7354" x="211.6323" y="69.292">Client Device</text></g><!--cluster browser--><g id="cluster_browser"><rect fill="#FFFFFF" height="358.5" rx="2.5" ry="2.5" style="stroke:#757575;stroke-width:1;" width="431" x="48" y="99.2969"/><polygon fill="#FFFFFF" points="462,104.2969,462,118.2969,474,118.2969,474,110.2969,468,104.2969,462,104.2969" style="stroke:#757575;stroke-width:1;"/><line style="stroke:#757575;stroke-width:1;" x1="468" x2="468" y1="104.2969" y2="110.2969"/><line style="stroke:#757575;stroke-width:1;" x1="474" x2="468" y1="110.2969" y2="110.2969"/><text fill="#000000" font-family="sans-serif" font-size="14" font-weight="bold" lengthAdjust="spacing" textLength="104.6924" x="211.1538" y="114.292">Web Browser</text></g><!--cluster reactApp--><g id="cluster_reactApp"><rect fill="#FFFFFF" height="291.5" rx="2.5" ry="2.5" style="stroke:#757575;stroke-width:1;" width="383" x="72" y="142.2969"/><polygon fill="#FFFFFF" points="438,147.2969,438,161.2969,450,161.2969,450,153.2969,444,147.2969,438,147.2969" style="stroke:#757575;stroke-width:1;"/><line style="stroke:#757575;stroke-width:1;" x1="444" x2="444" y1="147.2969" y2="153.2969"/><line style="stroke:#757575;stroke-width:1;" x1="450" x2="444" y1="153.2969" y2="153.2969"/><text fill="#000000" font-family="sans-serif" font-size="14" font-weight="bold" lengthAdjust="spacing" textLength="138.8857" x="194.0571" y="157.292">React Application</text></g><!--cluster frontendServer--><g id="cluster_frontendServer"><polygon fill="#E3F2FD" points="559,297.7969,569,287.7969,1163,287.7969,1163,765.7969,1153,775.7969,559,775.7969,559,297.7969" style="stroke:#1E88E5;stroke-width:1;"/><line style="stroke:#1E88E5;stroke-width:1;" x1="1153" x2="1163" y1="297.7969" y2="287.7969"/><line style="stroke:#1E88E5;stroke-width:1;" x1="559" x2="1153" y1="297.7969" y2="297.7969"/><line style="stroke:#1E88E5;stroke-width:1;" x1="1153" x2="1153" y1="297.7969" y2="775.7969"/><text fill="#212121" font-family="sans-serif" font-size="14" font-weight="bold" lengthAdjust="spacing" textLength="254.4404" x="729.7798" y="313.792">Frontend Server (Vercel/Netlify)</text></g><!--cluster staticBuild--><g id="cluster_staticBuild"><rect fill="#FFFFFF" height="400" rx="2.5" ry="2.5" style="stroke:#757575;stroke-width:1;" width="357" x="766" y="343.7969"/><polygon fill="#FFFFFF" points="1106,348.7969,1106,362.7969,1118,362.7969,1118,354.7969,1112,348.7969,1106,348.7969" style="stroke:#757575;stroke-width:1;"/><line style="stroke:#757575;stroke-width:1;" x1="1112" x2="1112" y1="348.7969" y2="354.7969"/><line style="stroke:#757575;stroke-width:1;" x1="1118" x2="1112" y1="354.7969" y2="354.7969"/><text fill="#000000" font-family="sans-serif" font-size="14" font-weight="bold" lengthAdjust="spacing" textLength="91.1436" x="898.9282" y="358.792">Static Build</text></g><!--cluster backendServer--><g id="cluster_backendServer"><polygon fill="#E3F2FD" points="1203,564.7969,1213,554.7969,2117,554.7969,2117,1047.7969,2107,1057.7969,1203,1057.7969,1203,564.7969" style="stroke:#1E88E5;stroke-width:1;"/><line style="stroke:#1E88E5;stroke-width:1;" x1="2107" x2="2117" y1="564.7969" y2="554.7969"/><line style="stroke:#1E88E5;stroke-width:1;" x1="1203" x2="2107" y1="564.7969" y2="564.7969"/><line style="stroke:#1E88E5;stroke-width:1;" x1="2107" x2="2107" y1="564.7969" y2="1057.7969"/><text fill="#212121" font-family="sans-serif" font-size="14" font-weight="bold" lengthAdjust="spacing" textLength="274.3535" x="1518.8232" y="580.792">Backend Server (AWS EC2/Render)</text></g><!--cluster nodejs--><g id="cluster_nodejs"><rect fill="#FFFFFF" height="415" rx="2.5" ry="2.5" style="stroke:#757575;stroke-width:1;" width="439" x="1638" y="610.7969"/><polygon fill="#FFFFFF" points="2060,615.7969,2060,629.7969,2072,629.7969,2072,621.7969,2066,615.7969,2060,615.7969" style="stroke:#757575;stroke-width:1;"/><line style="stroke:#757575;stroke-width:1;" x1="2066" x2="2066" y1="615.7969" y2="621.7969"/><line style="stroke:#757575;stroke-width:1;" x1="2072" x2="2066" y1="621.7969" y2="621.7969"/><text fill="#000000" font-family="sans-serif" font-size="14" font-weight="bold" lengthAdjust="spacing" textLength="130.4639" x="1792.2681" y="625.792">Node.js Runtime</text></g><!--cluster express--><g id="cluster_express"><rect fill="#FFFFFF" height="348" rx="2.5" ry="2.5" style="stroke:#757575;stroke-width:1;" width="391" x="1662" y="653.7969"/><polygon fill="#FFFFFF" points="2036,658.7969,2036,672.7969,2048,672.7969,2048,664.7969,2042,658.7969,2036,658.7969" style="stroke:#757575;stroke-width:1;"/><line style="stroke:#757575;stroke-width:1;" x1="2042" x2="2042" y1="658.7969" y2="664.7969"/><line style="stroke:#757575;stroke-width:1;" x1="2048" x2="2042" y1="664.7969" y2="664.7969"/><text fill="#000000" font-family="sans-serif" font-size="14" font-weight="bold" lengthAdjust="spacing" textLength="137.0127" x="1788.9937" y="668.792">Express.js Server</text></g><!--cluster dbServer--><g id="cluster_dbServer"><polygon fill="#E3F2FD" points="2157,850.7969,2167,840.7969,3004,840.7969,3004,1189.7969,2994,1199.7969,2157,1199.7969,2157,850.7969" style="stroke:#1E88E5;stroke-width:1;"/><line style="stroke:#1E88E5;stroke-width:1;" x1="2994" x2="3004" y1="850.7969" y2="840.7969"/><line style="stroke:#1E88E5;stroke-width:1;" x1="2157" x2="2994" y1="850.7969" y2="850.7969"/><line style="stroke:#1E88E5;stroke-width:1;" x1="2994" x2="2994" y1="850.7969" y2="1199.7969"/><text fill="#212121" font-family="sans-serif" font-size="14" font-weight="bold" lengthAdjust="spacing" textLength="290.8418" x="2431.0791" y="866.792">Database Server (PostgreSQL Cloud)</text></g><!--cluster postgres--><g id="cluster_postgres"><path d="M2627,906.7969 C2627,896.7969 2799.5,896.7969 2799.5,896.7969 C2799.5,896.7969 2972,896.7969 2972,906.7969 L2972,1157.7969 C2972,1167.7969 2799.5,1167.7969 2799.5,1167.7969 C2799.5,1167.7969 2627,1167.7969 2627,1157.7969 L2627,906.7969 " fill="#F3E5F5" style="stroke:#8E24AA;stroke-width:1;"/><path d="M2627,906.7969 C2627,916.7969 2799.5,916.7969 2799.5,916.7969 C2799.5,916.7969 2972,916.7969 2972,906.7969 " fill="transparent" style="stroke:#8E24AA;stroke-width:1;"/><text fill="#000000" font-family="sans-serif" font-size="14" font-weight="bold" lengthAdjust="spacing" textLength="171.6094" x="2713.6953" y="931.792">PostgreSQL Database</text></g><!--cluster externalServices--><g id="cluster_externalServices"><path d="M2214.3267,607.5265 C2232.5405,581.0261 2260.0101,585.379 2269.9426,615.6406 C2286.4968,588.0145 2310.4609,581.191 2330.832,611.6387 C2346.8024,577.8199 2372.9935,579.5761 2391.9173,608.7759 C2407.1129,589.5307 2430.9242,589.4352 2440.119,615.202 C2454.4378,586.0018 2483.2809,586.0057 2498.371,614.4222 C2520.83,582.5138 2542.108,579.6533 2566.245,612.6678 C2580.0951,582.1918 2599.6967,581.1578 2620.0908,606.3365 C2640.1785,583.0832 2662.3531,579.6657 2677.6265,611.3761 C2694.6529,585.9947 2715.3784,585.6611 2733.4126,610.251 C2748.3512,586.4726 2776.4257,586.1489 2790.5309,611.2253 C2809.3027,582.1385 2837.3066,582.9641 2854.4349,613.0015 C2866.5002,585.7402 2891.1459,581.6497 2907.0856,609.2856 C2924.6582,583.6993 2947.1382,580.0606 2963.5191,610.4862 C2985.122,578.7434 3007.7035,581.1744 3027,612.7969 C3030.1648,611.8516 3031.8959,613.8374 3030.9768,616.8748 C3071.5693,631.7956 3076.1537,668.3587 3044.6547,695.7768 C3070.8936,726.8917 3065.886,761.3726 3020,767.7969 C3020.5642,767.6953 3020.8495,767.8787 3020.7097,768.4939 C3007.3978,796.1236 2987.5139,796.3858 2968.2446,774.8514 C2947.8765,804.356 2929.7677,802.2455 2911.813,772.5509 C2888.7863,801.2949 2869.3536,798.4624 2847.7981,770.8789 C2836.1428,802.1264 2808.6982,804.4595 2791.6338,775.9639 C2776.1517,802.6819 2755.8559,802.5544 2739.5608,776.7702 C2716.4569,802.7142 2694.5808,802.2308 2673.3299,774.4845 C2659.0867,800.2464 2634.7853,798.8044 2622.3153,772.739 C2608.1488,800.2035 2578.1322,805.3389 2559.2131,778.2348 C2542.9683,802.2479 2517.7798,798.4289 2508.4201,771.3853 C2491.1102,804.3998 2468.8959,808.7825 2444.7954,778.1763 C2422.5232,802.6665 2403.5837,806.0077 2383.7968,775.4236 C2367.1108,800.4764 2338.1107,803.5202 2324.7731,771.9341 C2308.6816,800.0856 2289.7833,800.9126 2268.4158,777.726 C2240.4084,808.4629 2212.2859,796.6496 2201,760.7969 C2203.1523,760.6256 2204.4031,761.2212 2203.8544,763.703 C2167.3026,750.8517 2162.0829,719.6632 2192.1175,695.3743 C2155.4865,660.5816 2158.1632,625.2585 2208,605.7969 C2210.7458,603.6275 2213.0272,604.4052 2214.3267,607.5265 " fill="#FFECB3" style="stroke:#FFA000;stroke-width:1;"/><text fill="#000000" font-family="sans-serif" font-size="14" font-weight="bold" lengthAdjust="spacing" textLength="137.3066" x="2545.3467" y="623.792">External Services</text></g><!--cluster emailProvider--><g id="cluster_emailProvider"><polygon fill="#E3F2FD" points="2812,658.7969,2822,648.7969,3003,648.7969,3003,733.7969,2993,743.7969,2812,743.7969,2812,658.7969" style="stroke:#1E88E5;stroke-width:1;"/><line style="stroke:#1E88E5;stroke-width:1;" x1="2993" x2="3003" y1="658.7969" y2="648.7969"/><line style="stroke:#1E88E5;stroke-width:1;" x1="2812" x2="2993" y1="658.7969" y2="658.7969"/><line style="stroke:#1E88E5;stroke-width:1;" x1="2993" x2="2993" y1="658.7969" y2="743.7969"/><text fill="#212121" font-family="sans-serif" font-size="14" font-weight="bold" lengthAdjust="spacing" textLength="115.1992" x="2845.9004" y="674.792">Email Provider</text></g><!--cluster s3--><g id="cluster_s3"><polygon fill="#E3F2FD" points="2522,658.7969,2532,648.7969,2788,648.7969,2788,733.7969,2778,743.7969,2522,743.7969,2522,658.7969" style="stroke:#1E88E5;stroke-width:1;"/><line style="stroke:#1E88E5;stroke-width:1;" x1="2778" x2="2788" y1="658.7969" y2="648.7969"/><line style="stroke:#1E88E5;stroke-width:1;" x1="2522" x2="2778" y1="658.7969" y2="658.7969"/><line style="stroke:#1E88E5;stroke-width:1;" x1="2778" x2="2778" y1="658.7969" y2="743.7969"/><text fill="#212121" font-family="sans-serif" font-size="14" font-weight="bold" lengthAdjust="spacing" textLength="190.5449" x="2555.7275" y="674.792">Cloud Storage (AWS S3)</text></g><!--cluster authProvider--><g id="cluster_authProvider"><polygon fill="#E3F2FD" points="2233,658.7969,2243,648.7969,2498,648.7969,2498,733.7969,2488,743.7969,2233,743.7969,2233,658.7969" style="stroke:#1E88E5;stroke-width:1;"/><line style="stroke:#1E88E5;stroke-width:1;" x1="2488" x2="2498" y1="658.7969" y2="648.7969"/><line style="stroke:#1E88E5;stroke-width:1;" x1="2233" x2="2488" y1="658.7969" y2="658.7969"/><line style="stroke:#1E88E5;stroke-width:1;" x1="2488" x2="2488" y1="658.7969" y2="743.7969"/><text fill="#212121" font-family="sans-serif" font-size="14" font-weight="bold" lengthAdjust="spacing" textLength="189.2393" x="2266.8804" y="674.792">Authentication Provider</text></g><!--entity mui--><g id="elem_mui"><rect fill="#FFFFFF" height="39.2969" rx="2.5" ry="2.5" style="stroke:#757575;stroke-width:0.5;" width="198.7246" x="88.5" y="177.2969"/><polygon fill="#FFFFFF" points="270.2246,182.2969,270.2246,196.2969,282.2246,196.2969,282.2246,188.2969,276.2246,182.2969,270.2246,182.2969" style="stroke:#757575;stroke-width:0.5;"/><line style="stroke:#757575;stroke-width:0.5;" x1="276.2246" x2="276.2246" y1="182.2969" y2="188.2969"/><line style="stroke:#757575;stroke-width:0.5;" x1="282.2246" x2="276.2246" y1="188.2969" y2="188.2969"/><text fill="#000000" font-family="sans-serif" font-size="14" lengthAdjust="spacing" textLength="168.7246" x="98.5" y="203.292">Material UI Components</text></g><!--entity redux--><g id="elem_redux"><rect fill="#FFFFFF" height="39.2969" rx="2.5" ry="2.5" style="stroke:#757575;stroke-width:0.5;" width="116.1465" x="323" y="177.2969"/><polygon fill="#FFFFFF" points="422.1465,182.2969,422.1465,196.2969,434.1465,196.2969,434.1465,188.2969,428.1465,182.2969,422.1465,182.2969" style="stroke:#757575;stroke-width:0.5;"/><line style="stroke:#757575;stroke-width:0.5;" x1="428.1465" x2="428.1465" y1="182.2969" y2="188.2969"/><line style="stroke:#757575;stroke-width:0.5;" x1="434.1465" x2="428.1465" y1="188.2969" y2="188.2969"/><text fill="#000000" font-family="sans-serif" font-size="14" lengthAdjust="spacing" textLength="86.1465" x="333" y="203.292">Redux Store</text></g><!--entity router--><g id="elem_router"><rect fill="#FFFFFF" height="39.2969" rx="2.5" ry="2.5" style="stroke:#757575;stroke-width:0.5;" width="121.5811" x="127" y="378.7969"/><polygon fill="#FFFFFF" points="231.5811,383.7969,231.5811,397.7969,243.5811,397.7969,243.5811,389.7969,237.5811,383.7969,231.5811,383.7969" style="stroke:#757575;stroke-width:0.5;"/><line style="stroke:#757575;stroke-width:0.5;" x1="237.5811" x2="237.5811" y1="383.7969" y2="389.7969"/><line style="stroke:#757575;stroke-width:0.5;" x1="243.5811" x2="237.5811" y1="389.7969" y2="389.7969"/><text fill="#000000" font-family="sans-serif" font-size="14" lengthAdjust="spacing" textLength="91.5811" x="137" y="404.792">React Router</text></g><!--entity cdn--><g id="elem_cdn"><rect fill="#FFFFFF" height="39.2969" rx="2.5" ry="2.5" style="stroke:#757575;stroke-width:0.5;" width="163.6152" x="583" y="378.7969"/><polygon fill="#FFFFFF" points="729.6152,383.7969,729.6152,397.7969,741.6152,397.7969,741.6152,389.7969,735.6152,383.7969,729.6152,383.7969" style="stroke:#757575;stroke-width:0.5;"/><line style="stroke:#757575;stroke-width:0.5;" x1="735.6152" x2="735.6152" y1="383.7969" y2="389.7969"/><line style="stroke:#757575;stroke-width:0.5;" x1="741.6152" x2="735.6152" y1="389.7969" y2="389.7969"/><text fill="#000000" font-family="sans-serif" font-size="14" lengthAdjust="spacing" textLength="133.6152" x="593" y="404.792">CDN Edge Network</text></g><!--entity js--><g id="elem_js"><rect fill="#FFFFFF" height="39.2969" rx="2.5" ry="2.5" style="stroke:#757575;stroke-width:0.5;" width="170.7725" x="782.5" y="378.7969"/><polygon fill="#FFFFFF" points="936.2725,383.7969,936.2725,397.7969,948.2725,397.7969,948.2725,389.7969,942.2725,383.7969,936.2725,383.7969" style="stroke:#757575;stroke-width:0.5;"/><line style="stroke:#757575;stroke-width:0.5;" x1="942.2725" x2="942.2725" y1="383.7969" y2="389.7969"/><line style="stroke:#757575;stroke-width:0.5;" x1="948.2725" x2="942.2725" y1="389.7969" y2="389.7969"/><text fill="#000000" font-family="sans-serif" font-size="14" lengthAdjust="spacing" textLength="140.7725" x="792.5" y="404.792">Compiled JavaScript</text></g><!--entity css--><g id="elem_css"><rect fill="#FFFFFF" height="39.2969" rx="2.5" ry="2.5" style="stroke:#757575;stroke-width:0.5;" width="118.0332" x="989" y="378.7969"/><polygon fill="#FFFFFF" points="1090.0332,383.7969,1090.0332,397.7969,1102.0332,397.7969,1102.0332,389.7969,1096.0332,383.7969,1090.0332,383.7969" style="stroke:#757575;stroke-width:0.5;"/><line style="stroke:#757575;stroke-width:0.5;" x1="1096.0332" x2="1096.0332" y1="383.7969" y2="389.7969"/><line style="stroke:#757575;stroke-width:0.5;" x1="1102.0332" x2="1096.0332" y1="389.7969" y2="389.7969"/><text fill="#000000" font-family="sans-serif" font-size="14" lengthAdjust="spacing" textLength="88.0332" x="999" y="404.792">CSS Bundles</text></g><!--entity assets--><g id="elem_assets"><rect fill="#FFFFFF" height="39.2969" rx="2.5" ry="2.5" style="stroke:#757575;stroke-width:0.5;" width="120.043" x="808" y="688.7969"/><polygon fill="#FFFFFF" points="911.043,693.7969,911.043,707.7969,923.043,707.7969,923.043,699.7969,917.043,693.7969,911.043,693.7969" style="stroke:#757575;stroke-width:0.5;"/><line style="stroke:#757575;stroke-width:0.5;" x1="917.043" x2="917.043" y1="693.7969" y2="699.7969"/><line style="stroke:#757575;stroke-width:0.5;" x1="923.043" x2="917.043" y1="699.7969" y2="699.7969"/><text fill="#000000" font-family="sans-serif" font-size="14" lengthAdjust="spacing" textLength="90.043" x="818" y="714.792">Static Assets</text></g><!--entity pm2--><g id="elem_pm2"><rect fill="#FFFFFF" height="39.2969" rx="2.5" ry="2.5" style="stroke:#757575;stroke-width:0.5;" width="183.3574" x="1438.5" y="688.7969"/><polygon fill="#FFFFFF" points="1604.8574,693.7969,1604.8574,707.7969,1616.8574,707.7969,1616.8574,699.7969,1610.8574,693.7969,1604.8574,693.7969" style="stroke:#757575;stroke-width:0.5;"/><line style="stroke:#757575;stroke-width:0.5;" x1="1610.8574" x2="1610.8574" y1="693.7969" y2="699.7969"/><line style="stroke:#757575;stroke-width:0.5;" x1="1616.8574" x2="1610.8574" y1="699.7969" y2="699.7969"/><text fill="#000000" font-family="sans-serif" font-size="14" lengthAdjust="spacing" textLength="153.3574" x="1448.5" y="714.792">PM2 Process Manager</text></g><!--entity nginx--><g id="elem_nginx"><rect fill="#FFFFFF" height="39.2969" rx="2.5" ry="2.5" style="stroke:#757575;stroke-width:0.5;" width="175.5439" x="1227" y="688.7969"/><polygon fill="#FFFFFF" points="1385.5439,693.7969,1385.5439,707.7969,1397.5439,707.7969,1397.5439,699.7969,1391.5439,693.7969,1385.5439,693.7969" style="stroke:#757575;stroke-width:0.5;"/><line style="stroke:#757575;stroke-width:0.5;" x1="1391.5439" x2="1391.5439" y1="693.7969" y2="699.7969"/><line style="stroke:#757575;stroke-width:0.5;" x1="1397.5439" x2="1391.5439" y1="699.7969" y2="699.7969"/><text fill="#000000" font-family="sans-serif" font-size="14" lengthAdjust="spacing" textLength="145.5439" x="1237" y="714.792">Nginx Reverse Proxy</text></g><!--entity routes--><g id="elem_routes"><rect fill="#FFFFFF" height="39.2969" rx="2.5" ry="2.5" style="stroke:#757575;stroke-width:0.5;" width="105.1611" x="1678.5" y="688.7969"/><polygon fill="#FFFFFF" points="1766.6611,693.7969,1766.6611,707.7969,1778.6611,707.7969,1778.6611,699.7969,1772.6611,693.7969,1766.6611,693.7969" style="stroke:#757575;stroke-width:0.5;"/><line style="stroke:#757575;stroke-width:0.5;" x1="1772.6611" x2="1772.6611" y1="693.7969" y2="699.7969"/><line style="stroke:#757575;stroke-width:0.5;" x1="1778.6611" x2="1772.6611" y1="699.7969" y2="699.7969"/><text fill="#000000" font-family="sans-serif" font-size="14" lengthAdjust="spacing" textLength="75.1611" x="1688.5" y="714.792">API Routes</text></g><!--entity authMiddleware--><g id="elem_authMiddleware"><rect fill="#FFFFFF" height="39.2969" rx="2.5" ry="2.5" style="stroke:#757575;stroke-width:0.5;" width="217.8652" x="1819" y="688.7969"/><polygon fill="#FFFFFF" points="2019.8652,693.7969,2019.8652,707.7969,2031.8652,707.7969,2031.8652,699.7969,2025.8652,693.7969,2019.8652,693.7969" style="stroke:#757575;stroke-width:0.5;"/><line style="stroke:#757575;stroke-width:0.5;" x1="2025.8652" x2="2025.8652" y1="693.7969" y2="699.7969"/><line style="stroke:#757575;stroke-width:0.5;" x1="2031.8652" x2="2025.8652" y1="699.7969" y2="699.7969"/><text fill="#000000" font-family="sans-serif" font-size="14" lengthAdjust="spacing" textLength="187.8652" x="1829" y="714.792">Authentication Middleware</text></g><!--entity taskLogic--><g id="elem_taskLogic"><rect fill="#FFFFFF" height="39.2969" rx="2.5" ry="2.5" style="stroke:#757575;stroke-width:0.5;" width="103.8213" x="1679" y="946.7969"/><polygon fill="#FFFFFF" points="1765.8213,951.7969,1765.8213,965.7969,1777.8213,965.7969,1777.8213,957.7969,1771.8213,951.7969,1765.8213,951.7969" style="stroke:#757575;stroke-width:0.5;"/><line style="stroke:#757575;stroke-width:0.5;" x1="1771.8213" x2="1771.8213" y1="951.7969" y2="957.7969"/><line style="stroke:#757575;stroke-width:0.5;" x1="1777.8213" x2="1771.8213" y1="957.7969" y2="957.7969"/><text fill="#000000" font-family="sans-serif" font-size="14" lengthAdjust="spacing" textLength="73.8213" x="1689" y="972.792">Task Logic</text></g><!--entity wsServer--><g id="elem_wsServer"><rect fill="#FFFFFF" height="39.2969" rx="2.5" ry="2.5" style="stroke:#757575;stroke-width:0.5;" width="159.0625" x="1818.5" y="946.7969"/><polygon fill="#FFFFFF" points="1960.5625,951.7969,1960.5625,965.7969,1972.5625,965.7969,1972.5625,957.7969,1966.5625,951.7969,1960.5625,951.7969" style="stroke:#757575;stroke-width:0.5;"/><line style="stroke:#757575;stroke-width:0.5;" x1="1966.5625" x2="1966.5625" y1="951.7969" y2="957.7969"/><line style="stroke:#757575;stroke-width:0.5;" x1="1972.5625" x2="1966.5625" y1="957.7969" y2="957.7969"/><text fill="#000000" font-family="sans-serif" font-size="14" lengthAdjust="spacing" textLength="129.0625" x="1828.5" y="972.792">WebSocket Server</text></g><!--entity backup--><g id="elem_backup"><rect fill="#FFFFFF" height="39.2969" rx="2.5" ry="2.5" style="stroke:#757575;stroke-width:0.5;" width="209.6553" x="2401" y="946.7969"/><polygon fill="#FFFFFF" points="2593.6553,951.7969,2593.6553,965.7969,2605.6553,965.7969,2605.6553,957.7969,2599.6553,951.7969,2593.6553,951.7969" style="stroke:#757575;stroke-width:0.5;"/><line style="stroke:#757575;stroke-width:0.5;" x1="2599.6553" x2="2599.6553" y1="951.7969" y2="957.7969"/><line style="stroke:#757575;stroke-width:0.5;" x1="2605.6553" x2="2599.6553" y1="957.7969" y2="957.7969"/><text fill="#000000" font-family="sans-serif" font-size="14" lengthAdjust="spacing" textLength="179.6553" x="2411" y="972.792">Database Backup System</text></g><!--entity connPool--><g id="elem_connPool"><rect fill="#FFFFFF" height="39.2969" rx="2.5" ry="2.5" style="stroke:#757575;stroke-width:0.5;" width="164.7773" x="2200.5" y="946.7969"/><polygon fill="#FFFFFF" points="2348.2773,951.7969,2348.2773,965.7969,2360.2773,965.7969,2360.2773,957.7969,2354.2773,951.7969,2348.2773,951.7969" style="stroke:#757575;stroke-width:0.5;"/><line style="stroke:#757575;stroke-width:0.5;" x1="2354.2773" x2="2354.2773" y1="951.7969" y2="957.7969"/><line style="stroke:#757575;stroke-width:0.5;" x1="2360.2773" x2="2354.2773" y1="957.7969" y2="957.7969"/><text fill="#000000" font-family="sans-serif" font-size="14" lengthAdjust="spacing" textLength="134.7773" x="2210.5" y="972.792">Connection Pooling</text></g><!--entity usersTable--><g id="elem_usersTable"><rect fill="#FFFFFF" height="39.2969" rx="2.5" ry="2.5" style="stroke:#757575;stroke-width:0.5;" width="112.1748" x="2652" y="946.7969"/><polygon fill="#FFFFFF" points="2747.1748,951.7969,2747.1748,965.7969,2759.1748,965.7969,2759.1748,957.7969,2753.1748,951.7969,2747.1748,951.7969" style="stroke:#757575;stroke-width:0.5;"/><line style="stroke:#757575;stroke-width:0.5;" x1="2753.1748" x2="2753.1748" y1="951.7969" y2="957.7969"/><line style="stroke:#757575;stroke-width:0.5;" x1="2759.1748" x2="2753.1748" y1="957.7969" y2="957.7969"/><text fill="#000000" font-family="sans-serif" font-size="14" lengthAdjust="spacing" textLength="82.1748" x="2662" y="972.792">Users Table</text></g><!--entity tasksTable--><g id="elem_tasksTable"><rect fill="#FFFFFF" height="39.2969" rx="2.5" ry="2.5" style="stroke:#757575;stroke-width:0.5;" width="112.7969" x="2799.5" y="946.7969"/><polygon fill="#FFFFFF" points="2895.2969,951.7969,2895.2969,965.7969,2907.2969,965.7969,2907.2969,957.7969,2901.2969,951.7969,2895.2969,951.7969" style="stroke:#757575;stroke-width:0.5;"/><line style="stroke:#757575;stroke-width:0.5;" x1="2901.2969" x2="2901.2969" y1="951.7969" y2="957.7969"/><line style="stroke:#757575;stroke-width:0.5;" x1="2907.2969" x2="2901.2969" y1="957.7969" y2="957.7969"/><text fill="#000000" font-family="sans-serif" font-size="14" lengthAdjust="spacing" textLength="82.7969" x="2809.5" y="972.792">Tasks Table</text></g><!--entity projectsTable--><g id="elem_projectsTable"><rect fill="#FFFFFF" height="39.2969" rx="2.5" ry="2.5" style="stroke:#757575;stroke-width:0.5;" width="128.7178" x="2643.5" y="1112.7969"/><polygon fill="#FFFFFF" points="2755.2178,1117.7969,2755.2178,1131.7969,2767.2178,1131.7969,2767.2178,1123.7969,2761.2178,1117.7969,2755.2178,1117.7969" style="stroke:#757575;stroke-width:0.5;"/><line style="stroke:#757575;stroke-width:0.5;" x1="2761.2178" x2="2761.2178" y1="1117.7969" y2="1123.7969"/><line style="stroke:#757575;stroke-width:0.5;" x1="2767.2178" x2="2761.2178" y1="1123.7969" y2="1123.7969"/><text fill="#000000" font-family="sans-serif" font-size="14" lengthAdjust="spacing" textLength="98.7178" x="2653.5" y="1138.792">Projects Table</text></g><!--entity commentsTable--><g id="elem_commentsTable"><rect fill="#FFFFFF" height="39.2969" rx="2.5" ry="2.5" style="stroke:#757575;stroke-width:0.5;" width="148.8564" x="2807.5" y="1112.7969"/><polygon fill="#FFFFFF" points="2939.3564,1117.7969,2939.3564,1131.7969,2951.3564,1131.7969,2951.3564,1123.7969,2945.3564,1117.7969,2939.3564,1117.7969" style="stroke:#757575;stroke-width:0.5;"/><line style="stroke:#757575;stroke-width:0.5;" x1="2945.3564" x2="2945.3564" y1="1117.7969" y2="1123.7969"/><line style="stroke:#757575;stroke-width:0.5;" x1="2951.3564" x2="2945.3564" y1="1123.7969" y2="1123.7969"/><text fill="#000000" font-family="sans-serif" font-size="14" lengthAdjust="spacing" textLength="118.8564" x="2817.5" y="1138.792">Comments Table</text></g><!--entity smtp--><g id="elem_smtp"><rect fill="#FFFFFF" height="39.2969" rx="2.5" ry="2.5" style="stroke:#757575;stroke-width:0.5;" width="124.1514" x="2845" y="688.7969"/><polygon fill="#FFFFFF" points="2952.1514,693.7969,2952.1514,707.7969,2964.1514,707.7969,2964.1514,699.7969,2958.1514,693.7969,2952.1514,693.7969" style="stroke:#757575;stroke-width:0.5;"/><line style="stroke:#757575;stroke-width:0.5;" x1="2958.1514" x2="2958.1514" y1="693.7969" y2="699.7969"/><line style="stroke:#757575;stroke-width:0.5;" x1="2964.1514" x2="2958.1514" y1="699.7969" y2="699.7969"/><text fill="#000000" font-family="sans-serif" font-size="14" lengthAdjust="spacing" textLength="94.1514" x="2855" y="714.792">SMTP Service</text></g><!--entity buckets--><g id="elem_buckets"><rect fill="#FFFFFF" height="39.2969" rx="2.5" ry="2.5" style="stroke:#757575;stroke-width:0.5;" width="114.5742" x="2597.5" y="688.7969"/><polygon fill="#FFFFFF" points="2695.0742,693.7969,2695.0742,707.7969,2707.0742,707.7969,2707.0742,699.7969,2701.0742,693.7969,2695.0742,693.7969" style="stroke:#757575;stroke-width:0.5;"/><line style="stroke:#757575;stroke-width:0.5;" x1="2701.0742" x2="2701.0742" y1="693.7969" y2="699.7969"/><line style="stroke:#757575;stroke-width:0.5;" x1="2707.0742" x2="2701.0742" y1="699.7969" y2="699.7969"/><text fill="#000000" font-family="sans-serif" font-size="14" lengthAdjust="spacing" textLength="84.5742" x="2607.5" y="714.792">File Buckets</text></g><!--entity oauth--><g id="elem_oauth"><rect fill="#FFFFFF" height="39.2969" rx="2.5" ry="2.5" style="stroke:#757575;stroke-width:0.5;" width="130.0234" x="2300" y="688.7969"/><polygon fill="#FFFFFF" points="2413.0234,693.7969,2413.0234,707.7969,2425.0234,707.7969,2425.0234,699.7969,2419.0234,693.7969,2413.0234,693.7969" style="stroke:#757575;stroke-width:0.5;"/><line style="stroke:#757575;stroke-width:0.5;" x1="2419.0234" x2="2419.0234" y1="693.7969" y2="699.7969"/><line style="stroke:#757575;stroke-width:0.5;" x1="2425.0234" x2="2419.0234" y1="699.7969" y2="699.7969"/><text fill="#000000" font-family="sans-serif" font-size="14" lengthAdjust="spacing" textLength="100.0234" x="2310" y="714.792">OAuth Service</text></g><g id="elem_GMN43"><path d="M546,176.7969 L546,217.0625 L758.1597,217.0625 L758.1597,186.7969 L748.1597,176.7969 L546,176.7969 " fill="#FEFFDD" style="stroke:#181818;stroke-width:0.5;"/><path d="M748.1597,176.7969 L748.1597,186.7969 L758.1597,186.7969 L748.1597,176.7969 " fill="#FEFFDD" style="stroke:#181818;stroke-width:1;"/><text fill="#000000" font-family="sans-serif" font-size="13" lengthAdjust="spacing" textLength="175.9507" x="552" y="193.8638">Supports modern browsers</text><text fill="#000000" font-family="sans-serif" font-size="13" lengthAdjust="spacing" textLength="191.1597" x="552" y="208.9966">Chrome, Firefox, Safari, Edge</text></g><g id="elem_GMN46"><path d="M1382,378.2969 L1382,418.5625 L1555.6294,418.5625 L1555.6294,388.2969 L1545.6294,378.2969 L1382,378.2969 " fill="#FEFFDD" style="stroke:#181818;stroke-width:0.5;"/><path d="M1545.6294,378.2969 L1545.6294,388.2969 L1555.6294,388.2969 L1545.6294,378.2969 " fill="#FEFFDD" style="stroke:#181818;stroke-width:1;"/><text fill="#000000" font-family="sans-serif" font-size="13" lengthAdjust="spacing" textLength="152.6294" x="1388" y="395.3638">Global CDN distribution</text><text fill="#000000" font-family="sans-serif" font-size="13" lengthAdjust="spacing" textLength="118.9487" x="1388" y="410.4966">with edge caching</text></g><g id="elem_GMN49"><path d="M3059,688.2969 L3059,728.5625 L3216.9253,728.5625 L3216.9253,698.2969 L3206.9253,688.2969 L3059,688.2969 " fill="#FEFFDD" style="stroke:#181818;stroke-width:0.5;"/><path d="M3206.9253,688.2969 L3206.9253,698.2969 L3216.9253,698.2969 L3206.9253,688.2969 " fill="#FEFFDD" style="stroke:#181818;stroke-width:1;"/><text fill="#000000" font-family="sans-serif" font-size="13" lengthAdjust="spacing" textLength="136.9253" x="3065" y="705.3638">Auto-scaling enabled</text><text fill="#000000" font-family="sans-serif" font-size="13" lengthAdjust="spacing" textLength="126.915" x="3065" y="720.4966">with load balancing</text></g><g id="elem_GMN52"><path d="M3283.5,946.2969 L3283.5,986.5625 L3460.6396,986.5625 L3460.6396,956.2969 L3450.6396,946.2969 L3283.5,946.2969 " fill="#FEFFDD" style="stroke:#181818;stroke-width:0.5;"/><path d="M3450.6396,946.2969 L3450.6396,956.2969 L3460.6396,956.2969 L3450.6396,946.2969 " fill="#FEFFDD" style="stroke:#181818;stroke-width:1;"/><text fill="#000000" font-family="sans-serif" font-size="13" lengthAdjust="spacing" textLength="141.3813" x="3289.5" y="963.3638">Primary instance with</text><text fill="#000000" font-family="sans-serif" font-size="13" lengthAdjust="spacing" textLength="156.1396" x="3289.5" y="978.4966">read replicas for scaling</text></g><g id="elem_GMN55"><path d="M3028,946.2969 L3028,986.5625 L3247.7578,986.5625 L3247.7578,956.2969 L3237.7578,946.2969 L3028,946.2969 " fill="#FEFFDD" style="stroke:#181818;stroke-width:0.5;"/><path d="M3237.7578,946.2969 L3237.7578,956.2969 L3247.7578,956.2969 L3237.7578,946.2969 " fill="#FEFFDD" style="stroke:#181818;stroke-width:1;"/><text fill="#000000" font-family="sans-serif" font-size="13" lengthAdjust="spacing" textLength="178.8643" x="3034" y="963.3638">All external communication</text><text fill="#000000" font-family="sans-serif" font-size="13" lengthAdjust="spacing" textLength="198.7578" x="3034" y="978.4966">secured with API keys and SSL</text></g><!--link client to frontendServer--><g id="link_client_frontendServer"><path d="M519.0121,209.5134 C519.1223,209.6373 519.2335,209.7608 519.3456,209.8841 C519.5699,210.1307 519.7979,210.3759 520.0296,210.6193 C520.4931,211.1062 520.9714,211.5856 521.4638,212.0531 C523.4331,213.9231 525.6275,215.6019 528,216.7969 C646.6,276.5269 1022.01,185.5769 1123,271.7969 C1128.3863,276.3956 1129.6557,276.7359 1133.4853,282.6128 " fill="transparent" id="client-to-frontendServer" style="stroke:#555555;stroke-width:1;"/><polygon fill="#555555" points="1136.7609,287.6397,1135.1987,277.9155,1134.0312,283.4506,1128.4961,282.2831,1136.7609,287.6397" style="stroke:#555555;stroke-width:1;"/><text fill="#333333" font-family="sans-serif" font-size="13" lengthAdjust="spacing" textLength="41.7485" x="1111" y="259.8638">HTTPS</text></g><!--link client to backendServer--><g id="link_client_backendServer"><path d="M519.0482,209.711 C519.0758,209.742 519.1036,209.7729 519.1314,209.8038 C519.187,209.8655 519.2428,209.9272 519.2989,209.9888 C519.5232,210.2352 519.7513,210.4801 519.9833,210.7229 C520.4473,211.2085 520.9264,211.6858 521.4202,212.1502 C523.395,214.0075 525.6025,215.6569 528,216.7969 C655.16,277.3069 1043.41,169.3069 1161,246.7969 C1267.89,317.2369 1179.96,435.5869 1287,505.7969 C1358.23,552.5169 1985,487.4769 2053,538.7969 C2056.8756,541.7219 2060.4863,544.9248 2063.85,548.3603 C2065.5319,550.078 2067.152,551.854 2068.7126,553.6824 C2068.9077,553.9109 2065.2442,549.5448 2065.4374,549.7749 " fill="transparent" id="client-to-backendServer" style="stroke:#555555;stroke-width:1;"/><polygon fill="#555555" points="2069.295,554.3705,2066.5723,544.9054,2066.0804,550.5409,2060.4449,550.0489,2069.295,554.3705" style="stroke:#555555;stroke-width:1;"/><text fill="#333333" font-family="sans-serif" font-size="13" lengthAdjust="spacing" textLength="75.4863" x="1288" y="402.8638">HTTPS/WSS</text></g><!--link frontendServer to backendServer--><g id="link_frontendServer_backendServer"><path d="M1163.1145,497.0739 C1163.1998,497.2881 1163.2857,497.502 1163.3723,497.7155 C1163.7187,498.5696 1164.0756,499.4185 1164.4433,500.2617 C1165.1786,501.9481 1165.9571,503.6116 1166.781,505.2477 C1168.4288,508.5199 1170.2582,511.6828 1172.2871,514.7012 C1176.345,520.738 1181.2013,526.1969 1187,530.7969 C1205.85,545.7469 2033.56,524.6369 2053,538.7969 C2056.9244,541.6556 2060.5779,544.8004 2063.9789,548.1852 C2065.6794,549.8775 2067.3169,551.6299 2068.8935,553.4366 C2069.0906,553.6624 2065.38,549.3352 2065.5751,549.5627 " fill="transparent" id="frontendServer-to-backendServer" style="stroke:#555555;stroke-width:1;"/><polygon fill="#555555" points="2069.4819,554.1166,2066.6577,544.6813,2066.2263,550.3217,2060.5859,549.8903,2069.4819,554.1166" style="stroke:#555555;stroke-width:1;"/><text fill="#333333" font-family="sans-serif" font-size="13" lengthAdjust="spacing" textLength="55.7388" x="1188" y="526.8638">API Calls</text></g><!--link backendServer to dbServer--><g id="link_backendServer_dbServer"><path d="M2117.0369,746.0478 C2117.3498,747.4783 2117.6696,748.9404 2117.9959,750.4323 C2123.2175,774.3034 2130.1088,805.8063 2137,837.3081 C2143.8912,868.81 2150.7825,900.3109 2156.0041,924.1783 C2156.3304,925.67 2155.3679,921.2705 2155.6808,922.7007 " fill="transparent" id="backendServer-to-dbServer" style="stroke:#555555;stroke-width:1;"/><polygon fill="#555555" points="2156.9631,928.5621,2158.9472,918.9152,2155.8945,923.6776,2151.1321,920.6249,2156.9631,928.5621" style="stroke:#555555;stroke-width:1;"/><text fill="#333333" font-family="sans-serif" font-size="13" lengthAdjust="spacing" textLength="80.0566" x="2133" y="812.8638">SQL Queries</text></g><!--link backendServer to externalServices--><g id="link_backendServer_externalServices"><path d="M2117.0131,708.2969 C2117.2073,708.2969 2117.4044,708.2969 2117.6045,708.2969 C2118.4045,708.2969 2119.2508,708.2969 2120.1389,708.2969 C2121.9152,708.2969 2123.8593,708.2969 2125.9373,708.2969 C2134.2497,708.2969 2144.7069,708.2969 2155.1537,708.2969 C2165.6006,708.2969 2176.0372,708.2969 2184.3083,708.2969 C2186.3761,708.2969 2188.3085,708.2969 2190.0719,708.2969 C2190.9536,708.2969 2191.7931,708.2969 2192.5861,708.2969 C2192.6852,708.2969 2186.7836,708.2969 2186.8812,708.2969 " fill="transparent" id="backendServer-to-externalServices" style="stroke:#555555;stroke-width:1;"/><polygon fill="#555555" points="2192.8812,708.2969,2183.8812,704.2969,2187.8812,708.2969,2183.8812,712.2969,2192.8812,708.2969" style="stroke:#555555;stroke-width:1;"/><text fill="#333333" font-family="sans-serif" font-size="13" lengthAdjust="spacing" textLength="55.7388" x="2127.5" y="701.3638">API Calls</text></g><!--link client to GMN43--><g id="link_client_GMN43"><path d="M519.0509,196.7969 C519.4081,196.7969 519.7653,196.7969 520.1225,196.7969 C522.98,196.7969 525.8375,196.7969 528.695,196.7969 C534.41,196.7969 540.125,196.7969 545.84,196.7969 " fill="transparent" id="client-GMN43" style="stroke:#555555;stroke-width:1;stroke-dasharray:7.0,7.0;"/></g><!--link frontendServer to GMN46--><g id="link_frontendServer_GMN46"><path d="M1163.1714,365.5441 C1163.2351,365.3337 1163.2992,365.1225 1163.3637,364.9107 C1164.3959,361.5216 1165.5352,357.9582 1166.7878,354.2614 C1169.2929,346.8679 1172.2509,338.9409 1175.7112,330.8081 C1189.5525,298.2769 1211.43,262.4519 1244.5,244.2969 C1280.73,224.4069 1299.96,226.9869 1337.5,244.2969 C1398,272.1969 1440.99,343.1769 1459.24,378.1669 " fill="transparent" id="frontendServer-GMN46" style="stroke:#555555;stroke-width:1;stroke-dasharray:7.0,7.0;"/></g><!--link backendServer to GMN49--><g id="link_backendServer_GMN49"><path d="M2117.0609,653.0522 C2117.1262,652.7563 2117.192,652.4597 2117.2582,652.1625 C2117.3908,651.5681 2117.5255,650.9713 2117.6622,650.372 C2117.9356,649.1736 2118.2175,647.9656 2118.508,646.749 C2119.0889,644.316 2119.7043,641.8487 2120.3563,639.3547 C2121.6601,634.3666 2123.1098,629.2716 2124.7213,624.1294 C2137.6125,582.9919 2160.85,538.8369 2202.5,522.2969 C2242,506.6069 2928,506.6069 2967.5,522.2969 C3047.71,554.1469 3105.44,647.1269 3127.79,688.2869 " fill="transparent" id="backendServer-GMN49" style="stroke:#555555;stroke-width:1;stroke-dasharray:7.0,7.0;"/></g><!--link dbServer to GMN52--><g id="link_dbServer_GMN52"><path d="M2169.1204,840.5655 C2169.2294,840.3294 2169.3394,840.094 2169.4503,839.8593 C2169.8941,838.9206 2170.3536,837.9937 2170.8292,837.0792 C2171.7804,835.2504 2172.7961,833.4718 2173.8798,831.7498 C2176.0472,828.306 2178.4867,825.089 2181.2267,822.1514 C2186.7067,816.2761 2193.3888,811.5181 2201.5,808.2969 C2255.56,786.8269 3194.44,786.8269 3248.5,808.2969 C3310.63,832.9669 3349.03,909.5069 3364.35,946.2369 " fill="transparent" id="dbServer-GMN52" style="stroke:#555555;stroke-width:1;stroke-dasharray:7.0,7.0;"/></g><!--link externalServices to GMN55--><g id="link_externalServices_GMN55"><path d="M2258.0654,775.9263 C2258.3888,776.1785 2258.7131,776.4295 2259.0385,776.6792 C2261.6411,778.6767 2264.3061,780.5921 2267.0281,782.4016 C2272.472,786.0205 2278.1438,789.2156 2284,791.7969 C2424.06,853.5369 2829.58,768.7069 2972,824.7969 C3037.87,850.7369 3096.3,914.0469 3122.85,946.0769 " fill="transparent" id="externalServices-GMN55" style="stroke:#555555;stroke-width:1;stroke-dasharray:7.0,7.0;"/></g><!--SRC=[VLRRRkCs47tNLn3PXxP0qcJj1XliGm77btQB9FLQsUQPaiOs4ueKICgEKUJVEqDIZYvnRIGMHsSEEMSkadqHgkA6bopZ-Sl6w5eLKosrOVkjS90aFx4Ph8K2jjQcv9BbTDCczkYdT07ituInsnx1f_buCLhCw8us1PXe_Jo_kPbVetMXbOksqMVw9cz9YxVWZcVSdk1UZEVNY-i-zyryzDjaqkNXnearpzq97l_fytovfc-N9vUwBawHpAUtupx9OZ6vkhhg7yRelIU9e6l_wQenzXzoTC998AZacJRSYHsmHsvVs3rNV0CbACVIWtLGiWlCKoNrmTjcWczmkoJnoJcRIk6ji1Cvd35kCHXleOCSzJbxWepTulai60_AmhL7jN4he9z9LKcHuvcqycX3LZH6UDlXdZim0eldnpSCfgoqmisjzofhCO2leAXVMUgqWSYCwmzGzBFIjOl7DVxIuzuI-djhubyO51TKmL8mEmpevt_0v20l7y19iJxyujtN4HGnNMbIXu7cxBOMil1ewmr-FT27GXGI2lONt_4qDw9otkVPze5fYfIga134o6qV4VUTM0jHCEulan1ZYshsmER51XZ6jDVc9V0Lwbq4gjgs1fEdbCsdeyiL6i443RA0-L221sJvzTcoLQsSA4DcY1bDVG7chvK1QmaTg3mOWlM3-fWiluL4slT4sY6gTbkicrXpx5uKADoUnoBXUFVTD73sNNEdDoBtQ8TBlne0iGbIZIguzj7tDYnQnTNsMTwFsDBedA8BdHdSgdBKbN0Zr2jR0JBXN4EFrqEGaUplcPerawz9rL9Rjp6GVhzZKvf28Lb5rihJSLgUjS0DKJXCi0-pzGDxtE9OoMG0rhJsosIeOHj88du8nCYU8NTjR1LD7y6nNsXgjU5vD3Nmhjv7WQYcwogEm6C5rrMtDRHIk3NLp59hATGcRg4KhKdtCDknRd60A9nJ92oEIXlhDbWRenSmP6fUSY4faJjHD5LEfiOoq3gzVrmsx66EbAwAyHrPVOxz_CDA2esQZaFExNX0kS1HWrE4IZQSDmlNVTPU-tGEJSrpyin_asVdq9hmpOYDZvABGk_LnU_zCVgL_Vduk4pxgEwWYQ3BfpHDUlwd76XaJBcKDkdUQV37vlZAg1E-r_W0WW7OYCtM8NgGulO6s9KEc8SolOwFJem-hQjA6opR4lKrgdbSal3JhT4bdBE5CB3Mh-SivMjknBaVqGbDOUBiCtT3Hve_fCwm6ccs5y8w8xAQSeTtzW9J0ZJlSvvliQHFadOYHazCfhwmEQS-OA2elug6K6fUe8FaAly_oaPRT5iQKN9pO4BX0r7bu7dGZYy31VxpRmYMNXrPtB9FccddT4ci_HpGMQKyclr8g5KiNxnf8Q_npI2SdBBr0WUiP7h2fNV7RVu3]--></g></svg>