<svg xmlns="http://www.w3.org/2000/svg" xmlns:xlink="http://www.w3.org/1999/xlink" contentStyleType="text/css" data-diagram-type="CLASS" height="1344px" preserveAspectRatio="none" style="width:666px;height:1344px;background:#FFFFFF;" version="1.1" viewBox="0 0 666 1344" width="666px" zoomAndPan="magnify"><defs/><g><!--class user--><g id="elem_user"><rect codeLine="10" fill="#98FB98" height="145.7813" id="user" rx="2.5" ry="2.5" style="stroke:#2F4F4F;stroke-width:0.5;" width="175.8369" x="288" y="7"/><ellipse cx="352.8149" cy="23" fill="#ADD1B2" rx="11" ry="11" style="stroke:#181818;stroke-width:1;"/><path d="M356.9243,29 L349.2056,29 L349.2056,16.6094 L356.9243,16.6094 L356.9243,18.7656 L351.6587,18.7656 L351.6587,21.4375 L356.4243,21.4375 L356.4243,23.5938 L351.6587,23.5938 L351.6587,26.8438 L356.9243,26.8438 L356.9243,29 Z " fill="#000000"/><text fill="#000000" font-family="sans-serif" font-size="14" lengthAdjust="spacing" textLength="37.707" x="373.3149" y="27.8467">USER</text><line style="stroke:#2F4F4F;stroke-width:0.5;" x1="289" x2="462.8369" y1="39" y2="39"/><ellipse cx="299" cy="52.6484" fill="#000000" rx="3" ry="3" style="stroke:#000000;stroke-width:1;"/><text fill="#000000" font-family="sans-serif" font-size="14" lengthAdjust="spacing" textLength="83.8496" x="308" y="55.9951">id : int &#171;PK&#187;</text><line style="stroke:#2F4F4F;stroke-width:1;" x1="289" x2="462.8369" y1="63.2969" y2="63.2969"/><text fill="#000000" font-family="sans-serif" font-size="14" lengthAdjust="spacing" textLength="137.3818" x="294" y="80.292">username : varchar</text><text fill="#000000" font-family="sans-serif" font-size="14" lengthAdjust="spacing" textLength="105.752" x="294" y="96.5889">email : varchar</text><text fill="#000000" font-family="sans-serif" font-size="14" lengthAdjust="spacing" textLength="135.3926" x="294" y="112.8857">phone_no : varchar</text><text fill="#000000" font-family="sans-serif" font-size="14" lengthAdjust="spacing" textLength="133.8545" x="294" y="129.1826">password : varchar</text><text fill="#000000" font-family="sans-serif" font-size="14" lengthAdjust="spacing" textLength="163.8369" x="294" y="145.4795">created_at : timestamp</text></g><!--class team--><g id="elem_team"><rect codeLine="20" fill="#98FB98" height="113.1875" id="team" rx="2.5" ry="2.5" style="stroke:#2F4F4F;stroke-width:0.5;" width="175.8369" x="113" y="402"/><ellipse cx="177.1416" cy="418" fill="#ADD1B2" rx="11" ry="11" style="stroke:#181818;stroke-width:1;"/><path d="M181.251,424 L173.5322,424 L173.5322,411.6094 L181.251,411.6094 L181.251,413.7656 L175.9854,413.7656 L175.9854,416.4375 L180.751,416.4375 L180.751,418.5938 L175.9854,418.5938 L175.9854,421.8438 L181.251,421.8438 L181.251,424 Z " fill="#000000"/><text fill="#000000" font-family="sans-serif" font-size="14" lengthAdjust="spacing" textLength="39.0537" x="197.6416" y="422.8467">TEAM</text><line style="stroke:#2F4F4F;stroke-width:0.5;" x1="114" x2="287.8369" y1="434" y2="434"/><ellipse cx="124" cy="447.6484" fill="#000000" rx="3" ry="3" style="stroke:#000000;stroke-width:1;"/><text fill="#000000" font-family="sans-serif" font-size="14" lengthAdjust="spacing" textLength="83.8496" x="133" y="450.9951">id : int &#171;PK&#187;</text><line style="stroke:#2F4F4F;stroke-width:1;" x1="114" x2="287.8369" y1="458.2969" y2="458.2969"/><text fill="#000000" font-family="sans-serif" font-size="14" lengthAdjust="spacing" textLength="106.8457" x="119" y="475.292">name : varchar</text><text fill="#000000" font-family="sans-serif" font-size="14" lengthAdjust="spacing" textLength="148.4902" x="119" y="491.5889">created_by : int &#171;FK&#187;</text><text fill="#000000" font-family="sans-serif" font-size="14" lengthAdjust="spacing" textLength="163.8369" x="119" y="507.8857">created_at : timestamp</text></g><!--class team_members--><g id="elem_team_members"><rect codeLine="28" fill="#98FB98" height="129.4844" id="team_members" rx="2.5" ry="2.5" style="stroke:#2F4F4F;stroke-width:0.5;" width="164.9199" x="120.5" y="213"/><ellipse cx="143.059" cy="229" fill="#ADD1B2" rx="11" ry="11" style="stroke:#181818;stroke-width:1;"/><path d="M147.1684,235 L139.4497,235 L139.4497,222.6094 L147.1684,222.6094 L147.1684,224.7656 L141.9028,224.7656 L141.9028,227.4375 L146.6684,227.4375 L146.6684,229.5938 L141.9028,229.5938 L141.9028,232.8438 L147.1684,232.8438 L147.1684,235 Z " fill="#000000"/><text fill="#000000" font-family="sans-serif" font-size="14" lengthAdjust="spacing" textLength="116.1221" x="158.7388" y="233.8467">TEAM_MEMBERS</text><line style="stroke:#2F4F4F;stroke-width:0.5;" x1="121.5" x2="284.4199" y1="245" y2="245"/><ellipse cx="131.5" cy="258.6484" fill="#000000" rx="3" ry="3" style="stroke:#000000;stroke-width:1;"/><text fill="#000000" font-family="sans-serif" font-size="14" lengthAdjust="spacing" textLength="83.8496" x="140.5" y="261.9951">id : int &#171;PK&#187;</text><line style="stroke:#2F4F4F;stroke-width:1;" x1="121.5" x2="284.4199" y1="269.2969" y2="269.2969"/><text fill="#000000" font-family="sans-serif" font-size="14" lengthAdjust="spacing" textLength="126.7793" x="126.5" y="286.292">team_id : int &#171;FK&#187;</text><text fill="#000000" font-family="sans-serif" font-size="14" lengthAdjust="spacing" textLength="120.9961" x="126.5" y="302.5889">user_id : int &#171;FK&#187;</text><text fill="#000000" font-family="sans-serif" font-size="14" lengthAdjust="spacing" textLength="80.4385" x="126.5" y="318.8857">role : enum</text><text fill="#000000" font-family="sans-serif" font-size="14" lengthAdjust="spacing" textLength="152.9199" x="126.5" y="335.1826">joined_at : timestamp</text></g><!--class board--><g id="elem_board"><rect codeLine="37" fill="#98FB98" height="129.4844" id="board" rx="2.5" ry="2.5" style="stroke:#2F4F4F;stroke-width:0.5;" width="175.8369" x="113" y="575"/><ellipse cx="171.314" cy="591" fill="#ADD1B2" rx="11" ry="11" style="stroke:#181818;stroke-width:1;"/><path d="M175.4233,597 L167.7046,597 L167.7046,584.6094 L175.4233,584.6094 L175.4233,586.7656 L170.1577,586.7656 L170.1577,589.4375 L174.9233,589.4375 L174.9233,591.5938 L170.1577,591.5938 L170.1577,594.8438 L175.4233,594.8438 L175.4233,597 Z " fill="#000000"/><text fill="#000000" font-family="sans-serif" font-size="14" lengthAdjust="spacing" textLength="50.709" x="191.814" y="595.8467">BOARD</text><line style="stroke:#2F4F4F;stroke-width:0.5;" x1="114" x2="287.8369" y1="607" y2="607"/><ellipse cx="124" cy="620.6484" fill="#000000" rx="3" ry="3" style="stroke:#000000;stroke-width:1;"/><text fill="#000000" font-family="sans-serif" font-size="14" lengthAdjust="spacing" textLength="83.8496" x="133" y="623.9951">id : int &#171;PK&#187;</text><line style="stroke:#2F4F4F;stroke-width:1;" x1="114" x2="287.8369" y1="631.2969" y2="631.2969"/><text fill="#000000" font-family="sans-serif" font-size="14" lengthAdjust="spacing" textLength="94.5137" x="119" y="648.292">title : varchar</text><text fill="#000000" font-family="sans-serif" font-size="14" lengthAdjust="spacing" textLength="126.7793" x="119" y="664.5889">team_id : int &#171;FK&#187;</text><text fill="#000000" font-family="sans-serif" font-size="14" lengthAdjust="spacing" textLength="148.4902" x="119" y="680.8857">created_by : int &#171;FK&#187;</text><text fill="#000000" font-family="sans-serif" font-size="14" lengthAdjust="spacing" textLength="163.8369" x="119" y="697.1826">created_at : timestamp</text></g><!--class list--><g id="elem_list"><rect codeLine="46" fill="#98FB98" height="113.1875" id="list" rx="2.5" ry="2.5" style="stroke:#2F4F4F;stroke-width:0.5;" width="143.1338" x="137.5" y="764"/><ellipse cx="190.1333" cy="780" fill="#ADD1B2" rx="11" ry="11" style="stroke:#181818;stroke-width:1;"/><path d="M194.2427,786 L186.5239,786 L186.5239,773.6094 L194.2427,773.6094 L194.2427,775.7656 L188.9771,775.7656 L188.9771,778.4375 L193.7427,778.4375 L193.7427,780.5938 L188.9771,780.5938 L188.9771,783.8438 L194.2427,783.8438 L194.2427,786 Z " fill="#000000"/><text fill="#000000" font-family="sans-serif" font-size="14" lengthAdjust="spacing" textLength="29.3672" x="210.6333" y="784.8467">LIST</text><line style="stroke:#2F4F4F;stroke-width:0.5;" x1="138.5" x2="279.6338" y1="796" y2="796"/><ellipse cx="148.5" cy="809.6484" fill="#000000" rx="3" ry="3" style="stroke:#000000;stroke-width:1;"/><text fill="#000000" font-family="sans-serif" font-size="14" lengthAdjust="spacing" textLength="83.8496" x="157.5" y="812.9951">id : int &#171;PK&#187;</text><line style="stroke:#2F4F4F;stroke-width:1;" x1="138.5" x2="279.6338" y1="820.2969" y2="820.2969"/><text fill="#000000" font-family="sans-serif" font-size="14" lengthAdjust="spacing" textLength="94.5137" x="143.5" y="837.292">title : varchar</text><text fill="#000000" font-family="sans-serif" font-size="14" lengthAdjust="spacing" textLength="131.1338" x="143.5" y="853.5889">board_id : int &#171;FK&#187;</text><text fill="#000000" font-family="sans-serif" font-size="14" lengthAdjust="spacing" textLength="87.3223" x="143.5" y="869.8857">position : int</text></g><!--class task--><g id="elem_task"><rect codeLine="54" fill="#98FB98" height="210.9688" id="task" rx="2.5" ry="2.5" style="stroke:#2F4F4F;stroke-width:0.5;" width="175.8369" x="288" y="937"/><ellipse cx="353.5703" cy="953" fill="#ADD1B2" rx="11" ry="11" style="stroke:#181818;stroke-width:1;"/><path d="M357.6797,959 L349.9609,959 L349.9609,946.6094 L357.6797,946.6094 L357.6797,948.7656 L352.4141,948.7656 L352.4141,951.4375 L357.1797,951.4375 L357.1797,953.5938 L352.4141,953.5938 L352.4141,956.8438 L357.6797,956.8438 L357.6797,959 Z " fill="#000000"/><text fill="#000000" font-family="sans-serif" font-size="14" lengthAdjust="spacing" textLength="36.1963" x="374.0703" y="957.8467">TASK</text><line style="stroke:#2F4F4F;stroke-width:0.5;" x1="289" x2="462.8369" y1="969" y2="969"/><ellipse cx="299" cy="982.6484" fill="#000000" rx="3" ry="3" style="stroke:#000000;stroke-width:1;"/><text fill="#000000" font-family="sans-serif" font-size="14" lengthAdjust="spacing" textLength="83.8496" x="308" y="985.9951">id : int &#171;PK&#187;</text><line style="stroke:#2F4F4F;stroke-width:1;" x1="289" x2="462.8369" y1="993.2969" y2="993.2969"/><text fill="#000000" font-family="sans-serif" font-size="14" lengthAdjust="spacing" textLength="94.5137" x="294" y="1010.292">title : varchar</text><text fill="#000000" font-family="sans-serif" font-size="14" lengthAdjust="spacing" textLength="119.335" x="294" y="1026.5889">description : text</text><text fill="#000000" font-family="sans-serif" font-size="14" lengthAdjust="spacing" textLength="111.0225" x="294" y="1042.8857">list_id : int &#171;FK&#187;</text><text fill="#000000" font-family="sans-serif" font-size="14" lengthAdjust="spacing" textLength="148.4902" x="294" y="1059.1826">created_by : int &#171;FK&#187;</text><text fill="#000000" font-family="sans-serif" font-size="14" lengthAdjust="spacing" textLength="154.0547" x="294" y="1075.4795">assigned_to : int &#171;FK&#187;</text><text fill="#000000" font-family="sans-serif" font-size="14" lengthAdjust="spacing" textLength="104.1318" x="294" y="1091.7764">priority : enum</text><text fill="#000000" font-family="sans-serif" font-size="14" lengthAdjust="spacing" textLength="96.6328" x="294" y="1108.0732">status : enum</text><text fill="#000000" font-family="sans-serif" font-size="14" lengthAdjust="spacing" textLength="154.0752" x="294" y="1124.3701">due_date : timestamp</text><text fill="#000000" font-family="sans-serif" font-size="14" lengthAdjust="spacing" textLength="163.8369" x="294" y="1140.667">created_at : timestamp</text></g><!--class comment--><g id="elem_comment"><rect codeLine="68" fill="#98FB98" height="129.4844" id="comment" rx="2.5" ry="2.5" style="stroke:#2F4F4F;stroke-width:0.5;" width="175.8369" x="14" y="1208"/><ellipse cx="61.2568" cy="1224" fill="#ADD1B2" rx="11" ry="11" style="stroke:#181818;stroke-width:1;"/><path d="M65.3662,1230 L57.6475,1230 L57.6475,1217.6094 L65.3662,1217.6094 L65.3662,1219.7656 L60.1006,1219.7656 L60.1006,1222.4375 L64.8662,1222.4375 L64.8662,1224.5938 L60.1006,1224.5938 L60.1006,1227.8438 L65.3662,1227.8438 L65.3662,1230 Z " fill="#000000"/><text fill="#000000" font-family="sans-serif" font-size="14" lengthAdjust="spacing" textLength="72.8232" x="81.7568" y="1228.8467">COMMENT</text><line style="stroke:#2F4F4F;stroke-width:0.5;" x1="15" x2="188.8369" y1="1240" y2="1240"/><ellipse cx="25" cy="1253.6484" fill="#000000" rx="3" ry="3" style="stroke:#000000;stroke-width:1;"/><text fill="#000000" font-family="sans-serif" font-size="14" lengthAdjust="spacing" textLength="83.8496" x="34" y="1256.9951">id : int &#171;PK&#187;</text><line style="stroke:#2F4F4F;stroke-width:1;" x1="15" x2="188.8369" y1="1264.2969" y2="1264.2969"/><text fill="#000000" font-family="sans-serif" font-size="14" lengthAdjust="spacing" textLength="119.9297" x="20" y="1281.292">task_id : int &#171;FK&#187;</text><text fill="#000000" font-family="sans-serif" font-size="14" lengthAdjust="spacing" textLength="120.9961" x="20" y="1297.5889">user_id : int &#171;FK&#187;</text><text fill="#000000" font-family="sans-serif" font-size="14" lengthAdjust="spacing" textLength="95.0947" x="20" y="1313.8857">content : text</text><text fill="#000000" font-family="sans-serif" font-size="14" lengthAdjust="spacing" textLength="163.8369" x="20" y="1330.1826">created_at : timestamp</text></g><!--class attachment--><g id="elem_attachment"><rect codeLine="77" fill="#98FB98" height="129.4844" id="attachment" rx="2.5" ry="2.5" style="stroke:#2F4F4F;stroke-width:0.5;" width="187.3828" x="282.5" y="1208"/><ellipse cx="323.9929" cy="1224" fill="#ADD1B2" rx="11" ry="11" style="stroke:#181818;stroke-width:1;"/><path d="M328.1022,1230 L320.3835,1230 L320.3835,1217.6094 L328.1022,1217.6094 L328.1022,1219.7656 L322.8366,1219.7656 L322.8366,1222.4375 L327.6022,1222.4375 L327.6022,1224.5938 L322.8366,1224.5938 L322.8366,1227.8438 L328.1022,1227.8438 L328.1022,1230 Z " fill="#000000"/><text fill="#000000" font-family="sans-serif" font-size="14" lengthAdjust="spacing" textLength="96.5098" x="343.8802" y="1228.8467">ATTACHMENT</text><line style="stroke:#2F4F4F;stroke-width:0.5;" x1="283.5" x2="468.8828" y1="1240" y2="1240"/><ellipse cx="293.5" cy="1253.6484" fill="#000000" rx="3" ry="3" style="stroke:#000000;stroke-width:1;"/><text fill="#000000" font-family="sans-serif" font-size="14" lengthAdjust="spacing" textLength="83.8496" x="302.5" y="1256.9951">id : int &#171;PK&#187;</text><line style="stroke:#2F4F4F;stroke-width:1;" x1="283.5" x2="468.8828" y1="1264.2969" y2="1264.2969"/><text fill="#000000" font-family="sans-serif" font-size="14" lengthAdjust="spacing" textLength="119.9297" x="288.5" y="1281.292">task_id : int &#171;FK&#187;</text><text fill="#000000" font-family="sans-serif" font-size="14" lengthAdjust="spacing" textLength="113.9824" x="288.5" y="1297.5889">file_url : varchar</text><text fill="#000000" font-family="sans-serif" font-size="14" lengthAdjust="spacing" textLength="160.0361" x="288.5" y="1313.8857">uploaded_by : int &#171;FK&#187;</text><text fill="#000000" font-family="sans-serif" font-size="14" lengthAdjust="spacing" textLength="175.3828" x="288.5" y="1330.1826">uploaded_at : timestamp</text></g><!--class activity_log--><g id="elem_activity_log"><rect codeLine="86" fill="#98FB98" height="113.1875" id="activity_log" rx="2.5" ry="2.5" style="stroke:#2F4F4F;stroke-width:0.5;" width="176.6504" x="463.5" y="221"/><ellipse cx="498.8128" cy="237" fill="#ADD1B2" rx="11" ry="11" style="stroke:#181818;stroke-width:1;"/><path d="M502.9222,243 L495.2035,243 L495.2035,230.6094 L502.9222,230.6094 L502.9222,232.7656 L497.6566,232.7656 L497.6566,235.4375 L502.4222,235.4375 L502.4222,237.5938 L497.6566,237.5938 L497.6566,240.8438 L502.9222,240.8438 L502.9222,243 Z " fill="#000000"/><text fill="#000000" font-family="sans-serif" font-size="14" lengthAdjust="spacing" textLength="99.5107" x="517.3268" y="241.8467">ACTIVITY_LOG</text><line style="stroke:#2F4F4F;stroke-width:0.5;" x1="464.5" x2="639.1504" y1="253" y2="253"/><ellipse cx="474.5" cy="266.6484" fill="#000000" rx="3" ry="3" style="stroke:#000000;stroke-width:1;"/><text fill="#000000" font-family="sans-serif" font-size="14" lengthAdjust="spacing" textLength="83.8496" x="483.5" y="269.9951">id : int &#171;PK&#187;</text><line style="stroke:#2F4F4F;stroke-width:1;" x1="464.5" x2="639.1504" y1="277.2969" y2="277.2969"/><text fill="#000000" font-family="sans-serif" font-size="14" lengthAdjust="spacing" textLength="120.9961" x="469.5" y="294.292">user_id : int &#171;FK&#187;</text><text fill="#000000" font-family="sans-serif" font-size="14" lengthAdjust="spacing" textLength="84.5879" x="469.5" y="310.5889">action : text</text><text fill="#000000" font-family="sans-serif" font-size="14" lengthAdjust="spacing" textLength="164.6504" x="469.5" y="326.8857">timestamp : timestamp</text></g><!--link user to team_members--><g id="link_user_team_members"><path codeLine="95" d="M327.78,161.18 C327.78,193.37 327.78,216 327.78,216 C327.78,216 326.74,216 303.53,216 " fill="transparent" id="user-team_members" style="stroke:#2F4F4F;stroke-width:1;"/><line style="stroke:#2F4F4F;stroke-width:1;" x1="323.78" x2="331.78" y1="157.18" y2="157.18"/><line style="stroke:#2F4F4F;stroke-width:1;" x1="323.78" x2="331.78" y1="160.18" y2="160.18"/><line style="stroke:#2F4F4F;stroke-width:1;" x1="327.78" x2="327.78" y1="161.18" y2="153.18"/><line style="stroke:#2F4F4F;stroke-width:1;" x1="293.53" x2="285.53" y1="216" y2="222"/><line style="stroke:#2F4F4F;stroke-width:1;" x1="293.53" x2="285.53" y1="216" y2="210"/><line style="stroke:#2F4F4F;stroke-width:1;" x1="293.53" x2="285.53" y1="216" y2="216"/><ellipse cx="299.53" cy="216" fill="transparent" rx="4" ry="4" style="stroke:#2F4F4F;stroke-width:1;"/><text fill="#000000" font-family="sans-serif" font-size="13" lengthAdjust="spacing" textLength="22.9785" x="328.78" y="201.7769">has</text><text fill="#000000" font-family="sans-serif" font-size="13" lengthAdjust="spacing" textLength="8.271" x="314.8235" y="172.9535">1</text><text fill="#000000" font-family="sans-serif" font-size="13" lengthAdjust="spacing" textLength="23.0356" x="293.3217" y="207.3383">0..*</text></g><!--link team_members to user--><g id="link_team_members_user"><path codeLine="97" d="M303.61,219 C335.82,219 347.17,219 347.17,219 C347.17,219 347.17,194.65 347.17,161.16 " fill="transparent" id="team_members-user" style="stroke:#2F4F4F;stroke-width:1;"/><line style="stroke:#2F4F4F;stroke-width:1;" x1="293.61" x2="285.61" y1="219" y2="225"/><line style="stroke:#2F4F4F;stroke-width:1;" x1="293.61" x2="285.61" y1="219" y2="213"/><line style="stroke:#2F4F4F;stroke-width:1;" x1="293.61" x2="285.61" y1="219" y2="219"/><ellipse cx="299.61" cy="219" fill="transparent" rx="4" ry="4" style="stroke:#2F4F4F;stroke-width:1;"/><line style="stroke:#2F4F4F;stroke-width:1;" x1="343.17" x2="351.17" y1="157.16" y2="157.16"/><line style="stroke:#2F4F4F;stroke-width:1;" x1="343.17" x2="351.17" y1="160.16" y2="160.16"/><line style="stroke:#2F4F4F;stroke-width:1;" x1="347.17" x2="347.17" y1="161.16" y2="153.16"/><text fill="#000000" font-family="sans-serif" font-size="13" lengthAdjust="spacing" textLength="70.6304" x="312.17" y="229.9269">belongs_to</text><text fill="#000000" font-family="sans-serif" font-size="13" lengthAdjust="spacing" textLength="8.271" x="336.0616" y="172.9316">1</text></g><!--link team to team_members--><g id="link_team_team_members"><path codeLine="96" d="M175.5,393.73 C175.5,374.86 175.5,379.71 175.5,360.28 " fill="transparent" id="team-team_members" style="stroke:#2F4F4F;stroke-width:1;"/><line style="stroke:#2F4F4F;stroke-width:1;" x1="179.5" x2="171.5" y1="397.73" y2="397.73"/><line style="stroke:#2F4F4F;stroke-width:1;" x1="179.5" x2="171.5" y1="394.73" y2="394.73"/><line style="stroke:#2F4F4F;stroke-width:1;" x1="175.5" x2="175.5" y1="393.73" y2="401.73"/><line style="stroke:#2F4F4F;stroke-width:1;" x1="175.5" x2="169.5" y1="350.28" y2="342.28"/><line style="stroke:#2F4F4F;stroke-width:1;" x1="175.5" x2="181.5" y1="350.28" y2="342.28"/><line style="stroke:#2F4F4F;stroke-width:1;" x1="175.5" x2="175.5" y1="350.28" y2="342.28"/><ellipse cx="175.5" cy="356.28" fill="transparent" rx="4" ry="4" style="stroke:#2F4F4F;stroke-width:1;"/><text fill="#000000" font-family="sans-serif" font-size="13" lengthAdjust="spacing" textLength="53.8726" x="176.5" y="368.0669">includes</text><text fill="#000000" font-family="sans-serif" font-size="13" lengthAdjust="spacing" textLength="8.271" x="163.9311" y="390.9607">1</text><text fill="#000000" font-family="sans-serif" font-size="13" lengthAdjust="spacing" textLength="23.0356" x="147.9973" y="362.6839">0..*</text></g><!--link team_members to team--><g id="link_team_members_team"><path codeLine="98" d="M230.5,360.08 C230.5,379.57 230.5,374.82 230.5,393.76 " fill="transparent" id="team_members-team" style="stroke:#2F4F4F;stroke-width:1;"/><line style="stroke:#2F4F4F;stroke-width:1;" x1="230.5" x2="224.5" y1="350.08" y2="342.08"/><line style="stroke:#2F4F4F;stroke-width:1;" x1="230.5" x2="236.5" y1="350.08" y2="342.08"/><line style="stroke:#2F4F4F;stroke-width:1;" x1="230.5" x2="230.5" y1="350.08" y2="342.08"/><ellipse cx="230.5" cy="356.08" fill="transparent" rx="4" ry="4" style="stroke:#2F4F4F;stroke-width:1;"/><line style="stroke:#2F4F4F;stroke-width:1;" x1="234.5" x2="226.5" y1="397.76" y2="397.76"/><line style="stroke:#2F4F4F;stroke-width:1;" x1="234.5" x2="226.5" y1="394.76" y2="394.76"/><line style="stroke:#2F4F4F;stroke-width:1;" x1="230.5" x2="230.5" y1="393.76" y2="401.76"/><text fill="#000000" font-family="sans-serif" font-size="13" lengthAdjust="spacing" textLength="70.6304" x="231.5" y="367.9869">belongs_to</text><text fill="#000000" font-family="sans-serif" font-size="13" lengthAdjust="spacing" textLength="8.271" x="225.6343" y="390.9943">1</text></g><!--link user to task--><g id="link_user_task"><path codeLine="99" d="M366.56,161.13 C366.56,330.03 366.56,721.8 366.56,918.66 " fill="transparent" id="user-task" style="stroke:#2F4F4F;stroke-width:1;"/><line style="stroke:#2F4F4F;stroke-width:1;" x1="362.56" x2="370.56" y1="157.13" y2="157.13"/><line style="stroke:#2F4F4F;stroke-width:1;" x1="362.56" x2="370.56" y1="160.13" y2="160.13"/><line style="stroke:#2F4F4F;stroke-width:1;" x1="366.56" x2="366.56" y1="161.13" y2="153.13"/><line style="stroke:#2F4F4F;stroke-width:1;" x1="366.56" x2="372.56" y1="928.66" y2="936.66"/><line style="stroke:#2F4F4F;stroke-width:1;" x1="366.56" x2="360.56" y1="928.66" y2="936.66"/><line style="stroke:#2F4F4F;stroke-width:1;" x1="366.56" x2="366.56" y1="928.66" y2="936.66"/><ellipse cx="366.56" cy="922.66" fill="transparent" rx="4" ry="4" style="stroke:#2F4F4F;stroke-width:1;"/><text fill="#000000" font-family="sans-serif" font-size="13" lengthAdjust="spacing" textLength="77.416" x="288.56" y="540.9669">assigned_to</text><text fill="#000000" font-family="sans-serif" font-size="13" lengthAdjust="spacing" textLength="8.271" x="357.2997" y="172.8987">1</text><text fill="#000000" font-family="sans-serif" font-size="13" lengthAdjust="spacing" textLength="23.0356" x="342.0946" y="925.7634">0..*</text></g><!--link task to user--><g id="link_task_user"><path codeLine="107" d="M385.94,928.74 C385.94,731.94 385.94,330.16 385.94,161.2 " fill="transparent" id="task-user" style="stroke:#2F4F4F;stroke-width:1;"/><line style="stroke:#2F4F4F;stroke-width:1;" x1="385.94" x2="391.94" y1="928.74" y2="936.74"/><line style="stroke:#2F4F4F;stroke-width:1;" x1="385.94" x2="379.94" y1="928.74" y2="936.74"/><line style="stroke:#2F4F4F;stroke-width:1;" x1="385.94" x2="385.94" y1="928.74" y2="936.74"/><line style="stroke:#2F4F4F;stroke-width:1;" x1="389.94" x2="381.94" y1="926.74" y2="926.74"/><line style="stroke:#2F4F4F;stroke-width:1;" x1="381.94" x2="389.94" y1="157.2" y2="157.2"/><line style="stroke:#2F4F4F;stroke-width:1;" x1="381.94" x2="389.94" y1="160.2" y2="160.2"/><line style="stroke:#2F4F4F;stroke-width:1;" x1="385.94" x2="385.94" y1="161.2" y2="153.2"/><text fill="#000000" font-family="sans-serif" font-size="13" lengthAdjust="spacing" textLength="72.249" x="312.94" y="558.0369">created_by</text><text fill="#000000" font-family="sans-serif" font-size="13" lengthAdjust="spacing" textLength="8.271" x="378.5076" y="172.7226">1</text></g><!--link task to user--><g id="link_task_user"><path codeLine="108" d="M405.33,928.74 C405.33,731.94 405.33,337.16 405.33,168.2 " fill="transparent" id="task-user-1" style="stroke:#2F4F4F;stroke-width:1;"/><line style="stroke:#2F4F4F;stroke-width:1;" x1="405.33" x2="411.33" y1="928.74" y2="936.74"/><line style="stroke:#2F4F4F;stroke-width:1;" x1="405.33" x2="399.33" y1="928.74" y2="936.74"/><line style="stroke:#2F4F4F;stroke-width:1;" x1="405.33" x2="405.33" y1="928.74" y2="936.74"/><line style="stroke:#2F4F4F;stroke-width:1;" x1="409.33" x2="401.33" y1="926.74" y2="926.74"/><line style="stroke:#2F4F4F;stroke-width:1;" x1="405.33" x2="405.33" y1="164.2" y2="153.2"/><ellipse cx="405.33" cy="164.2" fill="transparent" rx="4" ry="4" style="stroke:#2F4F4F;stroke-width:1;"/><line style="stroke:#2F4F4F;stroke-width:1;" x1="401.33" x2="409.33" y1="157.2" y2="157.2"/><text fill="#000000" font-family="sans-serif" font-size="13" lengthAdjust="spacing" textLength="77.416" x="406.33" y="541.0369">assigned_to</text><text fill="#000000" font-family="sans-serif" font-size="13" lengthAdjust="spacing" textLength="24.8066" x="389.5254" y="172.7226">0..1</text></g><!--link user to comment--><g id="link_user_comment"><path codeLine="100" d="M279.83,56 C182.38,56 47,56 47,56 C47,56 47,938.46 47,1189.95 " fill="transparent" id="user-comment" style="stroke:#2F4F4F;stroke-width:1;"/><line style="stroke:#2F4F4F;stroke-width:1;" x1="283.83" x2="283.83" y1="52" y2="60"/><line style="stroke:#2F4F4F;stroke-width:1;" x1="280.83" x2="280.83" y1="52" y2="60"/><line style="stroke:#2F4F4F;stroke-width:1;" x1="279.83" x2="287.83" y1="56" y2="56"/><line style="stroke:#2F4F4F;stroke-width:1;" x1="47" x2="53" y1="1199.95" y2="1207.95"/><line style="stroke:#2F4F4F;stroke-width:1;" x1="47" x2="41" y1="1199.95" y2="1207.95"/><line style="stroke:#2F4F4F;stroke-width:1;" x1="47" x2="47" y1="1199.95" y2="1207.95"/><ellipse cx="47" cy="1193.95" fill="transparent" rx="4" ry="4" style="stroke:#2F4F4F;stroke-width:1;"/><text fill="#000000" font-family="sans-serif" font-size="13" lengthAdjust="spacing" textLength="39.457" x="7" y="507.6269">writes</text><text fill="#000000" font-family="sans-serif" font-size="13" lengthAdjust="spacing" textLength="8.271" x="271.6404" y="50.2771">1</text><text fill="#000000" font-family="sans-serif" font-size="13" lengthAdjust="spacing" textLength="23.0356" x="16.7374" y="1197.1172">0..*</text></g><!--link comment to user--><g id="link_comment_user"><path codeLine="109" d="M80,1199.65 C80,954.34 80,105 80,105 C80,105 192.74,105 279.99,105 " fill="transparent" id="comment-user" style="stroke:#2F4F4F;stroke-width:1;"/><line style="stroke:#2F4F4F;stroke-width:1;" x1="80" x2="86" y1="1199.65" y2="1207.65"/><line style="stroke:#2F4F4F;stroke-width:1;" x1="80" x2="74" y1="1199.65" y2="1207.65"/><line style="stroke:#2F4F4F;stroke-width:1;" x1="80" x2="80" y1="1199.65" y2="1207.65"/><line style="stroke:#2F4F4F;stroke-width:1;" x1="84" x2="76" y1="1197.65" y2="1197.65"/><line style="stroke:#2F4F4F;stroke-width:1;" x1="283.99" x2="283.99" y1="101" y2="109"/><line style="stroke:#2F4F4F;stroke-width:1;" x1="280.99" x2="280.99" y1="101" y2="109"/><line style="stroke:#2F4F4F;stroke-width:1;" x1="279.99" x2="287.99" y1="105" y2="105"/><text fill="#000000" font-family="sans-serif" font-size="13" lengthAdjust="spacing" textLength="59.3252" x="20" y="548.3969">made_by</text><text fill="#000000" font-family="sans-serif" font-size="13" lengthAdjust="spacing" textLength="8.271" x="271.8147" y="103.6411">1</text></g><!--link user to activity_log--><g id="link_user_activity_log"><path codeLine="101" d="M424.72,161.16 C424.72,224.16 424.72,297 424.72,297 C424.72,297 423.7,297 445.26,297 " fill="transparent" id="user-activity_log" style="stroke:#2F4F4F;stroke-width:1;"/><line style="stroke:#2F4F4F;stroke-width:1;" x1="420.72" x2="428.72" y1="157.16" y2="157.16"/><line style="stroke:#2F4F4F;stroke-width:1;" x1="420.72" x2="428.72" y1="160.16" y2="160.16"/><line style="stroke:#2F4F4F;stroke-width:1;" x1="424.72" x2="424.72" y1="161.16" y2="153.16"/><line style="stroke:#2F4F4F;stroke-width:1;" x1="455.26" x2="463.26" y1="297" y2="291"/><line style="stroke:#2F4F4F;stroke-width:1;" x1="455.26" x2="463.26" y1="297" y2="303"/><line style="stroke:#2F4F4F;stroke-width:1;" x1="455.26" x2="463.26" y1="297" y2="297"/><ellipse cx="449.26" cy="297" fill="transparent" rx="4" ry="4" style="stroke:#2F4F4F;stroke-width:1;"/><text fill="#000000" font-family="sans-serif" font-size="13" lengthAdjust="spacing" textLength="26.5903" x="397.72" y="240.4169">logs</text><text fill="#000000" font-family="sans-serif" font-size="13" lengthAdjust="spacing" textLength="8.271" x="421.0031" y="172.9316">1</text><text fill="#000000" font-family="sans-serif" font-size="13" lengthAdjust="spacing" textLength="23.0356" x="432.6001" y="294.9836">0..*</text></g><!--link activity_log to user--><g id="link_activity_log_user"><path codeLine="113" d="M455.4,259 C443.95,259 444.11,259 444.11,259 C444.11,259 444.11,210.56 444.11,161.06 " fill="transparent" id="activity_log-user" style="stroke:#2F4F4F;stroke-width:1;"/><line style="stroke:#2F4F4F;stroke-width:1;" x1="455.4" x2="463.4" y1="259" y2="253"/><line style="stroke:#2F4F4F;stroke-width:1;" x1="455.4" x2="463.4" y1="259" y2="265"/><line style="stroke:#2F4F4F;stroke-width:1;" x1="455.4" x2="463.4" y1="259" y2="259"/><line style="stroke:#2F4F4F;stroke-width:1;" x1="453.4" x2="453.4" y1="255" y2="263"/><line style="stroke:#2F4F4F;stroke-width:1;" x1="440.11" x2="448.11" y1="157.06" y2="157.06"/><line style="stroke:#2F4F4F;stroke-width:1;" x1="440.11" x2="448.11" y1="160.06" y2="160.06"/><line style="stroke:#2F4F4F;stroke-width:1;" x1="444.11" x2="444.11" y1="161.06" y2="153.06"/><text fill="#000000" font-family="sans-serif" font-size="13" lengthAdjust="spacing" textLength="70.6304" x="373.11" y="211.7469">belongs_to</text><text fill="#000000" font-family="sans-serif" font-size="13" lengthAdjust="spacing" textLength="8.271" x="442.2412" y="172.822">1</text></g><!--link team to board--><g id="link_team_board"><path codeLine="102" d="M201,523.27 C201,542.14 201,537.29 201,556.72 " fill="transparent" id="team-board" style="stroke:#2F4F4F;stroke-width:1;"/><line style="stroke:#2F4F4F;stroke-width:1;" x1="197" x2="205" y1="519.27" y2="519.27"/><line style="stroke:#2F4F4F;stroke-width:1;" x1="197" x2="205" y1="522.27" y2="522.27"/><line style="stroke:#2F4F4F;stroke-width:1;" x1="201" x2="201" y1="523.27" y2="515.27"/><line style="stroke:#2F4F4F;stroke-width:1;" x1="201" x2="207" y1="566.72" y2="574.72"/><line style="stroke:#2F4F4F;stroke-width:1;" x1="201" x2="195" y1="566.72" y2="574.72"/><line style="stroke:#2F4F4F;stroke-width:1;" x1="201" x2="201" y1="566.72" y2="574.72"/><ellipse cx="201" cy="560.72" fill="transparent" rx="4" ry="4" style="stroke:#2F4F4F;stroke-width:1;"/><text fill="#000000" font-family="sans-serif" font-size="13" lengthAdjust="spacing" textLength="22.9785" x="202" y="541.0669">has</text><text fill="#000000" font-family="sans-serif" font-size="13" lengthAdjust="spacing" textLength="8.271" x="192.539" y="535.1665">1</text><text fill="#000000" font-family="sans-serif" font-size="13" lengthAdjust="spacing" textLength="23.0356" x="176.7531" y="563.862">0..*</text></g><!--link board to list--><g id="link_board_list"><path codeLine="103" d="M209,712.08 C209,731.57 209,726.82 209,745.76 " fill="transparent" id="board-list" style="stroke:#2F4F4F;stroke-width:1;"/><line style="stroke:#2F4F4F;stroke-width:1;" x1="205" x2="213" y1="708.08" y2="708.08"/><line style="stroke:#2F4F4F;stroke-width:1;" x1="205" x2="213" y1="711.08" y2="711.08"/><line style="stroke:#2F4F4F;stroke-width:1;" x1="209" x2="209" y1="712.08" y2="704.08"/><line style="stroke:#2F4F4F;stroke-width:1;" x1="209" x2="215" y1="755.76" y2="763.76"/><line style="stroke:#2F4F4F;stroke-width:1;" x1="209" x2="203" y1="755.76" y2="763.76"/><line style="stroke:#2F4F4F;stroke-width:1;" x1="209" x2="209" y1="755.76" y2="763.76"/><ellipse cx="209" cy="749.76" fill="transparent" rx="4" ry="4" style="stroke:#2F4F4F;stroke-width:1;"/><text fill="#000000" font-family="sans-serif" font-size="13" lengthAdjust="spacing" textLength="55.0278" x="210" y="729.9869">contains</text><text fill="#000000" font-family="sans-serif" font-size="13" lengthAdjust="spacing" textLength="8.271" x="201.4876" y="724.4608">1</text><text fill="#000000" font-family="sans-serif" font-size="13" lengthAdjust="spacing" textLength="23.0356" x="184.5925" y="752.9943">0..*</text></g><!--link list to task--><g id="link_list_task"><path codeLine="104" d="M288.7,821 C304.38,821 308.39,821 308.39,821 C308.39,821 308.39,861.89 308.39,918.94 " fill="transparent" id="list-task" style="stroke:#2F4F4F;stroke-width:1;"/><line style="stroke:#2F4F4F;stroke-width:1;" x1="284.7" x2="284.7" y1="825" y2="817"/><line style="stroke:#2F4F4F;stroke-width:1;" x1="287.7" x2="287.7" y1="825" y2="817"/><line style="stroke:#2F4F4F;stroke-width:1;" x1="288.7" x2="280.7" y1="821" y2="821"/><line style="stroke:#2F4F4F;stroke-width:1;" x1="308.39" x2="314.39" y1="928.94" y2="936.94"/><line style="stroke:#2F4F4F;stroke-width:1;" x1="308.39" x2="302.39" y1="928.94" y2="936.94"/><line style="stroke:#2F4F4F;stroke-width:1;" x1="308.39" x2="308.39" y1="928.94" y2="936.94"/><ellipse cx="308.39" cy="922.94" fill="transparent" rx="4" ry="4" style="stroke:#2F4F4F;stroke-width:1;"/><text fill="#000000" font-family="sans-serif" font-size="13" lengthAdjust="spacing" textLength="22.9785" x="285.39" y="861.1969">has</text><text fill="#000000" font-family="sans-serif" font-size="13" lengthAdjust="spacing" textLength="8.271" x="288.5136" y="817.3422">1</text><text fill="#000000" font-family="sans-serif" font-size="13" lengthAdjust="spacing" textLength="23.0356" x="279.8346" y="926.0631">0..*</text></g><!--link task to comment--><g id="link_task_comment"><path codeLine="105" d="M279.7,1008 C218.15,1008 155,1008 155,1008 C155,1008 155,1111.49 155,1189.8 " fill="transparent" id="task-comment" style="stroke:#2F4F4F;stroke-width:1;"/><line style="stroke:#2F4F4F;stroke-width:1;" x1="283.7" x2="283.7" y1="1004" y2="1012"/><line style="stroke:#2F4F4F;stroke-width:1;" x1="280.7" x2="280.7" y1="1004" y2="1012"/><line style="stroke:#2F4F4F;stroke-width:1;" x1="279.7" x2="287.7" y1="1008" y2="1008"/><line style="stroke:#2F4F4F;stroke-width:1;" x1="155" x2="161" y1="1199.8" y2="1207.8"/><line style="stroke:#2F4F4F;stroke-width:1;" x1="155" x2="149" y1="1199.8" y2="1207.8"/><line style="stroke:#2F4F4F;stroke-width:1;" x1="155" x2="155" y1="1199.8" y2="1207.8"/><ellipse cx="155" cy="1193.8" fill="transparent" rx="4" ry="4" style="stroke:#2F4F4F;stroke-width:1;"/><text fill="#000000" font-family="sans-serif" font-size="13" lengthAdjust="spacing" textLength="54.5645" x="100" y="1037.6169">receives</text><text fill="#000000" font-family="sans-serif" font-size="13" lengthAdjust="spacing" textLength="8.271" x="271.7866" y="1001.4646">1</text><text fill="#000000" font-family="sans-serif" font-size="13" lengthAdjust="spacing" textLength="23.0356" x="136.5499" y="1196.9508">0..*</text></g><!--link comment to task--><g id="link_comment_task"><path codeLine="110" d="M172.5,1199.73 C172.5,1143.15 172.5,1078 172.5,1078 C172.5,1078 224.93,1078 279.93,1078 " fill="transparent" id="comment-task" style="stroke:#2F4F4F;stroke-width:1;"/><line style="stroke:#2F4F4F;stroke-width:1;" x1="172.5" x2="178.5" y1="1199.73" y2="1207.73"/><line style="stroke:#2F4F4F;stroke-width:1;" x1="172.5" x2="166.5" y1="1199.73" y2="1207.73"/><line style="stroke:#2F4F4F;stroke-width:1;" x1="172.5" x2="172.5" y1="1199.73" y2="1207.73"/><line style="stroke:#2F4F4F;stroke-width:1;" x1="176.5" x2="168.5" y1="1197.73" y2="1197.73"/><line style="stroke:#2F4F4F;stroke-width:1;" x1="283.93" x2="283.93" y1="1074" y2="1082"/><line style="stroke:#2F4F4F;stroke-width:1;" x1="280.93" x2="280.93" y1="1074" y2="1082"/><line style="stroke:#2F4F4F;stroke-width:1;" x1="279.93" x2="287.93" y1="1078" y2="1078"/><text fill="#000000" font-family="sans-serif" font-size="13" lengthAdjust="spacing" textLength="70.6304" x="101.5" y="1081.2169">belongs_to</text><text fill="#000000" font-family="sans-serif" font-size="13" lengthAdjust="spacing" textLength="8.271" x="271.7493" y="1077.568">1</text></g><!--link task to attachment--><g id="link_task_attachment"><path codeLine="106" d="M346.67,1156.08 C346.67,1176.51 346.67,1171.34 346.67,1189.96 " fill="transparent" id="task-attachment" style="stroke:#2F4F4F;stroke-width:1;"/><line style="stroke:#2F4F4F;stroke-width:1;" x1="342.67" x2="350.67" y1="1152.08" y2="1152.08"/><line style="stroke:#2F4F4F;stroke-width:1;" x1="342.67" x2="350.67" y1="1155.08" y2="1155.08"/><line style="stroke:#2F4F4F;stroke-width:1;" x1="346.67" x2="346.67" y1="1156.08" y2="1148.08"/><line style="stroke:#2F4F4F;stroke-width:1;" x1="346.67" x2="352.67" y1="1199.96" y2="1207.96"/><line style="stroke:#2F4F4F;stroke-width:1;" x1="346.67" x2="340.67" y1="1199.96" y2="1207.96"/><line style="stroke:#2F4F4F;stroke-width:1;" x1="346.67" x2="346.67" y1="1199.96" y2="1207.96"/><ellipse cx="346.67" cy="1193.96" fill="transparent" rx="4" ry="4" style="stroke:#2F4F4F;stroke-width:1;"/><text fill="#000000" font-family="sans-serif" font-size="13" lengthAdjust="spacing" textLength="22.9785" x="347.67" y="1174.0869">has</text><text fill="#000000" font-family="sans-serif" font-size="13" lengthAdjust="spacing" textLength="8.271" x="336.3417" y="1168.1036">1</text><text fill="#000000" font-family="sans-serif" font-size="13" lengthAdjust="spacing" textLength="23.0356" x="319.1852" y="1197.1283">0..*</text></g><!--link attachment to task--><g id="link_attachment_task"><path codeLine="111" d="M405.33,1199.82 C405.33,1181.22 405.33,1176.43 405.33,1156.04 " fill="transparent" id="attachment-task" style="stroke:#2F4F4F;stroke-width:1;"/><line style="stroke:#2F4F4F;stroke-width:1;" x1="405.33" x2="411.33" y1="1199.82" y2="1207.82"/><line style="stroke:#2F4F4F;stroke-width:1;" x1="405.33" x2="399.33" y1="1199.82" y2="1207.82"/><line style="stroke:#2F4F4F;stroke-width:1;" x1="405.33" x2="405.33" y1="1199.82" y2="1207.82"/><line style="stroke:#2F4F4F;stroke-width:1;" x1="409.33" x2="401.33" y1="1197.82" y2="1197.82"/><line style="stroke:#2F4F4F;stroke-width:1;" x1="401.33" x2="409.33" y1="1152.04" y2="1152.04"/><line style="stroke:#2F4F4F;stroke-width:1;" x1="401.33" x2="409.33" y1="1155.04" y2="1155.04"/><line style="stroke:#2F4F4F;stroke-width:1;" x1="405.33" x2="405.33" y1="1156.04" y2="1148.04"/><text fill="#000000" font-family="sans-serif" font-size="13" lengthAdjust="spacing" textLength="58.792" x="406.33" y="1173.9969">linked_to</text><text fill="#000000" font-family="sans-serif" font-size="13" lengthAdjust="spacing" textLength="8.271" x="399.1263" y="1168.0608">1</text></g><!--link attachment to user--><g id="link_attachment_user"><path codeLine="112" d="M477.68,1273 C559.91,1273 658.5,1273 658.5,1273 C658.5,1273 658.5,80 658.5,80 C658.5,80 555.11,80 472.22,80 " fill="transparent" id="attachment-user" style="stroke:#2F4F4F;stroke-width:1;"/><line style="stroke:#2F4F4F;stroke-width:1;" x1="477.68" x2="469.68" y1="1273" y2="1279"/><line style="stroke:#2F4F4F;stroke-width:1;" x1="477.68" x2="469.68" y1="1273" y2="1267"/><line style="stroke:#2F4F4F;stroke-width:1;" x1="477.68" x2="469.68" y1="1273" y2="1273"/><line style="stroke:#2F4F4F;stroke-width:1;" x1="479.68" x2="479.68" y1="1277" y2="1269"/><line style="stroke:#2F4F4F;stroke-width:1;" x1="468.22" x2="468.22" y1="84" y2="76"/><line style="stroke:#2F4F4F;stroke-width:1;" x1="471.22" x2="471.22" y1="84" y2="76"/><line style="stroke:#2F4F4F;stroke-width:1;" x1="472.22" x2="464.22" y1="80" y2="80"/><text fill="#000000" font-family="sans-serif" font-size="13" lengthAdjust="spacing" textLength="82.9702" x="575.5" y="669.8369">uploaded_by</text><text fill="#000000" font-family="sans-serif" font-size="13" lengthAdjust="spacing" textLength="8.271" x="471.8749" y="76.4604">1</text></g><!--SRC=[fLPHRzem47xFhx1ugLI9QNkDgagKigvgMIjWa_OKcUGA7eulifrsgFI_x-n0I4BIqXO9ujnzzdtttVd42Pk2PNd6Z5rBO0-etJVbaiKeKPl0h8JAkEOfYoKtXZq7Z3uNF5ujDEOg6JeOk-SIhZI0yjw1rlXKE2wvNaqbj-Jbws8hwWHqc_Ub4amA1NQT0KDjbnW49soahB02J01kiMQzNzFHfCUuORa1lULrAX8MCg4iEpkxlpa_zyP-tpySJF4K2F38TRpasfiXvK8sRDaI5KGAcsOIu8deDyon1aeXYRWbXnKf6ClJZD8fgSv6Wx6dQe5oUvjg2yrTaFcwtFLzj-iu0j5uDBuOJQObaIY5T0xQ7478mol-ChGJjTMXKReKGEMfV_-BLD7NA5xS3IQNdjiSEMby12bXPLEcJgAVq-_sUZhptAGmzeFKV5gjt38qrDge2a-jReFfJL4lRbOVZ9k0YRN8jW4i_BFUx39vjr9q0SJ2rT5YInfQe7QqAsKd9MrkgfOaXoYX03MfZwl2y6uy7lqi2X5ZcfBz64r8klVrRepAkhChQhrDRZ2R3OO_IdxSMXulFqlnGKY8SjsSJtacaISTDIgTht0Tpgv_Ny_-HBTtLmNRs8f7SaKI5qUEqbQ-xfnwcvNncrnEs0Hez1FSB4Lc0Z_5UzzwRBFfz_6PzRv- -NBQgm-ga2sv2VmGVHCfL2npwlsWPd_1Vd-pyRjzm93DGQ9Q6EheJgGFM4DsaNMtDApUaYxahdr3zaHN1ZhJhnKcPFJRcNynDWk9YlKXne-lq3Su5ye4_hqp3o-sMxx6NqCCuX4waPMBK3dnPTEimtxix16uyQViGLLbTnGEZqgf_TqvBOXjPfLILlWTukXloAg8rWxR1gpSnw1MiKFeFl9_]--></g></svg>