<svg xmlns="http://www.w3.org/2000/svg" xmlns:xlink="http://www.w3.org/1999/xlink" contentStyleType="text/css" data-diagram-type="CLASS" height="623px" preserveAspectRatio="none" style="width:1070px;height:623px;background:#FFFFFF;" version="1.1" viewBox="0 0 1070 623" width="1070px" zoomAndPan="magnify"><title>Collaborative Task Management System - Object Diagram</title><defs/><g><text fill="#000000" font-family="sans-serif" font-size="14" font-weight="bold" lengthAdjust="spacing" textLength="456.1416" x="299.9858" y="22.9951">Collaborative Task Management System - Object Diagram</text><g id="elem_user"><rect fill="#BBDEFB" height="77.1875" rx="2.5" ry="2.5" style="stroke:#1976D2;stroke-width:0.5;" width="164.4141" x="610.5" y="44.2969"/><text fill="#000000" font-family="sans-serif" font-size="14" lengthAdjust="spacing" textLength="71.5176" x="656.9482" y="59.292">User: John</text><line style="stroke:#1976D2;stroke-width:0.5;" x1="611.5" x2="773.9141" y1="64.5938" y2="64.5938"/><text fill="#000000" font-family="sans-serif" font-size="14" lengthAdjust="spacing" textLength="65.4404" x="616.5" y="81.5889">id = "U1"</text><text fill="#000000" font-family="sans-serif" font-size="14" lengthAdjust="spacing" textLength="103.6533" x="616.5" y="97.8857">name = "John"</text><text fill="#000000" font-family="sans-serif" font-size="14" lengthAdjust="spacing" textLength="152.4141" x="616.5" y="114.1826">role = "Team Leader"</text></g><g id="elem_project"><rect fill="#C8E6C9" height="60.8906" rx="2.5" ry="2.5" style="stroke:#1976D2;stroke-width:0.5;" width="211.0762" x="411" y="198.2969"/><text fill="#000000" font-family="sans-serif" font-size="14" lengthAdjust="spacing" textLength="183.4834" x="424.7964" y="213.292">Project: Website Redesign</text><line style="stroke:#1976D2;stroke-width:0.5;" x1="412" x2="621.0762" y1="218.5938" y2="218.5938"/><text fill="#000000" font-family="sans-serif" font-size="14" lengthAdjust="spacing" textLength="63.6357" x="417" y="235.5889">id = "P1"</text><text fill="#000000" font-family="sans-serif" font-size="14" lengthAdjust="spacing" textLength="199.0762" x="417" y="251.8857">name = "Website Redesign"</text></g><g id="elem_task1"><rect fill="#FFECB3" height="126.0781" rx="2.5" ry="2.5" style="stroke:#1976D2;stroke-width:0.5;" width="330.8008" x="7" y="336.2969"/><text fill="#000000" font-family="sans-serif" font-size="14" lengthAdjust="spacing" textLength="170.7959" x="87.0024" y="351.292">Task: Homepage Design</text><line style="stroke:#1976D2;stroke-width:0.5;" x1="8" x2="336.8008" y1="356.5938" y2="356.5938"/><text fill="#000000" font-family="sans-serif" font-size="14" lengthAdjust="spacing" textLength="63.7451" x="13" y="373.5889">id = "T1"</text><text fill="#000000" font-family="sans-serif" font-size="14" lengthAdjust="spacing" textLength="189.9775" x="13" y="389.8857">title = "Homepage Design"</text><text fill="#000000" font-family="sans-serif" font-size="14" lengthAdjust="spacing" textLength="318.8008" x="13" y="406.1826">description = "Create new homepage layout"</text><text fill="#000000" font-family="sans-serif" font-size="14" lengthAdjust="spacing" textLength="116.2041" x="13" y="422.4795">priority = "High"</text><text fill="#000000" font-family="sans-serif" font-size="14" lengthAdjust="spacing" textLength="175.1025" x="13" y="438.7764">deadline = "2025-05-01"</text><text fill="#000000" font-family="sans-serif" font-size="14" lengthAdjust="spacing" textLength="117.4414" x="13" y="455.0732">status = "To Do"</text></g><g id="elem_task2"><rect fill="#FFE0B2" height="126.0781" rx="2.5" ry="2.5" style="stroke:#1976D2;stroke-width:0.5;" width="318.2021" x="692.5" y="336.2969"/><text fill="#000000" font-family="sans-serif" font-size="14" lengthAdjust="spacing" textLength="183.6543" x="759.7739" y="351.292">Task: Backend Integration</text><line style="stroke:#1976D2;stroke-width:0.5;" x1="693.5" x2="1009.7021" y1="356.5938" y2="356.5938"/><text fill="#000000" font-family="sans-serif" font-size="14" lengthAdjust="spacing" textLength="63.7451" x="698.5" y="373.5889">id = "T2"</text><text fill="#000000" font-family="sans-serif" font-size="14" lengthAdjust="spacing" textLength="202.8359" x="698.5" y="389.8857">title = "Backend Integration"</text><text fill="#000000" font-family="sans-serif" font-size="14" lengthAdjust="spacing" textLength="306.2021" x="698.5" y="406.1826">description = "Connect frontend to the API"</text><text fill="#000000" font-family="sans-serif" font-size="14" lengthAdjust="spacing" textLength="140.0068" x="698.5" y="422.4795">priority = "Medium"</text><text fill="#000000" font-family="sans-serif" font-size="14" lengthAdjust="spacing" textLength="175.1025" x="698.5" y="438.7764">deadline = "2025-05-15"</text><text fill="#000000" font-family="sans-serif" font-size="14" lengthAdjust="spacing" textLength="154.5879" x="698.5" y="455.0732">status = "In Progress"</text></g><g id="elem_task3"><rect fill="#DCEDC8" height="126.0781" rx="2.5" ry="2.5" style="stroke:#1976D2;stroke-width:0.5;" width="283.667" x="373.5" y="336.2969"/><text fill="#000000" font-family="sans-serif" font-size="14" lengthAdjust="spacing" textLength="129.6572" x="450.5049" y="351.292">Task: User Testing</text><line style="stroke:#1976D2;stroke-width:0.5;" x1="374.5" x2="656.167" y1="356.5938" y2="356.5938"/><text fill="#000000" font-family="sans-serif" font-size="14" lengthAdjust="spacing" textLength="63.7451" x="379.5" y="373.5889">id = "T3"</text><text fill="#000000" font-family="sans-serif" font-size="14" lengthAdjust="spacing" textLength="148.8389" x="379.5" y="389.8857">title = "User Testing"</text><text fill="#000000" font-family="sans-serif" font-size="14" lengthAdjust="spacing" textLength="271.667" x="379.5" y="406.1826">description = "Conduct usability tests"</text><text fill="#000000" font-family="sans-serif" font-size="14" lengthAdjust="spacing" textLength="111.8428" x="379.5" y="422.4795">priority = "Low"</text><text fill="#000000" font-family="sans-serif" font-size="14" lengthAdjust="spacing" textLength="175.1025" x="379.5" y="438.7764">deadline = "2025-05-20"</text><text fill="#000000" font-family="sans-serif" font-size="14" lengthAdjust="spacing" textLength="113.3604" x="379.5" y="455.0732">status = "Done"</text></g><g id="elem_comment"><rect fill="#E1BEE7" height="77.1875" rx="2.5" ry="2.5" style="stroke:#1976D2;stroke-width:0.5;" width="416.5098" x="581" y="539.2969"/><text fill="#000000" font-family="sans-serif" font-size="14" lengthAdjust="spacing" textLength="179.5938" x="699.458" y="554.292">Comment: Test Feedback</text><line style="stroke:#1976D2;stroke-width:0.5;" x1="582" x2="996.5098" y1="559.5938" y2="559.5938"/><text fill="#000000" font-family="sans-serif" font-size="14" lengthAdjust="spacing" textLength="64.9688" x="587" y="576.5889">id = "C1"</text><text fill="#000000" font-family="sans-serif" font-size="14" lengthAdjust="spacing" textLength="404.5098" x="587" y="592.8857">text = "UI looks great, minor navigation issues identified"</text><text fill="#000000" font-family="sans-serif" font-size="14" lengthAdjust="spacing" textLength="235.1836" x="587" y="609.1826">timestamp = "2025-04-10 14:30"</text></g><!--link user to project--><g id="link_user_project"><path codeLine="58" d="M646.26,121.6269 C617.03,145.5469 584.4434,172.2071 557.3634,194.3671 " fill="transparent" id="user-to-project" style="stroke:#283593;stroke-width:1;"/><polygon fill="#283593" points="552.72,198.1669,562.2184,195.5628,556.5895,195.0004,557.152,189.3715,552.72,198.1669" style="stroke:#283593;stroke-width:1;"/><text fill="#283593" font-family="sans-serif" font-size="13" lengthAdjust="spacing" textLength="48.3247" x="611.5" y="164.3638">creates</text></g><!--reverse link project to task1--><g id="link_project_task1"><path codeLine="59" d="M445.4135,264.6158 C402.0535,285.8558 352.8,309.9869 299.11,336.2769 " fill="transparent" id="project-backto-task1" style="stroke:#283593;stroke-width:1;"/><polygon fill="transparent" points="456.19,259.3369,449.0421,258.3842,445.4135,264.6158,452.5614,265.5685,456.19,259.3369" style="stroke:#283593;stroke-width:1;"/><text fill="#283593" font-family="sans-serif" font-size="13" lengthAdjust="spacing" textLength="55.0278" x="386.5" y="302.3638">contains</text></g><!--reverse link project to task2--><g id="link_project_task2"><path codeLine="60" d="M585.9599,264.7298 C628.1799,285.9698 675.92,309.9869 728.2,336.2769 " fill="transparent" id="project-backto-task2" style="stroke:#283593;stroke-width:1;"/><polygon fill="transparent" points="575.24,259.3369,578.8023,265.6066,585.9599,264.7298,582.3976,258.4601,575.24,259.3369" style="stroke:#283593;stroke-width:1;"/><text fill="#283593" font-family="sans-serif" font-size="13" lengthAdjust="spacing" textLength="55.0278" x="665.5" y="302.3638">contains</text></g><!--reverse link project to task3--><g id="link_project_task3"><path codeLine="61" d="M513.2809,271.4082 C512.6209,280.9382 512.83,279.5669 512.5,289.2969 C511.99,304.4369 512.09,320.7569 512.48,336.0369 " fill="transparent" id="project-backto-task3" style="stroke:#283593;stroke-width:1;"/><polygon fill="transparent" points="514.11,259.4369,509.705,265.1462,513.2809,271.4082,517.6859,265.6989,514.11,259.4369" style="stroke:#283593;stroke-width:1;"/><text fill="#283593" font-family="sans-serif" font-size="13" lengthAdjust="spacing" textLength="55.0278" x="513.5" y="302.3638">contains</text></g><!--link user to task1--><g id="link_user_task1"><path codeLine="62" d="M610.23,93.3369 C529.18,106.0969 405.01,134.9569 316.5,198.2969 C266.92,233.7769 230.849,286.4904 206.009,330.9004 " fill="transparent" id="user-to-task1" style="stroke:#283593;stroke-width:1;"/><polygon fill="#283593" points="203.08,336.1369,210.9645,330.2347,205.5208,331.7731,203.9824,326.3294,203.08,336.1369" style="stroke:#283593;stroke-width:1;"/><text fill="#283593" font-family="sans-serif" font-size="13" lengthAdjust="spacing" textLength="75.0483" x="317.5" y="233.3638">assigned to</text></g><!--link user to task2--><g id="link_user_task2"><path codeLine="63" d="M724.71,121.4269 C741.98,142.9269 762.7,170.9769 777.5,198.2969 C801.31,242.2469 818.7573,289.7404 831.6673,330.2304 " fill="transparent" id="user-to-task2" style="stroke:#283593;stroke-width:1;"/><polygon fill="#283593" points="833.49,335.9469,834.567,326.1571,831.9711,331.1832,826.945,328.5873,833.49,335.9469" style="stroke:#283593;stroke-width:1;"/><text fill="#283593" font-family="sans-serif" font-size="13" lengthAdjust="spacing" textLength="75.0483" x="806.5" y="233.3638">assigned to</text></g><!--link user to task3--><g id="link_user_task3"><path codeLine="64" d="M692.8,121.3569 C692.59,176.6069 689.47,276.4969 670.5,306.2969 C663.44,317.3869 659.0172,323.3238 649.0472,332.1738 " fill="transparent" id="user-to-task3" style="stroke:#283593;stroke-width:1;"/><polygon fill="#283593" points="644.56,336.1569,653.9462,333.1737,648.2993,332.8376,648.6354,327.1908,644.56,336.1569" style="stroke:#283593;stroke-width:1;"/><text fill="#283593" font-family="sans-serif" font-size="13" lengthAdjust="spacing" textLength="75.0483" x="691.5" y="233.3638">assigned to</text></g><!--link user to comment--><g id="link_user_comment"><path codeLine="65" d="M774.72,115.9269 C858.45,153.9669 982.2,226.3669 1027.5,336.2969 C1048.84,388.0769 1057.3,414.8869 1027.5,462.2969 C1005.42,497.4269 974.6598,519.5388 937.0698,536.6688 " fill="transparent" id="user-to-comment" style="stroke:#283593;stroke-width:1;"/><polygon fill="#283593" points="931.61,539.1569,941.4584,539.0646,936.1598,537.0835,938.141,531.7849,931.61,539.1569" style="stroke:#283593;stroke-width:1;"/><text fill="#283593" font-family="sans-serif" font-size="13" lengthAdjust="spacing" textLength="49.6133" x="1012.5" y="302.3638">authors</text></g><!--reverse link task3 to comment--><g id="link_task3_comment"><path codeLine="66" d="M617.1444,465.7756 C656.8944,491.3756 696.59,516.9469 731.19,539.2369 " fill="transparent" id="task3-backto-comment" style="stroke:#283593;stroke-width:1;"/><polygon fill="#283593" points="612.1,462.5269,617.5008,470.7629,616.3037,465.2341,621.8324,464.037,612.1,462.5269" style="stroke:#283593;stroke-width:1;"/><text fill="#283593" font-family="sans-serif" font-size="13" lengthAdjust="spacing" textLength="74.9468" x="678.5" y="505.3638">attached to</text></g><!--SRC=[VLFRRjim37tFLn39wmpuqckm3QXlM8OMAxOCUrPYrj5YYu4ajok6_VieEMdjDcsG1qk7F8T79Asq3K96JIDMf8MLzmXBORPm8vIeiKLbuSUZiTX20DzMlt5j8PUYrgATJCnMgftWJw0U-Ji1ICLwMslgLCMif65M96LSvWuXNQ7UtqQNvsTvpBSbARk_2_rlyc_8VAKrFNZYVL1yaPnU9kF4_HqdxWkP_ZIev_2LDceAma37HvYbQLwKgIUJ5NpYg6ZAtqgqw4u-ci-Q6dzU8kjVe-2YfqFkMqtkOmw_S6MaHVYE5HfPzrAx7eLPTb6SPPS3jTkHsglaeOHhmHo-K8ixxWBap_IMaGXcPLbaQJ8WNtfowzl9nvUfZB7CMikTbQHSHAPHiBp21zWSWXlnI9rrmJijIKlxwBbalUa9HDL8vVdZC3uDGlvxMME5xOmlWo2d8rRSLA2gOA4ircxEwDbExEs4QJoq4u_i74i_OecKSfftcaV3XLi2kq6ukbsyz7I3bUpQjrn5fsDN2mNSz5gZCKUykLc39HehLVraAe5PdXLvTZ4qbOnCZVAEkgawLkcCMCd6rMqvrhnqSaqFRzc8mx6Dd1IEwi-eTHi-zrL0YLYj-A6zXtKFyVf6QL6S3rna_QJX7-jDBA0XsXgetJnzW5OgtaWbxcNjsmJIc0uDvpARl9DOzM_Gig9eTy_bdWHH2D79F0bzYNvZW-3pqpxDOUqdramEDnG4-tLWZ3ikf7eDnk-1oH1yKZnm2kDM1zqOZS7uFJ1v2poyACETtP0sapxy8nSpmAmLwurF_Gy0]--></g></svg>