<svg xmlns="http://www.w3.org/2000/svg" xmlns:xlink="http://www.w3.org/1999/xlink" contentStyleType="text/css" data-diagram-type="SEQUENCE" height="2249px" preserveAspectRatio="none" style="width:1014px;height:2249px;background:#FFFFFF;" version="1.1" viewBox="0 0 1014 2249" width="1014px" zoomAndPan="magnify"><defs/><g><g><title>Admin</title><rect fill="transparent" height="2086.1641" width="8" x="31.4321" y="82.2969"/><line style="stroke:#3498DB;stroke-width:1;" x1="35" x2="35" y1="82.2969" y2="2168.4609"/></g><g><title>Project Manager</title><rect fill="transparent" height="2086.1641" width="8" x="126.999" y="82.2969"/><line style="stroke:#3498DB;stroke-width:1;" x1="130.8643" x2="130.8643" y1="82.2969" y2="2168.4609"/></g><g><title>Team Member</title><rect fill="transparent" height="2086.1641" width="8" x="250.8428" y="82.2969"/><line style="stroke:#3498DB;stroke-width:1;" x1="254.1338" x2="254.1338" y1="82.2969" y2="2168.4609"/></g><g><title>React Frontend</title><rect fill="transparent" height="2086.1641" width="8" x="500.667" y="82.2969"/><line style="stroke:#3498DB;stroke-width:1;" x1="503.834" x2="503.834" y1="82.2969" y2="2168.4609"/></g><g><title>Express.js Backend</title><rect fill="transparent" height="2086.1641" width="8" x="768.7344" y="82.2969"/><line style="stroke:#3498DB;stroke-width:1;" x1="772.0244" x2="772.0244" y1="82.2969" y2="2168.4609"/></g><g><title>PostgreSQL</title><rect fill="transparent" height="2086.1641" width="8" x="954.8281" y="82.2969"/><line style="stroke:#3498DB;stroke-width:1;" x1="958.4517" x2="958.4517" y1="82.2969" y2="2168.4609"/></g><text fill="#000000" font-family="Verdana" font-size="14" lengthAdjust="spacing" textLength="44.8643" x="10" y="78.9951">Admin</text><ellipse cx="35.4321" cy="14" fill="#FFFFFF" rx="8" ry="8" style="stroke:#000000;stroke-width:1;"/><path d="M35.4321,22 L35.4321,49 M22.4321,30 L48.4321,30 M35.4321,49 L22.4321,64 M35.4321,49 L48.4321,64 " fill="transparent" style="stroke:#000000;stroke-width:1;"/><text fill="#000000" font-family="Verdana" font-size="14" lengthAdjust="spacing" textLength="44.8643" x="10" y="2180.4561">Admin</text><ellipse cx="35.4321" cy="2192.7578" fill="#FFFFFF" rx="8" ry="8" style="stroke:#000000;stroke-width:1;"/><path d="M35.4321,2200.7578 L35.4321,2227.7578 M22.4321,2208.7578 L48.4321,2208.7578 M35.4321,2227.7578 L22.4321,2242.7578 M35.4321,2227.7578 L48.4321,2242.7578 " fill="transparent" style="stroke:#000000;stroke-width:1;"/><text fill="#000000" font-family="Verdana" font-size="14" lengthAdjust="spacing" textLength="114.2695" x="70.8643" y="78.9951">Project Manager</text><ellipse cx="130.999" cy="14" fill="#FFFFFF" rx="8" ry="8" style="stroke:#000000;stroke-width:1;"/><path d="M130.999,22 L130.999,49 M117.999,30 L143.999,30 M130.999,49 L117.999,64 M130.999,49 L143.999,64 " fill="transparent" style="stroke:#000000;stroke-width:1;"/><text fill="#000000" font-family="Verdana" font-size="14" lengthAdjust="spacing" textLength="114.2695" x="70.8643" y="2180.4561">Project Manager</text><ellipse cx="130.999" cy="2192.7578" fill="#FFFFFF" rx="8" ry="8" style="stroke:#000000;stroke-width:1;"/><path d="M130.999,2200.7578 L130.999,2227.7578 M117.999,2208.7578 L143.999,2208.7578 M130.999,2227.7578 L117.999,2242.7578 M130.999,2227.7578 L143.999,2242.7578 " fill="transparent" style="stroke:#000000;stroke-width:1;"/><text fill="#000000" font-family="Verdana" font-size="14" lengthAdjust="spacing" textLength="101.418" x="201.1338" y="78.9951">Team Member</text><ellipse cx="254.8428" cy="14" fill="#FFFFFF" rx="8" ry="8" style="stroke:#000000;stroke-width:1;"/><path d="M254.8428,22 L254.8428,49 M241.8428,30 L267.8428,30 M254.8428,49 L241.8428,64 M254.8428,49 L267.8428,64 " fill="transparent" style="stroke:#000000;stroke-width:1;"/><text fill="#000000" font-family="Verdana" font-size="14" lengthAdjust="spacing" textLength="101.418" x="201.1338" y="2180.4561">Team Member</text><ellipse cx="254.8428" cy="2192.7578" fill="#FFFFFF" rx="8" ry="8" style="stroke:#000000;stroke-width:1;"/><path d="M254.8428,2200.7578 L254.8428,2227.7578 M241.8428,2208.7578 L267.8428,2208.7578 M254.8428,2227.7578 L241.8428,2242.7578 M254.8428,2227.7578 L267.8428,2242.7578 " fill="transparent" style="stroke:#000000;stroke-width:1;"/><rect fill="#FFFFFF" height="30.2969" rx="2.5" ry="2.5" style="stroke:#3498DB;stroke-width:1;" width="121.666" x="443.834" y="51"/><text fill="#000000" font-family="Verdana" font-size="14" lengthAdjust="spacing" textLength="107.666" x="450.834" y="70.9951">React Frontend</text><rect fill="#FFFFFF" height="30.2969" rx="2.5" ry="2.5" style="stroke:#3498DB;stroke-width:1;" width="121.666" x="443.834" y="2167.4609"/><text fill="#000000" font-family="Verdana" font-size="14" lengthAdjust="spacing" textLength="107.666" x="450.834" y="2187.4561">React Frontend</text><rect fill="#FFFFFF" height="30.2969" rx="2.5" ry="2.5" style="stroke:#3498DB;stroke-width:1;" width="149.4199" x="698.0244" y="51"/><text fill="#000000" font-family="Verdana" font-size="14" lengthAdjust="spacing" textLength="135.4199" x="705.0244" y="70.9951">Express.js Backend</text><rect fill="#FFFFFF" height="30.2969" rx="2.5" ry="2.5" style="stroke:#3498DB;stroke-width:1;" width="149.4199" x="698.0244" y="2167.4609"/><text fill="#000000" font-family="Verdana" font-size="14" lengthAdjust="spacing" textLength="135.4199" x="705.0244" y="2187.4561">Express.js Backend</text><text fill="#000000" font-family="Verdana" font-size="14" lengthAdjust="spacing" textLength="80.7529" x="915.4517" y="78.9951">PostgreSQL</text><path d="M940.8281,30 C940.8281,20 958.8281,20 958.8281,20 C958.8281,20 976.8281,20 976.8281,30 L976.8281,56 C976.8281,66 958.8281,66 958.8281,66 C958.8281,66 940.8281,66 940.8281,56 L940.8281,30 " fill="#FFFFFF" style="stroke:#000000;stroke-width:1.5;"/><path d="M940.8281,30 C940.8281,40 958.8281,40 958.8281,40 C958.8281,40 976.8281,40 976.8281,30 " fill="transparent" style="stroke:#000000;stroke-width:1.5;"/><text fill="#000000" font-family="Verdana" font-size="14" lengthAdjust="spacing" textLength="80.7529" x="915.4517" y="2180.4561">PostgreSQL</text><path d="M940.8281,2193.7578 C940.8281,2183.7578 958.8281,2183.7578 958.8281,2183.7578 C958.8281,2183.7578 976.8281,2183.7578 976.8281,2193.7578 L976.8281,2219.7578 C976.8281,2229.7578 958.8281,2229.7578 958.8281,2229.7578 C958.8281,2229.7578 940.8281,2229.7578 940.8281,2219.7578 L940.8281,2193.7578 " fill="#FFFFFF" style="stroke:#000000;stroke-width:1.5;"/><path d="M940.8281,2193.7578 C940.8281,2203.7578 958.8281,2203.7578 958.8281,2203.7578 C958.8281,2203.7578 976.8281,2203.7578 976.8281,2193.7578 " fill="transparent" style="stroke:#000000;stroke-width:1.5;"/><rect fill="#FFFFFF" height="3" style="stroke:#FFFFFF;stroke-width:1;" width="1002.2046" x="5" y="112.8633"/><line style="stroke:#000000;stroke-width:0.5;" x1="5" x2="1007.2046" y1="112.8633" y2="112.8633"/><line style="stroke:#000000;stroke-width:0.5;" x1="5" x2="1007.2046" y1="115.8633" y2="115.8633"/><rect fill="#FFFFFF" height="23.1328" style="stroke:#000000;stroke-width:1;" width="127.3882" x="442.4082" y="102.2969"/><text fill="#000000" font-family="Verdana" font-size="13" font-weight="bold" lengthAdjust="spacing" textLength="108.8623" x="448.4082" y="118.3638">Authentication</text><polygon fill="#3498DB" points="492.667,152.5625,502.667,156.5625,492.667,160.5625,496.667,156.5625" style="stroke:#3498DB;stroke-width:1;"/><line style="stroke:#3498DB;stroke-width:1;" x1="35.4321" x2="498.667" y1="156.5625" y2="156.5625"/><text fill="#000000" font-family="Verdana" font-size="13" lengthAdjust="spacing" textLength="35.2993" x="42.4321" y="151.4966">Login</text><polygon fill="#3498DB" points="760.7344,181.6953,770.7344,185.6953,760.7344,189.6953,764.7344,185.6953" style="stroke:#3498DB;stroke-width:1;"/><line style="stroke:#3498DB;stroke-width:1;" x1="504.667" x2="766.7344" y1="185.6953" y2="185.6953"/><text fill="#000000" font-family="Verdana" font-size="13" lengthAdjust="spacing" textLength="132.5771" x="511.667" y="180.6294">POST /api/auth/login</text><polygon fill="#3498DB" points="946.8281,210.8281,956.8281,214.8281,946.8281,218.8281,950.8281,214.8281" style="stroke:#3498DB;stroke-width:1;"/><line style="stroke:#3498DB;stroke-width:1;" x1="772.7344" x2="952.8281" y1="214.8281" y2="214.8281"/><text fill="#000000" font-family="Verdana" font-size="13" lengthAdjust="spacing" textLength="116.2192" x="779.7344" y="209.7622">Verify Credentials</text><polygon fill="#3498DB" points="783.7344,239.9609,773.7344,243.9609,783.7344,247.9609,779.7344,243.9609" style="stroke:#3498DB;stroke-width:1;"/><line style="stroke:#3498DB;stroke-width:1;stroke-dasharray:2.0,2.0;" x1="777.7344" x2="957.8281" y1="243.9609" y2="243.9609"/><text fill="#000000" font-family="Verdana" font-size="13" lengthAdjust="spacing" textLength="160.6401" x="789.7344" y="238.895">Return User Data + Role</text><polygon fill="#3498DB" points="515.667,269.0938,505.667,273.0938,515.667,277.0938,511.667,273.0938" style="stroke:#3498DB;stroke-width:1;"/><line style="stroke:#3498DB;stroke-width:1;stroke-dasharray:2.0,2.0;" x1="509.667" x2="771.7344" y1="273.0938" y2="273.0938"/><text fill="#000000" font-family="Verdana" font-size="13" lengthAdjust="spacing" textLength="116.5049" x="521.667" y="268.0278">Return JWT Token</text><polygon fill="#3498DB" points="46.4321,298.2266,36.4321,302.2266,46.4321,306.2266,42.4321,302.2266" style="stroke:#3498DB;stroke-width:1;"/><line style="stroke:#3498DB;stroke-width:1;stroke-dasharray:2.0,2.0;" x1="40.4321" x2="503.667" y1="302.2266" y2="302.2266"/><text fill="#000000" font-family="Verdana" font-size="13" lengthAdjust="spacing" textLength="214.0112" x="52.4321" y="297.1606">Display Dashboard (Admin View)</text><polygon fill="#3498DB" points="492.667,327.3594,502.667,331.3594,492.667,335.3594,496.667,331.3594" style="stroke:#3498DB;stroke-width:1;"/><line style="stroke:#3498DB;stroke-width:1;" x1="130.999" x2="498.667" y1="331.3594" y2="331.3594"/><text fill="#000000" font-family="Verdana" font-size="13" lengthAdjust="spacing" textLength="35.2993" x="137.999" y="326.2935">Login</text><polygon fill="#3498DB" points="760.7344,356.4922,770.7344,360.4922,760.7344,364.4922,764.7344,360.4922" style="stroke:#3498DB;stroke-width:1;"/><line style="stroke:#3498DB;stroke-width:1;" x1="504.667" x2="766.7344" y1="360.4922" y2="360.4922"/><text fill="#000000" font-family="Verdana" font-size="13" lengthAdjust="spacing" textLength="132.5771" x="511.667" y="355.4263">POST /api/auth/login</text><polygon fill="#3498DB" points="946.8281,385.625,956.8281,389.625,946.8281,393.625,950.8281,389.625" style="stroke:#3498DB;stroke-width:1;"/><line style="stroke:#3498DB;stroke-width:1;" x1="772.7344" x2="952.8281" y1="389.625" y2="389.625"/><text fill="#000000" font-family="Verdana" font-size="13" lengthAdjust="spacing" textLength="116.2192" x="779.7344" y="384.5591">Verify Credentials</text><polygon fill="#3498DB" points="783.7344,414.7578,773.7344,418.7578,783.7344,422.7578,779.7344,418.7578" style="stroke:#3498DB;stroke-width:1;"/><line style="stroke:#3498DB;stroke-width:1;stroke-dasharray:2.0,2.0;" x1="777.7344" x2="957.8281" y1="418.7578" y2="418.7578"/><text fill="#000000" font-family="Verdana" font-size="13" lengthAdjust="spacing" textLength="160.6401" x="789.7344" y="413.6919">Return User Data + Role</text><polygon fill="#3498DB" points="515.667,443.8906,505.667,447.8906,515.667,451.8906,511.667,447.8906" style="stroke:#3498DB;stroke-width:1;"/><line style="stroke:#3498DB;stroke-width:1;stroke-dasharray:2.0,2.0;" x1="509.667" x2="771.7344" y1="447.8906" y2="447.8906"/><text fill="#000000" font-family="Verdana" font-size="13" lengthAdjust="spacing" textLength="116.5049" x="521.667" y="442.8247">Return JWT Token</text><polygon fill="#3498DB" points="141.999,473.0234,131.999,477.0234,141.999,481.0234,137.999,477.0234" style="stroke:#3498DB;stroke-width:1;"/><line style="stroke:#3498DB;stroke-width:1;stroke-dasharray:2.0,2.0;" x1="135.999" x2="503.667" y1="477.0234" y2="477.0234"/><text fill="#000000" font-family="Verdana" font-size="13" lengthAdjust="spacing" textLength="217.1533" x="147.999" y="471.9575">Display Dashboard (Leader View)</text><polygon fill="#3498DB" points="492.667,502.1563,502.667,506.1563,492.667,510.1563,496.667,506.1563" style="stroke:#3498DB;stroke-width:1;"/><line style="stroke:#3498DB;stroke-width:1;" x1="254.8428" x2="498.667" y1="506.1563" y2="506.1563"/><text fill="#000000" font-family="Verdana" font-size="13" lengthAdjust="spacing" textLength="35.2993" x="261.8428" y="501.0903">Login</text><polygon fill="#3498DB" points="760.7344,531.2891,770.7344,535.2891,760.7344,539.2891,764.7344,535.2891" style="stroke:#3498DB;stroke-width:1;"/><line style="stroke:#3498DB;stroke-width:1;" x1="504.667" x2="766.7344" y1="535.2891" y2="535.2891"/><text fill="#000000" font-family="Verdana" font-size="13" lengthAdjust="spacing" textLength="132.5771" x="511.667" y="530.2231">POST /api/auth/login</text><polygon fill="#3498DB" points="946.8281,560.4219,956.8281,564.4219,946.8281,568.4219,950.8281,564.4219" style="stroke:#3498DB;stroke-width:1;"/><line style="stroke:#3498DB;stroke-width:1;" x1="772.7344" x2="952.8281" y1="564.4219" y2="564.4219"/><text fill="#000000" font-family="Verdana" font-size="13" lengthAdjust="spacing" textLength="116.2192" x="779.7344" y="559.356">Verify Credentials</text><polygon fill="#3498DB" points="783.7344,589.5547,773.7344,593.5547,783.7344,597.5547,779.7344,593.5547" style="stroke:#3498DB;stroke-width:1;"/><line style="stroke:#3498DB;stroke-width:1;stroke-dasharray:2.0,2.0;" x1="777.7344" x2="957.8281" y1="593.5547" y2="593.5547"/><text fill="#000000" font-family="Verdana" font-size="13" lengthAdjust="spacing" textLength="160.6401" x="789.7344" y="588.4888">Return User Data + Role</text><polygon fill="#3498DB" points="515.667,618.6875,505.667,622.6875,515.667,626.6875,511.667,622.6875" style="stroke:#3498DB;stroke-width:1;"/><line style="stroke:#3498DB;stroke-width:1;stroke-dasharray:2.0,2.0;" x1="509.667" x2="771.7344" y1="622.6875" y2="622.6875"/><text fill="#000000" font-family="Verdana" font-size="13" lengthAdjust="spacing" textLength="116.5049" x="521.667" y="617.6216">Return JWT Token</text><polygon fill="#3498DB" points="265.8428,647.8203,255.8428,651.8203,265.8428,655.8203,261.8428,651.8203" style="stroke:#3498DB;stroke-width:1;"/><line style="stroke:#3498DB;stroke-width:1;stroke-dasharray:2.0,2.0;" x1="259.8428" x2="503.667" y1="651.8203" y2="651.8203"/><text fill="#000000" font-family="Verdana" font-size="13" lengthAdjust="spacing" textLength="225.8242" x="271.8428" y="646.7544">Display Dashboard (Member View)</text><rect fill="#FFFFFF" height="3" style="stroke:#FFFFFF;stroke-width:1;" width="1002.2046" x="5" y="680.3867"/><line style="stroke:#000000;stroke-width:0.5;" x1="5" x2="1007.2046" y1="680.3867" y2="680.3867"/><line style="stroke:#000000;stroke-width:0.5;" x1="5" x2="1007.2046" y1="683.3867" y2="683.3867"/><rect fill="#FFFFFF" height="23.1328" style="stroke:#000000;stroke-width:1;" width="152.7661" x="429.7192" y="669.8203"/><text fill="#000000" font-family="Verdana" font-size="13" font-weight="bold" lengthAdjust="spacing" textLength="134.2402" x="435.7192" y="685.8872">Task Management</text><polygon fill="#3498DB" points="492.667,720.0859,502.667,724.0859,492.667,728.0859,496.667,724.0859" style="stroke:#3498DB;stroke-width:1;"/><line style="stroke:#3498DB;stroke-width:1;" x1="35.4321" x2="498.667" y1="724.0859" y2="724.0859"/><text fill="#000000" font-family="Verdana" font-size="13" lengthAdjust="spacing" textLength="92.606" x="42.4321" y="719.02">Create Project</text><polygon fill="#3498DB" points="760.7344,749.2188,770.7344,753.2188,760.7344,757.2188,764.7344,753.2188" style="stroke:#3498DB;stroke-width:1;"/><line style="stroke:#3498DB;stroke-width:1;" x1="504.667" x2="766.7344" y1="753.2188" y2="753.2188"/><text fill="#000000" font-family="Verdana" font-size="13" lengthAdjust="spacing" textLength="119.1646" x="511.667" y="748.1528">POST /api/projects</text><polygon fill="#3498DB" points="946.8281,778.3516,956.8281,782.3516,946.8281,786.3516,950.8281,782.3516" style="stroke:#3498DB;stroke-width:1;"/><line style="stroke:#3498DB;stroke-width:1;" x1="772.7344" x2="952.8281" y1="782.3516" y2="782.3516"/><text fill="#000000" font-family="Verdana" font-size="13" lengthAdjust="spacing" textLength="118.9424" x="779.7344" y="777.2856">Store Project Data</text><polygon fill="#3498DB" points="783.7344,807.4844,773.7344,811.4844,783.7344,815.4844,779.7344,811.4844" style="stroke:#3498DB;stroke-width:1;"/><line style="stroke:#3498DB;stroke-width:1;stroke-dasharray:2.0,2.0;" x1="777.7344" x2="957.8281" y1="811.4844" y2="811.4844"/><text fill="#000000" font-family="Verdana" font-size="13" lengthAdjust="spacing" textLength="110.8872" x="789.7344" y="806.4185">Confirm Creation</text><polygon fill="#3498DB" points="515.667,836.6172,505.667,840.6172,515.667,844.6172,511.667,840.6172" style="stroke:#3498DB;stroke-width:1;"/><line style="stroke:#3498DB;stroke-width:1;stroke-dasharray:2.0,2.0;" x1="509.667" x2="771.7344" y1="840.6172" y2="840.6172"/><text fill="#000000" font-family="Verdana" font-size="13" lengthAdjust="spacing" textLength="142.2764" x="521.667" y="835.5513">Return Project Details</text><polygon fill="#3498DB" points="46.4321,865.75,36.4321,869.75,46.4321,873.75,42.4321,869.75" style="stroke:#3498DB;stroke-width:1;"/><line style="stroke:#3498DB;stroke-width:1;stroke-dasharray:2.0,2.0;" x1="40.4321" x2="503.667" y1="869.75" y2="869.75"/><text fill="#000000" font-family="Verdana" font-size="13" lengthAdjust="spacing" textLength="97.043" x="52.4321" y="864.6841">Display Project</text><polygon fill="#3498DB" points="492.667,894.8828,502.667,898.8828,492.667,902.8828,496.667,898.8828" style="stroke:#3498DB;stroke-width:1;"/><line style="stroke:#3498DB;stroke-width:1;" x1="130.999" x2="498.667" y1="898.8828" y2="898.8828"/><text fill="#000000" font-family="Verdana" font-size="13" lengthAdjust="spacing" textLength="77.8223" x="137.999" y="893.8169">Create Task</text><polygon fill="#3498DB" points="760.7344,924.0156,770.7344,928.0156,760.7344,932.0156,764.7344,928.0156" style="stroke:#3498DB;stroke-width:1;"/><line style="stroke:#3498DB;stroke-width:1;" x1="504.667" x2="766.7344" y1="928.0156" y2="928.0156"/><text fill="#000000" font-family="Verdana" font-size="13" lengthAdjust="spacing" textLength="101.1245" x="511.667" y="922.9497">POST /api/tasks</text><polygon fill="#3498DB" points="946.8281,953.1484,956.8281,957.1484,946.8281,961.1484,950.8281,957.1484" style="stroke:#3498DB;stroke-width:1;"/><line style="stroke:#3498DB;stroke-width:1;" x1="772.7344" x2="952.8281" y1="957.1484" y2="957.1484"/><text fill="#000000" font-family="Verdana" font-size="13" lengthAdjust="spacing" textLength="104.1587" x="779.7344" y="952.0825">Store Task Data</text><polygon fill="#3498DB" points="783.7344,982.2813,773.7344,986.2813,783.7344,990.2813,779.7344,986.2813" style="stroke:#3498DB;stroke-width:1;"/><line style="stroke:#3498DB;stroke-width:1;stroke-dasharray:2.0,2.0;" x1="777.7344" x2="957.8281" y1="986.2813" y2="986.2813"/><text fill="#000000" font-family="Verdana" font-size="13" lengthAdjust="spacing" textLength="110.8872" x="789.7344" y="981.2153">Confirm Creation</text><polygon fill="#3498DB" points="515.667,1011.4141,505.667,1015.4141,515.667,1019.4141,511.667,1015.4141" style="stroke:#3498DB;stroke-width:1;"/><line style="stroke:#3498DB;stroke-width:1;stroke-dasharray:2.0,2.0;" x1="509.667" x2="771.7344" y1="1015.4141" y2="1015.4141"/><text fill="#000000" font-family="Verdana" font-size="13" lengthAdjust="spacing" textLength="127.4927" x="521.667" y="1010.3481">Return Task Details</text><polygon fill="#3498DB" points="141.999,1040.5469,131.999,1044.5469,141.999,1048.5469,137.999,1044.5469" style="stroke:#3498DB;stroke-width:1;"/><line style="stroke:#3498DB;stroke-width:1;stroke-dasharray:2.0,2.0;" x1="135.999" x2="503.667" y1="1044.5469" y2="1044.5469"/><text fill="#000000" font-family="Verdana" font-size="13" lengthAdjust="spacing" textLength="198.4722" x="147.999" y="1039.481">Display Task on Kanban Board</text><polygon fill="#3498DB" points="492.667,1069.6797,502.667,1073.6797,492.667,1077.6797,496.667,1073.6797" style="stroke:#3498DB;stroke-width:1;"/><line style="stroke:#3498DB;stroke-width:1;" x1="130.999" x2="498.667" y1="1073.6797" y2="1073.6797"/><text fill="#000000" font-family="Verdana" font-size="13" lengthAdjust="spacing" textLength="151.6709" x="137.999" y="1068.6138">Assign Task to Member</text><polygon fill="#3498DB" points="760.7344,1098.8125,770.7344,1102.8125,760.7344,1106.8125,764.7344,1102.8125" style="stroke:#3498DB;stroke-width:1;"/><line style="stroke:#3498DB;stroke-width:1;" x1="504.667" x2="766.7344" y1="1102.8125" y2="1102.8125"/><text fill="#000000" font-family="Verdana" font-size="13" lengthAdjust="spacing" textLength="170.936" x="511.667" y="1097.7466">PUT /api/tasks/{id}/assign</text><polygon fill="#3498DB" points="946.8281,1127.9453,956.8281,1131.9453,946.8281,1135.9453,950.8281,1131.9453" style="stroke:#3498DB;stroke-width:1;"/><line style="stroke:#3498DB;stroke-width:1;" x1="772.7344" x2="952.8281" y1="1131.9453" y2="1131.9453"/><text fill="#000000" font-family="Verdana" font-size="13" lengthAdjust="spacing" textLength="162.0938" x="779.7344" y="1126.8794">Update Task Assignment</text><polygon fill="#3498DB" points="783.7344,1157.0781,773.7344,1161.0781,783.7344,1165.0781,779.7344,1161.0781" style="stroke:#3498DB;stroke-width:1;"/><line style="stroke:#3498DB;stroke-width:1;stroke-dasharray:2.0,2.0;" x1="777.7344" x2="957.8281" y1="1161.0781" y2="1161.0781"/><text fill="#000000" font-family="Verdana" font-size="13" lengthAdjust="spacing" textLength="102.6797" x="789.7344" y="1156.0122">Confirm Update</text><polygon fill="#3498DB" points="515.667,1186.2109,505.667,1190.2109,515.667,1194.2109,511.667,1190.2109" style="stroke:#3498DB;stroke-width:1;"/><line style="stroke:#3498DB;stroke-width:1;stroke-dasharray:2.0,2.0;" x1="509.667" x2="771.7344" y1="1190.2109" y2="1190.2109"/><text fill="#000000" font-family="Verdana" font-size="13" lengthAdjust="spacing" textLength="137.7568" x="521.667" y="1185.145">Return Updated Task</text><polygon fill="#3498DB" points="141.999,1215.3438,131.999,1219.3438,141.999,1223.3438,137.999,1219.3438" style="stroke:#3498DB;stroke-width:1;"/><line style="stroke:#3498DB;stroke-width:1;stroke-dasharray:2.0,2.0;" x1="135.999" x2="503.667" y1="1219.3438" y2="1219.3438"/><text fill="#000000" font-family="Verdana" font-size="13" lengthAdjust="spacing" textLength="217.0581" x="147.999" y="1214.2778">Display Assignment Confirmation</text><polygon fill="#3498DB" points="492.667,1244.4766,502.667,1248.4766,492.667,1252.4766,496.667,1248.4766" style="stroke:#3498DB;stroke-width:1;"/><line style="stroke:#3498DB;stroke-width:1;" x1="254.8428" x2="498.667" y1="1248.4766" y2="1248.4766"/><text fill="#000000" font-family="Verdana" font-size="13" lengthAdjust="spacing" textLength="135.1733" x="261.8428" y="1243.4106">View Assigned Tasks</text><polygon fill="#3498DB" points="760.7344,1273.6094,770.7344,1277.6094,760.7344,1281.6094,764.7344,1277.6094" style="stroke:#3498DB;stroke-width:1;"/><line style="stroke:#3498DB;stroke-width:1;" x1="504.667" x2="766.7344" y1="1277.6094" y2="1277.6094"/><text fill="#000000" font-family="Verdana" font-size="13" lengthAdjust="spacing" textLength="155.3335" x="511.667" y="1272.5435">GET /api/tasks/assigned</text><polygon fill="#3498DB" points="946.8281,1302.7422,956.8281,1306.7422,946.8281,1310.7422,950.8281,1306.7422" style="stroke:#3498DB;stroke-width:1;"/><line style="stroke:#3498DB;stroke-width:1;" x1="772.7344" x2="952.8281" y1="1306.7422" y2="1306.7422"/><text fill="#000000" font-family="Verdana" font-size="13" lengthAdjust="spacing" textLength="95.8877" x="779.7344" y="1301.6763">Retrieve Tasks</text><polygon fill="#3498DB" points="783.7344,1331.875,773.7344,1335.875,783.7344,1339.875,779.7344,1335.875" style="stroke:#3498DB;stroke-width:1;"/><line style="stroke:#3498DB;stroke-width:1;stroke-dasharray:2.0,2.0;" x1="777.7344" x2="957.8281" y1="1335.875" y2="1335.875"/><text fill="#000000" font-family="Verdana" font-size="13" lengthAdjust="spacing" textLength="113.4644" x="789.7344" y="1330.8091">Return Task Data</text><polygon fill="#3498DB" points="515.667,1361.0078,505.667,1365.0078,515.667,1369.0078,511.667,1365.0078" style="stroke:#3498DB;stroke-width:1;"/><line style="stroke:#3498DB;stroke-width:1;stroke-dasharray:2.0,2.0;" x1="509.667" x2="771.7344" y1="1365.0078" y2="1365.0078"/><text fill="#000000" font-family="Verdana" font-size="13" lengthAdjust="spacing" textLength="111.9219" x="521.667" y="1359.9419">Return Tasks List</text><polygon fill="#3498DB" points="265.8428,1390.1406,255.8428,1394.1406,265.8428,1398.1406,261.8428,1394.1406" style="stroke:#3498DB;stroke-width:1;"/><line style="stroke:#3498DB;stroke-width:1;stroke-dasharray:2.0,2.0;" x1="259.8428" x2="503.667" y1="1394.1406" y2="1394.1406"/><text fill="#000000" font-family="Verdana" font-size="13" lengthAdjust="spacing" textLength="151.9565" x="271.8428" y="1389.0747">Display Assigned Tasks</text><polygon fill="#3498DB" points="492.667,1419.2734,502.667,1423.2734,492.667,1427.2734,496.667,1423.2734" style="stroke:#3498DB;stroke-width:1;"/><line style="stroke:#3498DB;stroke-width:1;" x1="254.8428" x2="498.667" y1="1423.2734" y2="1423.2734"/><text fill="#000000" font-family="Verdana" font-size="13" lengthAdjust="spacing" textLength="126.9785" x="261.8428" y="1418.2075">Update Task Status</text><polygon fill="#3498DB" points="760.7344,1448.4063,770.7344,1452.4063,760.7344,1456.4063,764.7344,1452.4063" style="stroke:#3498DB;stroke-width:1;"/><line style="stroke:#3498DB;stroke-width:1;" x1="504.667" x2="766.7344" y1="1452.4063" y2="1452.4063"/><text fill="#000000" font-family="Verdana" font-size="13" lengthAdjust="spacing" textLength="169.2666" x="511.667" y="1447.3403">PUT /api/tasks/{id}/status</text><polygon fill="#3498DB" points="946.8281,1477.5391,956.8281,1481.5391,946.8281,1485.5391,950.8281,1481.5391" style="stroke:#3498DB;stroke-width:1;"/><line style="stroke:#3498DB;stroke-width:1;" x1="772.7344" x2="952.8281" y1="1481.5391" y2="1481.5391"/><text fill="#000000" font-family="Verdana" font-size="13" lengthAdjust="spacing" textLength="126.9785" x="779.7344" y="1476.4731">Update Task Status</text><polygon fill="#3498DB" points="783.7344,1506.6719,773.7344,1510.6719,783.7344,1514.6719,779.7344,1510.6719" style="stroke:#3498DB;stroke-width:1;"/><line style="stroke:#3498DB;stroke-width:1;stroke-dasharray:2.0,2.0;" x1="777.7344" x2="957.8281" y1="1510.6719" y2="1510.6719"/><text fill="#000000" font-family="Verdana" font-size="13" lengthAdjust="spacing" textLength="102.6797" x="789.7344" y="1505.606">Confirm Update</text><polygon fill="#3498DB" points="515.667,1535.8047,505.667,1539.8047,515.667,1543.8047,511.667,1539.8047" style="stroke:#3498DB;stroke-width:1;"/><line style="stroke:#3498DB;stroke-width:1;stroke-dasharray:2.0,2.0;" x1="509.667" x2="771.7344" y1="1539.8047" y2="1539.8047"/><text fill="#000000" font-family="Verdana" font-size="13" lengthAdjust="spacing" textLength="137.7568" x="521.667" y="1534.7388">Return Updated Task</text><polygon fill="#3498DB" points="265.8428,1564.9375,255.8428,1568.9375,265.8428,1572.9375,261.8428,1568.9375" style="stroke:#3498DB;stroke-width:1;"/><line style="stroke:#3498DB;stroke-width:1;stroke-dasharray:2.0,2.0;" x1="259.8428" x2="503.667" y1="1568.9375" y2="1568.9375"/><text fill="#000000" font-family="Verdana" font-size="13" lengthAdjust="spacing" textLength="203.271" x="271.8428" y="1563.8716">Display Updated Kanban Board</text><rect fill="#FFFFFF" height="3" style="stroke:#FFFFFF;stroke-width:1;" width="1002.2046" x="5" y="1597.5039"/><line style="stroke:#000000;stroke-width:0.5;" x1="5" x2="1007.2046" y1="1597.5039" y2="1597.5039"/><line style="stroke:#000000;stroke-width:0.5;" x1="5" x2="1007.2046" y1="1600.5039" y2="1600.5039"/><rect fill="#FFFFFF" height="23.1328" style="stroke:#000000;stroke-width:1;" width="116.959" x="447.6228" y="1586.9375"/><text fill="#000000" font-family="Verdana" font-size="13" font-weight="bold" lengthAdjust="spacing" textLength="98.4331" x="453.6228" y="1603.0044">Collaboration</text><polygon fill="#3498DB" points="492.667,1637.2031,502.667,1641.2031,492.667,1645.2031,496.667,1641.2031" style="stroke:#3498DB;stroke-width:1;"/><line style="stroke:#3498DB;stroke-width:1;" x1="254.8428" x2="498.667" y1="1641.2031" y2="1641.2031"/><text fill="#000000" font-family="Verdana" font-size="13" lengthAdjust="spacing" textLength="147.8877" x="261.8428" y="1636.1372">Add Comment on Task</text><polygon fill="#3498DB" points="760.7344,1666.3359,770.7344,1670.3359,760.7344,1674.3359,764.7344,1670.3359" style="stroke:#3498DB;stroke-width:1;"/><line style="stroke:#3498DB;stroke-width:1;" x1="504.667" x2="766.7344" y1="1670.3359" y2="1670.3359"/><text fill="#000000" font-family="Verdana" font-size="13" lengthAdjust="spacing" textLength="206.8257" x="511.667" y="1665.27">POST /api/tasks/{id}/comments</text><polygon fill="#3498DB" points="946.8281,1695.4688,956.8281,1699.4688,946.8281,1703.4688,950.8281,1699.4688" style="stroke:#3498DB;stroke-width:1;"/><line style="stroke:#3498DB;stroke-width:1;" x1="772.7344" x2="952.8281" y1="1699.4688" y2="1699.4688"/><text fill="#000000" font-family="Verdana" font-size="13" lengthAdjust="spacing" textLength="102.4702" x="779.7344" y="1694.4028">Store Comment</text><polygon fill="#3498DB" points="783.7344,1724.6016,773.7344,1728.6016,783.7344,1732.6016,779.7344,1728.6016" style="stroke:#3498DB;stroke-width:1;"/><line style="stroke:#3498DB;stroke-width:1;stroke-dasharray:2.0,2.0;" x1="777.7344" x2="957.8281" y1="1728.6016" y2="1728.6016"/><text fill="#000000" font-family="Verdana" font-size="13" lengthAdjust="spacing" textLength="110.8872" x="789.7344" y="1723.5356">Confirm Creation</text><polygon fill="#3498DB" points="515.667,1753.7344,505.667,1757.7344,515.667,1761.7344,511.667,1757.7344" style="stroke:#3498DB;stroke-width:1;"/><line style="stroke:#3498DB;stroke-width:1;stroke-dasharray:2.0,2.0;" x1="509.667" x2="771.7344" y1="1757.7344" y2="1757.7344"/><text fill="#000000" font-family="Verdana" font-size="13" lengthAdjust="spacing" textLength="244.0674" x="521.667" y="1752.6685">Return Updated Task with Comments</text><polygon fill="#3498DB" points="265.8428,1782.8672,255.8428,1786.8672,265.8428,1790.8672,261.8428,1786.8672" style="stroke:#3498DB;stroke-width:1;"/><line style="stroke:#3498DB;stroke-width:1;stroke-dasharray:2.0,2.0;" x1="259.8428" x2="503.667" y1="1786.8672" y2="1786.8672"/><text fill="#000000" font-family="Verdana" font-size="13" lengthAdjust="spacing" textLength="165.6167" x="271.8428" y="1781.8013">Display Comment Thread</text><polygon fill="#3498DB" points="492.667,1812,502.667,1816,492.667,1820,496.667,1816" style="stroke:#3498DB;stroke-width:1;"/><line style="stroke:#3498DB;stroke-width:1;" x1="130.999" x2="498.667" y1="1816" y2="1816"/><text fill="#000000" font-family="Verdana" font-size="13" lengthAdjust="spacing" textLength="140.6704" x="137.999" y="1810.9341">View Project Progress</text><polygon fill="#3498DB" points="760.7344,1841.1328,770.7344,1845.1328,760.7344,1849.1328,764.7344,1845.1328" style="stroke:#3498DB;stroke-width:1;"/><line style="stroke:#3498DB;stroke-width:1;" x1="504.667" x2="766.7344" y1="1845.1328" y2="1845.1328"/><text fill="#000000" font-family="Verdana" font-size="13" lengthAdjust="spacing" textLength="204.9849" x="511.667" y="1840.0669">GET /api/projects/{id}/progress</text><polygon fill="#3498DB" points="946.8281,1870.2656,956.8281,1874.2656,946.8281,1878.2656,950.8281,1874.2656" style="stroke:#3498DB;stroke-width:1;"/><line style="stroke:#3498DB;stroke-width:1;" x1="772.7344" x2="952.8281" y1="1874.2656" y2="1874.2656"/><text fill="#000000" font-family="Verdana" font-size="13" lengthAdjust="spacing" textLength="158.6152" x="779.7344" y="1869.1997">Calculate Task Statistics</text><polygon fill="#3498DB" points="783.7344,1899.3984,773.7344,1903.3984,783.7344,1907.3984,779.7344,1903.3984" style="stroke:#3498DB;stroke-width:1;"/><line style="stroke:#3498DB;stroke-width:1;stroke-dasharray:2.0,2.0;" x1="777.7344" x2="957.8281" y1="1903.3984" y2="1903.3984"/><text fill="#000000" font-family="Verdana" font-size="13" lengthAdjust="spacing" textLength="107.5103" x="789.7344" y="1898.3325">Return Statistics</text><polygon fill="#3498DB" points="515.667,1928.5313,505.667,1932.5313,515.667,1936.5313,511.667,1932.5313" style="stroke:#3498DB;stroke-width:1;"/><line style="stroke:#3498DB;stroke-width:1;stroke-dasharray:2.0,2.0;" x1="509.667" x2="771.7344" y1="1932.5313" y2="1932.5313"/><text fill="#000000" font-family="Verdana" font-size="13" lengthAdjust="spacing" textLength="139.5342" x="521.667" y="1927.4653">Return Progress Data</text><polygon fill="#3498DB" points="141.999,1957.6641,131.999,1961.6641,141.999,1965.6641,137.999,1961.6641" style="stroke:#3498DB;stroke-width:1;"/><line style="stroke:#3498DB;stroke-width:1;stroke-dasharray:2.0,2.0;" x1="135.999" x2="503.667" y1="1961.6641" y2="1961.6641"/><text fill="#000000" font-family="Verdana" font-size="13" lengthAdjust="spacing" textLength="183.2188" x="147.999" y="1956.5981">Display Progress Dashboard</text><rect fill="#FFFFFF" height="3" style="stroke:#FFFFFF;stroke-width:1;" width="1002.2046" x="5" y="1990.2305"/><line style="stroke:#000000;stroke-width:0.5;" x1="5" x2="1007.2046" y1="1990.2305" y2="1990.2305"/><line style="stroke:#000000;stroke-width:0.5;" x1="5" x2="1007.2046" y1="1993.2305" y2="1993.2305"/><rect fill="#FFFFFF" height="23.1328" style="stroke:#000000;stroke-width:1;" width="112.1919" x="450.0063" y="1979.6641"/><text fill="#000000" font-family="Verdana" font-size="13" font-weight="bold" lengthAdjust="spacing" textLength="93.666" x="456.0063" y="1995.731">Notifications</text><polygon fill="#3498DB" points="946.8281,2029.9297,956.8281,2033.9297,946.8281,2037.9297,950.8281,2033.9297" style="stroke:#3498DB;stroke-width:1;"/><line style="stroke:#3498DB;stroke-width:1;" x1="772.7344" x2="952.8281" y1="2033.9297" y2="2033.9297"/><text fill="#000000" font-family="Verdana" font-size="13" lengthAdjust="spacing" textLength="137.9219" x="779.7344" y="2028.8638">Task Status Changed</text><polygon fill="#3498DB" points="783.7344,2059.0625,773.7344,2063.0625,783.7344,2067.0625,779.7344,2063.0625" style="stroke:#3498DB;stroke-width:1;"/><line style="stroke:#3498DB;stroke-width:1;stroke-dasharray:2.0,2.0;" x1="777.7344" x2="957.8281" y1="2063.0625" y2="2063.0625"/><text fill="#000000" font-family="Verdana" font-size="13" lengthAdjust="spacing" textLength="143.9204" x="789.7344" y="2057.9966">Retrieve Stakeholders</text><polygon fill="#3498DB" points="515.667,2088.1953,505.667,2092.1953,515.667,2096.1953,511.667,2092.1953" style="stroke:#3498DB;stroke-width:1;"/><line style="stroke:#3498DB;stroke-width:1;" x1="509.667" x2="771.7344" y1="2092.1953" y2="2092.1953"/><text fill="#000000" font-family="Verdana" font-size="13" lengthAdjust="spacing" textLength="109.8145" x="521.667" y="2087.1294">Push Notification</text><polygon fill="#3498DB" points="141.999,2117.3281,131.999,2121.3281,141.999,2125.3281,137.999,2121.3281" style="stroke:#3498DB;stroke-width:1;"/><line style="stroke:#3498DB;stroke-width:1;stroke-dasharray:2.0,2.0;" x1="135.999" x2="503.667" y1="2121.3281" y2="2121.3281"/><text fill="#000000" font-family="Verdana" font-size="13" lengthAdjust="spacing" textLength="126.6421" x="147.999" y="2116.2622">Display Notification</text><polygon fill="#3498DB" points="265.8428,2146.4609,255.8428,2150.4609,265.8428,2154.4609,261.8428,2150.4609" style="stroke:#3498DB;stroke-width:1;"/><line style="stroke:#3498DB;stroke-width:1;stroke-dasharray:2.0,2.0;" x1="259.8428" x2="503.667" y1="2150.4609" y2="2150.4609"/><text fill="#000000" font-family="Verdana" font-size="13" lengthAdjust="spacing" textLength="126.6421" x="271.8428" y="2145.395">Display Notification</text><!--SRC=[pLPDSzCm4BtxLopb0iEK7E00cGap-IXC8ONG9EMyiPLOZIqPII7jCFntrlfex4IPjd3f8HCx-_RfFUskb6ScPoM3ga0k4htceaA59GmmNQ-Kt8XiA0kfO9jpmnhnAVkvOI9bVQNara6Ultdx_jre406D-P8-WWsaofYw3pr1PNZAAnJcOGa3UVDuvWVwgxcZq0HJGoyd_QpauWHGWtqAFq-Kl6QfWGiKk6BA0cOCop73B63gTxXWvSB7tMDIxLJ2oIKZC7nKKXWcCWkRdxSXPpULObg_ljQsQW7Mdvmd6HfSe6QaHsgpKcpwVMo3j3r9hmVz3LLV41KQBWNqUabYNS3f1rgc2sEv8alpy_gT-Bem-JQTGGShta5AxHGsJf4QC1fquOeflho5eM9PpOk5JaO3E0tfbynib82vPWf6f0rUmQKic6FmQthCvnypc4boOvUl2MfXNHXnJRrwI-awNqXK6RnmagyusxvCah39Jz52q1PrKGU8qzjmlV0KJJXbKGjUjBT0_JL3lVOZK9AEmmOZWMWO-6c9EwnSK3VzJMc0xjAiXPQ_eHHBhaf7JvqTCtQNp0nosfzucmLb1ttbbTSEux8DHIAQxPRyas2NsLPxs54MHRFy1SK21GpgoXogxslDLvxIo73oD7tCcpOwltdsfuCsgMbfNcLX4pnbNUQeCmUD-NAHRBULKLyx-a3fDcflKkhUyrXFgPksFfsrRA47DZsHAiNPB-QJ8sEpA-6HAcaOSssE3SoUkZq3pIsT6ZGRVLzPj4CTAOld-F-IxDi8c7QZqT3JBLdWGghTdT9ssCyomfIsb5BSDq7EO-hmaNdoJ8-UfgP5s7AJ1oPzp73GFCjLVOaVp9HjlN2gqFUglfMZpHTEDEUj2j26jo4MwQPe5P4wYgVHVcn4u-USfNSTUtI-6Z1_djjYVfM6B_t_0-tExvtAHeF1C4UneadQq-T6YJ1hbik2BhWxcxN4oKRdhIMEwukXzYlKnFm5]--></g></svg>