<svg xmlns="http://www.w3.org/2000/svg" xmlns:xlink="http://www.w3.org/1999/xlink" contentStyleType="text/css" data-diagram-type="SEQUENCE" height="1757px" preserveAspectRatio="none" style="width:608px;height:1757px;background:#FFFFFF;" version="1.1" viewBox="0 0 608 1757" width="608px" zoomAndPan="magnify"><title>Collaborative Task Management System - Sequence Diagram</title><defs/><g><text fill="#000000" font-family="sans-serif" font-size="14" font-weight="bold" lengthAdjust="spacing" textLength="481.7559" x="59.4529" y="27.9951">Collaborative Task Management System - Sequence Diagram</text><g><title>React Frontend</title><rect fill="#FFFFFF" height="221.3281" style="stroke:#181818;stroke-width:1;" width="10" x="134.2471" y="207.9922"/></g><g><title>React Frontend</title><rect fill="#FFFFFF" height="278.5938" style="stroke:#181818;stroke-width:1;" width="10" x="134.2471" y="516.7188"/></g><g><title>React Frontend</title><rect fill="#FFFFFF" height="278.5938" style="stroke:#181818;stroke-width:1;" width="10" x="134.2471" y="882.7109"/></g><g><title>React Frontend</title><rect fill="#FFFFFF" height="410.3906" style="stroke:#181818;stroke-width:1;" width="10" x="134.2471" y="1248.7031"/></g><g><title>Express Backend</title><rect fill="#FFFFFF" height="132.7969" style="stroke:#181818;stroke-width:1;" width="10" x="295.3037" y="252.2578"/></g><g><title>Express Backend</title><rect fill="#FFFFFF" height="190.0625" style="stroke:#181818;stroke-width:1;" width="10" x="295.3037" y="560.9844"/></g><g><title>Express Backend</title><rect fill="#FFFFFF" height="190.0625" style="stroke:#181818;stroke-width:1;" width="10" x="295.3037" y="942.1094"/></g><g><title>Express Backend</title><rect fill="#FFFFFF" height="132.7969" style="stroke:#181818;stroke-width:1;" width="10" x="295.3037" y="1308.1016"/></g><g><title>PostgreSQL</title><rect fill="#FFFFFF" height="44.2656" style="stroke:#181818;stroke-width:1;" width="10" x="415.5732" y="296.5234"/></g><g><title>PostgreSQL</title><rect fill="#FFFFFF" height="44.2656" style="stroke:#181818;stroke-width:1;" width="10" x="415.5732" y="662.5156"/></g><g><title>PostgreSQL</title><rect fill="#FFFFFF" height="44.2656" style="stroke:#181818;stroke-width:1;" width="10" x="415.5732" y="986.375"/></g><g><title>PostgreSQL</title><rect fill="#FFFFFF" height="44.2656" style="stroke:#181818;stroke-width:1;" width="10" x="415.5732" y="1352.3672"/></g><g><title>User</title><rect fill="transparent" height="1558.5" width="8" x="19.9551" y="118.5938"/><line style="stroke:#181818;stroke-width:0.5;stroke-dasharray:5.0,5.0;" x1="23" x2="23" y1="118.5938" y2="1677.0938"/></g><g><title>React Frontend</title><rect fill="transparent" height="1558.5" width="8" x="135.2471" y="118.5938"/><line style="stroke:#181818;stroke-width:0.5;stroke-dasharray:5.0,5.0;" x1="138.4141" x2="138.4141" y1="118.5938" y2="1677.0938"/></g><g><title>Express Backend</title><rect fill="transparent" height="1558.5" width="8" x="296.3037" y="118.5938"/><line style="stroke:#181818;stroke-width:0.5;stroke-dasharray:5.0,5.0;" x1="299.4106" x2="299.4106" y1="118.5938" y2="1677.0938"/></g><g><title>PostgreSQL</title><rect fill="transparent" height="1558.5" width="8" x="416.5732" y="118.5938"/><line style="stroke:#181818;stroke-width:0.5;stroke-dasharray:5.0,5.0;" x1="420.1968" x2="420.1968" y1="118.5938" y2="1677.0938"/></g><g><title>Team Members</title><rect fill="transparent" height="1558.5" width="8" x="531.3057" y="118.5938"/><line style="stroke:#181818;stroke-width:0.5;stroke-dasharray:5.0,5.0;" x1="534.9497" x2="534.9497" y1="118.5938" y2="1677.0938"/></g><text fill="#FFFFFF" font-family="sans-serif" font-size="14" lengthAdjust="spacing" textLength="31.9102" x="5" y="115.292">User</text><ellipse cx="23.9551" cy="50.7969" fill="#1E90FF" rx="8" ry="8" style="stroke:#0066CC;stroke-width:0.5;"/><path d="M23.9551,58.7969 L23.9551,85.7969 M10.9551,66.7969 L36.9551,66.7969 M23.9551,85.7969 L10.9551,100.7969 M23.9551,85.7969 L36.9551,100.7969 " fill="transparent" style="stroke:#0066CC;stroke-width:0.5;"/><text fill="#FFFFFF" font-family="sans-serif" font-size="14" lengthAdjust="spacing" textLength="31.9102" x="5" y="1689.0889">User</text><ellipse cx="23.9551" cy="1700.8906" fill="#1E90FF" rx="8" ry="8" style="stroke:#0066CC;stroke-width:0.5;"/><path d="M23.9551,1708.8906 L23.9551,1735.8906 M10.9551,1716.8906 L36.9551,1716.8906 M23.9551,1735.8906 L10.9551,1750.8906 M23.9551,1735.8906 L36.9551,1750.8906 " fill="transparent" style="stroke:#0066CC;stroke-width:0.5;"/><rect fill="#4CAF50" height="30.2969" rx="7.5" ry="7.5" style="stroke:#2E7D32;stroke-width:0.5;" width="121.666" x="78.4141" y="87.2969"/><text fill="#FFFFFF" font-family="sans-serif" font-size="14" lengthAdjust="spacing" textLength="107.666" x="85.4141" y="107.292">React Frontend</text><rect fill="#4CAF50" height="30.2969" rx="7.5" ry="7.5" style="stroke:#2E7D32;stroke-width:0.5;" width="121.666" x="78.4141" y="1676.0938"/><text fill="#FFFFFF" font-family="sans-serif" font-size="14" lengthAdjust="spacing" textLength="107.666" x="85.4141" y="1696.0889">React Frontend</text><rect fill="#4CAF50" height="30.2969" rx="7.5" ry="7.5" style="stroke:#2E7D32;stroke-width:0.5;" width="133.7861" x="233.4106" y="87.2969"/><text fill="#FFFFFF" font-family="sans-serif" font-size="14" lengthAdjust="spacing" textLength="119.7861" x="240.4106" y="107.292">Express Backend</text><rect fill="#4CAF50" height="30.2969" rx="7.5" ry="7.5" style="stroke:#2E7D32;stroke-width:0.5;" width="133.7861" x="233.4106" y="1676.0938"/><text fill="#FFFFFF" font-family="sans-serif" font-size="14" lengthAdjust="spacing" textLength="119.7861" x="240.4106" y="1696.0889">Express Backend</text><text fill="#FFFFFF" font-family="sans-serif" font-size="14" lengthAdjust="spacing" textLength="80.7529" x="377.1968" y="115.292">PostgreSQL</text><path d="M402.5732,66.2969 C402.5732,56.2969 420.5732,56.2969 420.5732,56.2969 C420.5732,56.2969 438.5732,56.2969 438.5732,66.2969 L438.5732,92.2969 C438.5732,102.2969 420.5732,102.2969 420.5732,102.2969 C420.5732,102.2969 402.5732,102.2969 402.5732,92.2969 L402.5732,66.2969 " fill="#9C27B0" style="stroke:#6A1B9A;stroke-width:1.5;"/><path d="M402.5732,66.2969 C402.5732,76.2969 420.5732,76.2969 420.5732,76.2969 C420.5732,76.2969 438.5732,76.2969 438.5732,66.2969 " fill="transparent" style="stroke:#6A1B9A;stroke-width:1.5;"/><text fill="#FFFFFF" font-family="sans-serif" font-size="14" lengthAdjust="spacing" textLength="80.7529" x="377.1968" y="1689.0889">PostgreSQL</text><path d="M402.5732,1702.3906 C402.5732,1692.3906 420.5732,1692.3906 420.5732,1692.3906 C420.5732,1692.3906 438.5732,1692.3906 438.5732,1702.3906 L438.5732,1728.3906 C438.5732,1738.3906 420.5732,1738.3906 420.5732,1738.3906 C420.5732,1738.3906 402.5732,1738.3906 402.5732,1728.3906 L402.5732,1702.3906 " fill="#9C27B0" style="stroke:#6A1B9A;stroke-width:1.5;"/><path d="M402.5732,1702.3906 C402.5732,1712.3906 420.5732,1712.3906 420.5732,1712.3906 C420.5732,1712.3906 438.5732,1712.3906 438.5732,1702.3906 " fill="transparent" style="stroke:#6A1B9A;stroke-width:1.5;"/><rect fill="#4CAF50" height="30.2969" rx="7.5" ry="7.5" style="stroke:#2E7D32;stroke-width:0.5;" width="122.7119" x="473.9497" y="87.2969"/><text fill="#FFFFFF" font-family="sans-serif" font-size="14" lengthAdjust="spacing" textLength="108.7119" x="480.9497" y="107.292">Team Members</text><rect fill="#4CAF50" height="30.2969" rx="7.5" ry="7.5" style="stroke:#2E7D32;stroke-width:0.5;" width="122.7119" x="473.9497" y="1676.0938"/><text fill="#FFFFFF" font-family="sans-serif" font-size="14" lengthAdjust="spacing" textLength="108.7119" x="480.9497" y="1696.0889">Team Members</text><g><title>React Frontend</title><rect fill="#FFFFFF" height="221.3281" style="stroke:#181818;stroke-width:1;" width="10" x="134.2471" y="207.9922"/></g><g><title>React Frontend</title><rect fill="#FFFFFF" height="278.5938" style="stroke:#181818;stroke-width:1;" width="10" x="134.2471" y="516.7188"/></g><g><title>React Frontend</title><rect fill="#FFFFFF" height="278.5938" style="stroke:#181818;stroke-width:1;" width="10" x="134.2471" y="882.7109"/></g><g><title>React Frontend</title><rect fill="#FFFFFF" height="410.3906" style="stroke:#181818;stroke-width:1;" width="10" x="134.2471" y="1248.7031"/></g><g><title>Express Backend</title><rect fill="#FFFFFF" height="132.7969" style="stroke:#181818;stroke-width:1;" width="10" x="295.3037" y="252.2578"/></g><g><title>Express Backend</title><rect fill="#FFFFFF" height="190.0625" style="stroke:#181818;stroke-width:1;" width="10" x="295.3037" y="560.9844"/></g><g><title>Express Backend</title><rect fill="#FFFFFF" height="190.0625" style="stroke:#181818;stroke-width:1;" width="10" x="295.3037" y="942.1094"/></g><g><title>Express Backend</title><rect fill="#FFFFFF" height="132.7969" style="stroke:#181818;stroke-width:1;" width="10" x="295.3037" y="1308.1016"/></g><g><title>PostgreSQL</title><rect fill="#FFFFFF" height="44.2656" style="stroke:#181818;stroke-width:1;" width="10" x="415.5732" y="296.5234"/></g><g><title>PostgreSQL</title><rect fill="#FFFFFF" height="44.2656" style="stroke:#181818;stroke-width:1;" width="10" x="415.5732" y="662.5156"/></g><g><title>PostgreSQL</title><rect fill="#FFFFFF" height="44.2656" style="stroke:#181818;stroke-width:1;" width="10" x="415.5732" y="986.375"/></g><g><title>PostgreSQL</title><rect fill="#FFFFFF" height="44.2656" style="stroke:#181818;stroke-width:1;" width="10" x="415.5732" y="1352.3672"/></g><rect fill="#EEEEEE" height="3" rx="7.5" ry="7.5" style="stroke:#EEEEEE;stroke-width:1;" width="601.6616" x="0" y="149.1602"/><line style="stroke:#000000;stroke-width:1;" x1="0" x2="601.6616" y1="149.1602" y2="149.1602"/><line style="stroke:#000000;stroke-width:1;" x1="0" x2="601.6616" y1="152.1602" y2="152.1602"/><rect fill="#EEEEEE" height="23.1328" rx="7.5" ry="7.5" style="stroke:#000000;stroke-width:2;" width="165.436" x="218.1128" y="138.5938"/><text fill="#000000" font-family="sans-serif" font-size="13" font-weight="bold" lengthAdjust="spacing" textLength="146.9102" x="224.1128" y="154.6606">User Authentication</text><polygon fill="#2C3E50" points="122.2471,203.9922,132.2471,207.9922,122.2471,211.9922,126.2471,207.9922" style="stroke:#2C3E50;stroke-width:1;"/><line style="stroke:#2C3E50;stroke-width:2;" x1="23.9551" x2="128.2471" y1="207.9922" y2="207.9922"/><text fill="#2C3E50" font-family="sans-serif" font-size="13" lengthAdjust="spacing" textLength="34.8931" x="30.9551" y="187.7935">Enter</text><text fill="#2C3E50" font-family="sans-serif" font-size="13" lengthAdjust="spacing" textLength="72.0396" x="30.9551" y="202.9263">credentials</text><polygon fill="#2C3E50" points="283.3037,248.2578,293.3037,252.2578,283.3037,256.2578,287.3037,252.2578" style="stroke:#2C3E50;stroke-width:1;"/><line style="stroke:#2C3E50;stroke-width:2;" x1="144.2471" x2="289.3037" y1="252.2578" y2="252.2578"/><text fill="#2C3E50" font-family="sans-serif" font-size="13" lengthAdjust="spacing" textLength="34.2646" x="151.2471" y="232.0591">POST</text><text fill="#2C3E50" font-family="sans-serif" font-size="13" lengthAdjust="spacing" textLength="69.9702" x="151.2471" y="247.1919">/auth/login</text><polygon fill="#2C3E50" points="403.5732,292.5234,413.5732,296.5234,403.5732,300.5234,407.5732,296.5234" style="stroke:#2C3E50;stroke-width:1;"/><line style="stroke:#2C3E50;stroke-width:2;" x1="305.3037" x2="409.5732" y1="296.5234" y2="296.5234"/><text fill="#2C3E50" font-family="sans-serif" font-size="13" lengthAdjust="spacing" textLength="38.1177" x="312.3037" y="276.3247">Verify</text><text fill="#2C3E50" font-family="sans-serif" font-size="13" lengthAdjust="spacing" textLength="72.0396" x="312.3037" y="291.4575">credentials</text><polygon fill="#2C3E50" points="316.3037,336.7891,306.3037,340.7891,316.3037,344.7891,312.3037,340.7891" style="stroke:#2C3E50;stroke-width:1;"/><line style="stroke:#2C3E50;stroke-width:2;stroke-dasharray:2.0,2.0;" x1="310.3037" x2="419.5732" y1="340.7891" y2="340.7891"/><text fill="#2C3E50" font-family="sans-serif" font-size="13" lengthAdjust="spacing" textLength="43.9512" x="322.3037" y="320.5903">Return</text><text fill="#2C3E50" font-family="sans-serif" font-size="13" lengthAdjust="spacing" textLength="4.1323" x="366.2549" y="320.5903">&#160;</text><text fill="#2C3E50" font-family="sans-serif" font-size="13" lengthAdjust="spacing" textLength="28.355" x="370.3872" y="320.5903">user</text><text fill="#2C3E50" font-family="sans-serif" font-size="13" lengthAdjust="spacing" textLength="29.2817" x="322.3037" y="335.7231">data</text><polygon fill="#2C3E50" points="155.2471,381.0547,145.2471,385.0547,155.2471,389.0547,151.2471,385.0547" style="stroke:#2C3E50;stroke-width:1;"/><line style="stroke:#2C3E50;stroke-width:2;stroke-dasharray:2.0,2.0;" x1="149.2471" x2="299.3037" y1="385.0547" y2="385.0547"/><text fill="#2C3E50" font-family="sans-serif" font-size="13" lengthAdjust="spacing" textLength="43.9512" x="161.2471" y="364.856">Return</text><text fill="#2C3E50" font-family="sans-serif" font-size="13" lengthAdjust="spacing" textLength="4.1323" x="205.1982" y="364.856">&#160;</text><text fill="#2C3E50" font-family="sans-serif" font-size="13" lengthAdjust="spacing" textLength="24.6289" x="209.3306" y="364.856">JWT</text><text fill="#2C3E50" font-family="sans-serif" font-size="13" lengthAdjust="spacing" textLength="36.8164" x="161.2471" y="379.9888">token</text><polygon fill="#2C3E50" points="34.9551,425.3203,24.9551,429.3203,34.9551,433.3203,30.9551,429.3203" style="stroke:#2C3E50;stroke-width:1;"/><line style="stroke:#2C3E50;stroke-width:2;stroke-dasharray:2.0,2.0;" x1="28.9551" x2="138.2471" y1="429.3203" y2="429.3203"/><text fill="#2C3E50" font-family="sans-serif" font-size="13" lengthAdjust="spacing" textLength="47.9185" x="40.9551" y="409.1216">Display</text><text fill="#2C3E50" font-family="sans-serif" font-size="13" lengthAdjust="spacing" textLength="68.999" x="40.9551" y="424.2544">dashboard</text><rect fill="#EEEEEE" height="3" rx="7.5" ry="7.5" style="stroke:#EEEEEE;stroke-width:1;" width="601.6616" x="0" y="457.8867"/><line style="stroke:#000000;stroke-width:1;" x1="0" x2="601.6616" y1="457.8867" y2="457.8867"/><line style="stroke:#000000;stroke-width:1;" x1="0" x2="601.6616" y1="460.8867" y2="460.8867"/><rect fill="#EEEEEE" height="23.1328" rx="7.5" ry="7.5" style="stroke:#000000;stroke-width:2;" width="180.8672" x="210.3972" y="447.3203"/><text fill="#000000" font-family="sans-serif" font-size="13" font-weight="bold" lengthAdjust="spacing" textLength="162.3413" x="216.3972" y="463.3872">Task Creation Process</text><polygon fill="#2C3E50" points="122.2471,512.7188,132.2471,516.7188,122.2471,520.7188,126.2471,516.7188" style="stroke:#2C3E50;stroke-width:1;"/><line style="stroke:#2C3E50;stroke-width:2;" x1="23.9551" x2="128.2471" y1="516.7188" y2="516.7188"/><text fill="#2C3E50" font-family="sans-serif" font-size="13" lengthAdjust="spacing" textLength="46.1157" x="30.9551" y="496.52">Submit</text><text fill="#2C3E50" font-family="sans-serif" font-size="13" lengthAdjust="spacing" textLength="4.1323" x="77.0708" y="496.52">&#160;</text><text fill="#2C3E50" font-family="sans-serif" font-size="13" lengthAdjust="spacing" textLength="27.3647" x="81.2031" y="496.52">task</text><text fill="#2C3E50" font-family="sans-serif" font-size="13" lengthAdjust="spacing" textLength="43.3101" x="30.9551" y="511.6528">details</text><polygon fill="#2C3E50" points="283.3037,556.9844,293.3037,560.9844,283.3037,564.9844,287.3037,560.9844" style="stroke:#2C3E50;stroke-width:1;"/><line style="stroke:#2C3E50;stroke-width:2;" x1="144.2471" x2="289.3037" y1="560.9844" y2="560.9844"/><text fill="#2C3E50" font-family="sans-serif" font-size="13" lengthAdjust="spacing" textLength="34.2646" x="151.2471" y="540.7856">POST</text><text fill="#2C3E50" font-family="sans-serif" font-size="13" lengthAdjust="spacing" textLength="4.1323" x="185.5117" y="540.7856">&#160;</text><text fill="#2C3E50" font-family="sans-serif" font-size="13" lengthAdjust="spacing" textLength="38.5176" x="189.644" y="540.7856">/tasks</text><text fill="#2C3E50" font-family="sans-serif" font-size="13" lengthAdjust="spacing" textLength="32.6523" x="151.2471" y="555.9185">(with</text><text fill="#2C3E50" font-family="sans-serif" font-size="13" lengthAdjust="spacing" textLength="4.1323" x="183.8994" y="555.9185">&#160;</text><text fill="#2C3E50" font-family="sans-serif" font-size="13" lengthAdjust="spacing" textLength="29.7007" x="188.0317" y="555.9185">JWT)</text><line style="stroke:#2C3E50;stroke-width:2;" x1="305.3037" x2="347.3037" y1="605.25" y2="605.25"/><line style="stroke:#2C3E50;stroke-width:2;" x1="347.3037" x2="347.3037" y1="605.25" y2="618.25"/><line style="stroke:#2C3E50;stroke-width:2;" x1="306.3037" x2="347.3037" y1="618.25" y2="618.25"/><polygon fill="#2C3E50" points="316.3037,614.25,306.3037,618.25,316.3037,622.25,312.3037,618.25" style="stroke:#2C3E50;stroke-width:1;"/><text fill="#2C3E50" font-family="sans-serif" font-size="13" lengthAdjust="spacing" textLength="53.3965" x="312.3037" y="585.0513">Validate</text><text fill="#2C3E50" font-family="sans-serif" font-size="13" lengthAdjust="spacing" textLength="4.1323" x="365.7002" y="585.0513">&#160;</text><text fill="#2C3E50" font-family="sans-serif" font-size="13" lengthAdjust="spacing" textLength="27.3647" x="369.8325" y="585.0513">task</text><text fill="#2C3E50" font-family="sans-serif" font-size="13" lengthAdjust="spacing" textLength="29.2817" x="312.3037" y="600.1841">data</text><polygon fill="#2C3E50" points="403.5732,658.5156,413.5732,662.5156,403.5732,666.5156,407.5732,662.5156" style="stroke:#2C3E50;stroke-width:1;"/><line style="stroke:#2C3E50;stroke-width:2;" x1="305.3037" x2="409.5732" y1="662.5156" y2="662.5156"/><text fill="#2C3E50" font-family="sans-serif" font-size="13" lengthAdjust="spacing" textLength="37.2861" x="312.3037" y="642.3169">Insert</text><text fill="#2C3E50" font-family="sans-serif" font-size="13" lengthAdjust="spacing" textLength="4.1323" x="349.5898" y="642.3169">&#160;</text><text fill="#2C3E50" font-family="sans-serif" font-size="13" lengthAdjust="spacing" textLength="27.3647" x="353.7222" y="642.3169">task</text><text fill="#2C3E50" font-family="sans-serif" font-size="13" lengthAdjust="spacing" textLength="42.0405" x="312.3037" y="657.4497">record</text><polygon fill="#2C3E50" points="316.3037,702.7813,306.3037,706.7813,316.3037,710.7813,312.3037,706.7813" style="stroke:#2C3E50;stroke-width:1;"/><line style="stroke:#2C3E50;stroke-width:2;stroke-dasharray:2.0,2.0;" x1="310.3037" x2="419.5732" y1="706.7813" y2="706.7813"/><text fill="#2C3E50" font-family="sans-serif" font-size="13" lengthAdjust="spacing" textLength="51.4668" x="322.3037" y="686.5825">Confirm</text><text fill="#2C3E50" font-family="sans-serif" font-size="13" lengthAdjust="spacing" textLength="56.8687" x="322.3037" y="701.7153">insertion</text><polygon fill="#2C3E50" points="155.2471,747.0469,145.2471,751.0469,155.2471,755.0469,151.2471,751.0469" style="stroke:#2C3E50;stroke-width:1;"/><line style="stroke:#2C3E50;stroke-width:2;stroke-dasharray:2.0,2.0;" x1="149.2471" x2="299.3037" y1="751.0469" y2="751.0469"/><text fill="#2C3E50" font-family="sans-serif" font-size="13" lengthAdjust="spacing" textLength="43.9512" x="161.2471" y="730.8481">Return</text><text fill="#2C3E50" font-family="sans-serif" font-size="13" lengthAdjust="spacing" textLength="4.1323" x="205.1982" y="730.8481">&#160;</text><text fill="#2C3E50" font-family="sans-serif" font-size="13" lengthAdjust="spacing" textLength="27.3647" x="209.3306" y="730.8481">task</text><text fill="#2C3E50" font-family="sans-serif" font-size="13" lengthAdjust="spacing" textLength="43.3101" x="161.2471" y="745.981">details</text><polygon fill="#2C3E50" points="34.9551,791.3125,24.9551,795.3125,34.9551,799.3125,30.9551,795.3125" style="stroke:#2C3E50;stroke-width:1;"/><line style="stroke:#2C3E50;stroke-width:2;stroke-dasharray:2.0,2.0;" x1="28.9551" x2="138.2471" y1="795.3125" y2="795.3125"/><text fill="#2C3E50" font-family="sans-serif" font-size="13" lengthAdjust="spacing" textLength="47.9185" x="40.9551" y="775.1138">Display</text><text fill="#2C3E50" font-family="sans-serif" font-size="13" lengthAdjust="spacing" textLength="4.1323" x="88.8735" y="775.1138">&#160;</text><text fill="#2C3E50" font-family="sans-serif" font-size="13" lengthAdjust="spacing" textLength="27.3647" x="93.0059" y="775.1138">task</text><text fill="#2C3E50" font-family="sans-serif" font-size="13" lengthAdjust="spacing" textLength="82.4053" x="40.9551" y="790.2466">confirmation</text><rect fill="#EEEEEE" height="3" rx="7.5" ry="7.5" style="stroke:#EEEEEE;stroke-width:1;" width="601.6616" x="0" y="823.8789"/><line style="stroke:#000000;stroke-width:1;" x1="0" x2="601.6616" y1="823.8789" y2="823.8789"/><line style="stroke:#000000;stroke-width:1;" x1="0" x2="601.6616" y1="826.8789" y2="826.8789"/><rect fill="#EEEEEE" height="23.1328" rx="7.5" ry="7.5" style="stroke:#000000;stroke-width:2;" width="162.1289" x="219.7664" y="813.3125"/><text fill="#000000" font-family="sans-serif" font-size="13" font-weight="bold" lengthAdjust="spacing" textLength="143.603" x="225.7664" y="829.3794">Task Status Update</text><polygon fill="#2C3E50" points="122.2471,878.7109,132.2471,882.7109,122.2471,886.7109,126.2471,882.7109" style="stroke:#2C3E50;stroke-width:1;"/><line style="stroke:#2C3E50;stroke-width:2;" x1="23.9551" x2="128.2471" y1="882.7109" y2="882.7109"/><text fill="#2C3E50" font-family="sans-serif" font-size="13" lengthAdjust="spacing" textLength="31.5732" x="30.9551" y="862.5122">Drag</text><text fill="#2C3E50" font-family="sans-serif" font-size="13" lengthAdjust="spacing" textLength="4.1323" x="62.5283" y="862.5122">&#160;</text><text fill="#2C3E50" font-family="sans-serif" font-size="13" lengthAdjust="spacing" textLength="27.3647" x="66.6606" y="862.5122">task</text><text fill="#2C3E50" font-family="sans-serif" font-size="13" lengthAdjust="spacing" textLength="4.1323" x="94.0254" y="862.5122">&#160;</text><text fill="#2C3E50" font-family="sans-serif" font-size="13" lengthAdjust="spacing" textLength="13.0508" x="98.1577" y="862.5122">to</text><text fill="#2C3E50" font-family="sans-serif" font-size="13" lengthAdjust="spacing" textLength="26.8696" x="30.9551" y="877.645">new</text><text fill="#2C3E50" font-family="sans-serif" font-size="13" lengthAdjust="spacing" textLength="4.1323" x="57.8247" y="877.645">&#160;</text><text fill="#2C3E50" font-family="sans-serif" font-size="13" lengthAdjust="spacing" textLength="47.855" x="61.957" y="877.645">column</text><polygon fill="#2C3E50" points="283.3037,938.1094,293.3037,942.1094,283.3037,946.1094,287.3037,942.1094" style="stroke:#2C3E50;stroke-width:1;"/><line style="stroke:#2C3E50;stroke-width:2;" x1="144.2471" x2="289.3037" y1="942.1094" y2="942.1094"/><text fill="#2C3E50" font-family="sans-serif" font-size="13" lengthAdjust="spacing" textLength="25.2954" x="151.2471" y="906.7778">PUT</text><text fill="#2C3E50" font-family="sans-serif" font-size="13" lengthAdjust="spacing" textLength="103.4668" x="151.2471" y="921.9106">/tasks/:id/status</text><text fill="#2C3E50" font-family="sans-serif" font-size="13" lengthAdjust="spacing" textLength="32.6523" x="151.2471" y="937.0435">(with</text><text fill="#2C3E50" font-family="sans-serif" font-size="13" lengthAdjust="spacing" textLength="4.1323" x="183.8994" y="937.0435">&#160;</text><text fill="#2C3E50" font-family="sans-serif" font-size="13" lengthAdjust="spacing" textLength="29.7007" x="188.0317" y="937.0435">JWT)</text><polygon fill="#2C3E50" points="403.5732,982.375,413.5732,986.375,403.5732,990.375,407.5732,986.375" style="stroke:#2C3E50;stroke-width:1;"/><line style="stroke:#2C3E50;stroke-width:2;" x1="305.3037" x2="409.5732" y1="986.375" y2="986.375"/><text fill="#2C3E50" font-family="sans-serif" font-size="13" lengthAdjust="spacing" textLength="47.0806" x="312.3037" y="966.1763">Update</text><text fill="#2C3E50" font-family="sans-serif" font-size="13" lengthAdjust="spacing" textLength="4.1323" x="359.3843" y="966.1763">&#160;</text><text fill="#2C3E50" font-family="sans-serif" font-size="13" lengthAdjust="spacing" textLength="27.3647" x="363.5166" y="966.1763">task</text><text fill="#2C3E50" font-family="sans-serif" font-size="13" lengthAdjust="spacing" textLength="39.9458" x="312.3037" y="981.3091">status</text><polygon fill="#2C3E50" points="316.3037,1026.6406,306.3037,1030.6406,316.3037,1034.6406,312.3037,1030.6406" style="stroke:#2C3E50;stroke-width:1;"/><line style="stroke:#2C3E50;stroke-width:2;stroke-dasharray:2.0,2.0;" x1="310.3037" x2="419.5732" y1="1030.6406" y2="1030.6406"/><text fill="#2C3E50" font-family="sans-serif" font-size="13" lengthAdjust="spacing" textLength="51.4668" x="322.3037" y="1010.4419">Confirm</text><text fill="#2C3E50" font-family="sans-serif" font-size="13" lengthAdjust="spacing" textLength="45.8047" x="322.3037" y="1025.5747">update</text><line style="stroke:#2C3E50;stroke-width:2;" x1="305.3037" x2="347.3037" y1="1074.9063" y2="1074.9063"/><line style="stroke:#2C3E50;stroke-width:2;" x1="347.3037" x2="347.3037" y1="1074.9063" y2="1087.9063"/><line style="stroke:#2C3E50;stroke-width:2;" x1="306.3037" x2="347.3037" y1="1087.9063" y2="1087.9063"/><polygon fill="#2C3E50" points="316.3037,1083.9063,306.3037,1087.9063,316.3037,1091.9063,312.3037,1087.9063" style="stroke:#2C3E50;stroke-width:1;"/><text fill="#2C3E50" font-family="sans-serif" font-size="13" lengthAdjust="spacing" textLength="60.7153" x="312.3037" y="1054.7075">Generate</text><text fill="#2C3E50" font-family="sans-serif" font-size="13" lengthAdjust="spacing" textLength="79.8789" x="312.3037" y="1069.8403">notifications</text><polygon fill="#2C3E50" points="155.2471,1128.1719,145.2471,1132.1719,155.2471,1136.1719,151.2471,1132.1719" style="stroke:#2C3E50;stroke-width:1;"/><line style="stroke:#2C3E50;stroke-width:2;stroke-dasharray:2.0,2.0;" x1="149.2471" x2="299.3037" y1="1132.1719" y2="1132.1719"/><text fill="#2C3E50" font-family="sans-serif" font-size="13" lengthAdjust="spacing" textLength="43.9512" x="161.2471" y="1111.9731">Return</text><text fill="#2C3E50" font-family="sans-serif" font-size="13" lengthAdjust="spacing" textLength="54.0566" x="161.2471" y="1127.106">updated</text><text fill="#2C3E50" font-family="sans-serif" font-size="13" lengthAdjust="spacing" textLength="4.1323" x="215.3037" y="1127.106">&#160;</text><text fill="#2C3E50" font-family="sans-serif" font-size="13" lengthAdjust="spacing" textLength="27.3647" x="219.436" y="1127.106">task</text><polygon fill="#2C3E50" points="34.9551,1157.3047,24.9551,1161.3047,34.9551,1165.3047,30.9551,1161.3047" style="stroke:#2C3E50;stroke-width:1;"/><line style="stroke:#2C3E50;stroke-width:2;stroke-dasharray:2.0,2.0;" x1="28.9551" x2="138.2471" y1="1161.3047" y2="1161.3047"/><text fill="#2C3E50" font-family="sans-serif" font-size="13" lengthAdjust="spacing" textLength="47.0806" x="40.9551" y="1156.2388">Update</text><text fill="#2C3E50" font-family="sans-serif" font-size="13" lengthAdjust="spacing" textLength="4.1323" x="88.0356" y="1156.2388">&#160;</text><text fill="#2C3E50" font-family="sans-serif" font-size="13" lengthAdjust="spacing" textLength="13.3491" x="92.168" y="1156.2388">UI</text><rect fill="#EEEEEE" height="3" rx="7.5" ry="7.5" style="stroke:#EEEEEE;stroke-width:1;" width="601.6616" x="0" y="1189.8711"/><line style="stroke:#000000;stroke-width:1;" x1="0" x2="601.6616" y1="1189.8711" y2="1189.8711"/><line style="stroke:#000000;stroke-width:1;" x1="0" x2="601.6616" y1="1192.8711" y2="1192.8711"/><rect fill="#EEEEEE" height="23.1328" rx="7.5" ry="7.5" style="stroke:#000000;stroke-width:2;" width="207.1973" x="197.2322" y="1179.3047"/><text fill="#000000" font-family="sans-serif" font-size="13" font-weight="bold" lengthAdjust="spacing" textLength="188.6714" x="203.2322" y="1195.3716">Comment &amp; Collaboration</text><polygon fill="#2C3E50" points="122.2471,1244.7031,132.2471,1248.7031,122.2471,1252.7031,126.2471,1248.7031" style="stroke:#2C3E50;stroke-width:1;"/><line style="stroke:#2C3E50;stroke-width:2;" x1="23.9551" x2="128.2471" y1="1248.7031" y2="1248.7031"/><text fill="#2C3E50" font-family="sans-serif" font-size="13" lengthAdjust="spacing" textLength="25.397" x="30.9551" y="1228.5044">Add</text><text fill="#2C3E50" font-family="sans-serif" font-size="13" lengthAdjust="spacing" textLength="4.1323" x="56.3521" y="1228.5044">&#160;</text><text fill="#2C3E50" font-family="sans-serif" font-size="13" lengthAdjust="spacing" textLength="61.7627" x="60.4844" y="1228.5044">comment</text><text fill="#2C3E50" font-family="sans-serif" font-size="13" lengthAdjust="spacing" textLength="13.0508" x="30.9551" y="1243.6372">to</text><text fill="#2C3E50" font-family="sans-serif" font-size="13" lengthAdjust="spacing" textLength="4.1323" x="44.0059" y="1243.6372">&#160;</text><text fill="#2C3E50" font-family="sans-serif" font-size="13" lengthAdjust="spacing" textLength="27.3647" x="48.1382" y="1243.6372">task</text><polygon fill="#2C3E50" points="283.3037,1304.1016,293.3037,1308.1016,283.3037,1312.1016,287.3037,1308.1016" style="stroke:#2C3E50;stroke-width:1;"/><line style="stroke:#2C3E50;stroke-width:2;" x1="144.2471" x2="289.3037" y1="1308.1016" y2="1308.1016"/><text fill="#2C3E50" font-family="sans-serif" font-size="13" lengthAdjust="spacing" textLength="34.2646" x="151.2471" y="1272.77">POST</text><text fill="#2C3E50" font-family="sans-serif" font-size="13" lengthAdjust="spacing" textLength="132.0566" x="151.2471" y="1287.9028">/tasks/:id/comments</text><text fill="#2C3E50" font-family="sans-serif" font-size="13" lengthAdjust="spacing" textLength="32.6523" x="151.2471" y="1303.0356">(with</text><text fill="#2C3E50" font-family="sans-serif" font-size="13" lengthAdjust="spacing" textLength="4.1323" x="183.8994" y="1303.0356">&#160;</text><text fill="#2C3E50" font-family="sans-serif" font-size="13" lengthAdjust="spacing" textLength="29.7007" x="188.0317" y="1303.0356">JWT)</text><polygon fill="#2C3E50" points="403.5732,1348.3672,413.5732,1352.3672,403.5732,1356.3672,407.5732,1352.3672" style="stroke:#2C3E50;stroke-width:1;"/><line style="stroke:#2C3E50;stroke-width:2;" x1="305.3037" x2="409.5732" y1="1352.3672" y2="1352.3672"/><text fill="#2C3E50" font-family="sans-serif" font-size="13" lengthAdjust="spacing" textLength="37.2861" x="312.3037" y="1332.1685">Insert</text><text fill="#2C3E50" font-family="sans-serif" font-size="13" lengthAdjust="spacing" textLength="61.7627" x="312.3037" y="1347.3013">comment</text><polygon fill="#2C3E50" points="316.3037,1392.6328,306.3037,1396.6328,316.3037,1400.6328,312.3037,1396.6328" style="stroke:#2C3E50;stroke-width:1;"/><line style="stroke:#2C3E50;stroke-width:2;stroke-dasharray:2.0,2.0;" x1="310.3037" x2="419.5732" y1="1396.6328" y2="1396.6328"/><text fill="#2C3E50" font-family="sans-serif" font-size="13" lengthAdjust="spacing" textLength="51.4668" x="322.3037" y="1376.4341">Confirm</text><text fill="#2C3E50" font-family="sans-serif" font-size="13" lengthAdjust="spacing" textLength="56.8687" x="322.3037" y="1391.5669">insertion</text><polygon fill="#2C3E50" points="155.2471,1436.8984,145.2471,1440.8984,155.2471,1444.8984,151.2471,1440.8984" style="stroke:#2C3E50;stroke-width:1;"/><line style="stroke:#2C3E50;stroke-width:2;stroke-dasharray:2.0,2.0;" x1="149.2471" x2="299.3037" y1="1440.8984" y2="1440.8984"/><text fill="#2C3E50" font-family="sans-serif" font-size="13" lengthAdjust="spacing" textLength="43.9512" x="161.2471" y="1420.6997">Return</text><text fill="#2C3E50" font-family="sans-serif" font-size="13" lengthAdjust="spacing" textLength="61.7627" x="161.2471" y="1435.8325">comment</text><text fill="#2C3E50" font-family="sans-serif" font-size="13" lengthAdjust="spacing" textLength="4.1323" x="223.0098" y="1435.8325">&#160;</text><text fill="#2C3E50" font-family="sans-serif" font-size="13" lengthAdjust="spacing" textLength="29.2817" x="227.1421" y="1435.8325">data</text><line style="stroke:#2C3E50;stroke-width:2;" x1="144.2471" x2="186.2471" y1="1485.1641" y2="1485.1641"/><line style="stroke:#2C3E50;stroke-width:2;" x1="186.2471" x2="186.2471" y1="1485.1641" y2="1498.1641"/><line style="stroke:#2C3E50;stroke-width:2;" x1="145.2471" x2="186.2471" y1="1498.1641" y2="1498.1641"/><polygon fill="#2C3E50" points="155.2471,1494.1641,145.2471,1498.1641,155.2471,1502.1641,151.2471,1498.1641" style="stroke:#2C3E50;stroke-width:1;"/><text fill="#2C3E50" font-family="sans-serif" font-size="13" lengthAdjust="spacing" textLength="47.0806" x="151.2471" y="1464.9653">Update</text><text fill="#2C3E50" font-family="sans-serif" font-size="13" lengthAdjust="spacing" textLength="4.1323" x="198.3276" y="1464.9653">&#160;</text><text fill="#2C3E50" font-family="sans-serif" font-size="13" lengthAdjust="spacing" textLength="30.291" x="202.46" y="1464.9653">local</text><text fill="#2C3E50" font-family="sans-serif" font-size="13" lengthAdjust="spacing" textLength="32.9316" x="151.2471" y="1480.0981">state</text><polygon fill="#2C3E50" points="34.9551,1538.4297,24.9551,1542.4297,34.9551,1546.4297,30.9551,1542.4297" style="stroke:#2C3E50;stroke-width:1;"/><line style="stroke:#2C3E50;stroke-width:2;stroke-dasharray:2.0,2.0;" x1="28.9551" x2="133.2471" y1="1542.4297" y2="1542.4297"/><text fill="#2C3E50" font-family="sans-serif" font-size="13" lengthAdjust="spacing" textLength="47.9185" x="40.9551" y="1522.231">Display</text><text fill="#2C3E50" font-family="sans-serif" font-size="13" lengthAdjust="spacing" textLength="61.7627" x="40.9551" y="1537.3638">comment</text><line style="stroke:#2C3E50;stroke-width:2;" x1="144.2471" x2="186.2471" y1="1601.8281" y2="1601.8281"/><line style="stroke:#2C3E50;stroke-width:2;" x1="186.2471" x2="186.2471" y1="1601.8281" y2="1614.8281"/><line style="stroke:#2C3E50;stroke-width:2;" x1="144.2471" x2="186.2471" y1="1614.8281" y2="1614.8281"/><line style="stroke:#2C3E50;stroke-width:2;" x1="145.2471" x2="155.2471" y1="1614.8281" y2="1610.8281"/><line style="stroke:#2C3E50;stroke-width:2;" x1="145.2471" x2="155.2471" y1="1614.8281" y2="1618.8281"/><text fill="#2C3E50" font-family="sans-serif" font-size="13" lengthAdjust="spacing" textLength="73.0806" x="151.2471" y="1566.4966">WebSocket</text><text fill="#2C3E50" font-family="sans-serif" font-size="13" lengthAdjust="spacing" textLength="64.7524" x="151.2471" y="1581.6294">broadcast</text><text fill="#2C3E50" font-family="sans-serif" font-size="13" lengthAdjust="spacing" textLength="61.7627" x="151.2471" y="1596.7622">comment</text><path d="M246.0806,1581.5625 L246.0806,1591.5625 A7.5,7.5 0 0 0 253.5806,1599.0625 L519.5806,1599.0625 A7.5,7.5 0 0 0 527.0806,1591.5625 L527.0806,1584.0625 L517.0806,1574.0625 L253.5806,1574.0625 A7.5,7.5 0 0 0 246.0806,1581.5625 " fill="#FFFACD" style="stroke:#DAA520;stroke-width:0.5;"/><path d="M517.0806,1574.0625 L517.0806,1580.3125 A3.75,3.75 0 0 0 520.8306,1584.0625 L527.0806,1584.0625 L517.0806,1574.0625 " fill="#FFFACD" style="stroke:#DAA520;stroke-width:0.5;"/><text fill="#333333" font-family="sans-serif" font-size="13" lengthAdjust="spacing" textLength="260.7744" x="252.0806" y="1591.1294">Real-time notification to team members</text><polygon fill="#2C3E50" points="523.3057,1655.0938,533.3057,1659.0938,523.3057,1663.0938,527.3057,1659.0938" style="stroke:#2C3E50;stroke-width:1;"/><line style="stroke:#2C3E50;stroke-width:2;stroke-dasharray:2.0,2.0;" x1="139.2471" x2="529.3057" y1="1659.0938" y2="1659.0938"/><text fill="#2C3E50" font-family="sans-serif" font-size="13" lengthAdjust="spacing" textLength="47.0806" x="146.2471" y="1638.895">Update</text><text fill="#2C3E50" font-family="sans-serif" font-size="13" lengthAdjust="spacing" textLength="4.1323" x="193.3276" y="1638.895">&#160;</text><text fill="#2C3E50" font-family="sans-serif" font-size="13" lengthAdjust="spacing" textLength="27.3647" x="197.46" y="1638.895">task</text><text fill="#2C3E50" font-family="sans-serif" font-size="13" lengthAdjust="spacing" textLength="68.5356" x="146.2471" y="1654.0278">comments</text><!--SRC=[jLPTRzem57tFhx2OD6qFY8-khOh4f12WwxHgNGFjiqbkmIAncUsixQRzzrqxJaWAGV0mFq2mxxddt7ji1xLcV4CbJOc2dndm27mfnVDinQ8r1wL8trDbY1GPZoCXEKZIEwyifFJb5eFf4aBs6qYls_KggpJIGf8_7i4nej5wQVC48i7PTxt9LNSwpTU4Z46w-MxtuY88xFnKSErcftPuVwlfyLEpY6qerqqadm9_UjxT9UbFBiTd_MD8OghfWYfeOhWA-fUZFGmNVczqvH_3KFJ_6jDkTl9Fx6WChr86TZI5VW6AeHKjPtRK_38xm1LQD2eucxW6Lg1kjbO65xgnILYp7untcpJs_VF-JdOd3BDhfXCmKXAw499gzWl8ZAerkQKSzrmAw7pugZIaf4r2LoqPCxf4HPwNxx-v0kbLzqhh7d25J2LI0ezRXAhoHprmyhAHvYoOWef8z-oL6wDr9vHUIWX_VBC1uv7d3OUMblYPNg585g5smSbmwDdfzkUIS40c-2r9924saJHHHZVxHR6TfQhYmI2TW06v-nxEI8SYHISHIyQtk4AZ-pQeyMX07a2ofzVzLAXwF2BjQlvxq9da93EAJRLU3DNmCdcj6WVw-ZWZMk1w5LJ8sbQ3KDEG0NgcDWbzHHwrMWWguogkR8Ffg_K_a91tz4wAo3YqjxDXjaYP9jeWOj2KdTfRWrJampFJArFHnuCTBh4FD66n2Sg9JUVU6773KQiJ9W4lrlYW4O7WJqocX5aObdsA4xNgJpF3GgESdBxbtJKbr5HdYimtjlYzZembNUPfjI0SdZ5xagNyQ5VcXIcT0OixAYSyqX_JUAVDAiZHHpK-ix2chbS0ru2lIBEEjo5xSiTU7JOeJnvRKKSQvCgOtpGQ4eZKtexlgxTdqmtanp4QaGFG5olaz7DYBN5fJZB5dGO7_NydeIZnxLrMoAfLk4MxPYSYeedTD73ep1HLL79Lapt28XH8fyb22Xf7L6qBjszGoPOhRIJJfArPMjz9rXqm_xiWNO1KNbr9QsRMRlErLdst5yRisp7_0000]--></g></svg>