<svg xmlns="http://www.w3.org/2000/svg" xmlns:xlink="http://www.w3.org/1999/xlink" contentStyleType="text/css" data-diagram-type="STATE" height="1814px" preserveAspectRatio="none" style="width:1323px;height:1814px;background:#FFFFFF;" version="1.1" viewBox="0 0 1323 1814" width="1323px" zoomAndPan="magnify"><title>Collaborative Task Management System - State Chart Diagram</title><defs/><g><text fill="#000000" font-family="sans-serif" font-size="14" font-weight="bold" lengthAdjust="spacing" textLength="495.5029" x="406.8159" y="22.9951">Collaborative Task Management System - State Chart Diagram</text><!--cluster Authentication--><g id="cluster_Authentication"><path d="M266.5,118.2969 L675.5,118.2969 A12.5,12.5 0 0 1 688,130.7969 L688,137.2656 L254,137.2656 L254,130.7969 A12.5,12.5 0 0 1 266.5,118.2969 " fill="#E3F2FD" style="stroke:#E3F2FD;stroke-width:1;"/><rect fill="transparent" height="322" rx="12.5" ry="12.5" style="stroke:#1E88E5;stroke-width:0.5;" width="434" x="254" y="118.2969"/><line style="stroke:#1E88E5;stroke-width:0.5;" x1="254" x2="688" y1="137.2656" y2="137.2656"/><text fill="#212121" font-family="sans-serif" font-size="12" lengthAdjust="spacing" textLength="88.0898" x="426.9551" y="133.4355">Authentication</text></g><!--cluster TaskManagement--><g id="cluster_TaskManagement"><path d="M19.5,735.2969 L596.5,735.2969 A12.5,12.5 0 0 1 609,747.7969 L609,754.2656 L7,754.2656 L7,747.7969 A12.5,12.5 0 0 1 19.5,735.2969 " fill="#E3F2FD" style="stroke:#E3F2FD;stroke-width:1;"/><rect fill="transparent" height="1073" rx="12.5" ry="12.5" style="stroke:#1E88E5;stroke-width:0.5;" width="602" x="7" y="735.2969"/><line style="stroke:#1E88E5;stroke-width:0.5;" x1="7" x2="609" y1="754.2656" y2="754.2656"/><text fill="#212121" font-family="sans-serif" font-size="12" lengthAdjust="spacing" textLength="110.748" x="252.626" y="750.4355">Task Management</text></g><ellipse cx="462" cy="168.2969" fill="#222222" rx="10" ry="10" style="stroke:#222222;stroke-width:1;"/><g id="Authentication.LoginScreen"><rect fill="#E3F2FD" height="50" rx="12.5" ry="12.5" style="stroke:#1E88E5;stroke-width:0.5;" width="94.1035" x="415" y="239.2969"/><line style="stroke:#1E88E5;stroke-width:0.5;" x1="415" x2="509.1035" y1="263.2656" y2="263.2656"/><text fill="#212121" font-family="sans-serif" font-size="12" lengthAdjust="spacing" textLength="74.1035" x="425" y="255.4355">LoginScreen</text></g><g id="Authentication.Authenticated"><rect fill="#E3F2FD" height="50" rx="12.5" ry="12.5" style="stroke:#1E88E5;stroke-width:0.5;" width="104.8086" x="316.5" y="366.2969"/><line style="stroke:#1E88E5;stroke-width:0.5;" x1="316.5" x2="421.3086" y1="390.2656" y2="390.2656"/><text fill="#212121" font-family="sans-serif" font-size="12" lengthAdjust="spacing" textLength="84.8086" x="326.5" y="382.4355">Authenticated</text></g><g id="Authentication.LoginFailed"><rect fill="#E3F2FD" height="50" rx="12.5" ry="12.5" style="stroke:#1E88E5;stroke-width:0.5;" width="88.5078" x="493.5" y="366.2969"/><line style="stroke:#1E88E5;stroke-width:0.5;" x1="493.5" x2="582.0078" y1="390.2656" y2="390.2656"/><text fill="#212121" font-family="sans-serif" font-size="12" lengthAdjust="spacing" textLength="68.5078" x="503.5" y="382.4355">LoginFailed</text></g><g id="TaskManagement.TaskDraft"><rect fill="#FFEBEE" height="75.875" rx="12.5" ry="12.5" style="stroke:#1E88E5;stroke-width:0.5;" width="159.7402" x="411" y="1013.2969"/><line style="stroke:#1E88E5;stroke-width:0.5;" x1="411" x2="570.7402" y1="1037.2656" y2="1037.2656"/><text fill="#212121" font-family="sans-serif" font-size="12" lengthAdjust="spacing" textLength="30.457" x="475.6416" y="1029.4355">Draft</text><text fill="#212121" font-family="sans-serif" font-size="12" lengthAdjust="spacing" textLength="139.7402" x="416" y="1053.4043">entry / create template</text><text fill="#212121" font-family="sans-serif" font-size="12" lengthAdjust="spacing" textLength="93.4629" x="416" y="1067.373">do / edit details</text><text fill="#212121" font-family="sans-serif" font-size="12" lengthAdjust="spacing" textLength="118.3359" x="416" y="1081.3418">exit / validate fields</text></g><g id="TaskManagement.TaskToDo"><rect fill="#E8F5E9" height="75.875" rx="12.5" ry="12.5" style="stroke:#1E88E5;stroke-width:0.5;" width="151.7539" x="316" y="1166.2969"/><line style="stroke:#1E88E5;stroke-width:0.5;" x1="316" x2="467.7539" y1="1190.2656" y2="1190.2656"/><text fill="#212121" font-family="sans-serif" font-size="12" lengthAdjust="spacing" textLength="35.0684" x="374.3428" y="1182.4355">To Do</text><text fill="#212121" font-family="sans-serif" font-size="12" lengthAdjust="spacing" textLength="108.8555" x="321" y="1206.4043">entry / set priority</text><text fill="#212121" font-family="sans-serif" font-size="12" lengthAdjust="spacing" textLength="127.541" x="321" y="1220.373">do / assign resources</text><text fill="#212121" font-family="sans-serif" font-size="12" lengthAdjust="spacing" textLength="131.7539" x="321" y="1234.3418">exit / notify assignees</text></g><g id="TaskManagement.TaskInProgress"><rect fill="#E3F2FD" height="75.875" rx="12.5" ry="12.5" style="stroke:#1E88E5;stroke-width:0.5;" width="176.7617" x="245.5" y="1319.2969"/><line style="stroke:#1E88E5;stroke-width:0.5;" x1="245.5" x2="422.2617" y1="1343.2656" y2="1343.2656"/><text fill="#212121" font-family="sans-serif" font-size="12" lengthAdjust="spacing" textLength="66.9082" x="300.4268" y="1335.4355">In Progress</text><text fill="#212121" font-family="sans-serif" font-size="12" lengthAdjust="spacing" textLength="107.209" x="250.5" y="1359.4043">entry / start timer</text><text fill="#212121" font-family="sans-serif" font-size="12" lengthAdjust="spacing" textLength="125.0566" x="250.5" y="1373.373">do / update progress</text><text fill="#212121" font-family="sans-serif" font-size="12" lengthAdjust="spacing" textLength="156.7617" x="250.5" y="1387.3418">exit / calculate time spent</text></g><g id="TaskManagement.TaskUnderReview"><rect fill="#FFF8E1" height="75.875" rx="12.5" ry="12.5" style="stroke:#1E88E5;stroke-width:0.5;" width="176.0996" x="338" y="1472.2969"/><line style="stroke:#1E88E5;stroke-width:0.5;" x1="338" x2="514.0996" y1="1496.2656" y2="1496.2656"/><text fill="#212121" font-family="sans-serif" font-size="12" lengthAdjust="spacing" textLength="83.4902" x="384.3047" y="1488.4355">Under Review</text><text fill="#212121" font-family="sans-serif" font-size="12" lengthAdjust="spacing" textLength="140.0449" x="343" y="1512.4043">entry / notify reviewers</text><text fill="#212121" font-family="sans-serif" font-size="12" lengthAdjust="spacing" textLength="124.8633" x="343" y="1526.373">do / collect feedback</text><text fill="#212121" font-family="sans-serif" font-size="12" lengthAdjust="spacing" textLength="156.0996" x="343" y="1540.3418">exit / compile review data</text></g><g id="TaskManagement.TaskCompleted"><rect fill="#E8EAF6" height="75.875" rx="12.5" ry="12.5" style="stroke:#1E88E5;stroke-width:0.5;" width="182.1172" x="335" y="1625.2969"/><line style="stroke:#1E88E5;stroke-width:0.5;" x1="335" x2="517.1172" y1="1649.2656" y2="1649.2656"/><text fill="#212121" font-family="sans-serif" font-size="12" lengthAdjust="spacing" textLength="65.4492" x="393.334" y="1641.4355">Completed</text><text fill="#212121" font-family="sans-serif" font-size="12" lengthAdjust="spacing" textLength="162.1172" x="340" y="1665.4043">entry / verify requirements</text><text fill="#212121" font-family="sans-serif" font-size="12" lengthAdjust="spacing" textLength="149.9063" x="340" y="1679.373">do / document outcomes</text><text fill="#212121" font-family="sans-serif" font-size="12" lengthAdjust="spacing" textLength="161.0273" x="340" y="1693.3418">exit / prepare for archiving</text></g><g id="TaskManagement.TaskError"><rect fill="#FFCDD2" height="75.875" rx="12.5" ry="12.5" style="stroke:#1E88E5;stroke-width:0.5;" width="154.7598" x="107.5" y="1472.2969"/><line style="stroke:#1E88E5;stroke-width:0.5;" x1="107.5" x2="262.2598" y1="1496.2656" y2="1496.2656"/><text fill="#212121" font-family="sans-serif" font-size="12" lengthAdjust="spacing" textLength="29.7246" x="170.0176" y="1488.4355">Error</text><text fill="#212121" font-family="sans-serif" font-size="12" lengthAdjust="spacing" textLength="96.334" x="112.5" y="1512.4043">entry / log issue</text><text fill="#212121" font-family="sans-serif" font-size="12" lengthAdjust="spacing" textLength="131.3789" x="112.5" y="1526.373">do / attempt recovery</text><text fill="#212121" font-family="sans-serif" font-size="12" lengthAdjust="spacing" textLength="134.7598" x="112.5" y="1540.3418">exit / report resolution</text></g><ellipse cx="491" cy="785.2969" fill="#222222" rx="10" ry="10" style="stroke:#222222;stroke-width:1;"/><ellipse cx="426" cy="1773.2969" fill="transparent" rx="11" ry="11" style="stroke:#222222;stroke-width:1;"/><ellipse cx="426" cy="1773.2969" fill="#222222" rx="6" ry="6" style="stroke:#222222;stroke-width:1;"/><g id="Dashboard"><rect fill="#E3F2FD" height="61.9063" rx="12.5" ry="12.5" style="stroke:#1E88E5;stroke-width:0.5;" width="157.7949" x="522" y="495.2969"/><line style="stroke:#1E88E5;stroke-width:0.5;" x1="522" x2="679.7949" y1="519.2656" y2="519.2656"/><text fill="#212121" font-family="sans-serif" font-size="12" lengthAdjust="spacing" textLength="65.3145" x="568.2402" y="511.4355">Dashboard</text><text fill="#212121" font-family="sans-serif" font-size="12" lengthAdjust="spacing" textLength="134.3613" x="527" y="535.4043">entry / load user tasks</text><text fill="#212121" font-family="sans-serif" font-size="12" lengthAdjust="spacing" textLength="137.7949" x="527" y="549.373">exit / save preferences</text></g><path d="M735.5,634.2969 L1056.0571,634.2969 A12.5,12.5 0 0 1 1068.5571,646.7969 L1068.5571,658.2656 L723,658.2656 L723,646.7969 A12.5,12.5 0 0 1 735.5,634.2969 " fill="#E3F2FD" style="stroke:#E3F2FD;stroke-width:1;"/><rect fill="transparent" height="301.9688" rx="12.5" ry="12.5" style="stroke:#1E88E5;stroke-width:0.5;" width="345.5571" x="723" y="634.2969"/><line style="stroke:#1E88E5;stroke-width:0.5;" x1="723" x2="1068.5571" y1="658.2656" y2="658.2656"/><text fill="#212121" font-family="sans-serif" font-size="12" lengthAdjust="spacing" textLength="117.416" x="837.0706" y="650.4355">Notification System</text><g id="NotificationSystem.NotificationIdle"><rect fill="#E3F2FD" height="50" rx="12.5" ry="12.5" style="stroke:#1E88E5;stroke-width:0.5;" width="50" x="828.5" y="670.2656"/><line style="stroke:#1E88E5;stroke-width:0.5;" x1="828.5" x2="878.5" y1="694.2344" y2="694.2344"/><text fill="#212121" font-family="sans-serif" font-size="12" lengthAdjust="spacing" textLength="21.873" x="842.5635" y="686.4043">Idle</text></g><g id="NotificationSystem.NotificationProcessing"><rect fill="#E3F2FD" height="50" rx="12.5" ry="12.5" style="stroke:#1E88E5;stroke-width:0.5;" width="84.5527" x="735" y="773.2656"/><line style="stroke:#1E88E5;stroke-width:0.5;" x1="735" x2="819.5527" y1="797.2344" y2="797.2344"/><text fill="#212121" font-family="sans-serif" font-size="12" lengthAdjust="spacing" textLength="64.5527" x="745" y="789.4043">Processing</text></g><g id="NotificationSystem.NotificationSending"><rect fill="#E3F2FD" height="50" rx="12.5" ry="12.5" style="stroke:#1E88E5;stroke-width:0.5;" width="68.7793" x="822" y="876.2656"/><line style="stroke:#1E88E5;stroke-width:0.5;" x1="822" x2="890.7793" y1="900.2344" y2="900.2344"/><text fill="#212121" font-family="sans-serif" font-size="12" lengthAdjust="spacing" textLength="48.7793" x="832" y="892.4043">Sending</text></g><!--link NotificationIdle to NotificationProcessing--><g id="link_NotificationIdle_NotificationProcessing"><path d="M828.44,702.0056 C809.7,707.7656 785.35,718.6656 773.5,738.2656 C767.29,748.5456 766.4645,755.8621 768.6245,767.1721 " fill="transparent" id="NotificationIdle-to-NotificationProcessing" style="stroke:#555555;stroke-width:1;"/><polygon fill="#555555" points="769.75,773.0656,771.9907,763.475,768.812,768.1544,764.1327,764.9758,769.75,773.0656" style="stroke:#555555;stroke-width:1;"/><text fill="#000000" font-family="sans-serif" font-size="13" lengthAdjust="spacing" textLength="146.8784" x="774.5" y="751.3325">state change detected</text></g><!--link NotificationProcessing to NotificationSending--><g id="link_NotificationProcessing_NotificationSending"><path d="M775.59,823.3456 C775.82,834.7556 777.83,848.0856 784.5,858.2656 C793.31,871.6956 802.6034,878.7739 816.4434,885.4339 " fill="transparent" id="NotificationProcessing-to-NotificationSending" style="stroke:#555555;stroke-width:1;"/><polygon fill="#555555" points="821.85,888.0356,815.4746,880.5287,817.3445,885.8675,812.0057,887.7374,821.85,888.0356" style="stroke:#555555;stroke-width:1;"/><text fill="#000000" font-family="sans-serif" font-size="13" lengthAdjust="spacing" textLength="135.167" x="785.5" y="854.3325">prepare notifications</text></g><!--link NotificationSending to NotificationIdle--><g id="link_NotificationSending_NotificationIdle"><path d="M891.31,886.2156 C903.07,879.5956 914.88,870.4156 921.5,858.2656 C947,811.4256 947.48,784.8456 921.5,738.2656 C912.38,721.9056 899.4804,713.4661 884.1204,706.9261 " fill="transparent" id="NotificationSending-to-NotificationIdle" style="stroke:#555555;stroke-width:1;"/><polygon fill="#555555" points="878.6,704.5756,885.3137,711.7817,883.2004,706.5344,888.4476,704.4211,878.6,704.5756" style="stroke:#555555;stroke-width:1;"/><text fill="#000000" font-family="sans-serif" font-size="13" lengthAdjust="spacing" textLength="117.0571" x="941.5" y="802.8325">delivery complete</text></g><g id="ArchivedTask"><rect fill="#EFEBE9" height="75.875" rx="12.5" ry="12.5" style="stroke:#1E88E5;stroke-width:0.5;" width="177.6055" x="633" y="1013.2969"/><line style="stroke:#1E88E5;stroke-width:0.5;" x1="633" x2="810.6055" y1="1037.2656" y2="1037.2656"/><text fill="#212121" font-family="sans-serif" font-size="12" lengthAdjust="spacing" textLength="52.7813" x="695.4121" y="1029.4355">Archived</text><text fill="#212121" font-family="sans-serif" font-size="12" lengthAdjust="spacing" textLength="132.3105" x="638" y="1053.4043">entry / compress data</text><text fill="#212121" font-family="sans-serif" font-size="12" lengthAdjust="spacing" textLength="157.6055" x="638" y="1067.373">do / apply retention policy</text><text fill="#212121" font-family="sans-serif" font-size="12" lengthAdjust="spacing" textLength="129.9082" x="638" y="1081.3418">exit / purge if expired</text></g><ellipse cx="680" cy="53.2969" fill="#222222" rx="10" ry="10" style="stroke:#222222;stroke-width:1;"/><ellipse cx="722" cy="1204.2969" fill="transparent" rx="11" ry="11" style="stroke:#222222;stroke-width:1;"/><ellipse cx="722" cy="1204.2969" fill="#222222" rx="6" ry="6" style="stroke:#222222;stroke-width:1;"/><g id="elem_GMN2"><path d="M1132,1031.2969 L1132,1071.5625 L1316.1348,1071.5625 L1316.1348,1041.2969 L1306.1348,1031.2969 L1132,1031.2969 " fill="#FFFDE7" style="stroke:#FBC02D;stroke-width:0.5;"/><path d="M1306.1348,1031.2969 L1306.1348,1041.2969 L1316.1348,1041.2969 L1306.1348,1031.2969 " fill="#FFFDE7" style="stroke:#FBC02D;stroke-width:1;"/><text fill="#000000" font-family="sans-serif" font-size="13" lengthAdjust="spacing" textLength="159.0024" x="1138" y="1048.3638">Task can remain in draft</text><text fill="#000000" font-family="sans-serif" font-size="13" lengthAdjust="spacing" textLength="111.1729" x="1138" y="1063.4966">for up to 30 days</text></g><g id="elem_GMN5"><path d="M633,1337.2969 L633,1353.2969 L422.66,1357.2969 L633,1361.2969 L633,1377.5625 A0,0 0 0 0 633,1377.5625 L821.4575,1377.5625 A0,0 0 0 0 821.4575,1377.5625 L821.4575,1347.2969 L811.4575,1337.2969 L633,1337.2969 A0,0 0 0 0 633,1337.2969 " fill="#FFFDE7" style="stroke:#FBC02D;stroke-width:0.5;"/><path d="M811.4575,1337.2969 L811.4575,1347.2969 L821.4575,1347.2969 L811.4575,1337.2969 " fill="#FFFDE7" style="stroke:#FBC02D;stroke-width:0.5;"/><text fill="#000000" font-family="sans-serif" font-size="13" lengthAdjust="spacing" textLength="167.4575" x="639" y="1354.3638">Automatic status updates</text><text fill="#000000" font-family="sans-serif" font-size="13" lengthAdjust="spacing" textLength="130.3237" x="639" y="1369.4966">sent every 24 hours</text></g><g id="elem_GMN8"><path d="M633,1482.7969 L633,1538.1953 L848.9683,1538.1953 L848.9683,1492.7969 L838.9683,1482.7969 L633,1482.7969 " fill="#FFFDE7" style="stroke:#FBC02D;stroke-width:0.5;"/><path d="M838.9683,1482.7969 L838.9683,1492.7969 L848.9683,1492.7969 L838.9683,1482.7969 " fill="#FFFDE7" style="stroke:#FBC02D;stroke-width:1;"/><text fill="#000000" font-family="sans-serif" font-size="13" lengthAdjust="spacing" textLength="181.4287" x="639" y="1499.8638">System attempts automatic</text><text fill="#000000" font-family="sans-serif" font-size="13" lengthAdjust="spacing" textLength="156.1079" x="639" y="1514.9966">recovery 3 times before</text><text fill="#000000" font-family="sans-serif" font-size="13" lengthAdjust="spacing" textLength="194.9683" x="639" y="1530.1294">requiring manual intervention</text></g><g id="elem_GMN11"><path d="M845.5,1031.2969 L845.5,1047.2969 L811.48,1051.2969 L845.5,1055.2969 L845.5,1071.5625 A0,0 0 0 0 845.5,1071.5625 L1096.939,1071.5625 A0,0 0 0 0 1096.939,1071.5625 L1096.939,1041.2969 L1086.939,1031.2969 L845.5,1031.2969 A0,0 0 0 0 845.5,1031.2969 " fill="#FFFDE7" style="stroke:#FBC02D;stroke-width:0.5;"/><path d="M1086.939,1031.2969 L1086.939,1041.2969 L1096.939,1041.2969 L1086.939,1031.2969 " fill="#FFFDE7" style="stroke:#FBC02D;stroke-width:0.5;"/><text fill="#000000" font-family="sans-serif" font-size="13" lengthAdjust="spacing" textLength="169.3301" x="851.5" y="1048.3638">Tasks remain archived for</text><text fill="#000000" font-family="sans-serif" font-size="13" lengthAdjust="spacing" textLength="230.439" x="851.5" y="1063.4966">90 days before permanent deletion</text></g><!--link *start* to Authentication--><g id="link_*start*_Authentication"><path d="M680,63.5469 C680,70.1869 680,79.8419 680,90.6258 C680,96.0177 680,101.6919 680,107.4126 C680,110.2729 680,113.1448 680,115.9989 C680,116.7124 680,111.4248 680,112.1357 " fill="transparent" id="*start*-to-Authentication" style="stroke:#555555;stroke-width:1;"/><polygon fill="#555555" points="680,118.1357,684,109.1357,680,113.1357,676,109.1357,680,118.1357" style="stroke:#555555;stroke-width:1;"/></g><!--link *start*Authentication to LoginScreen--><g id="link_*start*Authentication_LoginScreen"><path d="M462,178.3069 C462,192.1869 462,213.2669 462,233.1369 " fill="transparent" id="*start*Authentication-to-LoginScreen" style="stroke:#555555;stroke-width:1;"/><polygon fill="#555555" points="462,239.1369,466,230.1369,462,234.1369,458,230.1369,462,239.1369" style="stroke:#555555;stroke-width:1;"/></g><!--link LoginScreen to Authenticated--><g id="link_LoginScreen_Authenticated"><path d="M414.81,272.5969 C387.09,279.5769 354.21,293.1269 337,319.2969 C327.42,333.8669 332.0533,346.9621 342.5433,361.1521 " fill="transparent" id="LoginScreen-to-Authenticated" style="stroke:#555555;stroke-width:1;"/><polygon fill="#555555" points="346.11,365.9769,343.9764,356.3619,343.1377,361.9562,337.5434,361.1175,346.11,365.9769" style="stroke:#555555;stroke-width:1;"/><text fill="#000000" font-family="sans-serif" font-size="13" lengthAdjust="spacing" textLength="107.3071" x="338" y="332.3638">valid credentials</text></g><!--link LoginScreen to LoginFailed--><g id="link_LoginScreen_LoginFailed"><path d="M455.16,289.3269 C452.42,303.7469 451.46,322.0069 459,336.2969 C466.52,350.5469 474.6043,358.5731 488.0543,366.9931 " fill="transparent" id="LoginScreen-to-LoginFailed" style="stroke:#555555;stroke-width:1;"/><polygon fill="#555555" points="493.14,370.1769,487.634,362.0108,488.902,367.5238,483.389,368.7917,493.14,370.1769" style="stroke:#555555;stroke-width:1;"/><text fill="#000000" font-family="sans-serif" font-size="13" lengthAdjust="spacing" textLength="119.1582" x="460" y="332.3638">invalid credentials</text></g><!--link LoginFailed to LoginScreen--><g id="link_LoginFailed_LoginScreen"><path d="M569.02,366.2869 C582.93,352.5269 594.18,334.9269 584,319.2969 C567.45,293.8669 541.6872,281.8738 514.8172,274.7038 " fill="transparent" id="LoginFailed-to-LoginScreen" style="stroke:#555555;stroke-width:1;"/><polygon fill="#555555" points="509.02,273.1569,516.6845,279.342,513.851,274.446,518.747,271.6125,509.02,273.1569" style="stroke:#555555;stroke-width:1;"/><text fill="#000000" font-family="sans-serif" font-size="13" lengthAdjust="spacing" textLength="31.478" x="588" y="332.3638">retry</text></g><!--link Authenticated to Dashboard--><g id="link_Authenticated_Dashboard"><path d="M408.44,416.3369 C428.56,428.4769 453.48,443.3569 476,456.2969 C498.57,469.2669 518.3899,480.3204 540.1299,492.2504 " fill="transparent" id="Authenticated-to-Dashboard" style="stroke:#555555;stroke-width:1;"/><polygon fill="#555555" points="545.39,495.1369,539.4243,487.3004,541.0066,492.7315,535.5756,494.3138,545.39,495.1369" style="stroke:#555555;stroke-width:1;"/></g><!--link *start*TaskManagement to TaskDraft--><g id="link_*start*TaskManagement_TaskDraft"><path d="M491,795.3869 C491,829.4769 491,944.9669 491,1007.1069 " fill="transparent" id="*start*TaskManagement-to-TaskDraft" style="stroke:#555555;stroke-width:1;"/><polygon fill="#555555" points="491,1013.1069,495,1004.1069,491,1008.1069,487,1004.1069,491,1013.1069" style="stroke:#555555;stroke-width:1;"/></g><!--link TaskDraft to TaskToDo--><g id="link_TaskDraft_TaskToDo"><path d="M466.53,1089.6269 C451.24,1112.9369 434.9208,1137.8398 419.6508,1161.1198 " fill="transparent" id="TaskDraft-to-TaskToDo" style="stroke:#555555;stroke-width:1;"/><polygon fill="#555555" points="416.36,1166.1369,424.6409,1160.8052,419.1023,1161.956,417.9515,1156.4175,416.36,1166.1369" style="stroke:#555555;stroke-width:1;"/><text fill="#000000" font-family="sans-serif" font-size="13" lengthAdjust="spacing" textLength="93.4692" x="446" y="1132.3638">save &amp; submit</text></g><!--link TaskToDo to TaskInProgress--><g id="link_TaskToDo_TaskInProgress"><path d="M377.66,1242.6269 C368.71,1265.9369 359.3731,1290.2565 350.4231,1313.5365 " fill="transparent" id="TaskToDo-to-TaskInProgress" style="stroke:#555555;stroke-width:1;"/><polygon fill="#555555" points="348.27,1319.1369,355.2332,1312.1717,350.0642,1314.4699,347.766,1309.3009,348.27,1319.1369" style="stroke:#555555;stroke-width:1;"/><text fill="#000000" font-family="sans-serif" font-size="13" lengthAdjust="spacing" textLength="61.7754" x="366" y="1285.3638">start task</text></g><!--link TaskInProgress to TaskUnderReview--><g id="link_TaskInProgress_TaskUnderReview"><path d="M309.85,1395.3569 C303.1,1410.5569 299.63,1427.9169 308,1442.2969 C315.29,1454.8169 321.0168,1461.6867 332.9068,1470.2267 " fill="transparent" id="TaskInProgress-to-TaskUnderReview" style="stroke:#555555;stroke-width:1;"/><polygon fill="#555555" points="337.78,1473.7269,332.8036,1465.2277,333.719,1470.81,328.1367,1471.7254,337.78,1473.7269" style="stroke:#555555;stroke-width:1;"/><text fill="#000000" font-family="sans-serif" font-size="13" lengthAdjust="spacing" textLength="114.0547" x="309" y="1438.3638">submit for review</text></g><!--link TaskUnderReview to TaskInProgress--><g id="link_TaskUnderReview_TaskInProgress"><path d="M434.43,1471.9969 C436,1456.7569 435.28,1439.4269 428,1425.2969 C422.13,1413.8969 417.8824,1407.8918 407.9724,1399.4718 " fill="transparent" id="TaskUnderReview-to-TaskInProgress" style="stroke:#555555;stroke-width:1;"/><polygon fill="#555555" points="403.4,1395.5869,407.6687,1404.4626,407.2104,1398.8243,412.8486,1398.366,403.4,1395.5869" style="stroke:#555555;stroke-width:1;"/><text fill="#000000" font-family="sans-serif" font-size="13" lengthAdjust="spacing" textLength="108.4497" x="435" y="1438.3638">request changes</text></g><!--link TaskInProgress to TaskError--><g id="link_TaskInProgress_TaskError"><path d="M245.31,1368.4269 C175.19,1378.4669 85.48,1396.5769 63,1425.2969 C43.03,1450.8069 66.7298,1469.2534 101.5798,1483.7434 " fill="transparent" id="TaskInProgress-to-TaskError" style="stroke:#555555;stroke-width:1;"/><polygon fill="#555555" points="107.12,1486.0469,100.3454,1478.8981,102.5032,1484.1273,97.274,1486.2851,107.12,1486.0469" style="stroke:#555555;stroke-width:1;"/><text fill="#000000" font-family="sans-serif" font-size="13" lengthAdjust="spacing" textLength="77.5176" x="64" y="1438.3638">report issue</text></g><!--link TaskError to TaskInProgress--><g id="link_TaskError_TaskInProgress"><path d="M189.63,1472.0169 C193.13,1456.2569 199.25,1438.5269 210,1425.2969 C219.72,1413.3369 227.1175,1406.4329 240.3575,1397.9529 " fill="transparent" id="TaskError-to-TaskInProgress" style="stroke:#555555;stroke-width:1;"/><polygon fill="#555555" points="245.41,1394.7169,235.6739,1396.2026,241.1996,1397.4136,239.9886,1402.9393,245.41,1394.7169" style="stroke:#555555;stroke-width:1;"/><text fill="#000000" font-family="sans-serif" font-size="13" lengthAdjust="spacing" textLength="84.8999" x="211" y="1438.3638">resolve issue</text></g><!--link TaskUnderReview to TaskCompleted--><g id="link_TaskUnderReview_TaskCompleted"><path d="M426,1548.6269 C426,1571.9369 426,1595.8569 426,1619.1369 " fill="transparent" id="TaskUnderReview-to-TaskCompleted" style="stroke:#555555;stroke-width:1;"/><polygon fill="#555555" points="426,1625.1369,430,1616.1369,426,1620.1369,422,1616.1369,426,1625.1369" style="stroke:#555555;stroke-width:1;"/><text fill="#000000" font-family="sans-serif" font-size="13" lengthAdjust="spacing" textLength="53.46" x="427" y="1591.3638">approve</text></g><!--link TaskCompleted to *end*TaskManagement--><g id="link_TaskCompleted_*end*TaskManagement"><path d="M426,1701.4669 C426,1722.9469 426,1742.3669 426,1756.1569 " fill="transparent" id="TaskCompleted-to-*end*TaskManagement" style="stroke:#555555;stroke-width:1;"/><polygon fill="#555555" points="426,1762.1569,430,1753.1569,426,1757.1569,422,1753.1569,426,1762.1569" style="stroke:#555555;stroke-width:1;"/></g><!--link Dashboard to TaskManagement--><g id="link_Dashboard_TaskManagement"><path d="M601,557.5369 C601,590.9719 601,646.4269 601,694.1256 C601,706.0503 601,717.4902 601,727.9801 C601,729.2914 601,730.5878 601,731.8684 C601,732.5087 601,733.1451 601,733.7774 C601,734.0936 601,728.4088 601,728.7229 " fill="transparent" id="Dashboard-to-TaskManagement" style="stroke:#555555;stroke-width:1;"/><polygon fill="#555555" points="601,734.7229,605,725.7229,601,729.7229,597,725.7229,601,734.7229" style="stroke:#555555;stroke-width:1;"/><text fill="#000000" font-family="sans-serif" font-size="13" lengthAdjust="spacing" textLength="102.3877" x="602" y="600.3638">create/edit task</text></g><!--link Authentication to Dashboard--><g id="link_Authentication_Dashboard"><path d="M688.1311,210.1963 C688.1834,210.5148 688.2356,210.8347 688.2879,211.1561 C688.4969,212.4419 688.7062,213.7516 688.9151,215.0845 C689.7509,220.416 690.5819,226.1182 691.376,232.139 C692.9641,244.1805 694.4044,257.4966 695.44,271.6706 C699.5825,328.3669 697.25,398.7919 672,456.2969 C665.5,471.0869 658.6151,480.2531 646.9151,491.0731 " fill="transparent" id="Authentication-to-Dashboard" style="stroke:#555555;stroke-width:1;"/><polygon fill="#555555" points="642.51,495.1469,651.8334,491.973,646.1809,491.7521,646.4018,486.0995,642.51,495.1469" style="stroke:#555555;stroke-width:1;"/><text fill="#000000" font-family="sans-serif" font-size="13" lengthAdjust="spacing" textLength="103.0796" x="698" y="332.3638">successful login</text></g><!--link TaskManagement to NotificationSystem--><g id="link_TaskManagement_NotificationSystem"><path d="M609.0488,785.2969 C609.2204,785.2969 609.3945,785.2969 609.5712,785.2969 C610.9844,785.2969 612.5584,785.2969 614.2827,785.2969 C621.1797,785.2969 630.4806,785.2969 641.5088,785.2969 C663.565,785.2969 686.53,785.2969 716.99,785.2969 " fill="transparent" id="TaskManagement-to-NotificationSystem" style="stroke:#555555;stroke-width:1;"/><polygon fill="#555555" points="722.99,785.2969,713.99,781.2969,717.99,785.2969,713.99,789.2969,722.99,785.2969" style="stroke:#555555;stroke-width:1;"/><text fill="#000000" font-family="sans-serif" font-size="13" lengthAdjust="spacing" textLength="85.0586" x="619.68" y="778.3638">trigger event</text></g><!--link TaskManagement to ArchivedTask--><g id="link_TaskManagement_ArchivedTask"><path d="M609.1609,804.1086 C609.2563,804.3169 609.3525,804.5267 609.4494,804.7381 C609.8369,805.5836 610.236,806.4541 610.646,807.3488 C611.4661,809.138 612.3304,811.0237 613.2358,812.9989 C620.4784,828.8003 630.3456,850.3275 641.1988,874.0056 C662.905,921.3619 686.0549,971.8675 702.5399,1007.8325 " fill="transparent" id="TaskManagement-to-ArchivedTask" style="stroke:#555555;stroke-width:1;"/><polygon fill="#555555" points="705.04,1013.2869,704.9261,1003.4387,702.9566,1008.7416,697.6537,1006.7721,705.04,1013.2869" style="stroke:#555555;stroke-width:1;"/><text fill="#000000" font-family="sans-serif" font-size="13" lengthAdjust="spacing" textLength="155.27" x="690" y="979.3638">retention period passed</text></g><!--link ArchivedTask to *end*--><g id="link_ArchivedTask_*end*"><path d="M722,1089.6269 C722,1123.8569 722,1166.3069 722,1187.1369 " fill="transparent" id="ArchivedTask-to-*end*" style="stroke:#555555;stroke-width:1;"/><polygon fill="#555555" points="722,1193.1369,726,1184.1369,722,1188.1369,718,1184.1369,722,1193.1369" style="stroke:#555555;stroke-width:1;"/><text fill="#000000" font-family="sans-serif" font-size="13" lengthAdjust="spacing" textLength="129.6382" x="723" y="1132.3638">purge expired tasks</text></g><!--link TaskDraft to GMN2--><g id="link_TaskDraft_GMN2"><path d="M546.59,1013.1969 C571.91,998.0669 603,982.4669 633.5,974.7969 C733.28,949.7069 997.34,947.3369 1096.5,974.7969 C1135.81,985.6869 1175.16,1012.2769 1199.53,1031.0369 " fill="transparent" id="TaskDraft-GMN2" style="stroke:#555555;stroke-width:1;stroke-dasharray:7.0,7.0;"/></g><!--link TaskError to GMN8--><g id="link_TaskError_GMN8"><path d="M244.83,1472.1669 C271.99,1457.0369 305.22,1441.4369 337.5,1433.7969 C440.43,1409.4269 472.19,1411.0769 575.5,1433.7969 C618.32,1443.2169 663.25,1464.8369 695.47,1482.6969 " fill="transparent" id="TaskError-GMN8" style="stroke:#555555;stroke-width:1;stroke-dasharray:7.0,7.0;"/></g><!--SRC=[VLVVR-Cs37xtNq7S0HimeBXhUjrwVHZGrWvGO1k6fVTqs8DYCuvGH_8aELqstFy-afPZnKxMGu6Q_4XzfFX3vr-rQPLJErYhyhLsjZFLassiWxUj3fXbtqEE6sqGDjRjL0CbAttcZtO-g83mRmRmEF7mlhXPBfOvQwohq4NfTN5tLzoIT6bDYBB5DV_BlcLJnunPwNyGhZzDLGyXEBtkKimYjLVEsRVe_rP-4gMn0MTybyjbNlmqHQNSbuzF7nTvbWKT6WGIDcfjdGfwZ_2Y_2lygeogSOScmEhW0-xW2bQIeQUjSW5ohMhod6LVV_WJhgv-XeSkR0cjIt9Y3V4NyAbKiZiO_69hRLQbGpGaJRwcxh22UzYhHbT0-egbgl5dREHxgNGZ5jfSj8cO2GkoSHZSWL2dfpCkLtwxjifLShSIsr4aOOrVzq2cxW0VeB6gWiwZWq0vzLFKtpeGo2lAUUjmWmvDYNuyuDta9jw1yd8xoUNmqH6TExKPCVB5fL0y5eN0896F72bqjgORRXlwOuQhB86m8geL1igRdtlguv1iiwkDngPYs3Vw7UczMCZjaTwBpIqrrjtojlYSi1FnICvZeDHewtGuJ352J7clQqFtvctdE7bJHpqtgd-zEKGqufpSiu7VdQt9ZpzIV3Q3Q9W02T54cT0Dt1f1xz2T1mhdhfKqjL5ymMLFl5HDsJLoGUGLV4j7pSX_CTJOy0VkDRuTsOkmbyb0k2kk4_gfTkGVq-H4ZivVW4iKD3yRB0Di42iUkPTSnpZihgMUYww14g1cOJmHfa5gk6CCHmbNIl6m_369ODID_FVeUlv_TTf9V_YpU0cWicKdBMIxGFJmF3Jof_waIIhBW-PnkTLxRUfP10LDQdTaBr-S-wSyNoJCUtaw9MhGtdSuG_Gb7hWt0qLLMWhmCFVJKoI6rWLfXQQJ6Spqae5xxDaixTz14nj6fj5tuBlrJWz0KGsuaogD1K_YR5R3Wy5fFVIE9OzzBLms7EABWGqfcleyIunB07s0SgjCBLTxoIozRDLIK-w7G_hpBxYd95EYKawZ8pQXf2U3_3Tkh649zljKoYILnpMR3FJdgi4PZ8KZX3ZHrFDKZ3FWg1hXApJLEMoKzyKyFKtYEU-vBm7otEUPLmJD1AmcNXA3gQzuCZaQMimaMZznDA2dNeGczGiscbj4nWtVHN853zArSRWC7x9WtnUy8_ijTA98bYJvawkFWsi2w_kqRHkUFO4V3dJDhMrqUJZZCqwKpb72z8Q-MnfMyguONmTNbNqpiVAIRNyVr_K7MSZITvCNrc2OFZHyLtBwDrt3iqQRREBrokbw6wONqvVZFT3ZjAvfl-2UTy_Kb9zgf_4b6Q1nR2jeQUrIV2Ums29yxPA7c8JuJihulGh22kncDhXeA_BAtobjw9K7bSmnql5GwLe85cu-qaqTV4Rb8c_VSnx7XkuVV7P7SPTIpvsFIvfLdkD4AQl59zZIE-F__ShO8BkOm3Y-FQZX2D8DinnkPAzxM2EHHz7mxk8QtodJqVzJj0dezdr6BvwRvZOcoGyPKb77wI7TvpuryKI-8pg8GwJcmPD3_WC0]--></g></svg>