<svg xmlns="http://www.w3.org/2000/svg" xmlns:xlink="http://www.w3.org/1999/xlink" contentStyleType="text/css" data-diagram-type="DESCRIPTION" height="1273px" preserveAspectRatio="none" style="width:973px;height:1273px;background:#FFFFFF;" version="1.1" viewBox="0 0 973 1273" width="973px" zoomAndPan="magnify"><defs/><g><!--cluster Collaborative Task Management System--><g id="cluster_Collaborative Task Management System"><rect fill="transparent" height="1136" rx="2.5" ry="2.5" style="stroke:#181818;stroke-width:1;" width="607" x="360" y="7"/><text fill="#000000" font-family="sans-serif" font-size="14" font-weight="bold" lengthAdjust="spacing" textLength="317.6729" x="504.6636" y="21.9951">Collaborative Task Management System</text></g><g id="elem_UC1"><ellipse cx="491.3829" cy="301.0766" fill="#F1F1F1" rx="98.3829" ry="22.0766" style="stroke:#181818;stroke-width:0.5;"/><text fill="#000000" font-family="sans-serif" font-size="14" lengthAdjust="spacing" textLength="160.4873" x="411.1392" y="303.9233">Manage User Accounts</text></g><g id="elem_UC2"><ellipse cx="491.5682" cy="384.0136" fill="#F1F1F1" rx="115.5682" ry="25.5136" style="stroke:#181818;stroke-width:0.5;"/><text fill="#000000" font-family="sans-serif" font-size="14" lengthAdjust="spacing" textLength="197.873" x="392.6317" y="386.8603">Create and Manage Projects</text></g><g id="elem_UC3"><ellipse cx="491.3988" cy="63.1798" fill="#F1F1F1" rx="93.8988" ry="21.1798" style="stroke:#181818;stroke-width:0.5;"/><text fill="#000000" font-family="sans-serif" font-size="14" lengthAdjust="spacing" textLength="150.5137" x="416.142" y="66.0264">Assign Roles to Users</text></g><g id="elem_UC4"><ellipse cx="491.2975" cy="141.8595" fill="#F1F1F1" rx="99.7975" ry="22.3595" style="stroke:#181818;stroke-width:0.5;"/><text fill="#000000" font-family="sans-serif" font-size="14" lengthAdjust="spacing" textLength="163.6113" x="409.4919" y="144.7062">Access System Reports</text></g><g id="elem_UC5"><ellipse cx="491.7348" cy="221.847" fill="#F1F1F1" rx="97.2348" ry="21.847" style="stroke:#181818;stroke-width:0.5;"/><text fill="#000000" font-family="sans-serif" font-size="14" lengthAdjust="spacing" textLength="157.9443" x="412.7626" y="224.6936">Monitor System Usage</text></g><g id="elem_UC6"><ellipse cx="491.6892" cy="468.1378" fill="#F1F1F1" rx="103.6892" ry="23.1378" style="stroke:#181818;stroke-width:0.5;"/><text fill="#000000" font-family="sans-serif" font-size="14" lengthAdjust="spacing" textLength="172.1563" x="405.611" y="470.9845">Create and Assign Tasks</text></g><g id="elem_UC7"><ellipse cx="491.5543" cy="546.8109" fill="#F1F1F1" rx="89.5543" ry="20.3109" style="stroke:#181818;stroke-width:0.5;"/><text fill="#000000" font-family="sans-serif" font-size="14" lengthAdjust="spacing" textLength="140.7314" x="421.1886" y="549.6575">Track Task Progress</text></g><g id="elem_UC8"><ellipse cx="491.4413" cy="626.0883" fill="#F1F1F1" rx="105.9413" ry="23.5883" style="stroke:#181818;stroke-width:0.5;"/><text fill="#000000" font-family="sans-serif" font-size="14" lengthAdjust="spacing" textLength="177.0713" x="402.9057" y="628.9349">Generate Project Reports</text></g><g id="elem_UC9"><ellipse cx="491.743" cy="707.9486" fill="#F1F1F1" rx="102.743" ry="22.9486" style="stroke:#181818;stroke-width:0.5;"/><text fill="#000000" font-family="sans-serif" font-size="14" lengthAdjust="spacing" textLength="170.085" x="406.7005" y="710.7953">Manage Team Workload</text></g><g id="elem_UC10"><ellipse cx="491.6967" cy="873.2393" fill="#F1F1F1" rx="91.6967" ry="20.7393" style="stroke:#181818;stroke-width:0.5;"/><text fill="#000000" font-family="sans-serif" font-size="14" lengthAdjust="spacing" textLength="145.5713" x="418.9111" y="876.086">View Assigned Tasks</text></g><g id="elem_UC11"><ellipse cx="491.3014" cy="948.9603" fill="#F1F1F1" rx="87.8014" ry="19.9603" style="stroke:#181818;stroke-width:0.5;"/><text fill="#000000" font-family="sans-serif" font-size="14" lengthAdjust="spacing" textLength="136.7461" x="422.9283" y="951.807">Update Task Status</text></g><g id="elem_UC12"><ellipse cx="491.4177" cy="1026.9835" fill="#F1F1F1" rx="102.9177" ry="22.9835" style="stroke:#181818;stroke-width:0.5;"/><text fill="#000000" font-family="sans-serif" font-size="14" lengthAdjust="spacing" textLength="170.4678" x="406.1838" y="1029.8302">Add Comments to Tasks</text></g><g id="elem_UC13"><ellipse cx="491.6086" cy="1106.0217" fill="#F1F1F1" rx="90.6086" ry="20.5217" style="stroke:#181818;stroke-width:0.5;"/><text fill="#000000" font-family="sans-serif" font-size="14" lengthAdjust="spacing" textLength="143.1172" x="420.05" y="1108.8684">Upload Attachments</text></g><g id="elem_UC14"><ellipse cx="491.6923" cy="791.9385" fill="#F1F1F1" rx="115.1923" ry="25.4385" style="stroke:#181818;stroke-width:0.5;"/><text fill="#000000" font-family="sans-serif" font-size="14" lengthAdjust="spacing" textLength="197.0664" x="393.1591" y="794.7851">Track Personal Performance</text></g><g id="elem_UC15"><ellipse cx="841.3603" cy="1101.7721" fill="#F1F1F1" rx="109.3603" ry="24.2721" style="stroke:#181818;stroke-width:0.5;"/><text fill="#000000" font-family="sans-serif" font-size="14" lengthAdjust="spacing" textLength="184.4951" x="749.1127" y="1104.6187">Receive Task Notifications</text></g><g id="elem_UC16"><ellipse cx="841.5774" cy="948.9155" fill="#F1F1F1" rx="77.5774" ry="17.9155" style="stroke:#181818;stroke-width:0.5;"/><text fill="#000000" font-family="sans-serif" font-size="14" lengthAdjust="spacing" textLength="112.5605" x="782.6703" y="952.5652">Track Deadlines</text></g><!--entity admin--><g id="elem_admin"><ellipse cx="262.3413" cy="192.5" fill="#F1F1F1" rx="8" ry="8" style="stroke:#181818;stroke-width:0.5;"/><path d="M262.3413,200.5 L262.3413,227.5 M249.3413,208.5 L275.3413,208.5 M262.3413,227.5 L249.3413,242.5 M262.3413,227.5 L275.3413,242.5 " fill="transparent" style="stroke:#181818;stroke-width:0.5;"/><text fill="#000000" font-family="sans-serif" font-size="14" lengthAdjust="spacing" textLength="95.6826" x="214.5" y="256.9951">Administrator</text></g><!--entity leader--><g id="elem_leader"><ellipse cx="52.04" cy="596.5" fill="#F1F1F1" rx="8" ry="8" style="stroke:#181818;stroke-width:0.5;"/><path d="M52.04,604.5 L52.04,631.5 M39.04,612.5 L65.04,612.5 M52.04,631.5 L39.04,646.5 M52.04,631.5 L65.04,646.5 " fill="transparent" style="stroke:#181818;stroke-width:0.5;"/><text fill="#000000" font-family="sans-serif" font-size="14" lengthAdjust="spacing" textLength="92.0801" x="6" y="660.9951">Team Leader</text></g><!--entity member--><g id="elem_member"><ellipse cx="262.709" cy="919.5" fill="#F1F1F1" rx="8" ry="8" style="stroke:#181818;stroke-width:0.5;"/><path d="M262.709,927.5 L262.709,954.5 M249.709,935.5 L275.709,935.5 M262.709,954.5 L249.709,969.5 M262.709,954.5 L275.709,969.5 " fill="transparent" style="stroke:#181818;stroke-width:0.5;"/><text fill="#000000" font-family="sans-serif" font-size="14" lengthAdjust="spacing" textLength="101.418" x="212" y="983.9951">Team Member</text></g><!--link admin to UC1--><g id="link_admin_UC1"><path d="M310.79,244.24 C323.99,250.06 338.43,256.08 352,261 C376,269.71 397.0824,276.2114 420.7124,282.8314 " fill="transparent" id="admin-to-UC1" style="stroke:#181818;stroke-width:1;"/><polygon fill="#181818" points="426.49,284.45,418.9027,278.1704,421.6754,283.1012,416.7446,285.8738,426.49,284.45" style="stroke:#181818;stroke-width:1;"/></g><!--link admin to UC2--><g id="link_admin_UC2"><path d="M283.71,260.23 C299.21,286.14 322.87,319.32 352,340 C368.25,351.54 381.9709,358.2437 401.0409,364.6337 " fill="transparent" id="admin-to-UC2" style="stroke:#181818;stroke-width:1;"/><polygon fill="#181818" points="406.73,366.54,399.4672,359.8878,401.9891,364.9514,396.9255,367.4733,406.73,366.54" style="stroke:#181818;stroke-width:1;"/></g><!--link admin to UC3--><g id="link_admin_UC3"><path d="M282.69,183.96 C298.01,157.3 321.87,122.84 352,102 C370.29,89.36 386.8102,82.3743 408.1402,76.5743 " fill="transparent" id="admin-to-UC3" style="stroke:#181818;stroke-width:1;"/><polygon fill="#181818" points="413.93,75,404.1958,73.5017,409.1052,76.312,406.2949,81.2214,413.93,75" style="stroke:#181818;stroke-width:1;"/></g><!--link admin to UC4--><g id="link_admin_UC4"><path d="M310.75,199.14 C323.94,193.17 338.39,187.02 352,182 C375.49,173.36 395.9828,166.9798 419.2728,160.4498 " fill="transparent" id="admin-to-UC4" style="stroke:#181818;stroke-width:1;"/><polygon fill="#181818" points="425.05,158.83,415.3043,157.4082,420.2357,160.1798,417.464,165.1112,425.05,158.83" style="stroke:#181818;stroke-width:1;"/></g><!--link admin to UC5--><g id="link_admin_UC5"><path d="M310.53,222 C334.82,222 359.37,222 388.37,222 " fill="transparent" id="admin-to-UC5" style="stroke:#181818;stroke-width:1;"/><polygon fill="#181818" points="394.37,222,385.37,218,389.37,222,385.37,226,394.37,222" style="stroke:#181818;stroke-width:1;"/></g><!--link leader to UC2--><g id="link_leader_UC2"><path d="M77.36,587.74 C90.62,569.14 108.33,547.52 128,532 C213.26,464.75 327.4806,425.3756 405.6706,404.0956 " fill="transparent" id="leader-to-UC2" style="stroke:#181818;stroke-width:1;"/><polygon fill="#181818" points="411.46,402.52,401.7254,401.0238,406.6355,403.833,403.8263,408.7431,411.46,402.52" style="stroke:#181818;stroke-width:1;"/></g><!--link leader to UC6--><g id="link_leader_UC6"><path d="M97.6,587.82 C107.2,580.85 117.6,574.17 128,569 C218.7,523.98 326.5703,497.5954 402.2103,482.8854 " fill="transparent" id="leader-to-UC6" style="stroke:#181818;stroke-width:1;"/><polygon fill="#181818" points="408.1,481.74,398.5019,479.5316,403.192,482.6945,400.0291,487.3845,408.1,481.74" style="stroke:#181818;stroke-width:1;"/></g><!--link leader to UC7--><g id="link_leader_UC7"><path d="M98.2,608.8 C107.93,605.53 118.23,602.39 128,600 C222.69,576.89 327.9536,563.0943 401.9836,555.2243 " fill="transparent" id="leader-to-UC7" style="stroke:#181818;stroke-width:1;"/><polygon fill="#181818" points="407.95,554.59,398.5776,551.5638,402.978,555.1186,399.4233,559.519,407.95,554.59" style="stroke:#181818;stroke-width:1;"/></g><!--link leader to UC8--><g id="link_leader_UC8"><path d="M98.17,626 C165.42,626 287.73,626 379.31,626 " fill="transparent" id="leader-to-UC8" style="stroke:#181818;stroke-width:1;"/><polygon fill="#181818" points="385.31,626,376.31,622,380.31,626,376.31,630,385.31,626" style="stroke:#181818;stroke-width:1;"/></g><!--link leader to UC9--><g id="link_leader_UC9"><path d="M98.17,634.47 C172.29,648.36 314.7227,675.0544 406.2527,692.2144 " fill="transparent" id="leader-to-UC9" style="stroke:#181818;stroke-width:1;"/><polygon fill="#181818" points="412.15,693.32,404.0412,687.7301,407.2356,692.3987,402.567,695.5931,412.15,693.32" style="stroke:#181818;stroke-width:1;"/></g><!--link member to UC10--><g id="link_member_UC10"><path d="M313.11,926.28 C325.66,920.93 339.22,915.48 352,911 C376.71,902.36 398.6487,895.9415 422.7787,889.5715 " fill="transparent" id="member-to-UC10" style="stroke:#181818;stroke-width:1;"/><polygon fill="#181818" points="428.58,888.04,418.8571,886.4697,423.7456,889.3162,420.8991,894.2047,428.58,888.04" style="stroke:#181818;stroke-width:1;"/></g><!--link member to UC11--><g id="link_member_UC11"><path d="M313.04,949 C339.39,949 366.57,949 397.09,949 " fill="transparent" id="member-to-UC11" style="stroke:#181818;stroke-width:1;"/><polygon fill="#181818" points="403.09,949,394.09,945,398.09,949,394.09,953,403.09,949" style="stroke:#181818;stroke-width:1;"/></g><!--link member to UC12--><g id="link_member_UC12"><path d="M313.21,970.9 C325.77,976.12 339.29,981.48 352,986 C375.63,994.41 396.1667,1000.8414 419.4467,1007.5814 " fill="transparent" id="member-to-UC12" style="stroke:#181818;stroke-width:1;"/><polygon fill="#181818" points="425.21,1009.25,417.6774,1002.9049,420.4072,1007.8595,415.4526,1010.5893,425.21,1009.25" style="stroke:#181818;stroke-width:1;"/></g><!--link member to UC13--><g id="link_member_UC13"><path d="M283.33,987.25 C298.73,1013.35 322.43,1046.74 352,1067 C370.96,1080 388.3688,1087.1585 410.3388,1092.9585 " fill="transparent" id="member-to-UC13" style="stroke:#181818;stroke-width:1;"/><polygon fill="#181818" points="416.14,1094.49,408.4591,1088.3252,411.3056,1093.2137,406.4171,1096.0602,416.14,1094.49" style="stroke:#181818;stroke-width:1;"/></g><!--link member to UC14--><g id="link_member_UC14"><path d="M284.63,910.95 C300.25,886.05 323.68,854.62 352,835 C368.14,823.82 381.6125,817.341 400.4525,811.121 " fill="transparent" id="member-to-UC14" style="stroke:#181818;stroke-width:1;"/><polygon fill="#181818" points="406.15,809.24,396.3497,808.2632,401.4021,810.8075,398.8577,815.8599,406.15,809.24" style="stroke:#181818;stroke-width:1;"/></g><!--link member to UC15--><g id="link_member_UC15"><path d="M268.47,987.02 C276.77,1033.25 298.25,1109.37 352,1144 C490.64,1233.33 693.711,1165.7202 786.961,1126.4202 " fill="transparent" id="member-to-UC15" style="stroke:#181818;stroke-width:1;"/><polygon fill="#181818" points="792.49,1124.09,782.643,1123.8993,787.8825,1126.0318,785.7499,1131.2713,792.49,1124.09" style="stroke:#181818;stroke-width:1;"/></g><!--link leader to UC15--><g id="link_leader_UC15"><path d="M58.23,664.3 C75.62,774.22 142.82,1089.65 352,1196 C490.77,1266.56 554.98,1233.2 702,1182 C740.81,1168.49 776.0776,1147.2326 803.1076,1128.8626 " fill="transparent" id="leader-to-UC15" style="stroke:#181818;stroke-width:1;"/><polygon fill="#181818" points="808.07,1125.49,798.378,1127.2405,803.9346,1128.3005,802.8747,1133.8571,808.07,1125.49" style="stroke:#181818;stroke-width:1;"/></g><!--link UC6 to UC15--><g id="link_UC6_UC15"><path d="M568.41,483.49 C582.8,489.43 596.58,497.64 607,509 C754.54,669.9 627.27,792.47 732,984 C752.43,1021.36 782.7111,1052.2276 807.3811,1074.2176 " fill="transparent" id="UC6-to-UC15" style="stroke:#181818;stroke-width:1;stroke-dasharray:7.0,7.0;"/><polygon fill="#181818" points="811.86,1078.21,807.8032,1069.2355,808.1275,1074.883,802.48,1075.2074,811.86,1078.21" style="stroke:#181818;stroke-width:1;"/><text fill="#000000" font-family="sans-serif" font-size="13" lengthAdjust="spacing" textLength="63.0068" x="638" y="543.0669">&#171;include&#187;</text></g><!--link UC11 to UC16--><g id="link_UC11_UC16"><path d="M579.87,949 C636.44,949 703.42,949 757.76,949 " fill="transparent" id="UC11-to-UC16" style="stroke:#181818;stroke-width:1;stroke-dasharray:7.0,7.0;"/><polygon fill="#181818" points="763.76,949,754.76,945,758.76,949,754.76,953,763.76,949" style="stroke:#181818;stroke-width:1;"/><text fill="#000000" font-family="sans-serif" font-size="13" lengthAdjust="spacing" textLength="63.0068" x="638" y="945.0669">&#171;include&#187;</text></g><!--link leader to member--><g id="link_leader_member"><path d="M76.82,664.16 C91.48,687.56 110.71,718.09 128,745 C165.28,803.05 199.2916,854.8692 226.2916,895.7592 " fill="transparent" id="leader-to-member" style="stroke:#181818;stroke-width:1;"/><polygon fill="transparent" points="236.21,910.78,231.2986,892.453,221.2847,899.0653,236.21,910.78" style="stroke:#181818;stroke-width:1;"/><text fill="#000000" font-family="sans-serif" font-size="13" lengthAdjust="spacing" textLength="52.0508" x="129" y="741.0669">extends</text></g><!--SRC=[RLHDRzim3BtxLn2vxDIYpbUxeWWGPC0mO1sAV7HdLc8IBR8KICgsOjj_doJBXcNd9l4za- -Hb2Nj7JWDHXoE3hWmn9pGgh0deSvei88piXCUQEFU9K60KHqa5GKofmsCbhmIIbXdq5z7W1OmH1fuIpx5Lq9EDIZZCKEVgNfBQ1MFHT6MWT5AIublsgSNFmcsQ4_mZCeBgaWvsBnRHzK8_XG07o3J0ZjBi49BrcCNIymVOLH_6p03IyRqHJaRI-zMPPUtCeIE01LFvU35w1zULiCUTzbBQyL1mLfBig6R8Nr3d6H4niZQ91lMTDQcpJZDT6ebWed4t5al8V5cdXVjTdfxtMp7H58O-jVKctUfM-F7NBVN6pqOhpBHxhkqpwJ8X9of6pqB3rTQ7LL-r-OaDVB4-vXPg1VWkeLNGR-IUEAP_FAkozkTUP0L3MmSkajBoyQwv1nMkWgx4mUL9Hpd2ODUM3g7x1Zv3MqoxDkB7xTMACDXhqs5YZNJAgUjrzxkNlMx9aRjed_JJkm5m_0Ys_ApOVbFVWUaKDHovatDDSdwwwCusxW8NzIHZ711eMV4jmetDukq_ztxk7UVzExJtZtjPVt2EpcomBmVkEy77lg1j2prlw7HUZU8b8F8U12P32BJQybdVGbbykRrm-rj7O57U7eIYiaBfyKYWcNPeFC16iUHDxyjyNVH27W4-kr8SLly-my0]--></g></svg>